<svg xmlns="http://www.w3.org/2000/svg" xmlns:xlink="http://www.w3.org/1999/xlink" width="295" height="330" viewBox="0 0 295 330">
  <defs>
    <clipPath id="clip-path">
      <rect id="Rectángulo_388595" data-name="Rectángulo 388595" width="295" height="330" transform="translate(1020 1582)" fill="#5840e2" opacity="0.38"/>
    </clipPath>
    <clipPath id="clip-path-2">
      <rect id="Rectángulo_383011" data-name="Rectángulo 383011" width="208.965" height="291.426" fill="#ffe2e2"/>
    </clipPath>
    <filter id="Trazado_657613" x="54.753" y="30.159" width="143.552" height="43.752" filterUnits="userSpaceOnUse">
      <feOffset dy="3" input="SourceAlpha"/>
      <feGaussianBlur stdDeviation="3" result="blur"/>
      <feFlood flood-opacity="0.161"/>
      <feComposite operator="in" in2="blur"/>
      <feComposite in="SourceGraphic"/>
    </filter>
    <filter id="Trazado_657614" x="209.069" y="55.911" width="93.931" height="33.86" filterUnits="userSpaceOnUse">
      <feOffset dy="3" input="SourceAlpha"/>
      <feGaussianBlur stdDeviation="3" result="blur-2"/>
      <feFlood flood-opacity="0.161"/>
      <feComposite operator="in" in2="blur-2"/>
      <feComposite in="SourceGraphic"/>
    </filter>
    <clipPath id="clip-path-3">
      <rect id="Rectángulo_382976" data-name="Rectángulo 382976" width="116.749" height="329.507" fill="none"/>
    </clipPath>
  </defs>
  <g id="_2" data-name="2" transform="translate(-1020 -1582)" clip-path="url(#clip-path)">
    <g id="Grupo_1098214" data-name="Grupo 1098214">
      <g id="Grupo_1098190" data-name="Grupo 1098190" transform="translate(1073.148 1602.894)">
        <g id="Grupo_1098190-2" data-name="Grupo 1098190" clip-path="url(#clip-path-2)">
          <path id="Trazado_829862" data-name="Trazado 829862" d="M54.334,197.55c-.391-18.125-39.143-31.774-34.1-76.572S72.52,56.8,97.22,51.5c0,0,73.289-14.494,107.965,10.584s17.117,78.312-3.656,114.691,27.126,60.718,4.12,100.345S100.611,333.65,58.424,301.268s-3.7-85.593-4.09-103.718" transform="translate(-19.78 -38.064)" fill="#ffe2e2"/>
          <path id="Trazado_829863" data-name="Trazado 829863" d="M2.535,891.444a70.336,70.336,0,0,0,27.28-11.254,69.728,69.728,0,0,0,10.944-9.405q1.246-1.31,2.426-2.679.59-.685,1.162-1.383.286-.35.568-.7c.011-.014.332-.422.416-.526a69.027,69.027,0,0,0,4.216-6.155c11.532-18.885,13.048-42.723,5.217-63.418-2.338-6.179-6.009-11.975-8.65-18.139a34.3,34.3,0,0,1-2.733-10.258A22.855,22.855,0,0,1,44.8,757.36a1.85,1.85,0,0,1,3.564.982,19.267,19.267,0,0,0,.438,8.876,44.118,44.118,0,0,0,3.077,8.23c2.71,5.683,6.074,10.988,8.5,16.817a80.491,80.491,0,0,1,5.984,34.473,77.151,77.151,0,0,1-9.31,33.637,76.95,76.95,0,0,1-20.738,23.8c-9.2,7.031-20.4,12.374-31.93,13.956-1.854.254-3.725-.448-4.267-2.423a3.5,3.5,0,0,1,2.423-4.267" transform="translate(142.519 -608.038)" fill="#ffe2e2"/>
          <path id="Trazado_829864" data-name="Trazado 829864" d="M366.55,1456.951a3.64,3.64,0,0,1,.48-.623,7.056,7.056,0,0,1,.623-.479,3.078,3.078,0,0,1,3.1,0,3.311,3.311,0,0,1,1.17,1.164l.076.108.177.252.3.716a2.273,2.273,0,0,1,.054,1.2,1.493,1.493,0,0,1-.2.757,2.248,2.248,0,0,1-.62.965l-.607.469-.717.3a2.272,2.272,0,0,1-1.2.054,2.234,2.234,0,0,1-1.115-.356l-.252-.177-.108-.076a3.306,3.306,0,0,1-1.164-1.17,3.077,3.077,0,0,1,0-3.1" transform="translate(-235.311 -1170.463)" fill="#ffe2e2"/>
          <path id="Trazado_829865" data-name="Trazado 829865" d="M672.08,21.045c3.447-2.654,6.845-5.354,10.531-7.677a86.516,86.516,0,0,1,11.506-6,114.134,114.134,0,0,1,12.426-4.621q3.007-.915,6.065-1.654A24.012,24.012,0,0,1,719.51.02a2.6,2.6,0,0,1,2.428,1.849,2.523,2.523,0,0,1-1.157,2.844,37.405,37.405,0,0,1-6.693,1.754Q711.02,7.154,708,8.022a105.382,105.382,0,0,0-11.852,4.159c-3.792,1.6-7.46,3.435-11.1,5.352a89.407,89.407,0,0,0-11.133,6.649,1.831,1.831,0,0,1-2.484-.651,1.86,1.86,0,0,1,.651-2.485" transform="translate(-644.467 0)" fill="#ffe2e2"/>
        </g>
      </g>
      <g id="Grupo_1098189" data-name="Grupo 1098189" transform="translate(0 -10.765)">
        <path id="Trazado_658762" data-name="Trazado 658762" d="M177.447,80.915,174.5,82.057a4.84,4.84,0,0,0-2.772,2.771l-1.142,2.952-1.141-2.952a4.846,4.846,0,0,0-2.772-2.771l-2.952-1.142,2.952-1.141A4.851,4.851,0,0,0,169.441,77l1.141-2.952L171.723,77a4.845,4.845,0,0,0,2.772,2.772Z" transform="translate(1090.466 1668.063)" fill="#ffd357"/>
        <path id="Trazado_658763" data-name="Trazado 658763" d="M32.711,53.058l-4.385,1.7a7.191,7.191,0,0,0-4.12,4.118l-1.7,4.387-1.7-4.387a7.2,7.2,0,0,0-4.12-4.118l-4.387-1.7,4.387-1.7a7.209,7.209,0,0,0,4.12-4.12l1.7-4.387,1.7,4.387a7.2,7.2,0,0,0,4.12,4.12Z" transform="translate(1112.692 1613.605)" fill="#ffd357"/>
        <g id="Grupo_996090" data-name="Grupo 996090" transform="translate(781.38 -2563.453)">
          <g transform="matrix(1, 0, 0, 1, 238.62, 4156.22)" filter="url(#Trazado_657613)">
            <path id="Trazado_657613-2" data-name="Trazado 657613" d="M179.845,25.74l-.652.013H54.293c8.33-10.072,24.551-13.028,35.663-5.9,6.134-7.025,12.907-13.892,21.5-17.512S130.9-.994,137.781,5.314c4.272,3.912,6.494,9.527,8.582,14.93,10.088-7.612,26.349-4.949,33.481,5.5" transform="translate(9.46 36.16)" fill="#fff"/>
          </g>
          <g transform="matrix(1, 0, 0, 1, 238.62, 4156.22)" filter="url(#Trazado_657614)">
            <path id="Trazado_657614-2" data-name="Trazado 657614" d="M198.6,69.459H122.666C128,63.7,134.29,57.64,142.094,57.753c5.745.072,10.84,3.561,15.237,7.259a36.468,36.468,0,0,1,15.917-10.2,20.55,20.55,0,0,1,10.173-.906c7.413,1.513,12.118,8.412,15.175,15.557" transform="translate(95.4 8.31)" fill="#fff"/>
          </g>
          <path id="Trazado_657615" data-name="Trazado 657615" d="M78.987,89.026H3.056C8.389,83.27,14.68,77.207,22.484,77.32c5.745.072,10.84,3.561,15.237,7.257a36.478,36.478,0,0,1,15.917-10.2,20.55,20.55,0,0,1,10.173-.906c7.413,1.513,12.118,8.412,15.175,15.557" transform="translate(244.944 4190.427)" fill="#fff"/>
        </g>
        <g id="Grupo_996089" data-name="Grupo 996089" transform="translate(1034 1590.502)">
          <g id="Grupo_1097996" data-name="Grupo 1097996" transform="translate(0)">
            <path id="Trazado_658691" data-name="Trazado 658691" d="M130.759,285.723s12.889-1.333,15.556-17.333-12-25.778-12-25.778l2.222,5.333-4.445-4.444s1.334,8.889-3.111,11.555-13.333,19.111-7.555,22.223a29.2,29.2,0,0,1,9.333,8.444" transform="translate(-32.26 0)" fill="#a06f3e"/>
            <path id="Trazado_658708" data-name="Trazado 658708" d="M183.7,173.5s-6.333-14.333-7.333-15.667c-.756-1.006-2.461-4.1-3.251-5.561a1.191,1.191,0,0,0-2.221.368c-.5,2.961-2.11,13.154-.973,14.86,1.334,2,13.778,6,13.778,6" transform="translate(-119.313 0)" fill="#a06f3e"/>
            <path id="Trazado_658709" data-name="Trazado 658709" d="M128.98,317.457a2.37,2.37,0,0,0,1.21,1.71,11.468,11.468,0,0,0,5,0l8.33-1,6.67.67a63.141,63.141,0,0,0,7,.33c4.33,0,11.67-2.33,11.67-2.33s3.66,3,13.33,2.66,5-7,5-7l8,1.34s2,5,3.67,5,12.66-.34,17-.67,6-5.33,3.66-5.67-2.66-.33-2.66-.33,10-12.67,14.33-21.33,2.67-24,.67-25.34-5.67-1-7.67-.66-7.67,6-7.67,6-4-8-5.33-13.67a7.627,7.627,0,0,1-.16-.9c-.9-5.97,1.38-17.39-7.17-29.1a144.8,144.8,0,0,0-9.4-11.63c-2.88-3.22-4.42-4.73-4.6-6.04-.34-2.33.66-4,3.33-3s8.67,3.67,10,3.67h3a10.343,10.343,0,0,0,4.33.67c1.67-.34,5.34-7.34,5.34-7.34s-9-8-10.34-9.33a5.873,5.873,0,0,1-1.33-3.67s.67-6.33,0-8.33c-.46-1.37-6.09-8.07-11.73-12.8-2.58-2.16-5.17-3.9-7.27-4.53-6.67-2-18.33,3-18.33,3s-7.56,6.55-9.11,16.55c-1.19,7.65-1.23,15.11-1.89,16.45-.22.45-1.4,3.58-2.89,7.89-1.72,4.99-3.83,11.55-5.3,17.26a46.809,46.809,0,0,0-1.81,10.18,102.112,102.112,0,0,0,1.44,13.14c1.48,9.42,3.56,19.53,3.56,19.53s-12.67-7-17.34-2,9.34,40.33,9.34,40.33l-7.19,4.08-2.81,1.59a3.136,3.136,0,0,0-2.67-1c-1.44,0-1.84,3.44-1.21,5.62" transform="translate(-128.691 0)" fill="#c49a6f"/>
            <path id="Trazado_658710" data-name="Trazado 658710" d="M170.144,225.987c7.96,4.67,17.69,10.18,17.69,10.18s31-14.5,17.16-12.67-16-10.83-16-10.83l3.91,2.76c-1.1-.87-3.33-3.05-2.57-6.09,1-4-2.67-10.17-2.67-10.17s-3.163-11.833-.333-17.833,11-13.5,15.333-14.5a17.042,17.042,0,0,1,12.27,2.533c-2.58-2.16-5.17-3.9-7.27-4.53-6.67-2-18.33,3-18.33,3s-7.56,6.55-9.11,16.55c-1.19,7.65-1.23,15.11-1.89,16.45-.22.45-1.4,3.58-2.89,7.89-1.72,4.99-3.83,11.55-5.3,17.26" transform="translate(-151.165 0)" fill="#a06f3e"/>
            <path id="Trazado_658711" data-name="Trazado 658711" d="M201.883,174.167s-6.667-10.667-12-15-7-6.667-8.333-6.333-.334,7-.334,7-2,13.666-1.333,15.666a6.565,6.565,0,0,0,2,3s0-9,4-7.666a29.6,29.6,0,0,1,8,4.666l-.667-2.333s5.334,2,8.667,1" transform="translate(-147.717 0)" fill="#c49a6f"/>
            <path id="Trazado_658712" data-name="Trazado 658712" d="M151.574,236.167a102.112,102.112,0,0,0,1.44,13.14c2.51.39,6.97,1.83,11.56,6.86,7,7.67,9.33,24.33,9.33,24.33l1.31.13,2.02.2s.06-.37.19-1.03c.95-5.08,5.55-27.3,13.81-29.96,9.34-3,12.67,1.66,12.67,1.66l-7,28.34s17.66-6.35,19.84-23.57c-.9-5.97,1.38-17.39-7.17-29.1a144.8,144.8,0,0,0-9.4-11.63c-1.72,2.52-5.34,6.11-12.52,7.61a36.162,36.162,0,0,1-8.08.69c-16.53-.3-20.25-12.35-20.89-15.11-2.96,8.61-7.11,21.88-7.11,27.44" transform="translate(-134.405 0)" fill="#1cf290"/>
            <path id="Trazado_658713" data-name="Trazado 658713" d="M145.248,200.334s.252,5.333,1.007,5.667,4.281-.667,3.777-2-3.777-3.667-4.784-3.667" transform="translate(-61.416 0)" fill="#252238"/>
            <path id="Trazado_658714" data-name="Trazado 658714" d="M164.414,280l.19-.2c.95-5.08,5.55-27.3,13.81-29.96,9.34-3,12.67,1.66,12.67,1.66s-2.5-7-12.833-3.5-13.837,32-13.837,32" transform="translate(-121.585 0)" fill="#008d4c"/>
            <path id="Trazado_658715" data-name="Trazado 658715" d="M169.414,189.167s-2.333-3-4.333-3a27.918,27.918,0,0,0-4,.333l4,1.334s-.667,3.333.333,3,1.167-.334,1.333-1.167.334-1.5.334-1.5Z" transform="translate(-96.582 0)" fill="#252238"/>
            <path id="Trazado_658734" data-name="Trazado 658734" d="M177.3,236.167a102.112,102.112,0,0,0,1.44,13.14c2.51.39,6.97,1.83,11.56,6.86,7,7.67,9.33,24.33,9.33,24.33l1.31.13a104.93,104.93,0,0,1,.47-10.9c.66-5.34,3.78-11.56,3.78-11.56h-2s1.77-12.44,2.88-13.78,10.67-2,10.67-2l-14.67-4.22,11.31-15.02a36.162,36.162,0,0,1-8.08.69c-16.53-.3-20.25-12.35-20.89-15.11-2.96,8.61-7.11,21.88-7.11,27.44" transform="translate(-160.135 0)" fill="#07cc72"/>
            <path id="Trazado_658746" data-name="Trazado 658746" d="M161.048,313.5s1.444-12.778,1.667-15.222,17.444-25.778,16.555-25.334-19.555,17.334-20.889,17.556-3.666-1.444-3.666-1.444L149.381,310.5l3.889,2Z" transform="translate(-94.771 0)" fill="#a06f3e"/>
            <path id="Trazado_658747" data-name="Trazado 658747" d="M198.636,168.611s-5.556-7.555-7.111-8.444-3.111-1.778-3.333-.667-.667,11.778-.667,11.778,1.555-2.667,3.111-2.667,8.889,1.556,8.889,1.556Z" transform="translate(-153.137 0)" fill="#a06f3e"/>
            <path id="Trazado_658748" data-name="Trazado 658748" d="M205.316,204.834a18.677,18.677,0,0,1-5.667,3,14.99,14.99,0,0,1-7.166.333l7-3.166s-6.5,1.833-11.334,1.5-12.5-3.5-12.5-3.5l5.334-3.834-6,2.5a41.719,41.719,0,0,1-1.834-6.833c-.333-2.667.667-9.333.667-9.333l1,7,1.833-5.167s.667,6.667,4.5,8.333,12.5-.166,12.5-.166l-3.333,2.833s3.667,8.333,15,6.5" transform="translate(-144.484 0)" fill="#a06f3e"/>
            <path id="Trazado_658749" data-name="Trazado 658749" d="M191.894,215.817l-.27-.19c.13.09.22.16.27.19" transform="translate(-149.605 0)" fill="#b2544d"/>
            <path id="Trazado_658750" data-name="Trazado 658750" d="M166.581,209.334l-8.667-4.167s6.667,4.334,8.667,4.167" transform="translate(-90.582 0)" fill="#a04d42"/>
            <path id="Trazado_658751" data-name="Trazado 658751" d="M191.084,280.5l1.167,30.167,2.163-29.837Z" transform="translate(-151.585 0)" fill="#a06f3e"/>
            <path id="Trazado_658752" data-name="Trazado 658752" d="M192.636,251.5l-11.889,28,3.111-3.444s-6.666,31.889-7.111,33-1,3-1,3-1.555-1.778-3.333-1.445a3.838,3.838,0,0,0-2.556,1.889,2.926,2.926,0,0,0-2.889-1.444,3.547,3.547,0,0,0-2.555,1.667,3.882,3.882,0,0,1,2.889-.889c1.666.222,2.555,6.222,2.555,6.222s.222-5.556,3-6,4.222,4.889,4.222,4.889-.888-3.334,1.445-4.667,3.778,1.556,3.778,1.556l-.667-1.337-2.667-3.108,6.667-29.552Z" transform="translate(-123.137 0)" fill="#a06f3e"/>
            <path id="Trazado_658753" data-name="Trazado 658753" d="M204.636,269.723a9.738,9.738,0,0,1,4.778-.444c2.555.444,7.666,4.111,7.666,4.111l6.445,37.666-2.778.111a10.314,10.314,0,0,0-3.889-2.444,8.34,8.34,0,0,0-3.778.111,5.532,5.532,0,0,1,3-1.444h1.778s-9.666-10-11.889-16.556,0-17.222,0-17.222l.778,7.333,1-8.778,1.222,3s1.223-5.222-4.333-5.444" transform="translate(-194.248 0)" fill="#a06f3e"/>
            <path id="Trazado_658754" data-name="Trazado 658754" d="M206.915,268.837l6.552,41.774a3.839,3.839,0,0,0-2.889.223,2.927,2.927,0,0,0-1.111,2.222s-2.555-1.445-4.111-.222-1.778,5-1.222,5.444,9.111.889,9.111.889-6.222-1.222-7.111-2-.222-3.333.889-3.444,2.666,4.111,2.666,4.111-.222-5.334,1.445-5.889a5.888,5.888,0,0,1,3.667.333Z" transform="translate(-184.746 0)" fill="#a06f3e"/>
            <path id="Trazado_658755" data-name="Trazado 658755" d="M224.7,317.457c.06-1.01.37-4.48,1.99-4.29,1.89.22,1.89,4.44,1.89,4.44s0-1.11.11-3,1.11-2.44,2.78-2,2.44,4.78,2.44,4.78a7.348,7.348,0,0,0-2.52-6.14l-2.81,1.59a3.136,3.136,0,0,0-2.67-1c-1.44,0-1.84,3.44-1.21,5.62" transform="translate(-224.409 0)" fill="#a06f3e"/>
            <path id="Trazado_658756" data-name="Trazado 658756" d="M155.192,312.5a4.485,4.485,0,0,0-2,.778,9.806,9.806,0,0,0-1.778,2s1-2.778-1-3.111-4.667,1.555-4.667,1.555,3.445-1.222,4.334-.889.889,3.556.889,3.556,2.555-4,4.222-3.889" transform="translate(-67.026 0)" fill="#a06f3e"/>
            <path id="Trazado_658757" data-name="Trazado 658757" d="M136.527,268.723a79.112,79.112,0,0,1,.111,12.889,30.221,30.221,0,0,1-3.333,11.555c-.445.667.889-5.777.889-5.777l-3.667,7.111s4-11.778,4.555-16.778.667-11.222.667-11.222l.445,4.222Z" transform="translate(-33.473 0)" fill="#a06f3e"/>
            <path id="Trazado_658758" data-name="Trazado 658758" d="M204.414,270.834l6.778,32.667-.889-7.889,2,5.555s-3.889-20.666-4.333-24.555-3.223-13.334-3.223-13.334l1,7-2.222-4.666Z" transform="translate(-181.915 0)" fill="#e8c29b"/>
            <path id="Trazado_658759" data-name="Trazado 658759" d="M194.247,249.307s5.39-2.14,12.39,5.027S215.3,280,215.3,280s-4.947-23.553-21.057-30.693" transform="translate(-175.638 0)" fill="#008d4c"/>
            <path id="Trazado_658760" data-name="Trazado 658760" d="M149.081,311s1.833-13.5,4-17.667,9-16.333,9-16.333l-6.667,14,2.167-2.667s-7.833,18-8.5,22.667" transform="translate(-77.249 0)" fill="#a06f3e"/>
            <path id="Trazado_658761" data-name="Trazado 658761" d="M209.3,225.5s-9.111,2.222-17.111-1.556-8.889-8.666-8.889-8.666,8.445,11.555,26,10.222" transform="translate(-158.693 0)" fill="#008d4c"/>
            <g id="Grupo_1097997" data-name="Grupo 1097997" transform="translate(93.202 2.498)">
              <g id="Grupo_1097996-2" data-name="Grupo 1097996" clip-path="url(#clip-path-3)">
                <path id="Trazado_828732" data-name="Trazado 828732" d="M147.81,728.593c0,1.32-2.714,2.39-38.692,2.39-37.9,0-40.526-1.07-40.526-2.39s3.466-2.39,40.526-2.39c35.719,0,38.692,1.07,38.692,2.39" transform="translate(-38.418 -406.738)" fill="#6a516b"/>
                <path id="Trazado_828733" data-name="Trazado 828733" d="M100.611,474.028s.229-52.831.229-64.035-.218-54.808.875-54.808,2.733,46.459,3.553,54.385c0,0,.091,3.28,9.93,3.28,7.968,0,12.753-.547,13.847-3.006s-.82-86.633-1.093-93.192c0,0-10.112,5.192-26.236,5.465a57.8,57.8,0,0,1-28.431-7.276s-1.126,23.9-1.236,27.548c-.273,9.018,3.47,57.15,2.65,65.349s2.147,64.78,2.147,64.78Z" transform="translate(-40.346 -176.339)" fill="#5840e2"/>
                <path id="Trazado_828734" data-name="Trazado 828734" d="M117.085,668.49s6.7,1.713,6.683,3.634c-.028,2.578-9.428,2.372-10.248,1.826s3.565-5.459,3.565-5.459" transform="translate(-63.524 -374.414)" fill="#1a1a1a"/>
                <path id="Trazado_828735" data-name="Trazado 828735" d="M98.444,667.582a26.3,26.3,0,0,0-.617,8.43c.254,1.937.5,3.705.666,4.671.505,2.931,1.01,8.692,1.01,9.3s-19.406,0-19.406-.707,1.062-17.345,1.264-19.569,7.48-3.74,17.082-2.123" transform="translate(-44.862 -373.527)" fill="#d98059"/>
                <path id="Trazado_828736" data-name="Trazado 828736" d="M97.828,680.044a21.575,21.575,0,0,1,.051-5.184,26.6,26.6,0,0,0-9.393-.564,20.633,20.633,0,0,0-5.454,1.366,7.7,7.7,0,0,0-1.894,1.116c-.378,5.484-1.04,15.97-1.04,16.529,0,.707,19.406,1.314,19.406.707s-.505-6.367-1.011-9.3c-.166-.966-.412-2.734-.666-4.671" transform="translate(-44.862 -377.559)" fill="#e3ebf4"/>
                <path id="Trazado_828737" data-name="Trazado 828737" d="M97.983,699.964c-.048-.193-.1-.393-.157-.61-.731-2.725-.8-6.911-1-7.908a2.787,2.787,0,0,0-1.13-1.595s-.066,1.595-.465,1.794c-.31.155-.779-.531-.973-.846-.52-2.246-1.2-4.453-2.327-5.27-2.224-1.617-10.512-1.617-11.32.808-.47,1.41-.972,3.167-1.411,5.1h0s-.244.82-.642.908a.614.614,0,0,1-.776-.554s-.509-.31-.554,2.392a18.445,18.445,0,0,1-1.6,6.033c-.532,1.263-.774,4.593,1.042,5.021a1.314,1.314,0,0,0,.209.029,88.07,88.07,0,0,0,10.809.476c7.884,0,11.421-.505,11.522-2.628a5.867,5.867,0,0,0-1.229-3.153" transform="translate(-42.143 -383.327)" fill="#f1404c"/>
                <path id="Trazado_828738" data-name="Trazado 828738" d="M101.636,716.2a28.572,28.572,0,0,0-17.321-1.021.8.8,0,0,0,.427,1.548,27.084,27.084,0,0,1,16.468,1.021c.964.374,1.381-1.178.427-1.548" transform="translate(-46.904 -400.066)" fill="#c22327"/>
                <path id="Trazado_828739" data-name="Trazado 828739" d="M128.681,535.161q-.1-6.35-.257-12.7a.535.535,0,0,0-1.07,0q.55,22.521.424,45.051-.036,6.35-.126,12.7a.535.535,0,0,0,1.07,0q.318-22.525-.04-45.053" transform="translate(-71.329 -292.336)" fill="#464a7d"/>
                <path id="Trazado_828740" data-name="Trazado 828740" d="M132.51,402.239a250.1,250.1,0,0,0-4.61,36.078q-.279,5.163-.342,10.335a.535.535,0,0,0,1.07,0,248.117,248.117,0,0,1,3.091-36.083q.808-5.041,1.823-10.045c.136-.673-.9-.96-1.032-.285" transform="translate(-71.444 -225.074)" fill="#464a7d"/>
                <path id="Trazado_828741" data-name="Trazado 828741" d="M129.41,331.038q.311,8.423.622,16.846a3.77,3.77,0,0,1-.74-.522,2.8,2.8,0,0,1-.645-2.033q-.211-2.575-.422-5.15l-.756-9.235c-.545-.037-1.084-.084-1.617-.136l.854,10.427.227,2.773a24.41,24.41,0,0,0,.262,2.765c.3,1.515,1.6,2.323,2.9,2.929l.061,1.641c.038,1.03,1.644,1.035,1.606,0q-.375-10.141-.749-20.283-.81,0-1.607-.024" transform="translate(-70.488 -185.282)" fill="#464a7d"/>
                <path id="Trazado_828742" data-name="Trazado 828742" d="M184.163,343.05c-3.912-1.914-5.014-6.472-5.914-10.353-.234-1.007-1.782-.581-1.548.427,1,4.288,2.351,9.208,6.652,11.313.925.452,1.74-.932.811-1.387" transform="translate(-98.955 -186.018)" fill="#464a7d"/>
                <path id="Trazado_828743" data-name="Trazado 828743" d="M79.958,335.487c.055-1.032-1.551-1.029-1.606,0a11.283,11.283,0,0,1-2,5.8,12.117,12.117,0,0,1-3.532,3.241c-.03.666-.059,1.315-.087,1.943a15.434,15.434,0,0,0,5-4.374,12.855,12.855,0,0,0,2.22-6.606" transform="translate(-40.737 -187.469)" fill="#464a7d"/>
                <path id="Trazado_828744" data-name="Trazado 828744" d="M137.01,396.98q-.024,13.371.522,26.735c.056,1.377,2.191,1.213,2.134-.163q-.546-13.36-.522-26.735c0-1.378-2.132-1.208-2.134.163" transform="translate(-76.737 -221.719)" fill="#fff"/>
                <path id="Trazado_828745" data-name="Trazado 828745" d="M158.807,526.641a32.451,32.451,0,0,1-6.984-.382,13.664,13.664,0,0,1-3.06-.962,8.873,8.873,0,0,1-1.658-.94c.036.513.07.974.1,1.391a13.581,13.581,0,0,0,3.891,1.45,31.874,31.874,0,0,0,7.706.514.535.535,0,0,0,0-1.07" transform="translate(-82.392 -293.687)" fill="#464a7d"/>
                <path id="Trazado_828746" data-name="Trazado 828746" d="M188.667,524.215a6.11,6.11,0,0,1-2.422.962,31.349,31.349,0,0,1-5.943.619.535.535,0,0,0,0,1.07,30.442,30.442,0,0,0,6.591-.739,6.5,6.5,0,0,0,2.565-1.18c.045-.036.084-.077.127-.114q.034-.665.059-1.553a6,6,0,0,1-.977.934" transform="translate(-100.696 -293.084)" fill="#464a7d"/>
                <path id="Trazado_828747" data-name="Trazado 828747" d="M234.752,255.052a47.884,47.884,0,0,0,1.782-10.884c.039-4.923-2.406-2.037-6.849-1.669s-13.69-2.175-14.5-1.213-1.834,13.483-1.005,14.845,18.62,3.377,20.577-1.08" transform="translate(-119.785 -135.019)" fill="#565656"/>
                <path id="Trazado_828748" data-name="Trazado 828748" d="M1.638,255.482A47.889,47.889,0,0,1,0,244.575c.026-4.924,2.432-2.005,6.87-1.578S20.588,241,21.39,241.977s1.656,13.505.809,14.857-18.664,3.13-20.561-1.352" transform="translate(0 -135.398)" fill="#565656"/>
                <path id="Trazado_828749" data-name="Trazado 828749" d="M94.356,213.432s1.213-5.549,1.4-7.449-1.519-.95-.949-5.318,2.512-15.06,1.753-15.82-.38-1.709.38-2.469-.95-.95-1.139-2.279.57-1.709.19-2.659-5.344-6.728-5.344-6.728,1.356,12.8.787,21.161-1.329,13.295-.19,15.384,1.23,6.15-.05,7.728-7.736,5.946-25.019,6.9-26.969-2.659-29.628-5.318-.57-8.357.19-10.635-2.848-5.508-2.279-7.6a12.189,12.189,0,0,0,.19-7.407c-.949-2.659-.3-19.119-.3-19.119l-7.679,12.851s1.9.76,1.329,2.279-2.469,2.089-1.329,2.849,2.469.38,1.139,1.71.57,8.167,1.519,12.155a16.36,16.36,0,0,1,0,7.407L31.9,222.181l-17.684-1s-.777-6.869-1.537-7.628S9.519,212.68,8.57,206.6s-2.961-21.585-1.822-28.422S28.2,142.095,33.712,137.916s17.061-1.272,24.562-.293c7.147.932,18.658-4.831,26.634-4.261s31.215,34.961,32.545,41.418-.085,22.267-.661,25.082c-1.408,6.882-3.639,5.248-4.209,5.628s-2.168,9.858-2.168,9.858Z" transform="translate(-3.589 -74.672)" fill="#6d4e4e"/>
                <path id="Trazado_828750" data-name="Trazado 828750" d="M134.318,312.895a37.433,37.433,0,0,1-8.629,3.1,14.009,14.009,0,0,1-4.382.184,15.947,15.947,0,0,1-4.279-1.411,8.241,8.241,0,0,0-4.142-.746c-1.537.146-3.028.591-4.546.857a33.858,33.858,0,0,1-18.78-2.12c-.636-.263-.913.773-.285,1.033a34.951,34.951,0,0,0,17.926,2.337c1.547-.207,3.051-.581,4.582-.871a7.85,7.85,0,0,1,4.812.48,17.408,17.408,0,0,0,4.225,1.443,14.417,14.417,0,0,0,4.22,0,35.34,35.34,0,0,0,9.817-3.364c.625-.289.081-1.212-.54-.924" transform="translate(-49.804 -175.151)" fill="#4b3333"/>
                <path id="Trazado_828751" data-name="Trazado 828751" d="M224.929,289.877a16.666,16.666,0,0,0-9.924.253c-.654.209-.374,1.243.284,1.032a15.8,15.8,0,0,1,9.161-.313,10.605,10.605,0,0,1,4.446,2.679,1.785,1.785,0,0,1,.313-.713.771.771,0,0,1,.412-.071,11.792,11.792,0,0,0-4.692-2.867" transform="translate(-120.214 -161.997)" fill="#4b3333"/>
                <path id="Trazado_828752" data-name="Trazado 828752" d="M38.276,308.609a11.211,11.211,0,0,0-5.467-1.989c-3.66-.348-7.267,1.031-10.385,2.827a.536.536,0,0,0,.54.924,17.221,17.221,0,0,1,9.45-2.712,9.714,9.714,0,0,1,6.264,2.687Z" transform="translate(-12.414 -171.704)" fill="#4b3333"/>
                <path id="Trazado_828753" data-name="Trazado 828753" d="M67.745,207.9l-7.919,11.9c-.574.863.816,1.668,1.387.811l7.919-11.9c.574-.863-.816-1.668-1.387-.81" transform="translate(-33.431 -116.24)" fill="#4b3333"/>
                <path id="Trazado_828754" data-name="Trazado 828754" d="M194.877,204.856a.8.8,0,0,0-1.548.427,68.791,68.791,0,0,1,1.98,14.325c.033,1.03,1.639,1.035,1.606,0a70.908,70.908,0,0,0-2.038-14.752" transform="translate(-108.266 -114.417)" fill="#4b3333"/>
                <path id="Trazado_828755" data-name="Trazado 828755" d="M111.578,143.372s-.325-.962.418-1.21,2.871.149,5.494-.049,11.137-1.336,12.621-1.386,1.565.274,1.277,1.028-8.4,3.13-11.028,3.575-8.783-1.958-8.783-1.958" transform="translate(-62.454 -78.817)" fill="#4b3333"/>
                <path id="Trazado_828756" data-name="Trazado 828756" d="M75.173,163.334c.084.675,1.155.683,1.07,0a218.444,218.444,0,0,0-3.968-22.32,9.981,9.981,0,0,0-.993.443,214.983,214.983,0,0,1,3.891,21.877" transform="translate(-39.924 -78.98)" fill="#4b3333"/>
                <path id="Trazado_828757" data-name="Trazado 828757" d="M185,153.6c.114.678,1.146.39,1.032-.285q-1.7-10.094-4.357-19.988c-.362-.007-.732,0-1.107.014q2.7,10.014,4.432,20.259" transform="translate(-101.132 -74.673)" fill="#4b3333"/>
                <path id="Trazado_828758" data-name="Trazado 828758" d="M121.627,10.177a4.453,4.453,0,0,0-4.543.1,9.235,9.235,0,0,1,.484-.863,7,7,0,0,1,.828-1.091,9.424,9.424,0,0,1,1.15-1.075.807.807,0,0,0,0-1.135.822.822,0,0,0-1.135,0A10.087,10.087,0,0,0,115.545,9.8c-1.048-2.638-3.8-8.469-7.85-9.027C102.449.044,101,4.206,101,4.206S95.392-.5,90.688.044s-7.056,5.428-7.056,5.428c-3.981-2.9-8.866,1.809-6.695,12.3s9.228,15.017,9.228,15.017,30.511,9.97,32.5,6.351,10.32-24.973,2.961-28.968" transform="translate(-42.792 0)" fill="#1a1a1a"/>
                <path id="Trazado_828759" data-name="Trazado 828759" d="M115.509,120.461s-.4,5.054-.809,6.671-3.032,1.618-3.032,1.618,7.277,19,9.5,19.811,10.31-21.428,10.31-21.428-3.253.593-4.2-3.213a35.793,35.793,0,0,1-.529-9.3l-11.1.423s-.164,5.033-.135,5.424" transform="translate(-62.544 -64.194)" fill="#d98059"/>
                <path id="Trazado_828760" data-name="Trazado 828760" d="M118.886,129.517a8.846,8.846,0,0,0,8.645-2.767,10.385,10.385,0,0,0,2.2-6.178l-10.412.4s-.164,5.033-.135,5.424c0,0-.121,1.5-.295,3.124" transform="translate(-66.587 -67.531)" fill="#1a1a1a"/>
                <path id="Trazado_828761" data-name="Trazado 828761" d="M128.751,163.928a49.006,49.006,0,0,1-9.814.117c2.246,5.32,5.062,11.44,6.3,11.892s4.353-6.375,6.831-12.442c-1.1.168-2.209.316-3.32.433" transform="translate(-66.615 -91.572)" fill="#fff"/>
                <path id="Trazado_828762" data-name="Trazado 828762" d="M124.131,56.794c-2.068-4.615-8.513.461-8.513.461a1.337,1.337,0,0,1-.685.293c-1.583.786-4.1-7.809-5.5-8.435-3.9-1.741-7.782,3.881-10.927.933a23.421,23.421,0,0,1-4.309-5.4c-.285-.5-.562-1.022-.816-1.569h0a20.9,20.9,0,0,1-6.571,2.076c-.037.006-.074.006-.111.01a11.311,11.311,0,0,0-.461,1.659c-.639,3.386-10.52,26.2,5.453,34.042,8.978,4.409,22.541-.625,26.617-10.989a.1.1,0,0,1,.046-.055c.588-.329,9.231-5.322,5.778-13.028" transform="translate(-46.281 -24.129)" fill="#d98059"/>
                <path id="Trazado_828763" data-name="Trazado 828763" d="M90.688,79.812a1.921,1.921,0,0,0-1.534-1.676,1.233,1.233,0,0,0-.947.344,1.6,1.6,0,0,0-.407,1.167,2.631,2.631,0,0,0,.02.277,1.284,1.284,0,0,0,.063.478c0,.008.008.017.011.025a.975.975,0,0,0,.013.113.9.9,0,0,0,.254.427,1.093,1.093,0,0,0,.292.3h0c.029.02.06.037.09.055a1.164,1.164,0,0,0,.166.1,1.193,1.193,0,0,0,.74.093,1.173,1.173,0,0,0,.588-.34,1.571,1.571,0,0,0,.207-.274,1.469,1.469,0,0,0,.44-1.092" transform="translate(-49.176 -43.761)" fill="#1a1a1a"/>
                <path id="Trazado_828764" data-name="Trazado 828764" d="M129.634,82.879a1.473,1.473,0,0,0-.636-.817,1.188,1.188,0,0,0-1.05-.252c-.011,0-.019.008-.029.011a1.4,1.4,0,0,0-.468.159,1.559,1.559,0,0,0-.662.86,1.912,1.912,0,0,0,.151,1.685,1.213,1.213,0,0,0,.838.506,1.025,1.025,0,0,0,.423.058,1.58,1.58,0,0,0,.964-.483,1.793,1.793,0,0,0,.468-1.727" transform="translate(-70.943 -45.801)" fill="#1a1a1a"/>
                <path id="Trazado_828765" data-name="Trazado 828765" d="M102.929,112.79l9.895-.908s-1.362,3.722-3.9,4.721-5.992-3.813-5.992-3.813" transform="translate(-57.649 -62.664)" fill="#fff"/>
                <path id="Trazado_828766" data-name="Trazado 828766" d="M106.248,101.484a.8.8,0,0,0-.369-.48l-1.087-.549a.6.6,0,0,0-.3-.1.609.609,0,0,0-.32.015.9.9,0,0,0-.48.369.8.8,0,0,0,.288,1.1l1.087.549a.826.826,0,0,0,1.1-.288.809.809,0,0,0,.081-.619" transform="translate(-58.015 -56.202)" fill="#c8513a"/>
                <path id="Trazado_828767" data-name="Trazado 828767" d="M89.963,65.313a20.953,20.953,0,0,0-4.57-.165.8.8,0,0,0,0,1.606,19.949,19.949,0,0,1,2.139-.055q.513.015,1.026.057.256.02.512.048l.3.034.1.012.069.01a.826.826,0,0,0,.988-.56.812.812,0,0,0-.561-.988" transform="translate(-47.378 -36.456)" fill="#1a1a1a"/>
                <path id="Trazado_828768" data-name="Trazado 828768" d="M131.718,67.746a17.134,17.134,0,0,0-4.846-.527.8.8,0,0,0,0,1.606,16.321,16.321,0,0,1,2.291.076l.263.029.073.008.064.01q.306.044.609.1c.376.069.75.152,1.12.247a.8.8,0,1,0,.427-1.548" transform="translate(-70.609 -37.643)" fill="#1a1a1a"/>
                <rect id="Rectángulo_382972" data-name="Rectángulo 382972" width="64.308" height="2.676" transform="matrix(0.045, -0.999, 0.999, 0.045, 10.641, 325.405)" fill="#848484"/>
                <rect id="Rectángulo_382973" data-name="Rectángulo 382973" width="73.409" height="3.747" transform="translate(13.026 261.155) rotate(-87.907)" fill="#848484"/>
                <path id="Trazado_828769" data-name="Trazado 828769" d="M25.845,738.079s-.015.269-1.159.252c-.912-.014-1.512-.15-1.512-.322l.006-.278a.7.7,0,0,0-.44.583c-.1.5-.417,3.5-.417,3.743s.73.594,1.913.637c1.332.049,2.019-.163,2.019-.441,0-.249.033-3.008-.033-3.841a.661.661,0,0,0-.368-.6Z" transform="translate(-12.503 -413.195)" fill="#565656"/>
                <path id="Trazado_828770" data-name="Trazado 828770" d="M32.872,588.776s-.194.664-1.736.619c-1.486-.044-1.993-.464-1.993-.834l.02-.533s-.3-.062-.353.5c-.049.484-.171,1.919-.171,2.175a.821.821,0,0,0,.412.841,5.122,5.122,0,0,0,2.079.4c.655.016,1.742-.109,1.859-.5a15.083,15.083,0,0,0,.236-2.522.823.823,0,0,0-.314-.734Z" transform="translate(-16.04 -329.347)" fill="#464646"/>
                <path id="Trazado_828771" data-name="Trazado 828771" d="M34.28,383.362l1.878.085a2.886,2.886,0,0,0,3.014-2.753l1.63-35.913a2.886,2.886,0,0,0-2.752-3.014l-1.878-.085a2.886,2.886,0,0,0-3.014,2.753l-1.63,35.913a2.886,2.886,0,0,0,2.753,3.014" transform="translate(-17.656 -191.371)" fill="#565656"/>
                <path id="Trazado_828772" data-name="Trazado 828772" d="M41.3,360.526l.714-15.744a2.887,2.887,0,0,0-2.752-3.014l-1.878-.085a2.886,2.886,0,0,0-3.014,2.752l-.68,14.982c2.545.289,5.1.605,7.61,1.109" transform="translate(-18.87 -191.371)" fill="#3e3e3e"/>
                <path id="Trazado_828773" data-name="Trazado 828773" d="M50.971,324.9s4.032,1.468,4.762,4.581-5.4,5.789-6.519,5.74S50.971,324.9,50.971,324.9" transform="translate(-27.42 -181.974)" fill="#1a1a1a"/>
                <path id="Trazado_828774" data-name="Trazado 828774" d="M26.134,341.464s-.669,1.114.5,3.064,3.844.731,4.568-1.832,3.955-4.017,4.512-7.024-2.228-11.363-2.618-12.533c0,0-7.283-3.209-12.008.141-.511.362-1.176.6-1.353,1.13-1.833,5.434-1.7,7-2.547,9.064-.945,2.319,2.916,6.636,4.291,8.44a3.4,3.4,0,0,0,3.291,1.376l.472-.849Z" transform="translate(-9.545 -180.21)" fill="#d98059"/>
                <path id="Trazado_828775" data-name="Trazado 828775" d="M28.572,346.436c0,3.6,1.719,6.527,3.839,6.527s3.84-2.922,3.84-6.527-1.72-6.527-3.84-6.527-3.839,2.922-3.839,6.527" transform="translate(-16.003 -190.379)" fill="#565656"/>
                <path id="Trazado_828776" data-name="Trazado 828776" d="M32.257,349.6c0,2.381.86,4.312,1.92,4.312S36.1,351.978,36.1,349.6s-.859-4.312-1.919-4.312-1.92,1.931-1.92,4.312" transform="translate(-18.067 -193.39)" fill="#464646"/>
                <rect id="Rectángulo_382974" data-name="Rectángulo 382974" width="2.676" height="64.308" transform="translate(101.361 253.632) rotate(-2.598)" fill="#848484"/>
                <rect id="Rectángulo_382975" data-name="Rectángulo 382975" width="3.747" height="73.409" transform="translate(98.138 180.281) rotate(-2.098)" fill="#848484"/>
                <path id="Trazado_828777" data-name="Trazado 828777" d="M228.6,571.381s.194.664,1.736.619c1.486-.044,1.993-.464,1.993-.835l-.02-.533s.3-.062.353.5c.049.484.171,1.919.171,2.175a.821.821,0,0,1-.412.841,5.121,5.121,0,0,1-2.079.4c-.655.016-1.742-.109-1.859-.5a15.035,15.035,0,0,1-.236-2.522.823.823,0,0,1,.314-.734Z" transform="translate(-127.837 -319.604)" fill="#464646"/>
                <path id="Trazado_828778" data-name="Trazado 828778" d="M221.213,365.967l-1.878.085a2.886,2.886,0,0,1-3.014-2.753l-1.63-35.913a2.886,2.886,0,0,1,2.752-3.014l1.878-.085a2.886,2.886,0,0,1,3.014,2.753l1.63,35.913a2.886,2.886,0,0,1-2.753,3.014" transform="translate(-120.244 -181.628)" fill="#565656"/>
                <path id="Trazado_828779" data-name="Trazado 828779" d="M220.4,341.509c.868.123,1.739.248,2.61.364l-.673-14.834a2.886,2.886,0,0,0-3.014-2.752l-1.878.085a2.887,2.887,0,0,0-2.752,3.014l.611,13.473c1.7.176,3.4.41,5.1.65" transform="translate(-120.244 -181.628)" fill="#3e3e3e"/>
                <path id="Trazado_828780" data-name="Trazado 828780" d="M209.6,307.507a8.087,8.087,0,0,0-3.076,3.1c-1.1,2.08,2.59,5.337,4.984,3.964s-1.907-7.066-1.907-7.066" transform="translate(-115.56 -172.231)" fill="#1a1a1a"/>
                <path id="Trazado_828781" data-name="Trazado 828781" d="M217.306,324.069s.668,1.114-.5,3.064-3.462,1.007-4.186-1.556-4.336-4.293-4.893-7.3,2.228-11.363,2.618-12.533c0,0,7.283-3.209,12.007.141a10.7,10.7,0,0,1,1.516,1.294c1.716,4.764,1.379,6.919,2.207,8.953.945,2.319-2.916,6.636-4.291,8.44a3.051,3.051,0,0,1-3.113,1.324l-.472-.849Z" transform="translate(-116.304 -170.467)" fill="#d98059"/>
                <path id="Trazado_828782" data-name="Trazado 828782" d="M228.961,329.042c0,3.6-1.719,6.527-3.839,6.527s-3.84-2.922-3.84-6.527,1.719-6.527,3.84-6.527,3.839,2.922,3.839,6.527" transform="translate(-123.938 -180.637)" fill="#565656"/>
                <path id="Trazado_828783" data-name="Trazado 828783" d="M230.164,332.2c0,2.381-.86,4.312-1.92,4.312s-1.919-1.93-1.919-4.312.859-4.312,1.919-4.312,1.92,1.931,1.92,4.312" transform="translate(-126.762 -183.648)" fill="#464646"/>
                <path id="Trazado_828784" data-name="Trazado 828784" d="M236.448,720.684s.015.269,1.159.252c.912-.014,1.512-.15,1.512-.322l-.006-.278a.7.7,0,0,1,.44.583c.1.5.417,3.5.417,3.743s-.73.594-1.913.637c-1.332.049-2.019-.164-2.019-.441,0-.25-.033-3.008.033-3.842a.66.66,0,0,1,.368-.6Z" transform="translate(-132.198 -403.452)" fill="#565656"/>
              </g>
            </g>
          </g>
        </g>
      </g>
    </g>
  </g>
</svg>
