<svg xmlns="http://www.w3.org/2000/svg" xmlns:xlink="http://www.w3.org/1999/xlink" width="295" height="327" viewBox="0 0 295 327">
  <defs>
    <clipPath id="clip-path">
      <rect id="Rect치ngulo_387359" data-name="Rect치ngulo 387359" width="295" height="327" transform="translate(1020 2128)" fill="#5840e2" stroke="#707070" stroke-width="1" opacity="0.44"/>
    </clipPath>
    <clipPath id="clip-path-2">
      <rect id="Rect치ngulo_383011" data-name="Rect치ngulo 383011" width="208.965" height="291.426" fill="#ffe2e2"/>
    </clipPath>
    <filter id="Trazado_657613" x="43.488" y="43.226" width="143.552" height="43.752" filterUnits="userSpaceOnUse">
      <feOffset dy="3" input="SourceAlpha"/>
      <feGaussianBlur stdDeviation="3" result="blur"/>
      <feFlood flood-opacity="0.161"/>
      <feComposite operator="in" in2="blur"/>
      <feComposite in="SourceGraphic"/>
    </filter>
    <filter id="Trazado_657614" x="197.805" y="68.978" width="93.931" height="33.86" filterUnits="userSpaceOnUse">
      <feOffset dy="3" input="SourceAlpha"/>
      <feGaussianBlur stdDeviation="3" result="blur-2"/>
      <feFlood flood-opacity="0.161"/>
      <feComposite operator="in" in2="blur-2"/>
      <feComposite in="SourceGraphic"/>
    </filter>
  </defs>
  <g id="_3" data-name="3" transform="translate(-1020 -2128)" clip-path="url(#clip-path)">
    <g id="Grupo_1098449" data-name="Grupo 1098449" transform="translate(0 22.131)">
      <path id="Trazado_658762" data-name="Trazado 658762" d="M177.447,80.915,174.5,82.057a4.84,4.84,0,0,0-2.772,2.771l-1.142,2.952-1.141-2.952a4.846,4.846,0,0,0-2.772-2.771l-2.952-1.142,2.952-1.141A4.851,4.851,0,0,0,169.441,77l1.141-2.952L171.723,77a4.845,4.845,0,0,0,2.772,2.772Z" transform="translate(1090.466 2191.235)" fill="#ffd357"/>
      <path id="Trazado_658763" data-name="Trazado 658763" d="M32.711,53.058l-4.385,1.7a7.191,7.191,0,0,0-4.12,4.118l-1.7,4.387-1.7-4.387a7.2,7.2,0,0,0-4.12-4.118l-4.387-1.7,4.387-1.7a7.209,7.209,0,0,0,4.12-4.12l1.7-4.387,1.7,4.387a7.2,7.2,0,0,0,4.12,4.12Z" transform="translate(1112.692 2136.777)" fill="#ffd357"/>
      <g id="Grupo_1098210" data-name="Grupo 1098210" transform="translate(1073.148 2133.303)">
        <g id="Grupo_1098190" data-name="Grupo 1098190" clip-path="url(#clip-path-2)">
          <path id="Trazado_829862" data-name="Trazado 829862" d="M54.334,197.55c-.391-18.125-39.143-31.774-34.1-76.572S72.52,56.8,97.22,51.5c0,0,73.289-14.494,107.965,10.584s17.117,78.312-3.656,114.691,27.126,60.718,4.12,100.345S100.611,333.65,58.424,301.268s-3.7-85.593-4.09-103.718" transform="translate(-19.78 -38.064)" fill="#ffe2e2"/>
          <path id="Trazado_829863" data-name="Trazado 829863" d="M2.535,891.444a70.336,70.336,0,0,0,27.28-11.254,69.728,69.728,0,0,0,10.944-9.405q1.246-1.31,2.426-2.679.59-.685,1.162-1.383.286-.35.568-.7c.011-.014.332-.422.416-.526a69.027,69.027,0,0,0,4.216-6.155c11.532-18.885,13.048-42.723,5.217-63.418-2.338-6.179-6.009-11.975-8.65-18.139a34.3,34.3,0,0,1-2.733-10.258A22.855,22.855,0,0,1,44.8,757.36a1.85,1.85,0,0,1,3.564.982,19.267,19.267,0,0,0,.438,8.876,44.118,44.118,0,0,0,3.077,8.23c2.71,5.683,6.074,10.988,8.5,16.817a80.491,80.491,0,0,1,5.984,34.473,77.151,77.151,0,0,1-9.31,33.637,76.95,76.95,0,0,1-20.738,23.8c-9.2,7.031-20.4,12.374-31.93,13.956-1.854.254-3.725-.448-4.267-2.423a3.5,3.5,0,0,1,2.423-4.267" transform="translate(142.519 -608.038)" fill="#ffe2e2"/>
          <path id="Trazado_829864" data-name="Trazado 829864" d="M366.55,1456.951a3.64,3.64,0,0,1,.48-.623,7.056,7.056,0,0,1,.623-.479,3.078,3.078,0,0,1,3.1,0,3.311,3.311,0,0,1,1.17,1.164l.076.108.177.252.3.716a2.273,2.273,0,0,1,.054,1.2,1.493,1.493,0,0,1-.2.757,2.248,2.248,0,0,1-.62.965l-.607.469-.717.3a2.272,2.272,0,0,1-1.2.054,2.234,2.234,0,0,1-1.115-.356l-.252-.177-.108-.076a3.306,3.306,0,0,1-1.164-1.17,3.077,3.077,0,0,1,0-3.1" transform="translate(-235.311 -1170.463)" fill="#ffe2e2"/>
          <path id="Trazado_829865" data-name="Trazado 829865" d="M672.08,21.045c3.447-2.654,6.845-5.354,10.531-7.677a86.516,86.516,0,0,1,11.506-6,114.134,114.134,0,0,1,12.426-4.621q3.007-.915,6.065-1.654A24.012,24.012,0,0,1,719.51.02a2.6,2.6,0,0,1,2.428,1.849,2.523,2.523,0,0,1-1.157,2.844,37.405,37.405,0,0,1-6.693,1.754Q711.02,7.154,708,8.022a105.382,105.382,0,0,0-11.852,4.159c-3.792,1.6-7.46,3.435-11.1,5.352a89.407,89.407,0,0,0-11.133,6.649,1.831,1.831,0,0,1-2.484-.651,1.86,1.86,0,0,1,.651-2.485" transform="translate(-644.467 0)" fill="#ffe2e2"/>
        </g>
      </g>
      <g id="Grupo_996089" data-name="Grupo 996089" transform="translate(1037.946 2107.674)">
        <g id="Grupo_1098208" data-name="Grupo 1098208" transform="translate(0)">
          <path id="Trazado_658691" data-name="Trazado 658691" d="M130.759,285.723s12.889-1.333,15.556-17.333-12-25.778-12-25.778l2.222,5.333-4.445-4.444s1.334,8.889-3.111,11.555-13.333,19.111-7.555,22.223a29.2,29.2,0,0,1,9.333,8.444" transform="translate(-32.26 0)" fill="#a06f3e"/>
          <path id="Trazado_658707" data-name="Trazado 658707" d="M147.34,240.5l26-68s4,.333,3.333-2-30.333-22.333-32.666-22-20.334,34.333-20.334,34.333l7-3s13.543-23.5,14.6-23.417S168.007,169.5,168.34,171.5s-24,65.333-24,65.333Z" transform="translate(-66.508 0)" fill="#252238"/>
          <path id="Trazado_658708" data-name="Trazado 658708" d="M183.7,173.5s-6.333-14.333-7.333-15.667c-.756-1.006-2.461-4.1-3.251-5.561a1.191,1.191,0,0,0-2.221.368c-.5,2.961-2.11,13.154-.973,14.86,1.334,2,13.778,6,13.778,6" transform="translate(-119.313 0)" fill="#a06f3e"/>
          <path id="Trazado_658709" data-name="Trazado 658709" d="M128.98,317.457a2.37,2.37,0,0,0,1.21,1.71,11.468,11.468,0,0,0,5,0l8.33-1,6.67.67a63.141,63.141,0,0,0,7,.33c4.33,0,11.67-2.33,11.67-2.33s3.66,3,13.33,2.66,5-7,5-7l8,1.34s2,5,3.67,5,12.66-.34,17-.67,6-5.33,3.66-5.67-2.66-.33-2.66-.33,10-12.67,14.33-21.33,2.67-24,.67-25.34-5.67-1-7.67-.66-7.67,6-7.67,6-4-8-5.33-13.67a7.627,7.627,0,0,1-.16-.9c-.9-5.97,1.38-17.39-7.17-29.1a144.8,144.8,0,0,0-9.4-11.63c-2.88-3.22-4.42-4.73-4.6-6.04-.34-2.33.66-4,3.33-3s8.67,3.67,10,3.67h3a10.343,10.343,0,0,0,4.33.67c1.67-.34,5.34-7.34,5.34-7.34s-9-8-10.34-9.33a5.873,5.873,0,0,1-1.33-3.67s.67-6.33,0-8.33c-.46-1.37-6.09-8.07-11.73-12.8-2.58-2.16-5.17-3.9-7.27-4.53-6.67-2-18.33,3-18.33,3s-7.56,6.55-9.11,16.55c-1.19,7.65-1.23,15.11-1.89,16.45-.22.45-1.4,3.58-2.89,7.89-1.72,4.99-3.83,11.55-5.3,17.26a46.809,46.809,0,0,0-1.81,10.18,102.112,102.112,0,0,0,1.44,13.14c1.48,9.42,3.56,19.53,3.56,19.53s-12.67-7-17.34-2,9.34,40.33,9.34,40.33l-7.19,4.08-2.81,1.59a3.136,3.136,0,0,0-2.67-1c-1.44,0-1.84,3.44-1.21,5.62" transform="translate(-128.691 0)" fill="#c49a6f"/>
          <path id="Trazado_658710" data-name="Trazado 658710" d="M170.144,225.987c7.96,4.67,17.69,10.18,17.69,10.18s31-14.5,17.16-12.67-16-10.83-16-10.83l3.91,2.76c-1.1-.87-3.33-3.05-2.57-6.09,1-4-2.67-10.17-2.67-10.17s-3.163-11.833-.333-17.833,11-13.5,15.333-14.5a17.042,17.042,0,0,1,12.27,2.533c-2.58-2.16-5.17-3.9-7.27-4.53-6.67-2-18.33,3-18.33,3s-7.56,6.55-9.11,16.55c-1.19,7.65-1.23,15.11-1.89,16.45-.22.45-1.4,3.58-2.89,7.89-1.72,4.99-3.83,11.55-5.3,17.26" transform="translate(-151.165 0)" fill="#a06f3e"/>
          <path id="Trazado_658711" data-name="Trazado 658711" d="M201.883,174.167s-6.667-10.667-12-15-7-6.667-8.333-6.333-.334,7-.334,7-2,13.666-1.333,15.666a6.565,6.565,0,0,0,2,3s0-9,4-7.666a29.6,29.6,0,0,1,8,4.666l-.667-2.333s5.334,2,8.667,1" transform="translate(-147.717 0)" fill="#c49a6f"/>
          <path id="Trazado_658712" data-name="Trazado 658712" d="M151.574,236.167a102.112,102.112,0,0,0,1.44,13.14c2.51.39,6.97,1.83,11.56,6.86,7,7.67,9.33,24.33,9.33,24.33l1.31.13,2.02.2s.06-.37.19-1.03c.95-5.08,5.55-27.3,13.81-29.96,9.34-3,12.67,1.66,12.67,1.66l-7,28.34s17.66-6.35,19.84-23.57c-.9-5.97,1.38-17.39-7.17-29.1a144.8,144.8,0,0,0-9.4-11.63c-1.72,2.52-5.34,6.11-12.52,7.61a36.162,36.162,0,0,1-8.08.69c-16.53-.3-20.25-12.35-20.89-15.11-2.96,8.61-7.11,21.88-7.11,27.44" transform="translate(-134.405 0)" fill="#1cf290"/>
          <path id="Trazado_658713" data-name="Trazado 658713" d="M145.248,200.334s.252,5.333,1.007,5.667,4.281-.667,3.777-2-3.777-3.667-4.784-3.667" transform="translate(-61.416 0)" fill="#252238"/>
          <path id="Trazado_658714" data-name="Trazado 658714" d="M164.414,280l.19-.2c.95-5.08,5.55-27.3,13.81-29.96,9.34-3,12.67,1.66,12.67,1.66s-2.5-7-12.833-3.5-13.837,32-13.837,32" transform="translate(-121.585 0)" fill="#008d4c"/>
          <path id="Trazado_658715" data-name="Trazado 658715" d="M169.414,189.167s-2.333-3-4.333-3a27.918,27.918,0,0,0-4,.333l4,1.334s-.667,3.333.333,3,1.167-.334,1.333-1.167.334-1.5.334-1.5Z" transform="translate(-96.582 0)" fill="#252238"/>
          <path id="Trazado_658734" data-name="Trazado 658734" d="M177.3,236.167a102.112,102.112,0,0,0,1.44,13.14c2.51.39,6.97,1.83,11.56,6.86,7,7.67,9.33,24.33,9.33,24.33l1.31.13a104.93,104.93,0,0,1,.47-10.9c.66-5.34,3.78-11.56,3.78-11.56h-2s1.77-12.44,2.88-13.78,10.67-2,10.67-2l-14.67-4.22,11.31-15.02a36.162,36.162,0,0,1-8.08.69c-16.53-.3-20.25-12.35-20.89-15.11-2.96,8.61-7.11,21.88-7.11,27.44" transform="translate(-160.135 0)" fill="#07cc72"/>
          <path id="Trazado_658743" data-name="Trazado 658743" d="M153.081,172.167,129.3,236.389l-.889-2.666,23.556-63.334-6.889,21.334Z" transform="translate(-47.582 0)" fill="#322f4f"/>
          <path id="Trazado_658746" data-name="Trazado 658746" d="M161.048,313.5s1.444-12.778,1.667-15.222,17.444-25.778,16.555-25.334-19.555,17.334-20.889,17.556-3.666-1.444-3.666-1.444L149.381,310.5l3.889,2Z" transform="translate(-94.771 0)" fill="#a06f3e"/>
          <path id="Trazado_658747" data-name="Trazado 658747" d="M198.636,168.611s-5.556-7.555-7.111-8.444-3.111-1.778-3.333-.667-.667,11.778-.667,11.778,1.555-2.667,3.111-2.667,8.889,1.556,8.889,1.556Z" transform="translate(-153.137 0)" fill="#a06f3e"/>
          <path id="Trazado_658748" data-name="Trazado 658748" d="M205.316,204.834a18.677,18.677,0,0,1-5.667,3,14.99,14.99,0,0,1-7.166.333l7-3.166s-6.5,1.833-11.334,1.5-12.5-3.5-12.5-3.5l5.334-3.834-6,2.5a41.719,41.719,0,0,1-1.834-6.833c-.333-2.667.667-9.333.667-9.333l1,7,1.833-5.167s.667,6.667,4.5,8.333,12.5-.166,12.5-.166l-3.333,2.833s3.667,8.333,15,6.5" transform="translate(-144.484 0)" fill="#a06f3e"/>
          <path id="Trazado_658749" data-name="Trazado 658749" d="M191.894,215.817l-.27-.19c.13.09.22.16.27.19" transform="translate(-149.605 0)" fill="#b2544d"/>
          <path id="Trazado_658750" data-name="Trazado 658750" d="M166.581,209.334l-8.667-4.167s6.667,4.334,8.667,4.167" transform="translate(-90.582 0)" fill="#a04d42"/>
          <path id="Trazado_658751" data-name="Trazado 658751" d="M191.084,280.5l1.167,30.167,2.163-29.837Z" transform="translate(-151.585 0)" fill="#a06f3e"/>
          <path id="Trazado_658752" data-name="Trazado 658752" d="M192.636,251.5l-11.889,28,3.111-3.444s-6.666,31.889-7.111,33-1,3-1,3-1.555-1.778-3.333-1.445a3.838,3.838,0,0,0-2.556,1.889,2.926,2.926,0,0,0-2.889-1.444,3.547,3.547,0,0,0-2.555,1.667,3.882,3.882,0,0,1,2.889-.889c1.666.222,2.555,6.222,2.555,6.222s.222-5.556,3-6,4.222,4.889,4.222,4.889-.888-3.334,1.445-4.667,3.778,1.556,3.778,1.556l-.667-1.337-2.667-3.108,6.667-29.552Z" transform="translate(-123.137 0)" fill="#a06f3e"/>
          <path id="Trazado_658753" data-name="Trazado 658753" d="M204.636,269.723a9.738,9.738,0,0,1,4.778-.444c2.555.444,7.666,4.111,7.666,4.111l6.445,37.666-2.778.111a10.314,10.314,0,0,0-3.889-2.444,8.34,8.34,0,0,0-3.778.111,5.532,5.532,0,0,1,3-1.444h1.778s-9.666-10-11.889-16.556,0-17.222,0-17.222l.778,7.333,1-8.778,1.222,3s1.223-5.222-4.333-5.444" transform="translate(-194.248 0)" fill="#a06f3e"/>
          <path id="Trazado_658754" data-name="Trazado 658754" d="M206.915,268.837l6.552,41.774a3.839,3.839,0,0,0-2.889.223,2.927,2.927,0,0,0-1.111,2.222s-2.555-1.445-4.111-.222-1.778,5-1.222,5.444,9.111.889,9.111.889-6.222-1.222-7.111-2-.222-3.333.889-3.444,2.666,4.111,2.666,4.111-.222-5.334,1.445-5.889a5.888,5.888,0,0,1,3.667.333Z" transform="translate(-184.746 0)" fill="#a06f3e"/>
          <path id="Trazado_658755" data-name="Trazado 658755" d="M224.7,317.457c.06-1.01.37-4.48,1.99-4.29,1.89.22,1.89,4.44,1.89,4.44s0-1.11.11-3,1.11-2.44,2.78-2,2.44,4.78,2.44,4.78a7.348,7.348,0,0,0-2.52-6.14l-2.81,1.59a3.136,3.136,0,0,0-2.67-1c-1.44,0-1.84,3.44-1.21,5.62" transform="translate(-224.409 0)" fill="#a06f3e"/>
          <path id="Trazado_658756" data-name="Trazado 658756" d="M155.192,312.5a4.485,4.485,0,0,0-2,.778,9.806,9.806,0,0,0-1.778,2s1-2.778-1-3.111-4.667,1.555-4.667,1.555,3.445-1.222,4.334-.889.889,3.556.889,3.556,2.555-4,4.222-3.889" transform="translate(-67.026 0)" fill="#a06f3e"/>
          <path id="Trazado_658757" data-name="Trazado 658757" d="M136.527,268.723a79.112,79.112,0,0,1,.111,12.889,30.221,30.221,0,0,1-3.333,11.555c-.445.667.889-5.777.889-5.777l-3.667,7.111s4-11.778,4.555-16.778.667-11.222.667-11.222l.445,4.222Z" transform="translate(-33.473 0)" fill="#a06f3e"/>
          <path id="Trazado_658758" data-name="Trazado 658758" d="M204.414,270.834l6.778,32.667-.889-7.889,2,5.555s-3.889-20.666-4.333-24.555-3.223-13.334-3.223-13.334l1,7-2.222-4.666Z" transform="translate(-181.915 0)" fill="#e8c29b"/>
          <path id="Trazado_658759" data-name="Trazado 658759" d="M194.247,249.307s5.39-2.14,12.39,5.027S215.3,280,215.3,280s-4.947-23.553-21.057-30.693" transform="translate(-175.638 0)" fill="#008d4c"/>
          <path id="Trazado_658760" data-name="Trazado 658760" d="M149.081,311s1.833-13.5,4-17.667,9-16.333,9-16.333l-6.667,14,2.167-2.667s-7.833,18-8.5,22.667" transform="translate(-77.249 0)" fill="#a06f3e"/>
          <path id="Trazado_658761" data-name="Trazado 658761" d="M209.3,225.5s-9.111,2.222-17.111-1.556-8.889-8.666-8.889-8.666,8.445,11.555,26,10.222" transform="translate(-158.693 0)" fill="#008d4c"/>
          <g id="Grupo_1098211" data-name="Grupo 1098211" transform="translate(-267.831 -4144.955)">
            <g transform="matrix(1, 0, 0, 1, 249.88, 4143.15)" filter="url(#Trazado_657613)">
              <path id="Trazado_657613-2" data-name="Trazado 657613" d="M179.845,25.74l-.652.013H54.293c8.33-10.072,24.551-13.028,35.663-5.9,6.134-7.025,12.907-13.892,21.5-17.512S130.9-.994,137.781,5.314c4.272,3.912,6.494,9.527,8.582,14.93,10.088-7.612,26.349-4.949,33.481,5.5" transform="translate(-1.8 49.23)" fill="#fff"/>
            </g>
            <g transform="matrix(1, 0, 0, 1, 249.88, 4143.15)" filter="url(#Trazado_657614)">
              <path id="Trazado_657614-2" data-name="Trazado 657614" d="M198.6,69.459H122.666C128,63.7,134.29,57.64,142.094,57.753c5.745.072,10.84,3.561,15.237,7.259a36.468,36.468,0,0,1,15.917-10.2,20.55,20.55,0,0,1,10.173-.906c7.413,1.513,12.118,8.412,15.175,15.557" transform="translate(84.14 21.38)" fill="#fff"/>
            </g>
            <path id="Trazado_657615" data-name="Trazado 657615" d="M78.987,89.026H3.056C8.389,83.27,14.68,77.207,22.484,77.32c5.745.072,10.84,3.561,15.237,7.257a36.478,36.478,0,0,1,15.917-10.2,20.55,20.55,0,0,1,10.173-.906c7.413,1.513,12.118,8.412,15.175,15.557" transform="translate(281.944 4190.427)" fill="#fff"/>
          </g>
          <g id="Grupo_1098209" data-name="Grupo 1098209" transform="translate(71.666 -2.115)">
            <g id="Grupo_1098178" data-name="Grupo 1098178" transform="translate(0 43.936)">
              <path id="Trazado_829798" data-name="Trazado 829798" d="M1332.37,309c3.4,4.7,13.315,27.677,15.4,28.2s22.31-21.654,25.576-24.1c4.056-3.043,16.808-2.644,16.808-2.644l20.284,3.636s12.012,3.266,14.883,7.574c6.977,10.466,14.652,38.74,17.266,44.485,2.463,5.418,17.338,24.235,19.031,26.37a.506.506,0,0,1,.1.441c-.568,2.295-5.006,19.864-7.856,19.864-4.6,0-20.642-21.15-24.777-28.144a63.9,63.9,0,0,1-5.393-10.831s-4.216-11.361-4.2-9.73c.038,3.5,1.408,10.655,2.749,18.939-4.687-.273-9.28-1.606-13.858-2.53-5.149-1.038-10.386-1.74-15.6-2.337s-10.449-1.013-15.694-1.24c-.282-.013-.568-.017-.849-.029l-.609-5.384-1.181-26.585s-20.083,23.47-30.065,19.4c-8.221-3.35-29.312-43.153-29.312-43.153s15.741-14.362,17.3-12.2Z" transform="translate(-1307.122 -285.051)" fill="#739dca"/>
              <path id="Trazado_829799" data-name="Trazado 829799" d="M1437.3,312.764s4.51,20.175,6.052,22.482c.189.282,4.531-4.493,7.637-8.726a103.825,103.825,0,0,0,6.51-10.083l-20.2-3.678Z" transform="translate(-1354.26 -287.356)" fill="#fff"/>
              <path id="Trazado_829800" data-name="Trazado 829800" d="M1284.191,544.013c.126-.643,1.114-.374.988.273a17.322,17.322,0,0,0,.126,7.347c.513,2.131,1.669,4.363,4.035,4.771.647.109.374,1.1-.273.988-2.53-.433-4.006-2.749-4.64-5.052a18.25,18.25,0,0,1-.24-8.322Z" transform="translate(-1121.96 -421.198)" fill="#80756a"/>
              <g id="Grupo_1098177" data-name="Grupo 1098177" transform="translate(161.632 122.788) rotate(30)">
                <path id="Trazado_829801" data-name="Trazado 829801" d="M1.5.119q1.071,1.82,2.138,3.637L20.609,32.606Q29.1,47.033,37.584,61.457q8.525,14.486,17.047,28.973l16.975,28.85,8.34,14.175c.063.244-.425.62-.783.8-.168.086-.65.223-.777.015-3.382-5.752-6.7-11.384-10.31-17.521Q64.99,111.5,61.9,106.257L51.1,87.9Q42.576,73.412,34.054,58.926L17.079,30.076Q8.553,15.589.031,1.1C-.231.66,1.227-.334,1.489.113Z" transform="translate(2.324 3.329)" fill="#adbed0"/>
                <path id="Trazado_829802" data-name="Trazado 829802" d="M39.456,62.769,28.751,44.834Q16.9,24.993,5.062,5.157q-1.494-2.5-2.984-5C1.712-.458-.322.9.044,1.517q11.9,19.923,23.79,39.845L37.447,64.168q1-.7,2.013-1.4Z" transform="matrix(1, 0.017, -0.017, 1, 2.9, 2.998)" fill="#bd2328"/>
                <path id="Trazado_829803" data-name="Trazado 829803" d="M29.53,45.631Q17.677,25.778,5.825,5.928,4.109,3.054,2.391.179C1.966-.528-.367,1.04.049,1.742Q13.642,24.508,27.231,47.27c.773-.525,1.543-1.072,2.295-1.639Z" transform="matrix(1, 0.017, -0.017, 1, 0.825, 0)" fill="#1a1a1a"/>
              </g>
              <path id="Trazado_829804" data-name="Trazado 829804" d="M1317.864,526.033s-1.484,9.554,1.286,10.016c1.576.265,7.024-6.246,6.826-12.546S1317.864,526.033,1317.864,526.033Z" transform="translate(-1172.375 -408.208)" fill="#1a1a1a"/>
              <path id="Trazado_829805" data-name="Trazado 829805" d="M1280.844,517.6a15.871,15.871,0,0,1,1.828-6.918c1.828-3.266,5.09-5.22,7.179-3.131a19.633,19.633,0,0,0,4.548,3.312,3.663,3.663,0,0,1,1.29.139c2.98.933,7.162,3.648,8.112,8.011.6,2.745.416,5.342.551,8.339a3.33,3.33,0,0,1-1.484,3.085s-1.9-3.127-2.349-3.938c-.664-1.189-2.118-1.845-2.728-.794-.5.862.2,1.975.925,3.3,1.135,2.076-2.16,3.316-2.866,1.442s-2.69-2.724-4.909-4.644a26.007,26.007,0,0,1-4.329-5.628c-1.824-.845-5.771-2.568-5.771-2.568Z" transform="translate(-1135.354 -399.773)" fill="#ed986b"/>
              <path id="Trazado_829806" data-name="Trazado 829806" d="M1652.192,324.558s-7.431,2.967-8.658,1.736,5.632-8.2,7.271-8.709,1.387,6.969,1.387,6.969Z" transform="translate(-1635.585 -290.139)" fill="#1a1a1a"/>
              <path id="Trazado_829807" data-name="Trazado 829807" d="M1620.758,263.988c1.139-.857,5.132,4.371,5.418,3.61s-2.454-5.792-3.6-7.881.286-3.69,1.349-3.051,4.817,7.7,5.292,7.225-2.661-7.511-3.161-8.5c-1.45-2.867,1.206-3.333,2.2-1.988,1.563,2.123,5.145,9.062,6,8.873s-.916-6.288-1.105-7.809,1.063-3.051,2.27-1.488c1.32,1.706,4.157,13,5.393,12.529s1.631-2.93,2.434-4.111c1.589-2.345,4.232-.8,3.127,1.273-.874,1.639-.925,3.615-1.072,5.557-.164,2.131-.748,4.485.151,7.746,1.614,5.842-4.485,8.78-4.485,8.78a29.053,29.053,0,0,1-4.039,1.984c-.576-1.051-1.744-2.749-2.425-3.892a17.143,17.143,0,0,0-3.968-4.333,45.629,45.629,0,0,1-4.552-5.8v.008c-.067-.1-.126-.2-.189-.3a58.691,58.691,0,0,0-4.14-5.468c-.639-.782-2.039-2.11-.9-2.967Z" transform="translate(-1620.326 -252.32)" fill="#ed986b"/>
              <path id="Trazado_829808" data-name="Trazado 829808" d="M1577.565,368.553a1.041,1.041,0,0,1,1.4.366l3.2,5.775a1.023,1.023,0,0,1-1.766,1.034l-3.2-5.775A1.037,1.037,0,0,1,1577.565,368.553Z" transform="translate(-1537.804 -319.625)" fill="#fff"/>
              <path id="Trazado_829809" data-name="Trazado 829809" d="M1633.228,289.514a15.715,15.715,0,0,1,3.673-6.183c.269-.315,1.13-1.286,1.408-1.009.311.311-.26,1.009-.676,1.534a16.576,16.576,0,0,0-2.926,6.069c-.294.937-1.778.538-1.479-.408Z" transform="translate(-1617.492 -269.683)" fill="#dd8059"/>
              <path id="Trazado_829810" data-name="Trazado 829810" d="M1637.29,286.475c2.236-2.282,8.032-5.279,8.869-4.758.319.2-1.988.786-7.784,5.842C1637.631,288.211,1636.6,287.182,1637.29,286.475Z" transform="translate(-1626.909 -269.327)" fill="#dd8059"/>
              <path id="Trazado_829811" data-name="Trazado 829811" d="M1411.318,418.88q2.087,7.067,4.468,14.051c.315.929-1.076,1.572-1.4.639q-2.44-7.168-4.585-14.429C1409.523,418.2,1411.041,417.947,1411.318,418.88Z" transform="translate(-1301.021 -348.533)" fill="#376b92"/>
              <path id="Trazado_829812" data-name="Trazado 829812" d="M1407.895,350.071q-.952,3.493-1.753,7.015c-.147.643-1.131.37-.988-.273a172.6,172.6,0,0,1,6.809-22.583c.3.21.58.425.841.643Q1410,342.35,1407.895,350.071Z" transform="translate(-1296.046 -299.802)" fill="#376b92"/>
              <path id="Trazado_829813" data-name="Trazado 829813" d="M1513.765,316.19a204.468,204.468,0,0,1,2.761,23.394c.038.656-.984.656-1.021,0a202.676,202.676,0,0,0-2.707-23.033c.307-.13.63-.248.971-.361Z" transform="translate(-1445.019 -289.345)" fill="#376b92"/>
              <path id="Trazado_829814" data-name="Trazado 829814" d="M1429.31,312.748c.378,0,.723-.008,1.034-.008a143.6,143.6,0,0,0,4.884,20.108c.664,2.064,1.383,4.115,2.139,6.145a95.344,95.344,0,0,0,14.782-18.01c.807-1.278,1.572-2.581,2.32-3.9.307.1.639.21.992.332a96.355,96.355,0,0,1-12.824,17.678c-1.551,1.694-3.152,3.346-4.833,4.909a.726.726,0,0,1-1.194-.113,143.912,143.912,0,0,1-6.822-24.42c-.168-.9-.319-1.812-.471-2.719Z" transform="translate(-1348.863 -287.345)" fill="#376b92"/>
              <path id="Trazado_829815" data-name="Trazado 829815" d="M1623.765,332.506c3.379-1.9,6.486-4.909,7.049-8.826.244.475.492.967.748,1.471-1.69,6.069-8.869,10.012-14.736,10.869a16.886,16.886,0,0,1-3.253.164c-.206-.37-.4-.723-.593-1.068a18.844,18.844,0,0,0,10.785-2.614Z" transform="translate(-1602.162 -293.687)" fill="#376b92"/>
              <path id="Trazado_829816" data-name="Trazado 829816" d="M1326.173,515.258c-.332-.336-.668-.681-1.013-1.042a36.323,36.323,0,0,1,1.232-8.6c.983-3.7,2.391-7.864,5.447-10.386a9,9,0,0,1,3.686-1.866c.235.3.467.6.689.891-4.342.618-6.746,5.2-8.045,9.024a36.109,36.109,0,0,0-2,11.987Z" transform="translate(-1185.84 -392.049)" fill="#376b92"/>
              <path id="Trazado_829817" data-name="Trazado 829817" d="M1289.905,513.964c3.051-1.017,8.024-.055,7.982,5.212a11.06,11.06,0,0,0-1.089-1.164,4.239,4.239,0,0,0-2.408-2.951,5.636,5.636,0,0,0-4.212-.113,11.784,11.784,0,0,0-6.288,5.607,9.223,9.223,0,0,0-.664,8.007,12.918,12.918,0,0,0,2.7,3.732,30.294,30.294,0,0,0,3.362,3,22.485,22.485,0,0,0,10.251,3.888c.643.071.652,1.089,0,1.017a23.375,23.375,0,0,1-10.344-3.716,31.982,31.982,0,0,1-3.837-3.316,14.073,14.073,0,0,1-3.1-4.291c-2.459-5.813,1.967-13.017,7.645-14.908Z" transform="translate(-1131.327 -403.784)" fill="#80756a"/>
            </g>
            <path id="Trazado_829818" data-name="Trazado 829818" d="M1422.62,909.487c0,1.61,15.333,2.917,34.247,2.917s34.247-1.307,34.247-2.917-15.333-2.917-34.247-2.917S1422.62,907.877,1422.62,909.487Z" transform="translate(-1381.704 -587.647)" fill="#6a516b"/>
            <g id="Grupo_1098179" data-name="Grupo 1098179" transform="translate(46.831 152.393)">
              <path id="Trazado_829819" data-name="Trazado 829819" d="M1487.366,617.606s7.465,4.111,8.406,1.845c1.349-3.249-2.329-14.463-4.044-16.178S1487.366,617.606,1487.366,617.606Z" transform="translate(-1460.698 -564.147)" fill="#1a1a1a"/>
              <path id="Trazado_829820" data-name="Trazado 829820" d="M1502.507,510.364c-.445,1.454-15.156,43.607-18.725,56.687s9.81,67.346,9.81,67.346-1.795,5.687-5.808,15.375,14.711,15.018,16.5,10.659,2.076-20.007,1.328-25.361c-2.64-18.83,1.1-46.587-2.581-55.46-.593-1.425,13.3-17.4,16.867-41.148s-17.388-28.1-17.388-28.1Z" transform="translate(-1483.177 -510.36)" fill="#ed986b"/>
              <path id="Trazado_829821" data-name="Trazado 829821" d="M1523.6,777.03s-1.963-7.973-4.186-18.536a18.139,18.139,0,0,0,5.935.731,20.579,20.579,0,0,0,7.692-1.963,13.721,13.721,0,0,0,1.555-.853,154.111,154.111,0,0,0,1.021,21.293c.752,5.355.454,21-1.328,25.362s-20.507-.971-16.5-10.659S1523.6,777.03,1523.6,777.03Z" transform="translate(-1513.19 -652.993)" fill="#e3ebf4"/>
              <path id="Trazado_829822" data-name="Trazado 829822" d="M1517.779,820.207c4.014-9.688,5.809-15.375,5.809-15.375s-.273,1.627-.458,3.707c.916-1.812,1.828-2.471,3.005-2.551,1.635-.109,6.233-1.11,6.645,2.888.252,2.463.967,2.774,1.484,2.652.542-2.841,1-5.754,1.206-7.158.046.378.089.761.139,1.135.752,5.355.454,21-1.328,25.362s-20.507-.971-16.5-10.659Z" transform="translate(-1513.177 -680.795)" fill="#edb140"/>
              <path id="Trazado_829823" data-name="Trazado 829823" d="M1517.637,843.41a2.178,2.178,0,0,0,.143.589c.53,1.152,1.236.862,2.295.862s9.886,3.934,10.323,5.082,2.118,2.589,3.442.479c.878-1.4,1.837-6.313,2.379-9.541-.231,4.7-.74,9.129-1.564,11.147-1.652,4.043-17.876-.248-17.022-8.621Z" transform="translate(-1513.56 -701.96)" fill="#e3ebf4"/>
              <path id="Trazado_829824" data-name="Trazado 829824" d="M1530.391,825.142a2.627,2.627,0,0,1,2.236-.336c.656.122,1.408.475,2.051.139.139-.071.4-.235.425-.429.033-.248-.282-.425-.446-.534-.731-.5-1.5-.942-2.253-1.387-.677-.4-1.622-.731-2.026-1.5a2.022,2.022,0,0,1,.252-2.11,3,3,0,0,1,2.37-.979c1.055-.076,2.11-.135,3.165-.2.908-.059.9,1.475,0,1.534-.82.05-1.635.105-2.455.156-.559.038-1.5-.067-1.946.4-.5.525.3.765.656.967q1.047.6,2.076,1.236c1.042.647,2.585,1.593,1.841,3.165-.639,1.345-2.1,1.463-3.3,1.194-.391-.088-1.58-.534-1.845-.017-.294.58.572,1.282.891,1.58.689.647-.315,1.727-1,1.084a3.854,3.854,0,0,1-1.269-1.862,2.126,2.126,0,0,1,.58-2.106Z" transform="translate(-1519.295 -688.584)" fill="#d99b2b"/>
            </g>
            <g id="Grupo_1098180" data-name="Grupo 1098180" transform="translate(85.803 176.602)">
              <path id="Trazado_829825" data-name="Trazado 829825" d="M1432.493,575.961c-6.657,54.022-17.144,117.291-17.455,119.628s3.3,8.852,5.766,13.189,1.5,5.325-9.011,5.367c-12.651.05-12.983-.466-12.8-3.867.1-1.9,1.711-8.15,2.783-16.947.786-6.452.176-14.509.437-21.293.618-16.026-.206-33.427,4.182-44.906,0,0,.618-44.41,5.245-54.094s21.667-3.72,20.848,2.921Z" transform="translate(-1398.962 -567.958)" fill="#ed986b"/>
              <path id="Trazado_829826" data-name="Trazado 829826" d="M1426.943,843.254c.614-5.035.378-11.05.37-16.674.072.038.139.076.206.114a22.735,22.735,0,0,0,11.861,2.295,23.121,23.121,0,0,0,3.531-.5c-1.58,9.978-2.61,16.312-2.707,17.022-.307,2.337,3.3,8.852,5.767,13.189s1.5,5.325-9.011,5.367c-12.651.051-12.983-.466-12.8-3.867.1-1.9,1.711-8.15,2.782-16.947Z" transform="translate(-1424.129 -717.879)" fill="#e3ebf4"/>
              <path id="Trazado_829827" data-name="Trazado 829827" d="M1424.146,884.385c.072-1.37.631-5.035,1.509-10.289.164-.887,1.534,1.74,3.917,1.517,1.345-.567.235-3.858.879-5.38.353-.832,5.985-2.371,8.961-1.816,2.337.437.786,2.022,1.387,3.787a90.141,90.141,0,0,0,5.161,10.68c2.467,4.342,1.5,5.325-9.011,5.367C1424.3,888.3,1423.965,887.785,1424.146,884.385Z" transform="translate(-1424.114 -742.063)" fill="#edb140"/>
              <path id="Trazado_829828" data-name="Trazado 829828" d="M1429.131,885.135a10.711,10.711,0,0,1,1.261-.677,16.832,16.832,0,0,0,3.022-2.614,4.522,4.522,0,0,1-.66-.185,2.69,2.69,0,0,1-1.749-1.337c-.336-.9.311-1.526.929-1.984l2.072-1.538a.689.689,0,0,1,.971.273.822.822,0,0,1-.252,1.051l-1.421,1.055c-.235.176-.475.349-.71.525-.029.021-.076.067-.122.109.122.08.273.193.307.214a4.128,4.128,0,0,0,.656.252,4.083,4.083,0,0,0,1.5.13c.672-.059.853.849.5,1.311a17.777,17.777,0,0,1-1.6,1.812,10.511,10.511,0,0,1,5.388.862.8.8,0,0,1,.5.942c-.088.361-.517.693-.87.534a9.47,9.47,0,0,0-7.784-.046c-.067.046-.13.1-.2.139a.634.634,0,0,1-.324.109c-.231.122-.462.248-.689.391-.79.5-1.5-.828-.714-1.324Z" transform="translate(-1418.725 -746.928)" fill="#d99b2b"/>
              <path id="Trazado_829829" data-name="Trazado 829829" d="M1424.152,901.527c.034-.681.193-1.929.445-3.657a17.946,17.946,0,0,0,.837,2c.887,1.727.622,3.068,1.774,3.451a25.214,25.214,0,0,0,6.557.193c1.152-.193,1.5-1.437,2.749-2.013.992-.458,7.452-.429,10.02-.4,1.652,3.434,0,4.254-9.579,4.291-12.651.05-12.983-.466-12.8-3.867Z" transform="translate(-1424.12 -759.205)" fill="#e3ebf4"/>
            </g>
            <g id="Grupo_1098185" data-name="Grupo 1098185" transform="translate(68.959 0)">
              <path id="Trazado_829830" data-name="Trazado 829830" d="M1454.5,304.117a14.458,14.458,0,0,1-12.391-.794,9.447,9.447,0,0,1-4.813-5.409,1.927,1.927,0,0,0,1.942-1.185,22.893,22.893,0,0,0,1.568-8.394c.008-3.476,15.371,1.656,15.371,1.656s-2.7,9.075,1.328,11.588a6.8,6.8,0,0,1-3.005,2.534Z" transform="translate(-1423.228 -228.56)" fill="#ed986b"/>
              <path id="Trazado_829831" data-name="Trazado 829831" d="M1442.232,298.767l15.266-3.127C1458.683,306.7,1446.229,310.763,1442.232,298.767Z" transform="translate(-1425.369 -233.496)" fill="#1a1a1a"/>
              <path id="Trazado_829832" data-name="Trazado 829832" d="M1443.439,202.478c-.038-3.737-1.177-9.818-13.08-12.946s-19.292,1.891-21.932,6.044a20.734,20.734,0,0,0-2.946,8.713l-.1.517.038.013c-.866,7.587-.937,19.641,1.412,25,2.606,5.947,7.986,10.97,17.771,9.268,9.554-1.664,16.153-19.162,16.93-23.293.13-.7.277-1.467.429-2.274a46.872,46.872,0,0,0,1.479-11.037Z" transform="translate(-1395.532 -171.419)" fill="#ed986b"/>
              <path id="Trazado_829833" data-name="Trazado 829833" d="M1497.749,238.925a3.649,3.649,0,0,0-5.065,1.488c-2.03,3.283.281,11.756,3.82,12.424C1499.956,253.488,1497.749,238.925,1497.749,238.925Z" transform="translate(-1487.123 -200.334)" fill="#ed986b"/>
              <g id="Grupo_1098181" data-name="Grupo 1098181" transform="translate(23.051 51.213)" opacity="0.6">
                <path id="Trazado_829834" data-name="Trazado 829834" d="M1459.8,271.548a.9.9,0,0,0-.353-.778c-.395-.311-.794-.622-1.189-.933a.877.877,0,0,0-.66-.2.941.941,0,0,0-.5,1.669c.4.307.786.618,1.181.925A.946.946,0,0,0,1459.8,271.548Z" transform="translate(-1456.741 -269.632)" fill="#c8513a"/>
              </g>
              <path id="Trazado_829835" data-name="Trazado 829835" d="M1422.795,240.118a1.064,1.064,0,0,1-.349-1.009.854.854,0,0,1,1.168-.563,16.948,16.948,0,0,1,5.493,3.434.91.91,0,1,1-1.261,1.286,15.111,15.111,0,0,0-4.661-2.917,1.157,1.157,0,0,1-.391-.235Z" transform="translate(-1388.922 -200.363)" fill="#80292e"/>
              <path id="Trazado_829836" data-name="Trazado 829836" d="M1474.212,232.282a1.055,1.055,0,0,0,.584-.891.851.851,0,0,0-1-.828,16.989,16.989,0,0,0-6.166,1.992.963.963,0,0,0-.446,1.29.974.974,0,0,0,1.353.265,14.928,14.928,0,0,1,5.233-1.69,1.2,1.2,0,0,0,.437-.135Z" transform="translate(-1453.032 -195.768)" fill="#80292e"/>
              <g id="Grupo_1098182" data-name="Grupo 1098182" transform="translate(7.719 42.62)" opacity="0.71">
                <path id="Trazado_829837" data-name="Trazado 829837" d="M1497.765,249.193c-.588-.109-1.513,1.547-1.626,2.135s1.324,2.694,1.324,2.694S1498.353,249.3,1497.765,249.193Z" transform="translate(-1496.132 -249.188)" fill="#d76a3c"/>
              </g>
              <path id="Trazado_829838" data-name="Trazado 829838" d="M1407.107,254.389a3.65,3.65,0,0,1,4.174,3.232c.693,3.8-4.27,10.306-7.809,9.638C1400.021,266.608,1407.107,254.389,1407.107,254.389Z" transform="translate(-1362.449 -209.566)" fill="#ed986b"/>
              <g id="Grupo_1098183" data-name="Grupo 1098183" transform="translate(42.893 49.046)" opacity="0.71">
                <path id="Trazado_829839" data-name="Trazado 829839" d="M1412.961,264.477c.588.109.845,1.992.736,2.581s-2.215,2.026-2.215,2.026S1412.372,264.364,1412.961,264.477Z" transform="translate(-1411.481 -264.475)" fill="#d76a3c"/>
              </g>
              <path id="Trazado_829840" data-name="Trazado 829840" d="M1458.781,278.959l-11.521-2.429s.572,5.031,4.249,6.944,7.271-4.51,7.271-4.51Z" transform="translate(-1428.687 -222.418)" fill="#fff"/>
              <path id="Trazado_829841" data-name="Trazado 829841" d="M1436.388,256.356a.957.957,0,0,1,.08-.1.1.1,0,0,1,.017-.021.077.077,0,0,1,.017-.021c.059-.059.122-.118.185-.172a.605.605,0,0,1,.076-.071,1.268,1.268,0,0,1,.349-.185,1.454,1.454,0,0,1,.643-.067,1.274,1.274,0,0,1,.87.542,1.186,1.186,0,0,1,.177.349,1.441,1.441,0,0,1,.059.626v.025a2.174,2.174,0,0,1-.084.282.914.914,0,0,1-.08.156,1.172,1.172,0,0,1-.1.475c0,.008-.008.013-.013.021-.038.067-.105.172-.151.24a1.89,1.89,0,0,1-.231.223,1.281,1.281,0,0,1-.315.172c-.021.008-.042.013-.063.021a2.481,2.481,0,0,1-.307.067,1.42,1.42,0,0,1-.378-.013,2.131,2.131,0,0,1-.307-.092.6.6,0,0,1-.076-.034,1.287,1.287,0,0,1-.475-.4,1.521,1.521,0,0,1-.189-.345.515.515,0,0,1-.021-.076,2.611,2.611,0,0,1-.067-.3,1.853,1.853,0,0,1,.013-.4,2.351,2.351,0,0,1,.109-.391.991.991,0,0,1,.063-.156,3.031,3.031,0,0,1,.21-.34Z" transform="translate(-1404.041 -210.348)" fill="#1a1a1a"/>
              <path id="Trazado_829842" data-name="Trazado 829842" d="M1474.414,247.685a.481.481,0,0,1,.063-.067.671.671,0,0,1,.067-.084,3.434,3.434,0,0,1,.286-.269.85.85,0,0,1,.122-.092,1.384,1.384,0,0,1,.563-.219,1.1,1.1,0,0,1,.614.092,1.219,1.219,0,0,1,.467.382.524.524,0,0,1,.038.05,2.216,2.216,0,0,1,.126.244.146.146,0,0,1,.017.046,1.327,1.327,0,0,1,.08.361c0,.059,0,.122,0,.177a.981.981,0,0,1-.013.193,1.93,1.93,0,0,1-.1.366,1.186,1.186,0,0,1-.126.227c-.017.025-.029.05-.046.071s-.017.042-.025.059a1.651,1.651,0,0,1-.231.336,1.21,1.21,0,0,1-.483.34,1.393,1.393,0,0,1-.345.092,1.359,1.359,0,0,1-.706-.092,1.163,1.163,0,0,1-.534-.441,1.262,1.262,0,0,1-.2-.563,1.533,1.533,0,0,1,.008-.311.241.241,0,0,1,.013-.08,2.822,2.822,0,0,1,.114-.366.877.877,0,0,1,.067-.143s0-.008.008-.013a1.607,1.607,0,0,1,.172-.3Z" transform="translate(-1458.013 -205.266)" fill="#1a1a1a"/>
              <path id="Trazado_829843" data-name="Trazado 829843" d="M1370.38,206.791c-.025,2.148,2.627,3.178,4.275,3.858,1.887.778,4.111,1.223,5.9-.029.76-.534,1.479.715.727,1.244-2.224,1.559-5.04,1.013-7.368.021-2.2-.937-5-2.3-4.968-5.094a.719.719,0,0,1,1.437,0Z" transform="translate(-1318.585 -181.588)" fill="#80292e"/>
              <path id="Trazado_829844" data-name="Trazado 829844" d="M1480.986,181.9c-.534-.757.71-1.479,1.244-.727a9.727,9.727,0,0,0,2.837,2.782,5.776,5.776,0,0,0,3.69.677,12.568,12.568,0,0,0,5.632-2.593c.429-.5.853-1,1.257-1.509.555-.7,1.509.223,1.072.933a.748.748,0,0,1-.273.841c-.349.261-.7.517-1.059.773-.643.74-1.307,1.458-2,2.148a12.469,12.469,0,0,1-3.371,2.631c-2.665,1.232-5.678.467-8.07-1.021-.786-.488-.063-1.732.727-1.244,2.114,1.316,4.842,2.081,7.137.752a8.413,8.413,0,0,0,1.105-.778,9.6,9.6,0,0,1-2.559.538c-3.182.206-5.615-1.723-7.368-4.207Z" transform="translate(-1480.855 -166.622)" fill="#80292e"/>
              <path id="Trazado_829845" data-name="Trazado 829845" d="M1484.6,162.309a12.047,12.047,0,0,0-.366-10.407c-2.879-5.355-11.7-5.254-16.178-1.038s-1.711,10.92.4,13.467,7.994,2.967,9.213,2.467S1484.6,162.309,1484.6,162.309Z" transform="translate(-1463.251 -147.786)" fill="#80292e"/>
              <path id="Trazado_829846" data-name="Trazado 829846" d="M1476.041,182.912s.122-3.06-2.694-2.694-7.469,3.552-7.469,5.632,3.43,4.287,3.43,4.287Z" transform="translate(-1453.773 -166.569)" fill="#ea4550"/>
              <path id="Trazado_829847" data-name="Trazado 829847" d="M1362.43,181.183a12.032,12.032,0,0,1,4.817-9.23c4.909-3.589,12.819.3,15.047,6.036s-3.165,10.592-6.166,11.979-8.495-.765-9.377-1.749-4.316-7.036-4.316-7.036Z" transform="translate(-1317.07 -160.994)" fill="#80292e"/>
              <path id="Trazado_829848" data-name="Trazado 829848" d="M1395.574,196.389s1.21-2.816,3.594-1.269,5.212,6.422,4.312,8.3-4.943,2.392-4.943,2.392Z" transform="translate(-1351.832 -174.956)" fill="#739dca"/>
              <path id="Trazado_829849" data-name="Trazado 829849" d="M1403.6,206.139a7.98,7.98,0,0,0,1.53.605c1.471-3.694,2.871-8.167,9.44-9.7s9.238-3.9,10.613-3.594,3.917,6.532,11.428,11.756c2.316,1.61,1.665,6.506,1.908,7.868.046.248,1.883-.37,1.883-.37s3.417-6.233,1.963-16.686c-.979-7.053-7.255-11.714-15.7-11.235a12.2,12.2,0,0,0-8.427-1.627,16.479,16.479,0,0,0-10.483,7.091c-3.182,4.363-4.422,12.3-4.161,15.875Z" transform="translate(-1394.265 -168.175)" fill="#80292e"/>
              <g id="Grupo_1098184" data-name="Grupo 1098184" transform="translate(8.912 37.767)">
                <path id="Trazado_829850" data-name="Trazado 829850" d="M1461.253,237.99s8.419-.874,10.831.719-2.169,10.256-3.993,10.272-6.027-.786-6.91-1.769S1459.089,238.133,1461.253,237.99Z" transform="translate(-1456.958 -237.704)" fill="#1a1a1a"/>
                <path id="Trazado_829851" data-name="Trazado 829851" d="M1430.089,247.126s-7.431-4.052-10.272-3.514-1.95,10.3-.277,11.016,5.868,1.6,7.057,1.034,5.435-7.57,3.493-8.536Z" transform="translate(-1397.099 -241.074)" fill="#1a1a1a"/>
                <path id="Trazado_829852" data-name="Trazado 829852" d="M1491.419,239.964s-2.488-1.879-3.333-1.988c0,0-.193-.424.761-.319a22.515,22.515,0,0,1,3.253.946l-.685,1.362Z" transform="translate(-1488.07 -237.64)" fill="#1a1a1a"/>
                <path id="Trazado_829853" data-name="Trazado 829853" d="M1407.671,255.508s4.157-1.463,4.985-1.261c0,0,.336-.328-.6-.572a21.917,21.917,0,0,0-4.54.319l.147,1.517Z" transform="translate(-1374.829 -246.9)" fill="#1a1a1a"/>
                <path id="Trazado_829854" data-name="Trazado 829854" d="M1451.759,247.649a5.776,5.776,0,0,0-2.6-1.6,4.221,4.221,0,0,0-3.211.45l.164-1.795a6.909,6.909,0,0,1,2.929.021,17.278,17.278,0,0,1,3.426,1.253l-.71,1.677Z" transform="translate(-1430.736 -241.651)" fill="#1a1a1a"/>
              </g>
            </g>
            <g id="Grupo_1098186" data-name="Grupo 1098186" transform="translate(54.698 130.135)">
              <path id="Trazado_829855" data-name="Trazado 829855" d="M1458.344,465.414s-1.715-2.854-17.956-5.5c-13.4-2.181-28.552-2.921-29.8-2.3s.424,4.695-.2,6.258c-.2.5-1.282,9.919-3.539,17.888-4.745,16.758-9.6,31.326-9.6,31.326s4.93-6.321,14.694.916c8.646,6.405,13.13,18.447,12.509,20.948,0,0,2.98-7.154,3.585-7.229,2.48-.311,1.109,12.441,1.109,12.441s.937,3.438,14.383,3.753,17.821-.311,18.448-3.438.908-42.577.344-49.756a119.889,119.889,0,0,0-3.829-20.368A42.314,42.314,0,0,1,1458.344,465.414Z" transform="translate(-1397.248 -457.405)" fill="#ea4550"/>
              <path id="Trazado_829856" data-name="Trazado 829856" d="M1474.213,588.889c.063-1.311,2.106-1.32,2.047,0q-.479,10.125-.954,20.25c-.063,1.311-2.106,1.32-2.047,0Q1473.737,599.014,1474.213,588.889Z" transform="translate(-1442.832 -533.053)" fill="#fff"/>
              <path id="Trazado_829857" data-name="Trazado 829857" d="M1400.635,498.778c.231-.778.466-1.564.7-2.366l7.919-5.573a4.592,4.592,0,0,0,1.87-1.938,16.8,16.8,0,0,0,.66-3.022q.624-3.341,1.168-6.691.618-3.808,1.131-7.637v0c-.416-.025-.832-.05-1.248-.071q-2.913-.145-5.825-.181c.012-.071.025-.139.034-.2v-.008c.008-.055.021-.105.029-.147a.1.1,0,0,1,.008-.034c0-.029.013-.059.017-.084a.505.505,0,0,1,.021-.071,1.724,1.724,0,0,0,.088-.315c.013-.071.021-.151.029-.227,0-.046.012-.084.017-.13.008-.109.008-.231.008-.349v-.046c0-.139-.008-.282-.021-.424a165.837,165.837,0,0,1,34.945,4.275q5.6,1.3,11.1,3a1.024,1.024,0,0,1-.58,1.963q-2.938-.9-5.905-1.694,1.166,6.8,1.971,13.664.422,3.631.744,7.276c.1,1.152.113,2.341.323,3.48a4.247,4.247,0,0,0,1.568,2.526c2.068,1.837,4.19,3.619,6.288,5.426.748.647-.341,1.727-1.084,1.084l-5.788-4.993a7.5,7.5,0,0,1-2.043-2.307,8.645,8.645,0,0,1-.622-3.081q-.593-7.5-1.631-14.959-.593-4.243-1.332-8.469a.273.273,0,0,0,0-.059,164.234,164.234,0,0,0-16.354-3.312q-1.343,15.282-1.366,30.636c0,1.068.008,2.139.017,3.207a.448.448,0,0,1,.042.055.8.8,0,0,1-.038,1.072q.025,2.194.076,4.388a.768.768,0,0,1-1.534,0q-.057-2.5-.08-5c-2.337-3.211-3.005-7.2-3.1-11.126-.059-2.274.059-4.548.147-6.822q.151-4.048.3-8.1.17-4.5.336-9.007-4.01-.473-8.04-.74-.946,7.042-2.228,14.034c-.37,1.992-.5,4.224-2.165,5.615-1.748,1.458-3.745,2.682-5.607,3.989q-2.49,1.753-4.976,3.505Zm24.2,2.013a16.118,16.118,0,0,0,1.118,3.589q-.013-11.336.7-22.659.278-4.35.66-8.7a.768.768,0,0,1,.034-.177c-.723-.1-1.446-.189-2.169-.277q-.284,7.566-.567,15.135c-.164,4.321-.6,8.805.218,13.084Z" transform="translate(-1393.99 -464.277)" fill="#c22327"/>
              <path id="Trazado_829858" data-name="Trazado 829858" d="M1485.645,570.246a9.3,9.3,0,0,0-2.375,1.072c.206-.647.424-1.332.656-2.064a12.065,12.065,0,0,1,6.855-.811c5.691,1,10.029,5.443,13.517,9.739a67,67,0,0,1,6.128,8.948c.492.857-.874,1.559-1.362.706a55.116,55.116,0,0,0-10.428-13.509c-3.535-3.2-8.179-5.485-13-4.077Z" transform="translate(-1481.311 -521.669)" fill="#c22327"/>
              <path id="Trazado_829859" data-name="Trazado 829859" d="M1398.952,602.16c8.229.916,16.619,1.509,24.828.059.437-.076.887-.156,1.337-.24q.819-11.115,1.177-22.251.126-4,.193-8a.511.511,0,0,1,1.021,0q-.24,14.034-1.206,28.043c-.046.664-.1,1.328-.147,1.988a10.876,10.876,0,0,0,2.135-.71c-.021.6-.038,1.156-.059,1.673a17.046,17.046,0,0,1-2.19.6q-.17,2.213-.353,4.426c-.055.651-1.076.656-1.021,0,.118-1.4.219-2.808.328-4.212a55.645,55.645,0,0,1-6.015.849,83.1,83.1,0,0,1-12.979-.029c-2.463-.177-4.918-.416-7.368-.694-.979-.109-.656-1.61.32-1.5Z" transform="translate(-1363.247 -523.392)" fill="#c22327"/>
            </g>
          </g>
        </g>
      </g>
    </g>
  </g>
</svg>
