<svg xmlns="http://www.w3.org/2000/svg" xmlns:xlink="http://www.w3.org/1999/xlink" width="79" height="79" viewBox="0 0 79 79">
  <defs>
    <clipPath id="clip-path">
      <rect id="Rectángulo_312952" data-name="Rectángulo 312952" width="43.634" height="43.493" fill="none"/>
    </clipPath>
  </defs>
  <g id="i2" transform="translate(-521 -3681)">
    <circle id="Elipse_8222" data-name="Elipse 8222" cx="39.5" cy="39.5" r="39.5" transform="translate(521 3681)" fill="#fd7e7e"/>
    <g id="Grupo_996095" data-name="Grupo 996095" transform="translate(539 3699)">
      <g id="Grupo_996094" data-name="Grupo 996094" clip-path="url(#clip-path)">
        <path id="Trazado_658764" data-name="Trazado 658764" d="M2.648,23.807c-.526-.135-.652-.3-.652-.874,0-2.6,0-5.194,0-7.791a.542.542,0,0,0-.345-.575,2.5,2.5,0,0,1-.9-3.208c.1-.247.118-.375-.1-.557A2.657,2.657,0,0,1,.672,7.289c.215-.174.194-.3.088-.524a2.413,2.413,0,0,1,1.306-3.4c.188-.072.185-.152.175-.307-.02-.311-.031-.624-.02-.935A1.753,1.753,0,0,1,3.878.392C4.514.353,5.155.374,5.793.382c.43.006.62.285.7.671a.746.746,0,0,1-.877.609c-.51-.026-1.022-.011-1.533,0a.52.52,0,0,0-.584.575c0,.156,0,.312,0,.468a.512.512,0,0,0,.582.571c.454,0,.908,0,1.362,0,.5,0,.791.241.8.633s-.292.642-.78.644c-.88,0-1.76,0-2.64,0-.713,0-.988.305-.988,1.073s.261,1.064.984,1.068c.866,0,1.731,0,2.6,0a.771.771,0,0,1,.686.259.586.586,0,0,1,.082.638.645.645,0,0,1-.651.383c-1.093,0-2.185,0-3.278,0-.4,0-.774.116-.876.528-.214.871-.11,1.689,1.069,1.635,1.02-.047,2.043-.016,3.065-.005.471.005.767.306.726.7-.038.361-.306.574-.763.578-.88.007-1.76,0-2.639,0-.741.006-1.02.311-.984,1.054-.047.783.245,1.1,1.031,1.1,2.778,0,5.557,0,8.335,0a1.859,1.859,0,0,1,1.91,1.863c.01.283,0,.567,0,.85,0,.55.021.567.524.345a3.127,3.127,0,0,0,1.779-2.287,3.2,3.2,0,0,1,2.344-2.4c.26-.079.644.068.762-.213a2.45,2.45,0,0,0,.027-.883.354.354,0,0,0-.02-.082q.011-3.631.026-7.263c0-.247-.144-.225-.3-.225-.736,0-1.473-.019-2.209.006a4.1,4.1,0,0,1-2.623-.8,4.2,4.2,0,0,0-1.954-.761,19.607,19.607,0,0,0-2.5-.049.715.715,0,0,1-.821-.613c.121-.52.295-.676.814-.669a13.8,13.8,0,0,1,3.347.187,5.467,5.467,0,0,1,1.876.874A2.787,2.787,0,0,0,15.979,2c.766-.022,1.533-.008,2.3,0,.188,0,.279-.022.334-.253A1.735,1.735,0,0,1,22,1.721c.06.234.161.277.376.276,2.044-.007,4.088,0,6.132,0,.137,0,.256.021.334-.165A2.5,2.5,0,0,1,32.189.772c.226.1.332.094.484-.1A2.682,2.682,0,0,1,36.187.64c.167.205.289.221.551.115,1.144-.461,2.919-.315,3.4,1.306.056.192.153.19.31.178a7.777,7.777,0,0,1,.935-.026A1.759,1.759,0,0,1,43.113,4c.008,2.342.013,4.684-.005,7.025a4.9,4.9,0,0,1-.976,3.025,4.63,4.63,0,0,0-.63,3.091c0,.169.1.17.224.169.2,0,.4-.006.6,0a1.325,1.325,0,0,1,1.3,1.272q.032,2.32,0,4.641A1.341,1.341,0,0,1,42.2,24.52c-.7.027-.7.027-.7.713,0,1.05.008,2.1-.006,3.151a.466.466,0,0,0,.3.516,2.5,2.5,0,0,1,.944,3.259c-.092.232-.117.352.093.516a2.675,2.675,0,0,1-.014,3.544c-.194.15-.182.257-.09.482.49,1.2.307,2.961-1.3,3.43-.2.059-.194.153-.167.306a3.416,3.416,0,0,1,.014,1.1,1.749,1.749,0,0,1-1.734,1.566c-2.4.017-4.8.023-7.2-.012a5.185,5.185,0,0,1-2.976-1.007,2.977,2.977,0,0,0-1.905-.592c-.737.026-1.476,0-2.214.006-.374,0-.759-.067-1.073.245a.629.629,0,0,1-.447.1q-1.405,0-2.81,0a.63.63,0,0,1-.448-.1c-.327-.323-.728-.25-1.116-.25q-2.15,0-4.3,0c-.166,0-.31-.023-.407.2a2.494,2.494,0,0,1-3.329,1.025c-.225-.1-.334-.1-.486.093A2.67,2.67,0,0,1,7.26,42.8a.277.277,0,0,0-.413-.1c-1.14.535-3.051.347-3.49-1.3-.052-.2-.163-.153-.285-.137a4.386,4.386,0,0,1-1.019.021A1.72,1.72,0,0,1,.4,39.586c-.016-2.539-.1-5.08.044-7.618a4.735,4.735,0,0,1,.919-2.523A3.1,3.1,0,0,0,2,27.339c-.024-.339-.007-.681,0-1.022.005-.526.132-.685.655-.835a.7.7,0,0,1,.625.815c-.02.481-.01.963,0,1.445a3.4,3.4,0,0,1-.659,2.111,5.131,5.131,0,0,0-.958,3.192c.011,1.743,0,3.486,0,5.228,0,.383-.01.766.006,1.147A.525.525,0,0,0,2.249,40c.142,0,.284.005.425,0,.435-.018.587-.165.595-.6.008-.453,0-.907,0-1.36.008-.487.265-.789.651-.784s.622.3.627.8q.012,1.253.02,2.507c-.061.827.263,1.123,1.211,1.107a.85.85,0,0,0,.9-1.1c.009-.85,0-1.7.033-2.549.017-.484.272-.755.632-.756s.581.276.632.753c.09.848-.089,1.7.034,2.544A2.124,2.124,0,0,0,8,41.435a.791.791,0,0,0,.855.754c.155.005.31.006.465,0a.783.783,0,0,0,.819-.793c.019-.675-.011-1.351-.02-2.026.009-.436.038-.872.023-1.307a.709.709,0,0,1,.615-.818c.517.129.666.3.67.822q.009,1.362,0,2.725a.74.74,0,0,0,.393.745,1.488,1.488,0,0,0,1.314.016c.409-.191.434-.584.434-.985q-.007-4.13,0-8.26a1.846,1.846,0,0,1,1.6-1.9,5.963,5.963,0,0,1,1.231-.033c.337.005.393-.115.275-.406a2.918,2.918,0,0,0-2.181-1.836,3.354,3.354,0,0,1-2.646-3.391c.046-2.909.013-5.819.013-8.728a4.938,4.938,0,0,0,0-.553c-.042-.366-.222-.612-.626-.611-.724,0-1.447.007-2.171.011-1.772,0-3.544,0-5.316-.023-.375-.005-.473.094-.47.47.017,2.566.01,5.132.008,7.7,0,.519-.123.67-.623.806M31.7,27.623c-.076.874.067,1.03.938,1.031,2.4,0,4.792-.005,7.188.006.3,0,.418-.044.411-.384-.025-1.134-.007-2.268-.013-3.4,0-.1.068-.225-.089-.307a5.986,5.986,0,0,1-2.554,1.684c-.084.014-.168.023-.251.042a5.463,5.463,0,0,1-4.843-1.046c-.262-.206-.5-.444-.789-.7ZM17.14,31.681c-.565-.008-1.13-.033-1.694-.018a.566.566,0,0,0-.6.623q0,3.331.012,6.662c0,.34,0,.681-.018,1.02-.012.212.073.259.27.258q2.277-.01,4.553,0c.226,0,.287-.071.286-.291q-.01-4,0-8c0-.187-.035-.291-.254-.286-.85.017-1.7.022-2.549.031m4.946-28.33q0,3.7,0,7.41c-.006.269,0,.538-.022.806-.019.239.093.278.3.277,1.871-.006,3.743,0,5.614-.007.472,0,.682-.211.683-.677.006-2.538,0-5.075.008-7.613,0-.23-.075-.288-.292-.28-.538.018-1.077.014-1.615.019l-4.6,0c-.056-.012-.091,0-.078.067M39.958,6.136c-.67.2-1.01-.039-1.012-.734,0-.88,0-1.76,0-2.639,0-.669-.316-.936-1.074-.936s-1.059.262-1.062.944c-.005.88,0,1.759,0,2.639,0,.518-.255.83-.656.822s-.62-.3-.621-.8c0-1.036,0-2.072,0-3.107,0-.757-.281-1.018-1.076-1.018-.81,0-1.066.24-1.068,1.016,0,1.008,0,2.015,0,3.022,0,.569-.225.88-.633.89s-.643-.3-.645-.866c0-.837,0-1.674,0-2.511,0-.763-.287-1.028-1.077-1.028s-1.077.263-1.08,1.024c0,1.6,0,3.207,0,4.81,0,1.178.011,2.356,0,3.533a1.857,1.857,0,0,1-1.9,1.923c-.213.007-.425,0-.638,0-.764,0-.79.037-.426.721a2.914,2.914,0,0,0,2,1.518,3.363,3.363,0,0,1,2.3,1.675c.2.365.327.38.622.075a5.59,5.59,0,0,1,3.255-1.7,6.008,6.008,0,0,1,3.2.457,6.6,6.6,0,0,1,1.877,1.5c0-.451.016-.775,0-1.1a4.419,4.419,0,0,1,.873-2.951,4.12,4.12,0,0,0,.742-2.4c0-.241,0-.482,0-.724q0-3,0-6c0-.556-.146-.7-.71-.7-.085,0-.17,0-.256,0-.476.012-.64.17-.647.639-.006.425-.013.852,0,1.277a.911.911,0,0,1-.27.729M24.73,39.2c-.005.255,0,.511-.02.764-.016.21.067.264.266.259.623-.016,1.248-.014,1.872-.019a5.273,5.273,0,0,1,2.863.544A4.014,4.014,0,0,0,32,41.767c2.494.161,4.993.04,7.489.063a.506.506,0,0,0,.527-.508,3.115,3.115,0,0,0,0-.553.521.521,0,0,0-.57-.55c-.454,0-.909,0-1.363,0-.522,0-.828-.25-.819-.655s.3-.62.8-.622c.894,0,1.789,0,2.682,0,.641-.005.913-.328.914-1.053,0-.782-.243-1.08-.916-1.086-.866-.008-1.732-.014-2.6,0a.827.827,0,0,1-.9-.541q.046-.228.092-.456a.9.9,0,0,1,.758-.29c1.035.01,2.07.008,3.1,0,.74,0,.992-.292.99-1.1,0-.772-.257-1.044-1-1.047q-1.531-.007-3.062,0a.928.928,0,0,1-.8-.3.969.969,0,0,1-.005-.669.937.937,0,0,1,.792-.313q1.316.017,2.633,0a.812.812,0,0,0,.91-.922c0-.113,0-.226,0-.34a.812.812,0,0,0-.867-.884c-1.188-.009-2.377.007-3.565.012-1.644-.006-3.288-.008-4.933-.019A1.833,1.833,0,0,1,30.4,28.12a9.562,9.562,0,0,1-.021-1.063c.018-.336-.113-.346-.373-.243a3.007,3.007,0,0,0-1.876,2.2A3.216,3.216,0,0,1,25,31.643c-.205.017-.3.055-.294.288.013,2.424.016,4.848.021,7.272M28.884,19.97a.635.635,0,0,1-.544-.354,1.909,1.909,0,0,1,.568-2.106,1.656,1.656,0,0,1,.981-.2,2.314,2.314,0,0,0-1.363-.752,4.11,4.11,0,0,1-3.041-3.121c-.057-.225-.123-.331-.384-.326-.907.018-1.816.017-2.724,0-.253,0-.329.086-.39.32a1.718,1.718,0,0,1-1.65,1.292,1.671,1.671,0,0,1-1.668-1.2c-.116-.429-.316-.44-.655-.323a2.382,2.382,0,0,0-.669.359,2.463,2.463,0,0,0-.786,1.42,4.069,4.069,0,0,1-3.123,3.033c-.266.066-.316.184-.315.43.009,2.128,0,4.257.006,6.385a1.944,1.944,0,0,0,1.545,2.019,4.237,4.237,0,0,1,3.378,3.31c.043.179.112.225.281.223.525-.008,1.05,0,1.575,0a.459.459,0,0,0,.348-.116,1.031,1.031,0,0,1,.75-.239q1.319,0,2.639,0a.967.967,0,0,1,.68.193.7.7,0,0,0,.546.162,1.946,1.946,0,0,0,1.986-1.587,4.214,4.214,0,0,1,3.261-3.324c.481-.115.226-.47.263-.719.047-.318-.227-.233-.381-.219a1.472,1.472,0,0,1-1.729-1.756,1.949,1.949,0,0,0,0-.3.688.688,0,0,1,.619-.815.7.7,0,0,1,.666.743c.049.829.051.829.872.824a.666.666,0,0,1,.085,0c.315.038.346-.075.239-.356a5.471,5.471,0,0,1-.118-3.581c.205-.7.216-.7-.511-.7-.549,0-.549,0-.565.57-.015.526-.165.706-.673.809m-5.448,16c0-1.446-.006-2.892.006-4.338,0-.257-.062-.347-.33-.337-.524.021-1.049.015-1.573,0-.224-.006-.325.036-.325.3q.013,4.36,0,8.719c0,.2.058.268.262.263.538-.013,1.078-.02,1.616,0,.283.012.352-.078.349-.354-.014-1.418-.006-2.835-.006-4.253M35.918,25.181a4.273,4.273,0,1,0-4.241-4.3,4.27,4.27,0,0,0,4.241,4.3M19.843,7.519q0,2.572,0,5.145a3.433,3.433,0,0,0,.012.382.412.412,0,0,0,.39.384.427.427,0,0,0,.5-.3,1.2,1.2,0,0,0,.044-.375q0-5.208,0-10.417a1.178,1.178,0,0,0-.053-.373.419.419,0,0,0-.464-.294.427.427,0,0,0-.41.368,2.288,2.288,0,0,0-.017.381q0,2.551,0,5.1M42.349,20.91v-1.4c0-.934,0-.922-.94-.924-.327,0-.381.076-.264.382a5.372,5.372,0,0,1,.171,3.376c-.248.935-.255.925.72.887.239-.009.321-.083.316-.322-.012-.666,0-1.332,0-2" transform="translate(-0.001 0)" fill="#030303"/>
        <path id="Trazado_658765" data-name="Trazado 658765" d="M18.79,109.308a.709.709,0,0,0-.615.817c.016.435-.013.871-.023,1.307-.15.029-.232.15-.327.25a3.268,3.268,0,0,1-1.778.938c-.123-.846.056-1.7-.034-2.544-.051-.476-.267-.754-.632-.753s-.616.273-.632.756c-.029.849-.024,1.7-.033,2.549l-2.109,0q-.01-1.253-.02-2.506c0-.494-.24-.79-.627-.8s-.642.3-.651.784c-.008.453,0,.907,0,1.36-.008.43-.16.577-.595.6-.141.006-.283,0-.425,0a.526.526,0,0,1-.585-.578c-.016-.382-.006-.765-.006-1.147,0-1.743.008-3.486,0-5.228a5.131,5.131,0,0,1,.958-3.192,3.4,3.4,0,0,0,.659-2.111c-.007-.482-.016-.964,0-1.445a.7.7,0,0,0-.625-.815l0-1.675c.5-.136.622-.287.623-.806,0-2.566.009-5.133-.008-7.7,0-.376.095-.476.47-.47,1.772.025,3.544.018,5.316.023q0,4.084,0,8.169a2.932,2.932,0,0,0,.642,1.885,4.76,4.76,0,0,1,1.065,3.06c-.012,3.092,0,6.183-.005,9.275" transform="translate(-8.037 -72.065)" fill="#9b6050"/>
        <path id="Trazado_658766" data-name="Trazado 658766" d="M14.39,6.149a.715.715,0,0,0,.821.613,19.61,19.61,0,0,1,2.5.049,4.2,4.2,0,0,1,1.954.761,4.1,4.1,0,0,0,2.623.8c.736-.025,1.473,0,2.209-.005.159,0,.3-.023.3.225q-.02,3.631-.026,7.263c-.808,0-1.616,0-2.424,0a2.8,2.8,0,0,0-1.522.447A7.251,7.251,0,0,1,17.1,17.549c-3,.045-6.011.012-9.017.011-.036-.743.243-1.048.984-1.054.88-.007,1.76,0,2.64,0,.456,0,.725-.217.763-.577.041-.39-.255-.691-.726-.7-1.022-.011-2.045-.041-3.065.005C7.5,15.289,7.4,14.471,7.609,13.6c.1-.413.475-.528.876-.528,1.093,0,2.185,0,3.278,0a.645.645,0,0,0,.651-.383.586.586,0,0,0-.082-.638.771.771,0,0,0-.686-.259c-.866,0-1.731,0-2.6,0-.723,0-.984-.292-.984-1.068s.276-1.07.988-1.073c.88,0,1.76,0,2.64,0,.489,0,.786-.253.78-.644s-.3-.628-.8-.632c-.454,0-.908,0-1.362,0A.512.512,0,0,1,9.731,7.8c0-.156,0-.312,0-.468a.52.52,0,0,1,.584-.575c.511-.007,1.023-.022,1.532,0a.746.746,0,0,0,.877-.609l1.666,0" transform="translate(-6.237 -5.1)" fill="#fbefdd"/>
        <path id="Trazado_658767" data-name="Trazado 658767" d="M157.4,165.817l-.093.456c0,.425-.013.85-.014,1.274a3.275,3.275,0,0,1-3.194,3.2q-2.168,0-4.335.014a5.272,5.272,0,0,0-2.863-.544c-.252-.172-.5-.356-.757-.514a3,3,0,0,0-1.361-.49c-.005-2.424-.008-4.848-.021-7.272,0-.233.089-.271.295-.288a3.216,3.216,0,0,0,3.122-2.632,3.006,3.006,0,0,1,1.876-2.2c.26-.1.391-.094.374.243a9.518,9.518,0,0,0,.021,1.063,1.833,1.833,0,0,0,1.909,1.811c1.644.011,3.288.013,4.933.018,0,.672,0,1.344,0,2.016,0,.147-.054.313.094.43a.969.969,0,0,0,.005.669c-.031.045-.088.089-.088.134q-.007,1.238,0,2.477c0,.044.06.087.092.131" transform="translate(-120.057 -130.011)" fill="#fbebe4"/>
        <path id="Trazado_658768" data-name="Trazado 658768" d="M168.317,22.2a6.007,6.007,0,0,0-3.2-.457,5.59,5.59,0,0,0-3.255,1.7c-.3.306-.419.29-.622-.075a3.365,3.365,0,0,0-2.3-1.675,2.914,2.914,0,0,1-2-1.518c-.364-.684-.339-.721.426-.721.213,0,.426.006.638,0a1.857,1.857,0,0,0,1.9-1.923c.014-1.178,0-2.355,0-3.533,0-1.6,0-3.207,0-4.81,0-.762.286-1.025,1.08-1.024s1.073.265,1.078,1.028c0,.837,0,1.674,0,2.511,0,.563.237.876.645.865s.632-.322.633-.89c0-1.007,0-2.015,0-3.022,0-.776.258-1.016,1.068-1.016.794,0,1.074.262,1.076,1.018,0,1.036,0,2.072,0,3.107,0,.5.234.8.621.8s.654-.3.655-.822c0-.88,0-1.76,0-2.639,0-.682.3-.944,1.062-.944s1.07.267,1.074.936c.005.88,0,1.759,0,2.639,0,.695.343.939,1.012.734,0,.891.023,1.783,0,2.674a5.558,5.558,0,0,1-1.029,3.374,2.885,2.885,0,0,0-.588,1.9c.018.594,0,1.189,0,1.783" transform="translate(-129.971 -6.327)" fill="#d5aca0"/>
        <path id="Trazado_658769" data-name="Trazado 658769" d="M54.72,109.367c0-3.092-.007-6.183.005-9.275a4.76,4.76,0,0,0-1.065-3.06,2.932,2.932,0,0,1-.642-1.885q0-4.084,0-8.169c.724,0,1.447-.01,2.171-.011.4,0,.585.245.626.611a4.894,4.894,0,0,1,.005.553c0,2.91.033,5.819-.013,8.728a3.353,3.353,0,0,0,2.646,3.391,2.919,2.919,0,0,1,2.181,1.836c.118.291.062.412-.275.406a5.975,5.975,0,0,0-1.231.032,1.846,1.846,0,0,0-1.6,1.9q-.005,4.13,0,8.26c0,.4-.025.793-.434.985a1.488,1.488,0,0,1-1.314-.016.74.74,0,0,1-.393-.745q.008-1.363,0-2.725c0-.52-.153-.693-.67-.822" transform="translate(-43.967 -72.124)" fill="#865143"/>
        <path id="Trazado_658770" data-name="Trazado 658770" d="M129.395,26.713q0-3.7,0-7.41l.078-.067,4.6,0c0,1.386.006,2.772,0,4.157a3.357,3.357,0,0,1-2.694,3.247,13.4,13.4,0,0,1-1.984.071" transform="translate(-107.31 -15.953)" fill="#fbefdd"/>
        <path id="Trazado_658771" data-name="Trazado 658771" d="M10.791,64.728c3.006,0,6.012.033,9.017-.011a7.251,7.251,0,0,0,3.733-1.242,2.8,2.8,0,0,1,1.522-.447c.808,0,1.616,0,2.424,0a.362.362,0,0,1,.02.082,2.446,2.446,0,0,1-.027.883c-.118.281-.5.134-.762.213a3.2,3.2,0,0,0-2.344,2.4,3.127,3.127,0,0,1-1.779,2.287c-.5.223-.523.2-.524-.345,0-.284.008-.567,0-.85a1.859,1.859,0,0,0-1.91-1.863c-2.778-.006-5.557,0-8.335,0-.786,0-1.079-.315-1.031-1.1" transform="translate(-8.946 -52.267)" fill="#f5dfc1"/>
        <path id="Trazado_658772" data-name="Trazado 658772" d="M89.217,185.465c.85-.009,1.7-.014,2.549-.031.219,0,.254.1.254.286q-.006,4,0,8c0,.22-.06.293-.286.291q-2.277-.013-4.553,0c-.2,0-.281-.047-.27-.258.019-.339.013-.68.018-1.02a3.168,3.168,0,0,0,2.283-2.845c.018-1.474,0-2.948,0-4.422" transform="translate(-72.079 -153.785)" fill="#88b1f1"/>
        <path id="Trazado_658773" data-name="Trazado 658773" d="M224.641,32.819c0-.594.014-1.189,0-1.783a2.885,2.885,0,0,1,.588-1.9,5.558,5.558,0,0,0,1.029-3.374c.021-.891,0-1.783,0-2.674a.912.912,0,0,0,.27-.729c-.016-.425-.009-.851,0-1.277.007-.469.171-.627.647-.639.085,0,.17,0,.255,0,.564.006.71.146.71.7q0,3,0,6c0,.241,0,.483,0,.724a4.122,4.122,0,0,1-.742,2.4,4.418,4.418,0,0,0-.873,2.951c.018.322,0,.646,0,1.1a6.606,6.606,0,0,0-1.877-1.5" transform="translate(-186.295 -16.951)" fill="#cb9c8d"/>
        <path id="Trazado_658774" data-name="Trazado 658774" d="M129.279,26.624a13.4,13.4,0,0,0,1.984-.071,3.357,3.357,0,0,0,2.694-3.247c0-1.386,0-2.771,0-4.157.539,0,1.077,0,1.615-.019.217-.007.293.051.292.28-.008,2.538,0,5.075-.008,7.613,0,.466-.211.675-.683.677-1.871.008-3.743,0-5.614.007-.208,0-.32-.038-.3-.277.021-.267.016-.537.022-.806" transform="translate(-107.194 -15.864)" fill="#f5dfc1"/>
        <path id="Trazado_658775" data-name="Trazado 658775" d="M174.074,216.949q2.168-.007,4.335-.013a3.275,3.275,0,0,0,3.194-3.2c0-.425.009-.85.014-1.274a.828.828,0,0,0,.9.541c.865-.017,1.731-.011,2.6,0,.672.006.917.3.915,1.086,0,.725-.274,1.048-.914,1.053-.894.008-1.788,0-2.683,0-.5,0-.793.23-.8.622s.3.651.818.655c.454,0,.908,0,1.363,0a.521.521,0,0,1,.57.55,3.1,3.1,0,0,1,0,.553.506.506,0,0,1-.528.508c-2.5-.024-5,.1-7.489-.064a4.016,4.016,0,0,1-2.292-1.016" transform="translate(-144.363 -176.199)" fill="#f7dbcd"/>
        <path id="Trazado_658776" data-name="Trazado 658776" d="M126.5,188.019c0,1.418-.007,2.836.006,4.253,0,.275-.067.366-.349.354-.538-.023-1.077-.015-1.616,0-.2,0-.263-.059-.262-.263q.009-4.36,0-8.719c0-.26.1-.3.325-.3.524.013,1.049.019,1.573,0,.268-.011.332.079.33.337-.011,1.446-.005,2.892-.005,4.338" transform="translate(-103.069 -152.05)" fill="#b9e0f3"/>
        <path id="Trazado_658777" data-name="Trazado 658777" d="M189.829,106.008a4.273,4.273,0,1,1,4.3-4.2,4.252,4.252,0,0,1-4.3,4.2m3.457-4.27a3.432,3.432,0,1,0-3.43,3.435,3.416,3.416,0,0,0,3.43-3.435" transform="translate(-153.912 -80.827)" fill="#879ba8"/>
        <path id="Trazado_658778" data-name="Trazado 658778" d="M191.5,145.614a5.988,5.988,0,0,0,2.554-1.684c.157.082.088.21.089.307.006,1.134-.011,2.269.013,3.4.007.341-.113.386-.411.384-2.4-.011-4.792-.006-7.188-.006-.871,0-1.014-.157-.938-1.031.765,0,1.531,0,2.3,0a5.656,5.656,0,0,0,1.974-.177,2.488,2.488,0,0,0,1.611-1.2" transform="translate(-153.92 -119.364)" fill="#cb9c8d"/>
        <path id="Trazado_658779" data-name="Trazado 658779" d="M89.252,185.507c0,1.474.016,2.948,0,4.422a3.168,3.168,0,0,1-2.283,2.845q-.007-3.331-.012-6.662a.567.567,0,0,1,.6-.623c.564-.015,1.129.01,1.694.018" transform="translate(-72.114 -153.826)" fill="#a3c5f5"/>
        <path id="Trazado_658780" data-name="Trazado 658780" d="M116.257,15.608q0-2.551,0-5.1a2.288,2.288,0,0,1,.017-.381.427.427,0,0,1,.41-.368.419.419,0,0,1,.464.294,1.178,1.178,0,0,1,.053.373q0,5.208,0,10.416a1.21,1.21,0,0,1-.044.375.427.427,0,0,1-.5.3.412.412,0,0,1-.39-.384,3.352,3.352,0,0,1-.012-.382q0-2.572,0-5.145" transform="translate(-96.414 -8.089)" fill="#f1ca72"/>
        <path id="Trazado_658781" data-name="Trazado 658781" d="M218.342,196.467c-.032-.044-.092-.087-.092-.131q-.009-1.238,0-2.477c0-.045.058-.089.088-.134a.929.929,0,0,0,.8.3q1.531-.01,3.062,0c.742,0,1,.276,1,1.047,0,.813-.25,1.1-.99,1.1-1.035.006-2.07.008-3.1,0a.9.9,0,0,0-.759.29" transform="translate(-180.995 -160.66)" fill="#f7dbcd"/>
        <path id="Trazado_658782" data-name="Trazado 658782" d="M218.249,177.848c-.149-.117-.093-.283-.094-.43-.006-.672,0-1.344,0-2.016,1.188-.006,2.377-.021,3.565-.012a.812.812,0,0,1,.867.884c0,.113,0,.227,0,.34a.813.813,0,0,1-.91.922q-1.316.018-2.633,0a.937.937,0,0,0-.792.313" transform="translate(-180.913 -145.452)" fill="#f7dbcd"/>
        <path id="Trazado_658783" data-name="Trazado 658783" d="M191.583,145.5a2.489,2.489,0,0,1-1.611,1.2,5.657,5.657,0,0,1-1.974.177c-.766,0-1.531,0-2.3,0v-3.082c.29.26.527.5.789.7a5.462,5.462,0,0,0,4.842,1.046c.082-.019.167-.028.251-.042" transform="translate(-154.006 -119.246)" fill="#d5aca0"/>
        <path id="Trazado_658784" data-name="Trazado 658784" d="M169.231,111.985q0-.844-.007-1.688c.508-.1.658-.283.673-.809.017-.57.017-.57.565-.57.727,0,.716,0,.511.7a5.473,5.473,0,0,0,.118,3.581c.108.281.076.394-.239.356a.669.669,0,0,0-.085,0c-.821.005-.823.005-.872-.824a.7.7,0,0,0-.666-.743" transform="translate(-140.341 -90.328)" fill="#63757d"/>
        <path id="Trazado_658785" data-name="Trazado 658785" d="M242,111.206c0,.666-.008,1.332,0,2,0,.24-.078.313-.316.322-.975.038-.968.048-.72-.887a5.374,5.374,0,0,0-.171-3.376c-.118-.307-.064-.383.264-.382.94,0,.94-.01.94.924q0,.7,0,1.4" transform="translate(-199.647 -90.297)" fill="#63757d"/>
        <path id="Trazado_658786" data-name="Trazado 658786" d="M46.675,231.845a3.267,3.267,0,0,0,1.778-.938c.094-.1.177-.22.327-.25.009.676.039,1.352.02,2.026a.783.783,0,0,1-.819.793c-.155.007-.31.006-.465,0a.791.791,0,0,1-.855-.754,2.124,2.124,0,0,1,.013-.879" transform="translate(-38.665 -191.289)" fill="#865143"/>
        <path id="Trazado_658787" data-name="Trazado 658787" d="M26.739,237.642l2.11,0a.85.85,0,0,1-.9,1.1c-.949.016-1.272-.279-1.211-1.107" transform="translate(-22.169 -197.082)" fill="#865143"/>
        <path id="Trazado_658788" data-name="Trazado 658788" d="M144.783,229.689a3,3,0,0,1,1.361.49c.261.157.505.342.757.514-.624.005-1.248,0-1.872.019-.2,0-.283-.048-.266-.259.02-.254.014-.509.02-.764" transform="translate(-120.054 -190.486)" fill="#f7dbcd"/>
        <path id="Trazado_658789" data-name="Trazado 658789" d="M129.463,19.214l-.078.067c-.013-.068.022-.08.078-.067" transform="translate(-107.3 -15.931)" fill="#f5dfc1"/>
        <path id="Trazado_658790" data-name="Trazado 658790" d="M197.343,105.859a3.432,3.432,0,1,1-3.427-3.429,3.436,3.436,0,0,1,3.427,3.429m-1.279-.014a2.152,2.152,0,1,0-2.148,2.168,2.137,2.137,0,0,0,2.148-2.168" transform="translate(-157.968 -84.947)" fill="#030303"/>
        <path id="Trazado_658791" data-name="Trazado 658791" d="M202.291,112.055a2.152,2.152,0,1,1-2.173-2.137,2.15,2.15,0,0,1,2.173,2.137" transform="translate(-164.196 -91.158)" fill="#f7f9fa"/>
      </g>
    </g>
  </g>
</svg>
