<svg xmlns="http://www.w3.org/2000/svg" xmlns:xlink="http://www.w3.org/1999/xlink" width="79" height="79" viewBox="0 0 79 79">
  <defs>
    <clipPath id="clip-path">
      <rect id="Rectángulo_312954" data-name="Rectángulo 312954" width="48.776" height="48.805" fill="none"/>
    </clipPath>
  </defs>
  <g id="i3" transform="translate(-521 -3773)">
    <circle id="Elipse_8223" data-name="Elipse 8223" cx="39.5" cy="39.5" r="39.5" transform="translate(521 3773)" fill="#fd7e7e"/>
    <g id="Grupo_996099" data-name="Grupo 996099" transform="translate(536 3788)">
      <g id="Grupo_996098" data-name="Grupo 996098" clip-path="url(#clip-path)">
        <path id="Trazado_658834" data-name="Trazado 658834" d="M5.156,20.194a4.969,4.969,0,0,1,2.374.338c.181.086.254.015.347-.112a6.4,6.4,0,0,1,2.016-1.785.307.307,0,0,0,.171-.418,5.85,5.85,0,0,1-.167-2.59c.05-.276-.072-.355-.292-.485a7.153,7.153,0,0,1-3.516-3.888A4.037,4.037,0,0,1,7.924,6.569a4.109,4.109,0,0,1,5.09.5,7.634,7.634,0,0,1,2.207,2.7c.062.17.17.163.3.141a6.119,6.119,0,0,1,2.73.172c.2.056.281-.011.373-.173a6.347,6.347,0,0,1,1.785-2.015c.183-.134.165-.241.1-.435a7.726,7.726,0,0,1-.137-4.361A4.131,4.131,0,0,1,24.829.026a4.172,4.172,0,0,1,3.762,4,7.5,7.5,0,0,1-.332,3.519c-.088.192.024.258.137.342a6.55,6.55,0,0,1,1.78,2.021c.095.165.177.219.373.164A5.965,5.965,0,0,1,33.233,9.9c.212.038.3-.032.391-.223a7.689,7.689,0,0,1,2.968-3.2,4.164,4.164,0,0,1,5.237.87,4.088,4.088,0,0,1,.216,5.252,7.64,7.64,0,0,1-2.978,2.6.244.244,0,0,0-.176.32,6.041,6.041,0,0,1-.155,2.685c-.07.255.018.333.2.438a6.116,6.116,0,0,1,1.944,1.724c.157.218.288.19.51.123a7.7,7.7,0,0,1,4.676-.007,4.033,4.033,0,0,1,2.672,4.39,4.029,4.029,0,0,1-3.775,3.7,7.666,7.666,0,0,1-3.707-.315c-.194-.088-.254.025-.34.139a6.6,6.6,0,0,1-2.023,1.779.27.27,0,0,0-.161.371,6.109,6.109,0,0,1,.157,2.732c-.039.215.071.27.224.339a7.65,7.65,0,0,1,3.151,2.886,4.2,4.2,0,0,1-6.407,5.286,7.405,7.405,0,0,1-2.276-2.764c-.07-.194-.216-.15-.352-.126a6.135,6.135,0,0,1-2.639-.166.3.3,0,0,0-.414.167,6.26,6.26,0,0,1-1.75,1.984.335.335,0,0,0-.133.467,7.653,7.653,0,0,1,.13,4.408,4.14,4.14,0,0,1-4.506,3.007,4.2,4.2,0,0,1-3.72-4.144,7.347,7.347,0,0,1,.348-3.374c.072-.15.005-.229-.11-.314a6.5,6.5,0,0,1-1.814-2.053.275.275,0,0,0-.379-.151,6.008,6.008,0,0,1-2.684.162c-.218-.04-.3.05-.384.232A7.639,7.639,0,0,1,12.2,42.316a4.134,4.134,0,0,1-5.414-1.091,4.232,4.232,0,0,1,.3-5.455,7.634,7.634,0,0,1,2.707-2.2c.146-.053.135-.159.118-.268a6.354,6.354,0,0,1,.181-2.779c.048-.169-.017-.252-.165-.337a6.388,6.388,0,0,1-2.047-1.819c-.124-.173-.23-.137-.4-.078a7.836,7.836,0,0,1-4.363.152A4.138,4.138,0,0,1,.028,23.99,4.211,4.211,0,0,1,4.105,20.2c.317-.009.635,0,1.051,0m20.849,6.3-.057-.05c0,.014,0,.028,0,.042l.066,0c-.113.156-.009.307.027.448.567,2.224,1.185,4.436,1.694,6.673a3.945,3.945,0,0,0,1.38,2.236,4.83,4.83,0,0,0,3.831,1.181c.27-.032.38-.128.449-.416a4.153,4.153,0,0,1,2.75-3.088c.925-.342.939-.326.913-1.329a8.906,8.906,0,0,0-.107-.943c-.026-.2-.113-.311-.348-.267a14.824,14.824,0,0,1-2.23.091,1.738,1.738,0,0,1-.989-.265q-2.878-1.715-5.771-3.4a13.486,13.486,0,0,0-1.606-.907M15.583,19.125a1.165,1.165,0,0,1-1.1.516c-.491-.02-.985-.026-1.476,0a4.75,4.75,0,0,0-3.614,1.926c-.111.144-.177.253-.05.454a4.149,4.149,0,0,1,.01,4.739.311.311,0,0,0,0,.417,5.266,5.266,0,0,0,1.39,1.285c.142.089.231.1.346-.055A17.336,17.336,0,0,1,12.667,26.7a1.685,1.685,0,0,1,.851-.485c1.014-.252,2.026-.514,3.037-.774,1.753-.452,3.506-.905,5.347-1.381-.609-.373-.839-.824-.586-1.441.4-.6.933-.6,1.563-.257-.032-.149-.046-.224-.065-.3-.585-2.27-1.231-4.527-1.73-6.815a4.1,4.1,0,0,0-1.572-2.437,4.7,4.7,0,0,0-3.74-1.022c-.184.027-.3.069-.347.3a4.153,4.153,0,0,1-3.308,3.34c-.167.041-.28.058-.317.268a4.863,4.863,0,0,0,.062,1.89c.04.184.11.273.319.233a12.358,12.358,0,0,1,2.233-.087c1.012-.006,1.352.405,1.17,1.393m11.31,5.621c.206.131.322.209.442.28,1.964,1.16,3.952,2.283,5.884,3.494a3.994,3.994,0,0,0,2.546.647,4.913,4.913,0,0,0,3.629-1.912.4.4,0,0,0,.026-.54,4.171,4.171,0,0,1-.011-4.624c.109-.181.174-.306.024-.5a5.453,5.453,0,0,0-1.357-1.251c-.155-.1-.251-.109-.378.067a15.915,15.915,0,0,1-1.444,1.579,2.152,2.152,0,0,1-1.088.625c-2.728.69-5.45,1.4-8.272,2.134M24.058,26.9c-.133.207-.229.345-.315.49-1.168,1.978-2.307,3.974-3.517,5.927a3.772,3.772,0,0,0-.6,2.322,4.965,4.965,0,0,0,1.857,3.709.467.467,0,0,0,.653.045,4.241,4.241,0,0,1,4.135-.248c.281.121.492.533.856.325a3.8,3.8,0,0,0,.756-.647,7.5,7.5,0,0,0,.476-.593c.2-.242.22-.4-.085-.63a5.1,5.1,0,0,1-2.4-3.643,6.284,6.284,0,0,0-.254-1.012L24.058,26.9m2.354-4.022c.142-.028.217-.039.29-.057,2.314-.593,4.617-1.235,6.946-1.758a4.019,4.019,0,0,0,2.279-1.48,4.827,4.827,0,0,0,1.111-3.672c-.027-.295-.135-.428-.465-.513a4.2,4.2,0,0,1-3.2-3.229c-.04-.157,0-.326-.263-.37a4.986,4.986,0,0,0-1.934.069c-.165.036-.242.108-.2.293a14.57,14.57,0,0,1,.094,2.325,1.64,1.64,0,0,1-.262.941q-2.048,3.451-4.08,6.912c-.095.161-.187.322-.313.54M22.4,25.914c-.154.034-.229.048-.3.067-2.316.595-4.622,1.233-6.953,1.764a3.887,3.887,0,0,0-2.188,1.372A4.776,4.776,0,0,0,11.787,33c.033.246.122.323.367.383a4.176,4.176,0,0,1,3.266,3.275c.054.222.121.315.347.355a5.04,5.04,0,0,0,1.8-.059c.253-.046.286-.193.244-.41a14.882,14.882,0,0,1-.09-1.9,2.544,2.544,0,0,1,.421-1.522c1.416-2.366,2.809-4.746,4.261-7.206m2.344-4.008c.14-.222.232-.361.317-.5,1.137-1.924,2.233-3.875,3.429-5.762a4.145,4.145,0,0,0,.667-2.686A4.867,4.867,0,0,0,27.23,9.383a.369.369,0,0,0-.5-.011,4.168,4.168,0,0,1-4.664,0c-.173-.106-.293-.139-.46-.01a5.241,5.241,0,0,0-1.254,1.355c-.1.162-.114.258.06.385a17.068,17.068,0,0,1,1.712,1.582,1.575,1.575,0,0,1,.446.769q.479,1.889.967,3.775c.393,1.527.789,3.054,1.209,4.68M10.089,7.818a2.234,2.234,0,0,0-2.03,1.327,2.208,2.208,0,0,0,.359,2.527,16.044,16.044,0,0,0,1.309,1.314,2.308,2.308,0,0,0,3.223-3.3c-.392-.415-.8-.815-1.211-1.212a2.364,2.364,0,0,0-1.651-.653m-.025,33.164a2.246,2.246,0,0,0,1.47-.483,11.121,11.121,0,0,0,1.576-1.582,2.3,2.3,0,0,0-3.277-3.175,12.181,12.181,0,0,0-1.482,1.476,2.172,2.172,0,0,0-.284,2.453,2.243,2.243,0,0,0,2,1.312M38.739,7.82a2.253,2.253,0,0,0-1.581.57,18.053,18.053,0,0,0-1.374,1.383,2.3,2.3,0,0,0,3.258,3.233,14.285,14.285,0,0,0,1.346-1.344,2.18,2.18,0,0,0,.359-2.483A2.22,2.22,0,0,0,38.739,7.82m2.228,30.947a2.182,2.182,0,0,0-.5-1.54,16.9,16.9,0,0,0-1.515-1.51,2.254,2.254,0,0,0-3.032.119,2.3,2.3,0,0,0-.243,3.07,9.542,9.542,0,0,0,1.618,1.6,2.15,2.15,0,0,0,2.416.2,2.191,2.191,0,0,0,1.255-1.946M26.7,5.081h-.014c0-.349.023-.7,0-1.046a2.23,2.23,0,0,0-2.32-2.108A2.254,2.254,0,0,0,22.1,4.152c-.02.571-.014,1.143,0,1.714a2.3,2.3,0,0,0,4.605.072c.015-.285,0-.571,0-.857M22.1,43.7c0,.349-.019.7,0,1.047a2.256,2.256,0,0,0,2.266,2.126,2.22,2.22,0,0,0,2.307-2.068,16.391,16.391,0,0,0,.011-2.045,2.277,2.277,0,0,0-2.117-2.134,2.333,2.333,0,0,0-2.387,1.655A5.471,5.471,0,0,0,22.1,43.7M43.74,26.695c.333,0,.667.017,1,0a2.3,2.3,0,0,0-.021-4.582c-.618-.029-1.238-.022-1.856-.008a2.261,2.261,0,0,0-2.207,1.977,2.292,2.292,0,0,0,1.619,2.532,5.635,5.635,0,0,0,1.465.083m-38.707,0c.365,0,.732.024,1.094,0a2.3,2.3,0,0,0,.031-4.567,16.438,16.438,0,0,0-2.188,0,2.207,2.207,0,0,0-2.033,2.1A2.269,2.269,0,0,0,3.52,26.6a5.221,5.221,0,0,0,1.512.1" transform="translate(0.001 0)" fill="#020202"/>
        <path id="Trazado_658835" data-name="Trazado 658835" d="M60.606,103.673c-.254.617-.023,1.068.586,1.441-1.84.475-3.593.929-5.347,1.38-1.012.261-2.023.522-3.037.775a1.684,1.684,0,0,0-.851.484,17.363,17.363,0,0,0-1.581,1.712c-.115.159-.2.143-.346.055a5.269,5.269,0,0,1-1.39-1.285.311.311,0,0,1,0-.417,4.149,4.149,0,0,0-.01-4.739c-.127-.2-.061-.31.05-.454A4.748,4.748,0,0,1,52.3,100.7c.49-.029.984-.023,1.475,0a1.165,1.165,0,0,0,1.1-.516,13.59,13.59,0,0,0,2.068,1.221c-.222.658-.116,1.1.325,1.366a.988.988,0,0,0,1.292-.291,10.1,10.1,0,0,1,2.047,1.2" transform="translate(-39.29 -81.054)" fill="#d2f2f9"/>
        <path id="Trazado_658836" data-name="Trazado 658836" d="M71.049,72.354A10.085,10.085,0,0,0,69,71.156a1.121,1.121,0,0,0,.128-.726.981.981,0,0,0-1.745-.349,13.591,13.591,0,0,1-2.068-1.221c.182-.987-.158-1.4-1.17-1.393a12.376,12.376,0,0,0-2.233.087c-.209.04-.279-.049-.319-.233a4.864,4.864,0,0,1-.062-1.89c.036-.209.15-.227.317-.267a4.154,4.154,0,0,0,3.308-3.34c.051-.229.163-.27.347-.3a4.7,4.7,0,0,1,3.74,1.022,4.1,4.1,0,0,1,1.572,2.437c.5,2.289,1.145,4.545,1.73,6.815.019.073.032.148.065.3-.63-.34-1.161-.343-1.563.257" transform="translate(-49.733 -49.735)" fill="#f0a2af"/>
        <path id="Trazado_658837" data-name="Trazado 658837" d="M140.872,110.648c2.822-.731,5.544-1.444,8.272-2.134a2.152,2.152,0,0,0,1.088-.625,15.918,15.918,0,0,0,1.444-1.579c.127-.177.223-.168.378-.067a5.453,5.453,0,0,1,1.357,1.251c.151.195.085.32-.024.5a4.171,4.171,0,0,0,.011,4.624.4.4,0,0,1-.026.54,4.914,4.914,0,0,1-3.629,1.912,4,4,0,0,1-2.546-.647c-1.932-1.212-3.919-2.335-5.884-3.494-.12-.071-.237-.15-.442-.28" transform="translate(-113.978 -85.901)" fill="#d4f1f9"/>
        <path id="Trazado_658838" data-name="Trazado 658838" d="M107.19,140.9l1.563,6.046a6.265,6.265,0,0,1,.254,1.012,5.1,5.1,0,0,0,2.4,3.643c.3.231.282.387.085.63a7.529,7.529,0,0,1-.476.593,3.8,3.8,0,0,1-.756.646c-.365.208-.576-.2-.856-.325a4.241,4.241,0,0,0-4.135.248.467.467,0,0,1-.653-.045,4.965,4.965,0,0,1-1.857-3.709,3.773,3.773,0,0,1,.6-2.322c1.209-1.953,2.348-3.949,3.517-5.927.086-.145.181-.283.315-.49" transform="translate(-83.132 -113.998)" fill="#f6d897"/>
        <path id="Trazado_658839" data-name="Trazado 658839" d="M138.351,72.608c.126-.217.219-.379.313-.54q2.038-3.457,4.08-6.912a1.641,1.641,0,0,0,.262-.941,14.55,14.55,0,0,0-.094-2.325c-.038-.185.039-.256.2-.293a4.989,4.989,0,0,1,1.934-.069c.26.044.222.213.263.37a4.2,4.2,0,0,0,3.2,3.228c.329.085.438.218.465.513a4.827,4.827,0,0,1-1.111,3.672,4.019,4.019,0,0,1-2.279,1.48c-2.329.523-4.632,1.165-6.946,1.758-.073.019-.148.029-.29.057" transform="translate(-111.938 -49.731)" fill="#cbccee"/>
        <path id="Trazado_658840" data-name="Trazado 658840" d="M136.031,138.753a13.523,13.523,0,0,1,1.606.907q2.892,1.691,5.771,3.4a1.738,1.738,0,0,0,.989.265,14.819,14.819,0,0,0,2.23-.091c.236-.044.322.068.348.267a8.955,8.955,0,0,1,.106.943c.026,1,.012.986-.913,1.329a4.153,4.153,0,0,0-2.75,3.088c-.068.288-.178.384-.449.416a4.829,4.829,0,0,1-3.831-1.181,3.946,3.946,0,0,1-1.38-2.236c-.509-2.237-1.127-4.449-1.694-6.673-.036-.142-.14-.292-.027-.448Z" transform="translate(-110.025 -112.254)" fill="#eb687e"/>
        <path id="Trazado_658841" data-name="Trazado 658841" d="M72.153,135.739c-1.452,2.46-2.845,4.84-4.261,7.206a2.544,2.544,0,0,0-.421,1.522,14.879,14.879,0,0,0,.09,1.9c.042.217.009.365-.244.41a5.044,5.044,0,0,1-1.8.06c-.226-.04-.293-.132-.347-.355a4.176,4.176,0,0,0-3.266-3.275c-.245-.061-.334-.138-.367-.383a4.776,4.776,0,0,1,1.17-3.88A3.886,3.886,0,0,1,64.9,137.57c2.331-.53,4.637-1.169,6.953-1.764.074-.019.149-.033.3-.067" transform="translate(-49.752 -109.825)" fill="#8182da"/>
        <path id="Trazado_658842" data-name="Trazado 658842" d="M110.681,61.215c-.42-1.625-.816-3.152-1.209-4.679q-.486-1.887-.967-3.776a1.577,1.577,0,0,0-.446-.769,17.091,17.091,0,0,0-1.712-1.582c-.174-.128-.161-.224-.06-.385a5.236,5.236,0,0,1,1.254-1.355c.168-.13.287-.1.46.01a4.168,4.168,0,0,0,4.664,0,.369.369,0,0,1,.5.011,4.868,4.868,0,0,1,1.927,3.571,4.147,4.147,0,0,1-.667,2.686c-1.2,1.887-2.292,3.838-3.429,5.762-.085.143-.177.281-.317.5" transform="translate(-85.936 -39.309)" fill="#f4c05c"/>
        <path id="Trazado_658843" data-name="Trazado 658843" d="M43.219,40.952a2.364,2.364,0,0,1,1.651.653c.411.4.82.8,1.211,1.212a2.308,2.308,0,0,1-3.223,3.3,16.044,16.044,0,0,1-1.309-1.314,2.208,2.208,0,0,1-.359-2.527,2.234,2.234,0,0,1,2.03-1.327" transform="translate(-33.13 -33.134)" fill="#c09082"/>
        <path id="Trazado_658844" data-name="Trazado 658844" d="M43.185,190.07a2.243,2.243,0,0,1-2-1.312,2.171,2.171,0,0,1,.284-2.453,12.207,12.207,0,0,1,1.481-1.476A2.3,2.3,0,0,1,46.23,188a11.112,11.112,0,0,1-1.576,1.583,2.245,2.245,0,0,1-1.47.483" transform="translate(-33.12 -149.088)" fill="#c09082"/>
        <path id="Trazado_658845" data-name="Trazado 658845" d="M187.845,40.962a2.22,2.22,0,0,1,2.009,1.359,2.18,2.18,0,0,1-.359,2.483,14.285,14.285,0,0,1-1.346,1.344,2.3,2.3,0,0,1-3.258-3.233,17.986,17.986,0,0,1,1.374-1.383,2.252,2.252,0,0,1,1.581-.57" transform="translate(-149.106 -33.142)" fill="#c09082"/>
        <path id="Trazado_658846" data-name="Trazado 658846" d="M190.146,187.9a2.19,2.19,0,0,1-1.255,1.946,2.15,2.15,0,0,1-2.416-.2,9.547,9.547,0,0,1-1.618-1.6,2.3,2.3,0,0,1,.243-3.07,2.253,2.253,0,0,1,3.032-.119,16.867,16.867,0,0,1,1.515,1.509,2.182,2.182,0,0,1,.5,1.54" transform="translate(-149.179 -149.13)" fill="#c19082"/>
        <path id="Trazado_658847" data-name="Trazado 658847" d="M120.312,13.243c0,.286.012.572,0,.857a2.3,2.3,0,0,1-4.605-.072c-.009-.571-.015-1.143,0-1.714a2.253,2.253,0,0,1,2.265-2.226,2.23,2.23,0,0,1,2.32,2.108c.028.347,0,.7,0,1.047h.014" transform="translate(-93.608 -8.162)" fill="#f6dbd4"/>
        <path id="Trazado_658848" data-name="Trazado 658848" d="M115.739,215.839a5.48,5.48,0,0,1,.083-1.418,2.333,2.333,0,0,1,2.387-1.655,2.277,2.277,0,0,1,2.117,2.134,16.4,16.4,0,0,1-.011,2.045,2.22,2.22,0,0,1-2.307,2.068,2.256,2.256,0,0,1-2.266-2.126c-.023-.348,0-.7,0-1.047" transform="translate(-93.637 -172.138)" fill="#f6dbd4"/>
        <path id="Trazado_658849" data-name="Trazado 658849" d="M215.945,120.31a5.627,5.627,0,0,1-1.465-.083,2.292,2.292,0,0,1-1.619-2.532,2.261,2.261,0,0,1,2.207-1.977c.618-.015,1.239-.021,1.856.008a2.3,2.3,0,0,1,.02,4.582c-.332.02-.666,0-1,0" transform="translate(-172.204 -93.616)" fill="#f6dbd4"/>
        <path id="Trazado_658850" data-name="Trazado 658850" d="M13.192,120.285a5.221,5.221,0,0,1-1.512-.1,2.269,2.269,0,0,1-1.584-2.378,2.207,2.207,0,0,1,2.033-2.1,16.44,16.44,0,0,1,2.188,0,2.3,2.3,0,0,1-.031,4.567c-.363.028-.729,0-1.094,0" transform="translate(-8.159 -93.593)" fill="#f6dbd4"/>
        <path id="Trazado_658851" data-name="Trazado 658851" d="M135.977,138.58l-.066,0c0-.014,0-.028,0-.042l.057.049.007-.011" transform="translate(-109.964 -112.093)" fill="#eb687e"/>
        <path id="Trazado_658852" data-name="Trazado 658852" d="M91.986,104.892a.981.981,0,0,1,1.745.349,1.121,1.121,0,0,1-.128.726.988.988,0,0,1-1.292.291c-.442-.264-.547-.708-.325-1.366" transform="translate(-74.334 -84.546)" fill="#070606"/>
      </g>
    </g>
  </g>
</svg>
