<svg xmlns="http://www.w3.org/2000/svg" xmlns:xlink="http://www.w3.org/1999/xlink" width="79" height="79" viewBox="0 0 79 79">
  <defs>
    <clipPath id="clip-path">
      <rect id="Rectángulo_312953" data-name="Rectángulo 312953" width="48.038" height="48.05" fill="none"/>
    </clipPath>
  </defs>
  <g id="i4" transform="translate(-521 -3866)">
    <circle id="Elipse_8224" data-name="Elipse 8224" cx="39.5" cy="39.5" r="39.5" transform="translate(521 3866)" fill="#fd7e7e"/>
    <g id="Grupo_996097" data-name="Grupo 996097" transform="translate(536.481 3882.475)">
      <g id="Grupo_996096" data-name="Grupo 996096" clip-path="url(#clip-path)">
        <path id="Trazado_658792" data-name="Trazado 658792" d="M41.3,36.691c-.145.563-.295.69-.877.7-.874.008-1.749,0-2.623,0a.541.541,0,0,0-.464.154A11.973,11.973,0,0,1,31.1,40.915a19.434,19.434,0,0,1-2.388.452c-.252.032-.315.095-.255.344a4.7,4.7,0,0,1-.027,2.109h.917c.672,0,1.343-.011,2.014,0A1.577,1.577,0,0,1,32.954,45.3a20.279,20.279,0,0,1,.015,2.059.666.666,0,0,1-.734.683c-1.436.009-2.873,0-4.31,0a.733.733,0,0,1-.772-.664c.133-.6.3-.738.916-.744l1.392-.015c.388.005.775.014,1.163.015,1.021,0,1.015,0,.95-1.022-.017-.268-.108-.4-.392-.387-.573.016-1.148.014-1.721.019-.172-.005-.343-.015-.515-.015q-5.767,0-11.534,0c-1.021,0-.921-.161-.951.958-.01.377.108.457.465.454,2.485-.015,4.97-.009,7.455-.008.634,0,.778.115.947.733-.124.535-.478.685-1,.682-2.766-.016-5.531-.007-8.3-.008-.753,0-.966-.216-.97-.978,0-.5-.009-1,0-1.5a1.641,1.641,0,0,1,1.771-1.744c.919,0,1.838,0,2.772,0a4.672,4.672,0,0,1-.017-2.126c.074-.289-.078-.295-.286-.324A18.537,18.537,0,0,1,13.746,39.8a9.389,9.389,0,0,1-3-2.2.669.669,0,0,0-.577-.217q-3.446,0-6.891,0A3.033,3.033,0,0,1,0,34.031,1.359,1.359,0,0,1,1.418,32.61c1.109-.027,2.219-.02,3.328,0,.329.006.415-.089.413-.416q-.02-3.68,0-7.36c0-.306-.056-.382-.379-.336a2.081,2.081,0,0,1-2.441-2.115c-.006-.578.011-1.157,0-1.734a.747.747,0,0,1,.672-.858c.579.132.732.312.738.893.006.562-.006,1.125,0,1.687.009.472.248.73.661.746a.687.687,0,0,0,.738-.681,3.175,3.175,0,0,0,.005-.328q0-2.2,0-4.4c0-1.01,0-1-1.028-1.005-.3,0-.4.067-.389.381.012.591-.16.769-.734.884a.738.738,0,0,1-.668-.855c.011-1.5-.008-3,.008-4.5A2.93,2.93,0,0,1,5.3,9.669c.735-.009,1.47,0,2.2-.007.152,0,.4.1.437-.108.038-.237.123-.516-.142-.733A3.32,3.32,0,0,1,6.624,6.8a2.248,2.248,0,0,1-.055-.51,1.308,1.308,0,0,0-.609-1.376c-.758-.494-.6-1.4-.472-2.163A3.279,3.279,0,0,1,8.748.006C9.639,0,10.531,0,11.422,0a3.379,3.379,0,0,1,3.269,4.036,1.4,1.4,0,0,1-.822,1.126.407.407,0,0,0-.277.457,3.683,3.683,0,0,1-1.275,3.223c-.235.2-.142.475-.109.7s.282.11.428.112c.735.014,1.47,0,2.2.008a2.921,2.921,0,0,1,2.966,2.888c.032,3.3.023,6.6,0,9.9a2.083,2.083,0,0,1-2.43,2.045c-.314-.044-.385.016-.383.331q.019,3.706,0,7.412c0,.284.064.371.359.366,1.063-.019,2.127-.011,3.19-.006a1.426,1.426,0,0,1,1.628,1.641,3,3,0,0,1-3.114,3.141c-1.453.017-2.906,0-4.386,0,.046.227.227.28.354.368a13.442,13.442,0,0,0,5.288,2.027c.521.1,1.051.154,1.571.257a.57.57,0,0,0,.625-.256,4.536,4.536,0,0,1,7-.009.629.629,0,0,0,.669.252,17.762,17.762,0,0,0,5.608-1.561,7.347,7.347,0,0,0,1.571-1c-.164-.126-.322-.071-.468-.072-1.282-.005-2.564,0-3.847,0a3.052,3.052,0,0,1-3.179-3.494,1.385,1.385,0,0,1,1.5-1.288c1.048-.014,2.1-.02,3.143.005.383.009.526-.05.521-.491-.027-2.392-.013-4.785-.013-7.177v-.485a2.8,2.8,0,0,1-1.278,0A2.114,2.114,0,0,1,30.214,22.4q-.008-4.856,0-9.711a2.922,2.922,0,0,1,2.8-3c.306-.022.3-.151.3-.373q-.009-2.392,0-4.785A4.362,4.362,0,0,1,37.828,0,4.4,4.4,0,0,1,42.447,3.26,4.726,4.726,0,0,1,42.6,4.511c0,1.6,0,3.19-.006,4.785,0,.254.019.368.336.388a2.921,2.921,0,0,1,2.762,2.987c.009,3.19,0,6.38,0,9.57A2.121,2.121,0,0,1,43.1,24.487l-.223-.028v.564c0,2.392.007,4.785-.008,7.177,0,.327.08.417.409.409,1.047-.023,2.1-.013,3.143-.007,1.111.006,1.621.533,1.616,1.652a3,3,0,0,1-3.032,3.13c-.328.011-.657,0-.985,0a.772.772,0,0,1-.854-.679.821.821,0,0,1,.731-.748,5.094,5.094,0,0,0,1.393-.005,1.6,1.6,0,0,0,1.35-1.694c-.013-.2-.075-.276-.274-.267-.6.027-1.211-.044-1.815.04a.2.2,0,0,0-.045-.011q-7.478-.008-14.955-.019c-.236,0-.278.09-.283.3a1.619,1.619,0,0,0,1.784,1.669c3.094,0,6.189,0,9.283,0,.658,0,.821.127.962.711M39.03,3.928c.53.005,1.059.013,1.589.015.591,0,.592,0,.4-.552a3.049,3.049,0,0,0-3.391-1.963,2.928,2.928,0,0,0-2.8,2.14c-.047.19-.138.387.226.382,1.326-.022,2.652-.017,3.979-.022m-27.866,0c.593,0,1.186.007,1.779.016.21,0,.37-.029.374-.294a2.185,2.185,0,0,0-.577-1.673,2.609,2.609,0,0,0-2.233-.547c-.531-.007-1.062-.019-1.592-.019a1.946,1.946,0,0,0-2.075,2.17c.009.249.064.368.342.365,1.328-.015,2.655-.014,3.983-.019M24.956,43.8c.576.005,1.152.007,1.728.019.177,0,.288-.037.342-.228a3.038,3.038,0,0,0-.617-2.932,2.849,2.849,0,0,0-2.77-1.078A3.129,3.129,0,0,0,21,43.544c.064.189.134.283.351.28,1.2-.015,2.4-.015,3.605-.021m14.36-23.922c-1.528-.007-3.056-.012-4.583-.025-.213,0-.3.053-.3.287q.012,2.69,0,5.381c0,.231.081.287.3.285,1.528-.012,3.056-.013,4.584-.017.625,0,1.25,0,1.874.018.231.006.289-.081.288-.3q-.01-2.672,0-5.345c0-.209-.048-.315-.284-.309-.624.017-1.249.017-1.873.024M16.689,34.035a.2.2,0,0,0-.045-.011q-7.48-.008-14.959-.019c-.24,0-.274.1-.279.306a1.619,1.619,0,0,0,1.788,1.665q4.666.007,9.332,0c1.172,0,2.344-.013,3.516-.02a4.637,4.637,0,0,0,1.436-.009,1.607,1.607,0,0,0,1.3-1.688c-.013-.2-.078-.274-.275-.265-.6.027-1.21-.044-1.813.04M11.339,12.563c-.125.063-.248.132-.375.189a2.026,2.026,0,0,1-2.78-1.043.8.8,0,0,0-1.034-.635.751.751,0,0,1-.234,0c-.3-.049-.363.087-.36.367.014,1.219.006,2.438.006,3.658,0,1,0,2,0,3,0,.212.015.357.291.353,1.53-.02,3.061-.027,4.591-.038.528.08,1.061-.006,1.588.044.439.041.586-.082.579-.553-.029-1.921-.012-3.843-.012-5.764,0-1.15,0-1.145-1.157-1.071-.183.012-.29.053-.324.247a2.253,2.253,0,0,1-.776,1.245m27.967,5.854c.574.081,1.152,0,1.726.042.343.025.452-.074.448-.435-.019-1.965-.009-3.93-.009-5.894,0-1.1,0-1.1-1.115-1.06-.2.007-.324.045-.363.258a2.232,2.232,0,0,1-.784,1.238,2.076,2.076,0,0,1-3.153-.861.764.764,0,0,0-.994-.631.948.948,0,0,1-.28,0c-.308-.05-.36.1-.353.372.017.687.005,1.374.005,2.062q0,2.273,0,4.546c0,.2-.053.406.282.4,1.529-.022,3.059-.027,4.588-.038M6.562,24.768v4.174c0,.677,0,.675.652.652a.814.814,0,0,1,.278.025c.424.141.487-.056.484-.434-.016-1.907,0-3.814-.009-5.722a2.108,2.108,0,0,1,2.677-2.132,2.118,2.118,0,0,1,1.543,2.062q.016,2.931,0,5.862c0,.319.061.479.412.375a1.078,1.078,0,0,1,.6,0c.3.085.406-.015.4-.339q-.016-4.5,0-9c0-.322-.086-.43-.419-.428q-3.1.02-6.19,0c-.36,0-.444.112-.44.453.017,1.485.007,2.97.007,4.455m2.813,3.1v3.753c0,.991,0,.977,1,.987.327,0,.417-.086.415-.415-.013-2.877-.006-5.755-.009-8.632,0-.557-.253-.88-.679-.89-.466-.011-.724.3-.725.881q0,2.158,0,4.316M10.1,5.352H8.832c-.906,0-.906,0-.859.924A2.1,2.1,0,0,0,10.538,8.2,2.227,2.227,0,0,0,12.2,5.663c-.007-.245-.068-.323-.316-.316-.594.017-1.188.005-1.782.005m27.863,0H36.7c-.91,0-.91,0-.852.925a2.107,2.107,0,0,0,2.651,1.9A2.3,2.3,0,0,0,40.067,5.5c-.051-.194-.175-.141-.284-.142-.608-.005-1.215,0-1.823,0M15,19.66c0,.906-.007,1.811,0,2.716a.683.683,0,0,0,.715.747c.417-.012.685-.324.687-.836.006-1.514,0-3.028,0-4.543,0-1.071,0-1.061-1.078-1.047-.266,0-.34.077-.335.34.016.874.006,1.748.007,2.623m29.281.094V17.739c0-1.065,0-1.055-1.079-1.042-.267,0-.336.078-.334.34.011,1.749,0,3.5.007,5.248,0,.52.256.824.679.838.444.014.722-.3.726-.838.005-.844,0-1.687,0-2.53m-11.258-.049V17.737c0-1.064,0-1.053-1.081-1.04-.27,0-.334.083-.332.342.011,1.749,0,3.5.007,5.248,0,.518.258.823.681.836.444.013.721-.3.724-.84.005-.859,0-1.718,0-2.577m5.629,10.2V28.269c0-1.073,0-1.061-1.052-1.064-.285,0-.366.064-.362.358.018,1.326.008,2.653.008,3.979,0,1.1,0,1.092,1.1,1.066.243-.006.317-.067.313-.313-.015-.8-.006-1.592-.006-2.388M5.153,13.194c0-.592-.019-1.185.007-1.775.015-.344-.11-.35-.375-.257a1.515,1.515,0,0,0-1.032,1.367c-.02.825.01,1.651-.016,2.476-.012.377.24.337.42.281.329-.1.879.339.975-.273a11.8,11.8,0,0,0,.02-1.819m27.873-2.077a1.454,1.454,0,0,0-1.39,1.357c-.042.857-.015,1.717-.014,2.576,0,.431.352.257.511.229.3-.053.84.288.869-.229.074-1.306.024-2.619.024-3.932m9.852,0v3.134c0,1.119,0,1.112,1.124,1.051.228-.012.289-.085.286-.3-.01-.811.013-1.623-.011-2.433a1.476,1.476,0,0,0-1.4-1.45M15,11.114v3.14c0,1.108,0,1.1,1.12,1.05.22-.01.3-.064.293-.292-.013-.812.016-1.626-.013-2.437A1.49,1.49,0,0,0,15,11.114M34.435,28.48c0,.234.018.47,0,.7-.035.368.011.592.475.452a1.285,1.285,0,0,1,.6.015c.253.052.355.014.341-.276-.023-.483-.006-.968-.006-1.452,0-.709,0-.709-.7-.709s-.706,0-.706.7v.562m7.036-.04c0-1.282,0-1.282-1.121-1.227a.276.276,0,0,1-.047,0c-.179-.023-.246.047-.243.234.009.671,0,1.343.007,2.014,0,.083-.067.2.136.217,1.267.1,1.267.106,1.267-1.145V28.44M10.793,10.329h-.01c0-.171,0-.342,0-.513,0-.114-.006-.228-.175-.191-.4.086-.93-.14-1.156.06-.246.218-.058.762-.074,1.163a.32.32,0,0,0,0,.046.695.695,0,0,0,1.373.085,4.081,4.081,0,0,0,.04-.649m27.86-.005h0c0-.172,0-.343,0-.515,0-.082.023-.22-.121-.19-.416.085-.9-.1-1.222.061-.208.106-.043.666-.062,1.022a1,1,0,0,0,0,.187.7.7,0,0,0,1.4,0c.019-.185,0-.374,0-.561M35.136,32.6c.811-.01.7.081.7-.53.008-.729-.206-1.036-.7-1.037s-.71.305-.7,1.034c.007.615-.106.523.7.533m5.616,0c.346-.024.8.177.733-.518-.066-.732-.213-1.039-.7-1.048s-.723.3-.716,1.019c.007.629-.106.537.686.547M7.24,32.588c.727,0,.727,0,.728-.519,0-.723-.212-1.032-.711-1.032s-.7.285-.694.984c0,.651-.067.559.676.567m5.619,0c.341-.031.8.182.75-.51-.055-.718-.223-1.036-.713-1.041s-.7.281-.7.974c0,.578,0,.578.668.578M41.189,7.712a5.333,5.333,0,0,1-.971,1.119c-.264.212-.173.5-.13.733.037.205.289.077.444.1.138.02.281-.005.421.006.183.014.243-.058.24-.24-.009-.572,0-1.145,0-1.718m-6.473,0V9.056c0,.612,0,.612.612.611.544,0,.581-.05.518-.568a.441.441,0,0,0-.2-.3,6.077,6.077,0,0,1-.934-1.091" transform="translate(-0.001 0)" fill="#020202"/>
        <path id="Trazado_658793" data-name="Trazado 658793" d="M167.718,183.571c-.142-.584-.3-.711-.962-.711-3.094,0-6.189,0-9.283,0a1.619,1.619,0,0,1-1.783-1.669c.005-.212.047-.3.283-.3q7.478.016,14.955.019a.207.207,0,0,1,.046.01,2.669,2.669,0,0,1-.655,1.927.821.821,0,0,0-.731.748l-1.869-.019" transform="translate(-126.42 -146.88)" fill="#f9e085"/>
        <path id="Trazado_658794" data-name="Trazado 658794" d="M100.554,241.948l-1.392.015c-.616.006-.783.142-.916.744l-1.824-.01c-.169-.618-.313-.733-.947-.733-2.485,0-4.97-.008-7.455.008-.357,0-.475-.077-.465-.454.03-1.12-.07-.957.951-.958q5.767-.007,11.534,0c.171,0,.343.01.515.015q0,.688,0,1.376" transform="translate(-71.094 -195.329)" fill="#f9e085"/>
        <path id="Trazado_658795" data-name="Trazado 658795" d="M15.966,90.083c.574-.114.747-.293.734-.884-.007-.314.091-.383.389-.381,1.027.006,1.028-.005,1.028,1.005q0,2.2,0,4.4a3.172,3.172,0,0,1-.005.328.688.688,0,0,1-.738.681c-.413-.017-.652-.274-.661-.747-.011-.562,0-1.124,0-1.687-.006-.581-.159-.761-.738-.893q0-.914,0-1.828" transform="translate(-12.964 -72.121)" fill="#f4ccbf"/>
        <path id="Trazado_658796" data-name="Trazado 658796" d="M34.87,110.545c0-1.485.01-2.97-.007-4.455,0-.342.08-.457.44-.454q3.1.025,6.19,0c.333,0,.42.106.419.428q-.016,4.5,0,9c0,.325-.1.424-.4.34a1.078,1.078,0,0,0-.6,0c-.351.1-.414-.056-.412-.375q.017-2.931,0-5.862a2.118,2.118,0,0,0-1.543-2.062,2.108,2.108,0,0,0-2.677,2.132c0,1.907-.007,3.815.009,5.722,0,.379-.059.575-.484.434a.81.81,0,0,0-.278-.025c-.652.023-.652.024-.652-.652v-4.174" transform="translate(-28.308 -85.777)" fill="#766c76"/>
        <path id="Trazado_658797" data-name="Trazado 658797" d="M188.011,66.165c-1.53.011-3.059.015-4.588.038-.335,0-.282-.2-.282-.4q0-2.273,0-4.546c0-.687.011-1.375-.005-2.062-.007-.271.045-.423.353-.372a.948.948,0,0,0,.281,0,.764.764,0,0,1,.994.631,2.077,2.077,0,0,0,3.153.861c.134.1.1.25.1.387q0,2.732-.008,5.464" transform="translate(-148.706 -47.748)" fill="#dd6965"/>
        <path id="Trazado_658798" data-name="Trazado 658798" d="M39.751,66.149c-1.53.011-3.061.018-4.591.038-.276,0-.293-.141-.291-.353.006-1,0-2,0-3,0-1.219.008-2.439-.006-3.658,0-.279.06-.416.36-.367a.756.756,0,0,0,.234,0,.8.8,0,0,1,1.034.635,2.026,2.026,0,0,0,2.78,1.043c.128-.057.25-.125.375-.189.138.1.11.247.11.384q0,2.734-.008,5.468" transform="translate(-28.31 -47.733)" fill="#6a98d1"/>
        <path id="Trazado_658799" data-name="Trazado 658799" d="M22.107,182.837c-1.172.007-2.344.019-3.516.02q-4.666,0-9.332,0a1.619,1.619,0,0,1-1.788-1.665c0-.208.039-.307.279-.306q7.479.016,14.959.019a.213.213,0,0,1,.046.01,2.676,2.676,0,0,1-.648,1.922" transform="translate(-6.067 -146.879)" fill="#f9e085"/>
        <path id="Trazado_658800" data-name="Trazado 658800" d="M188.024,111.558c-1.528,0-3.056.006-4.584.018-.216,0-.3-.054-.3-.285q.012-2.691,0-5.381c0-.234.089-.288.3-.287,1.528.013,3.056.018,4.583.025q0,2.955,0,5.91" transform="translate(-148.712 -85.766)" fill="#6a98d1"/>
        <path id="Trazado_658801" data-name="Trazado 658801" d="M60.412,66.115q0-2.734.008-5.468c0-.137.028-.285-.11-.384a2.252,2.252,0,0,0,.776-1.245c.034-.194.141-.235.324-.247,1.157-.074,1.157-.079,1.157,1.071,0,1.921-.017,3.843.012,5.764.007.471-.14.594-.579.553-.527-.049-1.06.036-1.588-.044" transform="translate(-48.972 -47.7)" fill="#4d86c8"/>
        <path id="Trazado_658802" data-name="Trazado 658802" d="M208.66,66.18q0-2.732.008-5.464c0-.137.03-.285-.1-.387a2.231,2.231,0,0,0,.783-1.238c.038-.213.164-.251.363-.258,1.115-.039,1.115-.045,1.115,1.06,0,1.965-.01,3.93.009,5.894,0,.361-.106.46-.448.435-.574-.042-1.152.039-1.726-.042" transform="translate(-169.355 -47.763)" fill="#d3504a"/>
        <path id="Trazado_658803" data-name="Trazado 658803" d="M115.061,214.782c-1.2.005-2.4.006-3.605.021-.217,0-.287-.092-.351-.28a3.129,3.129,0,0,1,2.64-3.959,5.986,5.986,0,0,1,1.19,1.8,5,5,0,0,1,.127,2.419" transform="translate(-90.105 -170.978)" fill="#f6cf6e"/>
        <path id="Trazado_658804" data-name="Trazado 658804" d="M49.864,125.8q0-2.158,0-4.316c0-.582.259-.892.725-.881.426.01.679.332.679.89,0,2.877,0,5.755.009,8.632,0,.329-.088.418-.415.415-1-.01-1,0-1-.987V125.8" transform="translate(-40.489 -97.931)" fill="#f7f9fa"/>
        <path id="Trazado_658805" data-name="Trazado 658805" d="M209.11,111.562q0-2.955,0-5.91c.625-.007,1.249-.006,1.873-.024.236-.007.284.1.284.309q-.008,2.672,0,5.345c0,.217-.057.3-.288.3-.624-.017-1.249-.014-1.874-.018" transform="translate(-169.798 -85.771)" fill="#4d86c8"/>
        <path id="Trazado_658806" data-name="Trazado 658806" d="M44.463,28.443c.594,0,1.189.011,1.782-.005.248-.007.309.071.316.316A2.227,2.227,0,0,1,44.9,31.291a2.1,2.1,0,0,1-2.565-1.923c-.047-.924-.047-.924.859-.924h1.266" transform="translate(-34.366 -23.092)" fill="#f4ccbf"/>
        <path id="Trazado_658807" data-name="Trazado 658807" d="M192.7,28.453c.608,0,1.216,0,1.823,0,.109,0,.233-.052.284.142a2.3,2.3,0,0,1-1.57,2.683,2.107,2.107,0,0,1-2.651-1.9c-.058-.925-.058-.925.852-.925H192.7" transform="translate(-154.736 -23.101)" fill="#f4ccbf"/>
        <path id="Trazado_658808" data-name="Trazado 658808" d="M40.694,10.032c-1.328,0-2.655,0-3.983.019-.278,0-.333-.116-.342-.365a1.946,1.946,0,0,1,2.075-2.17c.531,0,1.062.012,1.592.019a3.475,3.475,0,0,1,.657,2.5" transform="translate(-29.53 -6.103)" fill="#92605e"/>
        <path id="Trazado_658809" data-name="Trazado 658809" d="M79.781,91.769c0-.874.009-1.749-.006-2.623,0-.263.069-.337.335-.34,1.078-.014,1.078-.024,1.078,1.047,0,1.514,0,3.029,0,4.543,0,.512-.269.824-.687.836a.683.683,0,0,1-.715-.747c-.01-.905,0-1.811,0-2.716" transform="translate(-64.778 -72.108)" fill="#f4ccbf"/>
        <path id="Trazado_658810" data-name="Trazado 658810" d="M229.461,91.865c0,.844,0,1.687,0,2.53,0,.538-.282.852-.726.838-.423-.014-.678-.318-.679-.838,0-1.749,0-3.5-.007-5.248,0-.262.067-.337.334-.34,1.079-.013,1.079-.023,1.079,1.042v2.015" transform="translate(-185.176 -72.11)" fill="#f4ccbf"/>
        <path id="Trazado_658811" data-name="Trazado 658811" d="M169.574,91.814c0,.859,0,1.718,0,2.577,0,.539-.28.853-.724.84-.423-.012-.679-.317-.681-.836,0-1.749,0-3.5-.007-5.248,0-.259.062-.338.332-.342,1.081-.013,1.081-.024,1.081,1.04v1.968" transform="translate(-136.548 -72.108)" fill="#f4ccbf"/>
        <path id="Trazado_658812" data-name="Trazado 658812" d="M127.058,214.593a5,5,0,0,0-.127-2.419,5.987,5.987,0,0,0-1.19-1.8,2.849,2.849,0,0,1,2.77,1.078,3.039,3.039,0,0,1,.617,2.932c-.054.192-.165.232-.342.228-.576-.012-1.152-.014-1.728-.019" transform="translate(-102.102 -170.789)" fill="#f3c15c"/>
        <path id="Trazado_658813" data-name="Trazado 658813" d="M189.252,10.1c-1.326.005-2.653,0-3.979.022-.364.006-.273-.191-.226-.381a2.928,2.928,0,0,1,2.8-2.14,3.515,3.515,0,0,1,1.4,2.5" transform="translate(-150.222 -6.17)" fill="#f9e085"/>
        <path id="Trazado_658814" data-name="Trazado 658814" d="M199.509,147.418c0,.8-.009,1.592.006,2.388,0,.246-.07.307-.313.313-1.1.026-1.1.035-1.1-1.065,0-1.327.01-2.653-.008-3.979,0-.294.077-.358.362-.358,1.052,0,1.052-.009,1.052,1.063v1.639" transform="translate(-160.853 -117.51)" fill="#f7f9fa"/>
        <path id="Trazado_658815" data-name="Trazado 658815" d="M21.291,61.184A11.78,11.78,0,0,1,21.271,63c-.1.612-.646.171-.975.273-.18.056-.432.1-.42-.281.026-.825,0-1.651.016-2.476a1.515,1.515,0,0,1,1.032-1.367c.265-.093.391-.086.375.257-.026.591-.007,1.183-.007,1.775" transform="translate(-16.139 -47.99)" fill="#f5dc83"/>
        <path id="Trazado_658816" data-name="Trazado 658816" d="M169.565,59.136c0,1.313.05,2.626-.025,3.932-.029.518-.57.176-.869.23-.159.028-.511.2-.511-.229,0-.859-.028-1.719.014-2.575a1.454,1.454,0,0,1,1.39-1.357" transform="translate(-136.539 -48.019)" fill="#6a98d1"/>
        <path id="Trazado_658817" data-name="Trazado 658817" d="M228.08,59.144a1.476,1.476,0,0,1,1.4,1.45c.023.81,0,1.622.011,2.433,0,.216-.058.289-.286.3-1.125.061-1.124.069-1.124-1.051Z" transform="translate(-185.202 -48.025)" fill="#4d86c8"/>
        <path id="Trazado_658818" data-name="Trazado 658818" d="M79.805,59.117a1.49,1.49,0,0,1,1.4,1.461c.029.811,0,1.625.013,2.437,0,.228-.073.282-.293.292-1.12.052-1.12.058-1.12-1.05v-3.14" transform="translate(-64.802 -48.003)" fill="#f5dc83"/>
        <path id="Trazado_658819" data-name="Trazado 658819" d="M56.543,10a3.475,3.475,0,0,0-.657-2.5,2.609,2.609,0,0,1,2.233.547A2.185,2.185,0,0,1,58.7,9.726c0,.264-.164.3-.374.293-.593-.009-1.186-.011-1.779-.016" transform="translate(-45.38 -6.074)" fill="#7d5251"/>
        <path id="Trazado_658820" data-name="Trazado 658820" d="M201.544,10.058a3.515,3.515,0,0,0-1.4-2.5,3.049,3.049,0,0,1,3.391,1.963c.194.551.193.554-.4.552-.53,0-1.059-.01-1.589-.015" transform="translate(-162.515 -6.13)" fill="#f6cf6e"/>
        <path id="Trazado_658821" data-name="Trazado 658821" d="M85.325,182.782a2.676,2.676,0,0,0,.648-1.922c.6-.084,1.209-.013,1.813-.039.2-.009.262.062.275.265a1.607,1.607,0,0,1-1.3,1.688,4.633,4.633,0,0,1-1.436.009" transform="translate(-69.284 -146.824)" fill="#d3b462"/>
        <path id="Trazado_658822" data-name="Trazado 658822" d="M233.507,182.787a2.669,2.669,0,0,0,.655-1.927c.6-.084,1.21-.013,1.815-.04.2-.009.261.065.274.267a1.6,1.6,0,0,1-1.35,1.694,5.1,5.1,0,0,1-1.394.005" transform="translate(-189.609 -146.825)" fill="#d3b462"/>
        <path id="Trazado_658823" data-name="Trazado 658823" d="M183.1,146.022v-.562c0-.7,0-.7.706-.7s.7,0,.7.709c0,.484-.017.969.006,1.452.014.289-.087.328-.341.276a1.289,1.289,0,0,0-.6-.015c-.464.14-.511-.084-.476-.452.022-.232,0-.468,0-.7" transform="translate(-148.671 -117.542)" fill="#f4ccbf"/>
        <path id="Trazado_658824" data-name="Trazado 658824" d="M214.486,145.906V146c0,1.251,0,1.243-1.267,1.145-.2-.016-.136-.134-.136-.217-.007-.671,0-1.343-.007-2.014,0-.186.065-.257.243-.233a.282.282,0,0,0,.047,0c1.12-.056,1.12-.056,1.12,1.227" transform="translate(-173.016 -117.466)" fill="#f4ccbf"/>
        <path id="Trazado_658825" data-name="Trazado 658825" d="M156.706,241.958q0-.688,0-1.376c.574-.005,1.148,0,1.721-.019.284-.008.375.12.392.387.065,1.023.071,1.024-.95,1.022-.388,0-.775-.01-1.163-.015" transform="translate(-127.246 -195.338)" fill="#f6cf6e"/>
        <path id="Trazado_658826" data-name="Trazado 658826" d="M51.057,51.79a4.083,4.083,0,0,1-.04.649.695.695,0,0,1-1.373-.085.322.322,0,0,1,0-.047c.016-.4-.172-.945.074-1.163.226-.2.76.026,1.156-.06.169-.037.174.077.175.191,0,.171,0,.342,0,.513h.01" transform="translate(-40.265 -41.46)" fill="#edae9d"/>
        <path id="Trazado_658827" data-name="Trazado 658827" d="M199.346,51.833c0,.187.015.376,0,.561a.7.7,0,0,1-1.4,0,1,1,0,0,1,0-.187c.018-.356-.146-.917.062-1.022.327-.165.806.023,1.222-.061.145-.03.118.108.121.19.007.171,0,.343,0,.515h0" transform="translate(-160.694 -41.509)" fill="#edae9d"/>
        <path id="Trazado_658828" data-name="Trazado 658828" d="M183.867,166.619c-.806-.01-.693.082-.7-.533-.008-.729.207-1.035.7-1.034s.709.308.7,1.037c-.007.611.108.52-.7.53" transform="translate(-148.731 -134.023)" fill="#dd6965"/>
        <path id="Trazado_658829" data-name="Trazado 658829" d="M213.8,166.623c-.792-.01-.679.082-.686-.547-.008-.722.214-1.029.716-1.019s.638.317.7,1.048c.062.695-.387.494-.733.517" transform="translate(-173.044 -134.027)" fill="#dd6965"/>
        <path id="Trazado_658830" data-name="Trazado 658830" d="M35.587,166.646c-.744-.008-.672.084-.676-.567,0-.7.2-.983.694-.984s.712.308.711,1.032c0,.519,0,.519-.728.519" transform="translate(-28.347 -134.058)" fill="#92605e"/>
        <path id="Trazado_658831" data-name="Trazado 658831" d="M65.516,166.645c-.668,0-.668,0-.667-.578,0-.693.208-.979.7-.974s.659.324.713,1.041c.053.692-.409.479-.751.51" transform="translate(-52.657 -134.057)" fill="#92605e"/>
        <path id="Trazado_658832" data-name="Trazado 658832" d="M214.116,41.021c0,.573-.005,1.145,0,1.718,0,.182-.057.255-.24.24-.14-.011-.283.014-.421-.006-.154-.022-.406.107-.444-.1-.043-.235-.134-.522.13-.733a5.334,5.334,0,0,0,.971-1.119" transform="translate(-172.928 -33.309)" fill="#f6cf6e"/>
        <path id="Trazado_658833" data-name="Trazado 658833" d="M184.662,41.029a6.077,6.077,0,0,0,.934,1.091.441.441,0,0,1,.2.3c.064.518.027.568-.518.568-.612,0-.612,0-.612-.611V41.029" transform="translate(-149.946 -33.316)" fill="#f6cf6e"/>
      </g>
    </g>
  </g>
</svg>
