<svg xmlns="http://www.w3.org/2000/svg" xmlns:xlink="http://www.w3.org/1999/xlink" width="79" height="79" viewBox="0 0 79 79">
  <defs>
    <clipPath id="clip-path">
      <rect id="Rectángulo_312955" data-name="Rectángulo 312955" width="52.115" height="40.723" fill="none"/>
    </clipPath>
  </defs>
  <g id="i5" transform="translate(-1000 -3588)">
    <circle id="Elipse_5487" data-name="Elipse 5487" cx="39.5" cy="39.5" r="39.5" transform="translate(1000 3588)" fill="#fd7e7e"/>
    <g id="Grupo_996101" data-name="Grupo 996101" transform="translate(1013.442 3607.139)">
      <g id="Grupo_996100" data-name="Grupo 996100" clip-path="url(#clip-path)">
        <path id="Trazado_658853" data-name="Trazado 658853" d="M50.606,29.408c.816.086,1.115.364,1.178,1.178q.183,2.384.325,4.771c.054.909-.34,1.295-1.271,1.3-3.563,0-7.127.008-10.69-.01-.433,0-.579.064-.515.54.1.772.128,1.554.161,2.334a1.03,1.03,0,0,1-1.159,1.206q-12.574,0-25.148,0a1.03,1.03,0,0,1-1.166-1.2c.034-.813.079-1.627.166-2.436.04-.369-.055-.444-.413-.443-3.563.013-7.127.008-10.69.008C.29,36.652-.064,36.3.009,35.211.211,32.2.383,29.187.8,26.2a5.238,5.238,0,0,1,3.856-4.664,8.388,8.388,0,0,1,2.074-.146c.951,0,1.9-.01,2.851.007.27,0,.34-.078.338-.34q-.017-2.392,0-4.783a.8.8,0,0,0-.3-.607Q7.1,13.146,4.584,10.624c-.713-.713-.71-1.176.009-1.9Q8.678,4.643,12.765.56c.743-.743,1.2-.747,1.934-.013q2.611,2.607,5.22,5.216c.146.146.243.338.532.136a9.484,9.484,0,0,1,8.7-1.308.7.7,0,0,0,.15.013l.086.048-.017-.11c-.162-.3-.326-.593-.484-.891a1.016,1.016,0,0,1,.952-1.6c2.392-.007,4.784,0,7.176,0q4.886,0,9.772,0c1.126,0,1.569.743,1.018,1.718Q45.12,8.514,42.42,13.256a1.657,1.657,0,0,0-.229.863c.009,2.256.019,4.511-.008,6.766-.005.446.134.519.537.509,1.136-.028,2.273,0,3.41-.013a5.962,5.962,0,0,1,1.263.127,1.087,1.087,0,0,1,.974,1.5,1.1,1.1,0,0,1-1.359.493,3.82,3.82,0,0,0-1.113-.08H30.473a2.985,2.985,0,0,1-.305,0c-.219-.022-.3.066-.293.287a10.4,10.4,0,0,1,0,1.22c-.035.407.068.554.513.54,1.153-.036,2.307-.018,3.461-.011a4.907,4.907,0,0,1,4.947,3.876,29.743,29.743,0,0,1,.61,4.784c.028.362.114.519.531.511,1.509-.03,3.02-.025,4.529,0,.368.005.445-.106.439-.453-.021-1.238-.01-2.476-.007-3.714,0-.772.4-1.246,1.036-1.234.615.011,1,.473,1,1.22,0,1.255.014,2.51-.008,3.765-.006.342.1.424.426.414.728-.023,1.459-.026,2.188,0,.364.013.5-.054.465-.463-.106-1.131-.164-2.266-.24-3.4-.054-.805.095-1.043.848-1.354M26.077,27.492q-3.869,0-7.737,0a2.916,2.916,0,0,0-3.085,2.522,74.879,74.879,0,0,0-.823,8.344c-.021.283.075.338.332.333.78-.014,1.562-.026,2.341,0,.355.014.41-.117.405-.43-.017-1.153-.009-2.307-.006-3.46,0-.739.4-1.2,1.012-1.206s1.02.464,1.023,1.2c0,1.17.014,2.341-.008,3.511-.006.325.093.387.4.386q6.133-.015,12.267,0c.33,0,.387-.1.382-.4-.016-1.2-.015-2.409,0-3.613a1.022,1.022,0,0,1,1.135-1.076,1.037,1.037,0,0,1,.9,1.113c.007,1.2.012,2.409,0,3.613,0,.292.084.369.368.362q1.2-.028,2.392,0c.281.006.34-.088.316-.349-.054-.608-.072-1.219-.121-1.827a60.055,60.055,0,0,0-.672-6.367,2.934,2.934,0,0,0-3.226-2.657q-3.792,0-7.584,0M18.421,13.755a7.635,7.635,0,1,0,7.631-7.636,7.65,7.65,0,0,0-7.631,7.636m-4.582,9.666q-3.919,0-7.839,0a2.911,2.911,0,0,0-3.059,2.493,74.389,74.389,0,0,0-.828,8.395c-.019.259.074.313.309.309.764-.011,1.528-.024,2.29,0,.364.013.493-.061.483-.461-.03-1.237-.013-2.476-.01-3.714,0-.751.379-1.21,1-1.224.632-.014,1.038.462,1.04,1.231,0,1.238.013,2.476-.007,3.714-.006.343.064.461.436.455,1.51-.023,3.021-.028,4.53,0,.415.008.51-.144.532-.509.076-1.3.245-2.6.418-3.891a5.161,5.161,0,0,1,5.459-4.778c1.084.044,2.172,0,3.258.014.314.006.42-.082.4-.4a6.281,6.281,0,0,1,0-1.067c.042-.442-.076-.6-.564-.592-2.613.028-5.226.013-7.839.013M13.737,2.5c-.1.094-.19.168-.27.249Q10.137,6.07,6.806,9.393c-.21.208-.257.323-.019.559q3.361,3.329,6.694,6.687c.21.211.323.2.52-.006.708-.73,1.431-1.447,2.158-2.158a.721.721,0,0,0,.232-.579A9.43,9.43,0,0,1,18.5,7.735c.176-.22.175-.334-.024-.53-1.507-1.49-3-2.993-4.5-4.491-.069-.069-.145-.132-.241-.218M31.484,4.1c.712,1.209,1.284,2.432,2.066,3.53a9.48,9.48,0,0,1,1.187,1.885,48.709,48.709,0,0,0,2.71,5.1c.289.528.592,1.048.931,1.645L45.268,4.1Zm5.208,13.323-.1.021c0,1.212.006,2.424-.005,3.637,0,.257.1.307.329.3q1.472-.015,2.945,0c.207,0,.305-.044.3-.277-.009-1.224,0-2.449,0-3.673a6.917,6.917,0,0,0-.779,1.19,1.117,1.117,0,0,1-1.017.715,1.133,1.133,0,0,1-1-.736c-.212-.4-.445-.787-.669-1.18m-24.584.657-.149.058c0,1.008,0,2.015,0,3.022,0,.239.146.219.3.219.982,0,1.965-.008,2.947,0,.241,0,.327-.061.319-.311-.017-.558.006-1.117-.009-1.676a5.174,5.174,0,0,0-.085-1.415c-.355.391-.621.719-.924,1.009a1,1,0,0,1-1.527.009c-.306-.289-.581-.613-.87-.921m13.927,7.371c.49,0,.982-.017,1.471.006.278.013.343-.092.335-.346-.016-.507-.014-1.014,0-1.521.006-.248-.073-.326-.323-.286a9.253,9.253,0,0,1-2.929,0c-.26-.041-.32.057-.315.294.012.524.012,1.048,0,1.572-.006.222.073.291.29.286.49-.013.981,0,1.471,0m-5.907-4.068a11.525,11.525,0,0,1-2.533-2.859c-.044.887-.041,1.758-.046,2.629,0,.177.073.233.242.232.737-.005,1.474,0,2.337,0m11.849,0c.875,0,1.613,0,2.352,0,.174,0,.237-.067.236-.238,0-.87,0-1.74,0-2.61a12.583,12.583,0,0,1-2.586,2.846" transform="translate(0 0)" fill="#020202"/>
        <path id="Trazado_658854" data-name="Trazado 658854" d="M167.141,119.192c-.753.311-.9.549-.848,1.354.077,1.133.134,2.268.24,3.4.038.409-.1.477-.465.463-.728-.027-1.459-.024-2.188,0-.325.01-.431-.071-.426-.413.022-1.255.011-2.51.008-3.765,0-.747-.384-1.209-1-1.22-.633-.012-1.035.462-1.036,1.234,0,1.238-.014,2.476.008,3.714.006.347-.071.458-.439.453-1.509-.023-3.02-.028-4.529,0-.417.008-.5-.148-.531-.511a29.767,29.767,0,0,0-.61-4.784,4.907,4.907,0,0,0-4.947-3.876c-1.153-.007-2.308-.025-3.46.011-.446.014-.548-.134-.514-.54a10.4,10.4,0,0,0,0-1.22c-.007-.221.074-.31.293-.287a3.046,3.046,0,0,0,.305,0H162.43a3.82,3.82,0,0,1,1.113.08,1.1,1.1,0,0,0,1.359-.493,3.341,3.341,0,0,1,1.526,1.894c-.588.351-.784.719-.653,1.224s.475.74,1.154.772a22.113,22.113,0,0,1,.212,2.508" transform="translate(-116.535 -89.784)" fill="#aee1aa"/>
        <path id="Trazado_658855" data-name="Trazado 658855" d="M242.383,124.013c-.678-.032-1.02-.26-1.154-.772s.064-.872.653-1.224a1.068,1.068,0,0,1,1.3.681c.166.578-.115,1.039-.8,1.314" transform="translate(-191.989 -97.113)" fill="#050605"/>
        <path id="Trazado_658856" data-name="Trazado 658856" d="M82.383,134.766q3.792,0,7.584,0a2.933,2.933,0,0,1,3.226,2.657,60.058,60.058,0,0,1,.672,6.367c.049.608.066,1.219.121,1.827.023.261-.035.355-.316.349q-1.2-.027-2.392,0c-.284.007-.372-.07-.368-.362.016-1.2.012-2.408,0-3.613a1.037,1.037,0,0,0-.9-1.113,1.022,1.022,0,0,0-1.135,1.076c-.011,1.2-.013,2.408,0,3.612,0,.3-.052.4-.382.4q-6.134-.019-12.267,0c-.3,0-.4-.061-.4-.386.022-1.17.011-2.34.008-3.511,0-.733-.407-1.2-1.023-1.2s-1.01.467-1.013,1.206c0,1.153-.011,2.307.006,3.46,0,.313-.051.443-.405.43-.779-.03-1.561-.018-2.341,0-.256,0-.352-.05-.332-.333a74.884,74.884,0,0,1,.824-8.344,2.916,2.916,0,0,1,3.084-2.521q3.869-.007,7.737,0" transform="translate(-56.306 -107.273)" fill="#fae5b9"/>
        <path id="Trazado_658857" data-name="Trazado 658857" d="M90.3,37.633a7.636,7.636,0,1,1,7.64,7.629,7.647,7.647,0,0,1-7.64-7.629" transform="translate(-71.882 -23.878)" fill="#f6d0c8"/>
        <path id="Trazado_658858" data-name="Trazado 658858" d="M22.075,114.761c2.613,0,5.226.015,7.839-.013.488-.005.606.15.564.592a6.367,6.367,0,0,0,0,1.067c.023.315-.083.4-.4.4-1.086-.019-2.173.03-3.258-.014a5.161,5.161,0,0,0-5.459,4.778c-.173,1.294-.342,2.588-.418,3.892-.021.365-.116.517-.531.509-1.51-.03-3.02-.025-4.53,0-.371.006-.442-.112-.436-.455.021-1.238.01-2.476.007-3.715,0-.769-.408-1.245-1.04-1.231-.616.014-.994.473-1,1.224,0,1.238-.02,2.477.01,3.714.01.4-.119.475-.483.461-.763-.028-1.527-.016-2.29,0-.235,0-.328-.051-.309-.31a74.484,74.484,0,0,1,.828-8.395,2.911,2.911,0,0,1,3.059-2.493q3.919-.008,7.839,0" transform="translate(-8.235 -91.34)" fill="#89b5f7"/>
        <path id="Trazado_658859" data-name="Trazado 658859" d="M39.6,12.233c.1.086.171.149.24.218,1.5,1.5,2.995,3,4.5,4.491.2.2.2.31.024.53a9.43,9.43,0,0,0-2.113,6.162.722.722,0,0,1-.232.579c-.728.711-1.45,1.428-2.158,2.157-.2.2-.31.217-.52.006q-3.334-3.355-6.693-6.687c-.238-.236-.191-.351.018-.559q3.339-3.316,6.661-6.648c.081-.081.168-.155.27-.249" transform="translate(-25.862 -9.738)" fill="#f7d1c8"/>
        <path id="Trazado_658860" data-name="Trazado 658860" d="M154.343,20.123h13.784l-6.891,12.159c-.338-.6-.642-1.117-.931-1.645a48.629,48.629,0,0,1-2.71-5.1,9.48,9.48,0,0,0-1.187-1.885c-.782-1.1-1.354-2.321-2.066-3.53" transform="translate(-122.858 -16.018)" fill="#f6d0c7"/>
        <path id="Trazado_658861" data-name="Trazado 658861" d="M179.461,85.434c.224.393.457.781.669,1.18a1.133,1.133,0,0,0,1,.736,1.118,1.118,0,0,0,1.017-.715,6.916,6.916,0,0,1,.779-1.19c0,1.224,0,2.449,0,3.673,0,.233-.1.279-.3.277q-1.472-.012-2.945,0c-.23,0-.331-.048-.329-.3.012-1.212.005-2.424.005-3.637l.1-.021" transform="translate(-142.768 -68.006)" fill="#f0ccc3"/>
        <path id="Trazado_658862" data-name="Trazado 658862" d="M58.761,88.277c.289.308.563.632.869.921a1,1,0,0,0,1.528-.009c.3-.29.569-.619.923-1.01a5.175,5.175,0,0,1,.084,1.415c.014.558-.008,1.117.009,1.676.008.25-.078.314-.319.311-.982-.012-1.964-.005-2.947,0-.155,0-.3.02-.3-.22.008-1.007,0-2.015,0-3.022l.149-.058" transform="translate(-46.652 -70.192)" fill="#f7d1c8"/>
        <path id="Trazado_658863" data-name="Trazado 658863" d="M120.751,116.371c-.49,0-.981-.009-1.471,0-.217.006-.3-.063-.29-.285q.019-.786,0-1.572c-.006-.237.054-.336.315-.294a9.246,9.246,0,0,0,2.929,0c.25-.04.329.039.322.286-.014.507-.015,1.014,0,1.521.008.254-.057.359-.335.346-.489-.023-.981-.007-1.471-.007" transform="translate(-94.717 -90.915)" fill="#f6d1c8"/>
        <path id="Trazado_658866" data-name="Trazado 658866" d="M143.715,22.265l.017.11-.087-.048a.636.636,0,0,1,.069-.063" transform="translate(-114.343 -17.723)" fill="#f7f9fa"/>
      </g>
    </g>
  </g>
</svg>
