<svg xmlns="http://www.w3.org/2000/svg" xmlns:xlink="http://www.w3.org/1999/xlink" width="79" height="79" viewBox="0 0 79 79">
  <defs>
    <clipPath id="clip-path">
      <rect id="Rectángulo_312957" data-name="Rectángulo 312957" width="47.376" height="47.364" fill="none"/>
    </clipPath>
  </defs>
  <g id="i7" transform="translate(-1000 -3774)">
    <circle id="Elipse_8219" data-name="Elipse 8219" cx="39.5" cy="39.5" r="39.5" transform="translate(1000 3774)" fill="#fd7e7e"/>
    <g id="Grupo_996105" data-name="Grupo 996105" transform="translate(1016 3790)">
      <g id="Grupo_996104" data-name="Grupo 996104" clip-path="url(#clip-path)">
        <path id="Trazado_658878" data-name="Trazado 658878" d="M16.888,3.516h1.873c.109.607.286.74,1,.74H49.311c.184,0,.369.01.554.015a8.6,8.6,0,0,1,.189,2.241q-.006,15.422,0,30.844a7.4,7.4,0,0,1-.191,1.916c-1.926.007-3.853.046-5.778.011a2.558,2.558,0,0,1-2.66-2.018c-.041-.257-.116-.509-.171-.764a8.567,8.567,0,0,0-.6-2.266,1.571,1.571,0,0,0-1.5-.9,1.487,1.487,0,0,0-1.349.9,3.631,3.631,0,0,0-.341,1.143,14.873,14.873,0,0,0,.019,3.5c.027.317-.034.419-.376.418q-7.329-.017-14.658,0c-.32,0-.384-.092-.355-.394a18.964,18.964,0,0,0,.1-2.677,5.056,5.056,0,0,0-.373-1.89,1.514,1.514,0,0,0-1.423-1,1.587,1.587,0,0,0-1.512.958,5.027,5.027,0,0,0-.39,1.275c-.134.694-.257,1.388-.452,2.071A2.48,2.48,0,0,1,15.7,39.271c-2.371.076-4.747.025-7.12.024-.831,0-1.086-.253-1.086-1.068q0-16.459,0-32.918c0-.8.252-1.052,1.046-1.052q3.723,0,7.445,0c.625,0,.792-.142.9-.74M14.816,17.031c.462.464.85.882,1.269,1.264a.415.415,0,0,1,.076.623,7.849,7.849,0,0,0-1.065,3.31,8.835,8.835,0,0,0,10.429,9.586,8.37,8.37,0,0,0,6.808-6.175,8.3,8.3,0,0,0-2.469-8.924,8.722,8.722,0,0,0-10.315-1.238c-.11.063-.212.193-.36.049-.476-.463-.955-.922-1.476-1.424.2-.051.294-.072.383-.1a2.077,2.077,0,0,0-.487-4.1q-2.451-.016-4.9,0a2.015,2.015,0,0,0-2.059,1.855q-.063,2.68,0,5.362a1.952,1.952,0,0,0,1.882,1.871,2.007,2.007,0,0,0,2.179-1.531c.03-.118.058-.236.106-.429m25.7-9.751a8.07,8.07,0,0,0-3.871.914,7.888,7.888,0,0,0-4.347,7.8,7.694,7.694,0,0,0,5.175,7.146c.921.382.925.372.9,1.381a.274.274,0,0,0,0,.046c.036.249-.081.317-.317.309-.416-.014-.833-.015-1.248.006a2.069,2.069,0,0,0-.3,4.091,5.394,5.394,0,0,0,1.428.051c.385-.02.469.12.446.468a6.978,6.978,0,0,0,.019,1.108,2.068,2.068,0,0,0,4.079.162,5.909,5.909,0,0,0,.052-1.383c-.014-.3.089-.367.365-.35a9.506,9.506,0,0,0,1.109,0,2.05,2.05,0,0,0,2.044-1.983,2.023,2.023,0,0,0-1.664-2.13,5.368,5.368,0,0,0-.968-.044c-.879-.005-.856,0-.89-.9-.015-.407.1-.562.5-.691A8.209,8.209,0,0,0,40.511,7.28" transform="translate(-6.105 -2.864)" fill="#fcf5f1"/>
        <path id="Trazado_658879" data-name="Trazado 658879" d="M10.783.651c-.111.6-.278.74-.9.74q-3.722,0-7.445,0c-.794,0-1.045.254-1.045,1.052q0,16.459,0,32.918c0,.815.256,1.067,1.086,1.068,2.374,0,4.749.052,7.121-.024a2.479,2.479,0,0,0,2.347-1.628c.2-.683.317-1.377.452-2.071a5.035,5.035,0,0,1,.389-1.275,1.587,1.587,0,0,1,1.512-.958,1.514,1.514,0,0,1,1.423,1,5.059,5.059,0,0,1,.373,1.89,18.937,18.937,0,0,1-.1,2.677c-.029.3.035.394.355.394q7.329-.015,14.658,0c.341,0,.4-.1.375-.418a14.873,14.873,0,0,1-.019-3.5,3.629,3.629,0,0,1,.341-1.142,1.486,1.486,0,0,1,1.349-.9,1.571,1.571,0,0,1,1.5.9,8.559,8.559,0,0,1,.6,2.266c.054.255.13.507.171.764A2.558,2.558,0,0,0,37.98,36.42c1.925.035,3.852,0,5.778-.011.458.007.917.032,1.375.016a.8.8,0,0,0,.845-.876c.008-.336,0-.673,0-1.01,0-.643.123-.8.74-.958a.815.815,0,0,1,.653.964c-.023.338,0,.678,0,1.017a2.186,2.186,0,0,1-2.2,2.253c-.477.017-.957.027-1.433,0-.343-.022-.438.073-.436.427.017,2.682.009,5.364.009,8.046,0,.915-.163,1.079-1.068,1.079H35.12c-.71,0-.931-.221-.933-.941,0-1.064,0-2.127,0-3.19,0-.166.021-.329-.137-.463A7.656,7.656,0,0,1,31.663,38.2c-.065-.319-.181-.384-.476-.383q-7.492.012-14.984,0c-.32,0-.433.073-.5.41a7.633,7.633,0,0,1-2.365,4.532c-.172.146-.151.322-.151.5,0,1.064,0,2.127,0,3.19,0,.688-.232.914-.914.915q-3.654,0-7.307,0c-.682,0-.9-.224-.9-.92,0-2.728-.009-5.456.009-8.184,0-.378-.114-.453-.463-.448a8.965,8.965,0,0,1-1.845-.05A2.161,2.161,0,0,1,0,35.722c-.006-.139,0-.277,0-.416Q0,18.913,0,2.522A2.222,2.222,0,0,1,2.528,0c2.451,0,4.9.005,7.353,0,.478,0,.813.141.9.652M39.872,45.959c.539.005,1.08-.016,1.616.025.387.03.443-.124.441-.463-.014-2.172,0-4.343-.011-6.515,0-.38.167-.873-.069-1.112s-.73-.059-1.11-.071c-.447-.014-.895,0-1.431,0a13.42,13.42,0,0,1,1.15,1.425.729.729,0,0,1-.587,1.211.964.964,0,0,1-.623-.5,6.167,6.167,0,0,0-2.98-2.526,3.553,3.553,0,0,1-2.3-2.717c-.17-.7-.279-1.417-.438-2.121-.062-.275-.109-.7-.43-.676s-.3.451-.345.727A13.3,13.3,0,0,0,32.764,36a10.791,10.791,0,0,0,.986,4.144,3.5,3.5,0,0,0,3.124,2.232.673.673,0,0,1,.654.7.7.7,0,0,1-.69.672,3.056,3.056,0,0,1-.916-.092c-.246-.059-.363-.024-.352.271.02.585.014,1.171,0,1.755,0,.214.05.294.281.292,1.34-.016,2.679-.016,4.019-.021m-30.158,0c.6.005,1.2,0,1.792.019.219.006.3-.058.29-.283-.015-.459,0-.92,0-1.379,0-.687,0-.687-.7-.588-.837.119-1.1-.027-1.282-.714a.813.813,0,0,1,.874-.656,2.866,2.866,0,0,0,1.945-.844,4.851,4.851,0,0,0,1.218-1.884,16.718,16.718,0,0,0,.8-6.735,3.534,3.534,0,0,0-.164-.764c-.031-.109-.072-.252-.231-.248-.122,0-.179.107-.234.2a2.181,2.181,0,0,0-.236.7c-.1.513-.184,1.03-.287,1.543a3.693,3.693,0,0,1-2.508,3.14,4.2,4.2,0,0,0-1.194.691,7.107,7.107,0,0,0-1.748,1.888.685.685,0,0,1-.979.3A.7.7,0,0,1,6.886,39.3c.178-.287.394-.55.586-.829.149-.215.4-.36.493-.656-.763,0-1.487.009-2.21-.005-.241,0-.313.063-.312.309q.013,3.768,0,7.535c0,.222.032.327.294.323,1.325-.018,2.65-.016,3.975-.021" transform="translate(0 0)" fill="#030202"/>
        <path id="Trazado_658880" data-name="Trazado 658880" d="M99.383,1.415c-.185-.005-.369-.015-.554-.015H69.279c-.713,0-.89-.132-1-.74a.748.748,0,0,1,.857-.651Q84.969.015,100.8.015a2.148,2.148,0,0,1,2.188,2.2q.008,14.4.006,28.793a.753.753,0,0,1-.649.859c-.618-.116-.741-.28-.741-1q0-14.128,0-28.256c0-.123,0-.247,0-.37a.786.786,0,0,0-.834-.845c-.462-.01-.924.007-1.386.013" transform="translate(-55.624 -0.007)"/>
        <path id="Trazado_658881" data-name="Trazado 658881" d="M236.081,7.529c.462-.005.925-.022,1.386-.013a.786.786,0,0,1,.834.845c0,.123,0,.247,0,.37q0,14.128,0,28.256c0,.717.123.882.741,1q0,.859,0,1.718c-.617.159-.738.315-.74.958,0,.337.006.673,0,1.01a.8.8,0,0,1-.846.876c-.457.016-.916-.009-1.375-.016a7.4,7.4,0,0,0,.191-1.916q-.009-15.422,0-30.844a8.6,8.6,0,0,0-.188-2.241" transform="translate(-192.322 -6.12)" fill="#faece6"/>
        <path id="Trazado_658882" data-name="Trazado 658882" d="M28.55,45.059c-.048.193-.076.311-.106.429a2.007,2.007,0,0,1-2.179,1.531,1.951,1.951,0,0,1-1.882-1.871q-.06-2.68,0-5.362a2.015,2.015,0,0,1,2.059-1.855q2.451-.019,4.9,0a2.077,2.077,0,0,1,.487,4.1c-.089.024-.179.045-.383.1.521.5,1,.961,1.476,1.424.148.144.25.014.36-.049A8.722,8.722,0,0,1,43.6,44.743a8.3,8.3,0,0,1,2.469,8.925,8.37,8.37,0,0,1-6.808,6.175,8.836,8.836,0,0,1-10.429-9.586,7.85,7.85,0,0,1,1.065-3.31.414.414,0,0,0-.076-.623c-.42-.382-.808-.8-1.269-1.264m-2.8-2.583c0,.8-.006,1.6,0,2.4.005.489.255.755.679.758a.682.682,0,0,0,.7-.749c.015-.431.012-.863,0-1.295-.009-.376.037-.713.442-.875.384-.155.644.048.895.3.946.95,1.9,1.9,2.844,2.846.446.448.464.675.114,1.213a7.444,7.444,0,0,0,7.656,11.4A7.493,7.493,0,0,0,45.018,50.3a7.609,7.609,0,0,0-7.1-6.546A7.229,7.229,0,0,0,33.5,45c-.489.329-.751.327-1.11-.028-1.02-1.008-2.03-2.025-3.044-3.039a.676.676,0,0,1-.2-.794.714.714,0,0,1,.741-.441c.462.005.925.008,1.388,0,.48-.01.765-.266.773-.676.009-.429-.283-.7-.789-.706q-2.359-.01-4.718,0c-.537,0-.786.259-.791.8-.007.786,0,1.572,0,2.359" transform="translate(-19.838 -30.893)" fill="#030303"/>
        <path id="Trazado_658883" data-name="Trazado 658883" d="M149.455,23.822a8.209,8.209,0,0,1,2.511,16.007c-.4.128-.519.284-.5.69.034.892.01.89.89.9a5.368,5.368,0,0,1,.968.044,2.023,2.023,0,0,1,1.664,2.13,2.05,2.05,0,0,1-2.044,1.983,9.506,9.506,0,0,1-1.109,0c-.276-.017-.379.052-.365.35a5.92,5.92,0,0,1-.052,1.383,2.068,2.068,0,0,1-4.079-.162,6.982,6.982,0,0,1-.019-1.108c.023-.348-.061-.488-.446-.468a5.4,5.4,0,0,1-1.428-.051,2.069,2.069,0,0,1,.3-4.091c.415-.02.832-.019,1.248-.005.236.008.353-.06.317-.309a.276.276,0,0,1,0-.046c.029-1.008.025-1-.9-1.381a7.694,7.694,0,0,1-5.175-7.146,7.888,7.888,0,0,1,4.347-7.8,8.07,8.07,0,0,1,3.871-.914M148.7,40.734c0,.416.01.833,0,1.248a.737.737,0,0,1-.839.818c-.616.009-1.233,0-1.85,0-.544,0-.81.221-.825.657-.015.453.273.718.815.726.616.009,1.233,0,1.85,0,.6.006.839.241.85.842.011.57,0,1.14,0,1.711.006.542.227.811.659.822.449.012.711-.274.723-.822.012-.57,0-1.14,0-1.711.007-.612.23-.837.834-.842.632-.006,1.264.007,1.9-.005a.71.71,0,0,0,.785-.677c.012-.42-.291-.7-.794-.7-.632-.008-1.264,0-1.9,0-.571-.008-.817-.251-.823-.817-.008-.693,0-1.387,0-2.081,0-.976.029-1.012.972-1.248a6.81,6.81,0,0,0-2.643-13.343,6.8,6.8,0,0,0-.569,13.367c.717.189.851.342.853,1.084,0,.324,0,.647,0,.971" transform="translate(-115.049 -19.407)" fill="#040303"/>
        <path id="Trazado_658884" data-name="Trazado 658884" d="M33.635,186.1c-1.325.005-2.65,0-3.975.021-.263,0-.295-.1-.294-.323q.009-3.767,0-7.535c0-.246.071-.314.312-.309.724.015,1.448.005,2.21.005-.094.3-.344.441-.493.656-.193.278-.408.542-.586.829a.7.7,0,0,0,.186,1.044.685.685,0,0,0,.979-.3,7.107,7.107,0,0,1,1.748-1.888,4.2,4.2,0,0,1,1.194-.691,3.693,3.693,0,0,0,2.508-3.14c.1-.513.188-1.029.287-1.542a2.18,2.18,0,0,1,.236-.7c.055-.094.112-.2.234-.2.158,0,.2.139.231.248a3.534,3.534,0,0,1,.164.764,16.718,16.718,0,0,1-.8,6.735,4.851,4.851,0,0,1-1.218,1.884,2.866,2.866,0,0,1-1.945.844.814.814,0,0,0-.874.656c-.16.13-.1.311-.1.471-.007.825,0,1.649,0,2.474" transform="translate(-23.921 -140.142)" fill="#f5cdbf"/>
        <path id="Trazado_658885" data-name="Trazado 658885" d="M183.353,186.214c-1.34.005-2.679.005-4.019.021-.231,0-.286-.078-.281-.292.012-.585.018-1.171,0-1.755-.01-.3.107-.331.353-.271a3.056,3.056,0,0,0,.916.092.7.7,0,0,0,.69-.672.673.673,0,0,0-.654-.7,3.5,3.5,0,0,1-3.124-2.232,10.787,10.787,0,0,1-.986-4.144,13.29,13.29,0,0,1-.014-3.362c.047-.276.034-.706.345-.727s.368.4.43.676c.159.7.268,1.42.438,2.121a3.554,3.554,0,0,0,2.305,2.717,6.167,6.167,0,0,1,2.98,2.526.963.963,0,0,0,.623.5q0,2.752,0,5.5" transform="translate(-143.481 -140.255)" fill="#f4cdbf"/>
        <path id="Trazado_658886" data-name="Trazado 658886" d="M212.632,211.961q0-2.752,0-5.5a.729.729,0,0,0,.587-1.211,13.416,13.416,0,0,0-1.15-1.425c.535,0,.983-.011,1.431,0,.38.012.874-.167,1.11.071s.068.731.069,1.112c.007,2.172,0,4.344.011,6.515,0,.34-.054.493-.441.463-.536-.041-1.077-.02-1.616-.025" transform="translate(-172.76 -166.001)" fill="#f3b2a1"/>
        <path id="Trazado_658887" data-name="Trazado 658887" d="M52.374,235.019c0-.825,0-1.649,0-2.474,0-.16-.063-.341.1-.471.182.687.445.833,1.282.714.7-.1.7-.1.7.588,0,.46-.011.92,0,1.379.007.225-.071.29-.29.283-.6-.017-1.195-.014-1.792-.019" transform="translate(-42.66 -189.059)" fill="#f3b2a1"/>
        <path id="Trazado_658888" data-name="Trazado 658888" d="M31.891,48.589c0-.786-.006-1.573,0-2.359.005-.541.254-.8.791-.8q2.359-.01,4.718,0c.506,0,.8.277.789.706-.008.409-.293.666-.773.676-.462.009-.925.006-1.388,0a.714.714,0,0,0-.74.441.675.675,0,0,0,.2.794c1.014,1.014,2.024,2.031,3.044,3.039.359.355.621.357,1.11.028a7.229,7.229,0,0,1,4.411-1.246,7.609,7.609,0,0,1,7.1,6.546,7.492,7.492,0,0,1-5.932,8.172,7.444,7.444,0,0,1-7.656-11.4c.35-.538.332-.765-.114-1.213-.947-.95-1.9-1.9-2.844-2.846-.251-.252-.51-.455-.895-.3-.4.163-.451.5-.442.875.011.432.013.864,0,1.295a.682.682,0,0,1-.7.749c-.424,0-.674-.268-.679-.758-.009-.8,0-1.6,0-2.4m5.828,8.743a6.049,6.049,0,0,0,12.1.058,6.049,6.049,0,1,0-12.1-.058" transform="translate(-25.978 -37.006)" fill="#7f79b9"/>
        <path id="Trazado_658889" data-name="Trazado 658889" d="M154.557,46.984c0-.324,0-.647,0-.971,0-.742-.135-.9-.853-1.084a6.8,6.8,0,0,1,.569-13.367A6.81,6.81,0,0,1,156.916,44.9c-.943.236-.972.272-.972,1.248,0,.694-.006,1.387,0,2.081.007.567.252.81.823.817.632.009,1.264,0,1.9,0,.5.007.806.283.794.7a.711.711,0,0,1-.785.677c-.632.012-1.264,0-1.9,0-.6.005-.827.23-.834.842-.006.57.008,1.141,0,1.711-.012.548-.274.834-.723.822-.432-.011-.653-.28-.659-.822-.006-.57.006-1.141,0-1.711-.011-.6-.252-.837-.85-.842-.617-.006-1.233.005-1.85,0-.541-.008-.83-.273-.815-.726.014-.436.28-.653.824-.657.616-.005,1.233.005,1.85,0a.737.737,0,0,0,.839-.818c.012-.416,0-.832,0-1.248m-4.723-8.7a5.32,5.32,0,0,0,5.437,5.438,5.434,5.434,0,0,0,.055-10.867,5.322,5.322,0,0,0-5.492,5.429" transform="translate(-120.905 -25.657)" fill="#d55d6a"/>
        <path id="Trazado_658890" data-name="Trazado 658890" d="M63.345,83.052a6.049,6.049,0,1,1,12.1.058,6.049,6.049,0,0,1-12.1-.058m6.107,4.6a4.524,4.524,0,0,0,4.581-4.721,4.649,4.649,0,0,0-9.3.131,4.574,4.574,0,0,0,4.717,4.59" transform="translate(-51.604 -62.725)" fill="#030304"/>
        <path id="Trazado_658891" data-name="Trazado 658891" d="M156.074,44.245a5.322,5.322,0,0,1,5.492-5.429,5.434,5.434,0,0,1-.055,10.867,5.32,5.32,0,0,1-5.437-5.438m5.41,4.052a4.052,4.052,0,0,0,4.054-4.005,4.06,4.06,0,1,0-8.12.006,4.061,4.061,0,0,0,4.066,4" transform="translate(-127.145 -31.621)" fill="#030202"/>
        <path id="Trazado_658892" data-name="Trazado 658892" d="M75.556,93.666a4.574,4.574,0,0,1-4.717-4.59,4.649,4.649,0,0,1,9.3-.131,4.524,4.524,0,0,1-4.581,4.721" transform="translate(-57.708 -68.737)" fill="#fcf5f1"/>
        <path id="Trazado_658893" data-name="Trazado 658893" d="M167.388,54.47a4.061,4.061,0,0,1-4.066-4,4.06,4.06,0,1,1,8.12-.006,4.052,4.052,0,0,1-4.054,4.005" transform="translate(-133.05 -37.794)" fill="#fcf5f1"/>
      </g>
    </g>
  </g>
</svg>
