<svg xmlns="http://www.w3.org/2000/svg" xmlns:xlink="http://www.w3.org/1999/xlink" width="79" height="79" viewBox="0 0 79 79">
  <defs>
    <clipPath id="clip-path">
      <rect id="Rectángulo_312956" data-name="Rectángulo 312956" width="48.202" height="48.201" fill="none"/>
    </clipPath>
  </defs>
  <g id="i8" transform="translate(-1000 -3867)">
    <circle id="Elipse_8220" data-name="Elipse 8220" cx="39.5" cy="39.5" r="39.5" transform="translate(1000 3867)" fill="#fd7e7e"/>
    <g id="Grupo_996103" data-name="Grupo 996103" transform="translate(1015 3882)">
      <g id="Grupo_996102" data-name="Grupo 996102" clip-path="url(#clip-path)">
        <path id="Trazado_658867" data-name="Trazado 658867" d="M39.389,28.789a.987.987,0,0,1-1.46-.165,11.214,11.214,0,0,1-2.6-3.249c-.074-.162-.188-.168-.343-.15a2.005,2.005,0,0,1-2.074-1.09c-.814-1.391-1.585-2.806-2.368-4.214a2.594,2.594,0,0,1-.317-1.311c.031-2.2.072-4.391.108-6.587a3.288,3.288,0,0,1,.682-1.866c.894-1.27,1.868-2.477,2.823-3.7A20.264,20.264,0,0,0,35.07,4.676a3.054,3.054,0,0,0,.339-2.613c-.086-.284-.175-.569-.233-.86a.931.931,0,0,1,.957-1.2q4.8-.013,9.6,0c.54,0,.817.274,1,.879a14.557,14.557,0,0,1-.028,8.791c-.346,1.1-.5,2.263-.949,3.337-.085.2.046.212.155.248A8.283,8.283,0,0,1,48.428,14.6a.28.28,0,0,0,.408,0,7.8,7.8,0,0,1,2.515-1.334c.282-.087.177-.212.126-.407A33.283,33.283,0,0,1,49.91,5.723,15.246,15.246,0,0,1,50.638.678a.9.9,0,0,1,.917-.672C54.771,0,57.987,0,61.2.009a.924.924,0,0,1,.917,1.217c-.068.289-.133.581-.227.862a3.07,3.07,0,0,0,.425,2.73c.687,1.09,1.5,2.085,2.289,3.1.6.767,1.162,1.557,1.741,2.338a3.117,3.117,0,0,1,.631,1.835c.039,2.117.064,4.234.1,6.352a3.238,3.238,0,0,1-.416,1.665c-.723,1.3-1.443,2.6-2.184,3.888a2.091,2.091,0,0,1-2.234,1.218c-.208-.031-.273.056-.348.209a9.8,9.8,0,0,1-1.976,2.61q-3.8,3.782-7.59,7.584a4.932,4.932,0,0,1-7.409,0c-.244-.244-.49-.486-.732-.732a.994.994,0,0,1-.166-1.46.981.981,0,0,1,1.494.129c.3.3.6.6.9.9a3.025,3.025,0,0,0,4.413,0Q54.9,30.4,58.953,26.336a6.738,6.738,0,0,0,1.492-2.26c.055-.138.164-.272.082-.442a2.956,2.956,0,0,1,.054-2.506,2.444,2.444,0,0,0-.08-2.036c-.128-.285-.265-.567-.388-.854-.149-.345-.26-.456-.572-.085a2.308,2.308,0,0,1-3.6.041c-.884-1.058-1.85-2.048-2.751-3.093a.619.619,0,0,0-.727-.215,6.909,6.909,0,0,0-2.978,1.628c-.652.609-1.05.61-1.7,0a6.881,6.881,0,0,0-2.887-1.6.681.681,0,0,0-.811.235c-.9,1.046-1.837,2.059-2.754,3.091a2.159,2.159,0,0,1-1.729.8,2.711,2.711,0,0,1-2.173-1.291c-.584,1.105-1.264,2.1-.682,3.414a2.685,2.685,0,0,1,.123,2.239,1,1,0,0,0,.025.888,9.761,9.761,0,0,0,2.336,2.975.977.977,0,0,1,.162,1.524m1.826-26.9c-1.176,0-2.353.01-3.529-.007-.325,0-.381.06-.3.389a3.607,3.607,0,0,1-.012,1.586,8.565,8.565,0,0,1-1.7,3.313c-1.012,1.356-2.112,2.646-3.081,4.035a2,2,0,0,0-.389,1.176c-.013,1.427.029,2.86-.089,4.28a5.762,5.762,0,0,0,1.056,4.113,5.631,5.631,0,0,1,.345.613c.323.572.651,1.142.97,1.716.153.275.264.274.454.01A1.151,1.151,0,0,0,35.044,22q-.607-1.9-1.211-3.8a2.808,2.808,0,0,1-.108-1.343c.156-.926.279-1.858.433-2.786a3.071,3.071,0,0,1,.973-2.216c1.042-.778,2.116-1.512,3.209-2.216a2.479,2.479,0,0,1,.646-.271,1.675,1.675,0,0,1,2.033.765c.919,1.706.878,2.484-.108,3.818-.568.769-1.129,1.543-1.7,2.308-.2.267-.233.508.044.736s.512.172.756-.107c.92-1.049,1.83-2.11,2.8-3.109A5.408,5.408,0,0,0,44.5,10.615a4.96,4.96,0,0,1,.234-.859A13.31,13.31,0,0,0,45.163,2.3c-.092-.353-.23-.429-.56-.424-1.129.018-2.259.007-3.388.007m18.807,0c-2.547,0-5.056,0-7.564,0-.181,0-.227.081-.268.243A12.2,12.2,0,0,0,51.879,6.7c.206,1.638.791,3.187,1.142,4.791a3.07,3.07,0,0,0,.735,1.443q1.767,1.955,3.514,3.928c.229.259.439.4.751.157.33-.255.256-.518.038-.81-.573-.765-1.115-1.555-1.706-2.306a2.862,2.862,0,0,1-.362-3.2c.648-1.43,1.729-1.833,3.067-.995,1.047.657,2.046,1.393,3.056,2.107a1.992,1.992,0,0,1,.841,1.312c.186,1.048.345,2.1.552,3.146a4.907,4.907,0,0,1-.256,2.672c-.368,1.031-.668,2.085-1,3.128a1.055,1.055,0,0,0,.065.946c.262.414.325.422.573-.016.7-1.239,1.395-2.484,2.094-3.725a1.716,1.716,0,0,0,.218-.9q-.056-3.105-.1-6.211a1.49,1.49,0,0,0-.323-.863c-.639-.892-1.282-1.781-1.976-2.632A26.624,26.624,0,0,1,60.779,5.9a4.744,4.744,0,0,1-.757-4.013m1.713,15.2c-.2-1.183-.395-2.367-.6-3.549a.461.461,0,0,0-.184-.26q-1.424-1-2.86-1.976c-.077-.053-.208-.182-.273-.024-.132.323-.44.652-.236,1.009a7.18,7.18,0,0,0,1.535,2.061,13.79,13.79,0,0,1,2.62,2.74m-26.141-.142c.207-.02.233-.185.307-.292a6.667,6.667,0,0,1,1.6-1.763,9.009,9.009,0,0,0,1.974-2.165,1.055,1.055,0,0,0,.143-1.206c-.154-.335-.264-.333-.524-.15-.843.593-1.691,1.181-2.548,1.753a.978.978,0,0,0-.444.724c-.16,1.027-.336,2.052-.51,3.1" transform="translate(-24.529 -0.001)" fill="#020202"/>
        <path id="Trazado_658868" data-name="Trazado 658868" d="M66.44,92.665a.977.977,0,0,0-.162-1.524,9.761,9.761,0,0,1-2.336-2.975,1,1,0,0,1-.025-.888,2.684,2.684,0,0,0-.123-2.239c-.582-1.314.1-2.309.682-3.415a2.711,2.711,0,0,0,2.173,1.291,2.159,2.159,0,0,0,1.729-.8c.917-1.031,1.854-2.045,2.754-3.091a.681.681,0,0,1,.811-.235,6.881,6.881,0,0,1,2.887,1.6c.65.608,1.049.607,1.7,0a6.909,6.909,0,0,1,2.978-1.628.62.62,0,0,1,.727.214c.9,1.045,1.867,2.035,2.751,3.093a2.308,2.308,0,0,0,3.6-.041c.312-.372.424-.261.572.084.124.287.26.569.389.854A2.443,2.443,0,0,1,87.631,85a2.957,2.957,0,0,0-.054,2.506c.082.17-.026.3-.082.442A6.738,6.738,0,0,1,86,90.212q-4.056,4.061-8.119,8.116a3.025,3.025,0,0,1-4.413,0c-.3-.3-.6-.6-.9-.9a.981.981,0,0,0-1.494-.129,21.5,21.5,0,0,0-1.634-1.639c.36-.567.358-1-.005-1.36s-.79-.367-1.357,0a21.046,21.046,0,0,0-1.641-1.638m9.194-6.83c-.455,0-.91-.012-1.364,0a4.526,4.526,0,0,0-.9,8.966,4.163,4.163,0,0,0,2.792-.336.935.935,0,0,0-.74-1.717c-.134.045-.264.1-.4.141A2.64,2.64,0,0,1,72.9,88.1c.287-.169.438-.2.421.224-.025.642-.011,1.285,0,1.928A.924.924,0,0,0,74.353,91.3c.768.009,1.536.012,2.3,0a.49.49,0,0,1,.537.332c.337.757.7,1.5,1.062,2.25a.95.95,0,1,0,1.7-.8c-.329-.71-.66-1.419-1-2.122-.764-1.559-.493-1.559-2.454-1.547-.418,0-.973.184-1.22-.077-.265-.28-.045-.837-.088-1.269-.031-.312.114-.364.383-.356.517.017,1.035.011,1.552,0,.664-.01,1.069-.365,1.071-.927a.966.966,0,0,0-1.063-.952c-.5-.015-1,0-1.5,0m-2.786-2.191a1.383,1.383,0,0,0,1.388,1.41,1.408,1.408,0,0,0,1.432-1.423,1.437,1.437,0,0,0-1.422-1.394,1.409,1.409,0,0,0-1.4,1.407" transform="translate(-51.58 -63.877)" fill="#cc78a5"/>
        <path id="Trazado_658869" data-name="Trazado 658869" d="M170.927,146.944q-2.329,0-4.659,0a.989.989,0,0,1-1.125-.834,14.954,14.954,0,0,1,.132-9.333,12.458,12.458,0,0,0,.408-1.541,5.464,5.464,0,0,1,1.477-2.776c1.14-1.231,2.243-2.5,3.37-3.74a2.246,2.246,0,0,1,3.195-.285,2.3,2.3,0,0,1,.512,3.256c-.61.873-1.259,1.719-1.884,2.582a1.037,1.037,0,0,0-.032,1.337c.106.168.2.113.3.041q1.452-1,2.9-2a.561.561,0,0,0,.2-.411c.177-1.082.361-2.163.54-3.244a2.024,2.024,0,0,0-.109-.97c-.386-1.19-.759-2.384-1.15-3.572a2.969,2.969,0,0,1,.606-2.984,1.92,1.92,0,0,1,2.931-.161,3.422,3.422,0,0,1,.583.791c.658,1.174,1.308,2.352,1.979,3.518a3.941,3.941,0,0,1,.542,2.106c-.047,2.023-.068,4.046-.1,6.069a3.56,3.56,0,0,1-.7,2c-1.012,1.455-2.167,2.8-3.215,4.229-.185.252-.347.522-.534.773a3.344,3.344,0,0,0-.547,3.4,2.876,2.876,0,0,1,.088.316c.243.92-.142,1.429-1.088,1.43q-2.306,0-4.612,0m3.609-1.883a5.891,5.891,0,0,1-.1-1.8,7.721,7.721,0,0,1,1.518-3.142c1.069-1.51,2.309-2.89,3.347-4.423a1.772,1.772,0,0,0,.36-.995c.02-1.49-.009-2.984.1-4.467a5.758,5.758,0,0,0-1.022-3.986,14.452,14.452,0,0,1-.809-1.429c-.169-.3-.336-.6-.513-.9-.241-.4-.293-.395-.549.007a1.062,1.062,0,0,0-.069.948c.4,1.267.8,2.536,1.209,3.8a3.244,3.244,0,0,1,.116,1.532c-.17,1.083-.366,2.162-.525,3.246a2.632,2.632,0,0,1-1.182,1.887c-.882.6-1.754,1.209-2.631,1.814a2.985,2.985,0,0,1-.931.436,1.734,1.734,0,0,1-1.955-.67,2.987,2.987,0,0,1,.005-3.859c.579-.8,1.166-1.593,1.754-2.387a.468.468,0,0,0-.075-.735c-.276-.217-.493-.158-.723.1q-1.7,1.921-3.423,3.818a3.635,3.635,0,0,0-.905,1.719c-.153.7-.337,1.4-.544,2.088a13.026,13.026,0,0,0-.315,6.912c.084.349.188.507.6.5,1.427-.035,2.854-.014,4.282-.014h2.983" transform="translate(-133.439 -98.745)" fill="#030202"/>
        <path id="Trazado_658870" data-name="Trazado 658870" d="M10.688,146.852q-2.306,0-4.612,0c-.917,0-1.305-.512-1.074-1.4a3.708,3.708,0,0,1,.111-.407,3.385,3.385,0,0,0-.515-3.283c-1.11-1.656-2.434-3.148-3.6-4.764a4.615,4.615,0,0,1-.919-2.837C.09,132.229.033,130.3,0,128.371a2.848,2.848,0,0,1,.334-1.449c.78-1.41,1.543-2.831,2.374-4.211a1.929,1.929,0,0,1,3.071-.59,2.792,2.792,0,0,1,.933,2.889c-.32,1.144-.667,2.282-1.07,3.4a4.052,4.052,0,0,0-.138,2.3c.17.8.283,1.6.406,2.409a.742.742,0,0,0,.328.54c.891.611,1.786,1.217,2.667,1.843.286.2.367.094.493-.173a1.014,1.014,0,0,0-.119-1.169c-.64-.832-1.253-1.685-1.866-2.537a2.149,2.149,0,0,1-.158-2.511,2.422,2.422,0,0,1,2.382-1.291,2.022,2.022,0,0,1,1.384.714q1.906,2.114,3.8,4.237a4.39,4.39,0,0,1,1.039,2.023c.373,1.711.985,3.364,1.213,5.111a14.778,14.778,0,0,1-.628,6.264.944.944,0,0,1-1.007.683c-1.584-.005-3.169,0-4.753,0m-3.622-1.883c2.562,0,5.04,0,7.517,0,.186,0,.263-.049.31-.246a12.165,12.165,0,0,0,.293-4.708c-.263-1.739-.854-3.4-1.248-5.1a2.041,2.041,0,0,0-.52-.882c-1.2-1.344-2.409-2.685-3.6-4.036-.227-.257-.435-.4-.751-.161s-.261.514-.04.807c.565.751,1.093,1.532,1.678,2.267a2.9,2.9,0,0,1,.374,3.285,1.9,1.9,0,0,1-3.006.986c-1.083-.659-2.118-1.4-3.132-2.162a2.012,2.012,0,0,1-.809-1.28c-.192-1.079-.353-2.164-.565-3.238a4.711,4.711,0,0,1,.251-2.533c.367-1.047.678-2.114,1.015-3.172a1.074,1.074,0,0,0-.057-.949c-.26-.421-.327-.43-.574.006-.687,1.212-1.36,2.432-2.049,3.642a2.014,2.014,0,0,0-.273,1.074c.039,1.866.087,3.732.086,5.6a2.777,2.777,0,0,0,.545,1.695c1.105,1.562,2.392,2.985,3.462,4.572a5.192,5.192,0,0,1,1.094,4.536" transform="translate(0 -98.653)" fill="#030202"/>
        <path id="Trazado_658871" data-name="Trazado 658871" d="M86.5,160.133c.568-.366.991-.365,1.357,0s.365.794.005,1.36c-.562.315-.994.3-1.332-.032a1.009,1.009,0,0,1-.031-1.33" transform="translate(-69.994 -129.707)" fill="#050405"/>
        <path id="Trazado_658872" data-name="Trazado 658872" d="M49.168,9.961c1.129,0,2.259.012,3.388-.007.33-.005.468.071.56.424a13.31,13.31,0,0,1-.428,7.453,4.961,4.961,0,0,0-.234.859,5.407,5.407,0,0,1-1.687,3.163c-.973,1-1.883,2.06-2.8,3.109-.244.278-.467.346-.756.107s-.244-.469-.044-.736c.572-.766,1.133-1.54,1.7-2.309.986-1.334,1.026-2.112.108-3.818a1.675,1.675,0,0,0-2.033-.765,2.485,2.485,0,0,0-.646.271c-1.093.7-2.166,1.438-3.209,2.216a3.07,3.07,0,0,0-.973,2.216c-.153.927-.277,1.859-.432,2.786a2.807,2.807,0,0,0,.108,1.343q.605,1.9,1.211,3.8a1.151,1.151,0,0,1-.111,1.115c-.19.263-.3.265-.454-.011-.319-.574-.647-1.144-.97-1.716a5.617,5.617,0,0,0-.345-.613,5.762,5.762,0,0,1-1.056-4.113c.118-1.419.077-2.852.089-4.28a2,2,0,0,1,.389-1.176c.97-1.39,2.069-2.679,3.081-4.036a8.567,8.567,0,0,0,1.7-3.313,3.609,3.609,0,0,0,.012-1.586c-.078-.329-.022-.394.3-.389,1.176.017,2.353.007,3.529.007" transform="translate(-32.481 -8.076)" fill="#f6dbd4"/>
        <path id="Trazado_658873" data-name="Trazado 658873" d="M152.754,9.983A4.743,4.743,0,0,0,153.511,14a26.594,26.594,0,0,0,2.026,2.768c.694.851,1.337,1.74,1.976,2.632a1.491,1.491,0,0,1,.323.864q.042,3.106.1,6.211a1.714,1.714,0,0,1-.218.9c-.7,1.241-1.391,2.486-2.094,3.725-.249.439-.311.43-.573.016a1.055,1.055,0,0,1-.065-.946c.333-1.043.634-2.1,1-3.128a4.909,4.909,0,0,0,.256-2.672c-.207-1.044-.366-2.1-.552-3.146a1.993,1.993,0,0,0-.841-1.312c-1.011-.714-2.009-1.45-3.057-2.107-1.338-.839-2.419-.435-3.066.995a2.861,2.861,0,0,0,.362,3.2c.591.751,1.132,1.541,1.706,2.306.218.291.292.554-.038.81-.313.243-.523.1-.751-.157q-1.744-1.976-3.514-3.928a3.068,3.068,0,0,1-.735-1.443c-.352-1.6-.937-3.153-1.143-4.791a12.2,12.2,0,0,1,.311-4.571c.042-.162.087-.243.268-.243,2.508,0,5.017,0,7.564,0" transform="translate(-117.261 -8.098)" fill="#f6dbd4"/>
        <path id="Trazado_658874" data-name="Trazado 658874" d="M102.13,116.392c.5,0,1-.013,1.5,0a.966.966,0,0,1,1.063.952c0,.562-.407.917-1.071.927-.517.007-1.035.014-1.552,0-.27-.009-.415.043-.383.355.043.433-.177.989.088,1.269.247.26.8.079,1.22.077,1.961-.013,1.691-.013,2.454,1.546.344.7.675,1.412,1,2.122a.95.95,0,1,1-1.7.8c-.362-.746-.725-1.492-1.062-2.25a.491.491,0,0,0-.537-.332c-.768.016-1.536.012-2.3,0a.924.924,0,0,1-1.036-1.049c-.006-.643-.02-1.286,0-1.928.017-.427-.134-.393-.421-.224a2.64,2.64,0,0,0,2.124,4.794c.134-.043.264-.1.4-.141a.935.935,0,0,1,.74,1.717,4.164,4.164,0,0,1-2.792.336,4.526,4.526,0,0,1,.9-8.966c.454-.014.909,0,1.364,0" transform="translate(-78.076 -94.435)" fill="#030202"/>
        <path id="Trazado_658875" data-name="Trazado 658875" d="M112.754,98.746a1.409,1.409,0,0,1,1.4-1.407,1.437,1.437,0,0,1,1.422,1.394,1.408,1.408,0,0,1-1.432,1.423,1.383,1.383,0,0,1-1.388-1.41" transform="translate(-91.487 -78.979)" fill="#030203"/>
        <path id="Trazado_658876" data-name="Trazado 658876" d="M182.639,153.323h-2.983c-1.427,0-2.855-.022-4.282.014-.413.01-.517-.147-.6-.5a13.026,13.026,0,0,1,.315-6.912c.207-.688.391-1.386.544-2.088a3.635,3.635,0,0,1,.905-1.719q1.73-1.892,3.423-3.818c.231-.261.448-.32.723-.1a.468.468,0,0,1,.075.735c-.588.793-1.175,1.587-1.754,2.387a2.987,2.987,0,0,0-.005,3.86,1.734,1.734,0,0,0,1.955.67,2.986,2.986,0,0,0,.931-.436c.877-.605,1.749-1.217,2.631-1.814a2.632,2.632,0,0,0,1.182-1.887c.16-1.084.355-2.163.525-3.246a3.244,3.244,0,0,0-.116-1.532c-.412-1.264-.807-2.533-1.209-3.8a1.062,1.062,0,0,1,.069-.948c.256-.4.307-.408.549-.007.177.295.344.6.513.9a14.452,14.452,0,0,0,.809,1.429,5.758,5.758,0,0,1,1.022,3.986c-.11,1.484-.08,2.978-.1,4.467a1.772,1.772,0,0,1-.36.995c-1.039,1.533-2.279,2.913-3.347,4.423a7.721,7.721,0,0,0-1.518,3.142,5.891,5.891,0,0,0,.1,1.8" transform="translate(-141.542 -107.008)" fill="#f5d0c7"/>
        <path id="Trazado_658877" data-name="Trazado 658877" d="M15.146,153.32a5.192,5.192,0,0,0-1.094-4.536c-1.07-1.587-2.357-3.01-3.462-4.572a2.777,2.777,0,0,1-.545-1.695c0-1.866-.047-3.732-.086-5.6a2.014,2.014,0,0,1,.273-1.074c.69-1.21,1.363-2.43,2.049-3.642.247-.436.313-.427.574-.006a1.074,1.074,0,0,1,.057.949c-.337,1.058-.648,2.125-1.015,3.172a4.711,4.711,0,0,0-.251,2.533c.212,1.075.373,2.16.565,3.238a2.012,2.012,0,0,0,.809,1.28c1.014.764,2.048,1.5,3.132,2.162a1.9,1.9,0,0,0,3.006-.986,2.9,2.9,0,0,0-.374-3.285c-.585-.735-1.113-1.516-1.678-2.267-.22-.293-.29-.553.04-.807s.525-.1.751.161c1.194,1.351,2.4,2.692,3.6,4.036a2.041,2.041,0,0,1,.52.882c.394,1.707.985,3.365,1.248,5.1a12.165,12.165,0,0,1-.293,4.708c-.047.2-.124.247-.31.246-2.477,0-4.955,0-7.517,0" transform="translate(-8.08 -107.005)" fill="#f5d0c7"/>
      </g>
    </g>
  </g>
</svg>
