<svg xmlns="http://www.w3.org/2000/svg" width="75.203" height="75.203" viewBox="0 0 75.203 75.203">
  <g id="_1" data-name="1" transform="translate(-220 -1155)">
    <g id="Grupo_995637" data-name="Grupo 995637" transform="translate(39 652)">
      <path id="Trazado_819242" data-name="Trazado 819242" d="M37.6,0A37.6,37.6,0,1,1,0,37.6,37.6,37.6,0,0,1,37.6,0Z" transform="translate(181 503)" fill="#ffd357"/>
    </g>
    <g id="objetivo" transform="translate(176.036 1160.516)">
      <g id="Grupo_1096477" data-name="Grupo 1096477" transform="translate(61.942 4.991)">
        <path id="Trazado_819253" data-name="Trazado 819253" d="M119.049,39.825a19.624,19.624,0,1,0,19.624,19.624,19.624,19.624,0,0,0-19.624-19.624Zm0,35.2a15.572,15.572,0,1,1,15.572-15.572A15.59,15.59,0,0,1,119.049,75.021Z" transform="translate(-99.425 -39.825)" fill="#e278b1"/>
      </g>
      <g id="Grupo_1096478" data-name="Grupo 1096478" transform="translate(61.942 19.551)">
        <path id="Trazado_819254" data-name="Trazado 819254" d="M103.476,161.057a15.5,15.5,0,0,1,.846-5.064h-4.236a19.727,19.727,0,0,0,0,10.128h4.236A15.5,15.5,0,0,1,103.476,161.057Z" transform="translate(-99.425 -155.993)" fill="#dd5ca2"/>
      </g>
      <g id="Grupo_1096479" data-name="Grupo 1096479" transform="translate(76.501 4.991)">
        <path id="Trazado_819255" data-name="Trazado 819255" d="M215.593,40.486v4.236a15.578,15.578,0,0,1,10.128,0V40.486a19.726,19.726,0,0,0-10.128,0Z" transform="translate(-215.593 -39.825)" fill="#dd5ca2"/>
      </g>
      <g id="Grupo_1096480" data-name="Grupo 1096480" transform="translate(96.292 19.551)">
        <path id="Trazado_819256" data-name="Trazado 819256" d="M374.345,161.057a15.5,15.5,0,0,1-.846,5.064h4.236a19.726,19.726,0,0,0,0-10.128H373.5A15.5,15.5,0,0,1,374.345,161.057Z" transform="translate(-373.499 -155.993)" fill="#dd5ca2"/>
      </g>
      <g id="Grupo_1096481" data-name="Grupo 1096481" transform="translate(70.045 13.094)">
        <path id="Trazado_819257" data-name="Trazado 819257" d="M175.6,104.476A11.521,11.521,0,1,0,187.117,116,11.534,11.534,0,0,0,175.6,104.476Zm0,18.991a7.47,7.47,0,1,1,7.47-7.47A7.479,7.479,0,0,1,175.6,123.467Z" transform="translate(-164.075 -104.476)" fill="#ffe07d"/>
      </g>
      <g id="Grupo_1096482" data-name="Grupo 1096482" transform="translate(78.147 21.197)">
        <circle id="Elipse_9680" data-name="Elipse 9680" cx="3.418" cy="3.418" r="3.418" fill="#e278b1"/>
      </g>
      <g id="Grupo_1096483" data-name="Grupo 1096483" transform="translate(79.54 0.94)">
        <path id="Trazado_819258" data-name="Trazado 819258" d="M242.622,19.654H241.1a1.266,1.266,0,0,1-1.266-1.266V8.766A1.266,1.266,0,0,1,241.1,7.5h1.519a1.266,1.266,0,0,1,1.266,1.266v9.622A1.266,1.266,0,0,1,242.622,19.654Z" transform="translate(-239.837 -7.5)" fill="#c3247d"/>
      </g>
      <g id="Grupo_1096484" data-name="Grupo 1096484" transform="translate(57.891 22.589)">
        <path id="Trazado_819259" data-name="Trazado 819259" d="M79.254,181.5v1.519a1.266,1.266,0,0,1-1.266,1.266H68.366a1.266,1.266,0,0,1-1.266-1.266V181.5a1.266,1.266,0,0,1,1.266-1.266h9.622A1.266,1.266,0,0,1,79.254,181.5Z" transform="translate(-67.1 -180.237)" fill="#c3247d"/>
      </g>
      <g id="Grupo_1096485" data-name="Grupo 1096485" transform="translate(93.087 22.589)">
        <path id="Trazado_819260" data-name="Trazado 819260" d="M347.926,183.022V181.5a1.266,1.266,0,0,1,1.266-1.266h9.622a1.266,1.266,0,0,1,1.266,1.266v1.519a1.266,1.266,0,0,1-1.266,1.266h-9.622A1.266,1.266,0,0,1,347.926,183.022Z" transform="translate(-347.926 -180.237)" fill="#c3247d"/>
      </g>
      <g id="Grupo_1096491" data-name="Grupo 1096491" transform="translate(86.883 39.681)">
        <g id="Grupo_1096486" data-name="Grupo 1096486" transform="translate(14.686 18.737)">
          <path id="Trazado_819261" data-name="Trazado 819261" d="M415.606,466.114h4.051v4.811h-4.051Z" transform="translate(-415.606 -466.114)" fill="#f1d0a5"/>
        </g>
        <g id="Grupo_1096487" data-name="Grupo 1096487" transform="translate(4.684)">
          <circle id="Elipse_9681" data-name="Elipse 9681" cx="4.684" cy="4.684" r="4.684" fill="#f1d0a5"/>
        </g>
        <g id="Grupo_1096488" data-name="Grupo 1096488" transform="translate(5.224 0.54)">
          <path id="Trazado_819262" data-name="Trazado 819262" d="M346.435,320.915a4.684,4.684,0,0,1-6.327,6.327,4.684,4.684,0,1,0,6.327-6.327Z" transform="translate(-340.108 -320.915)" fill="#f1b986"/>
        </g>
        <g id="Grupo_1096489" data-name="Grupo 1096489" transform="translate(0 9.369)">
          <path id="Trazado_819263" data-name="Trazado 819263" d="M312.1,391.362H303.49a5.064,5.064,0,0,0-5.064,5.064v4.3h4.051v4.811h10.635v-4.811h4.051v-4.3A5.064,5.064,0,0,0,312.1,391.362Z" transform="translate(-298.426 -391.362)" fill="#a2f4c1"/>
        </g>
        <g id="Grupo_1096490" data-name="Grupo 1096490" transform="translate(0 9.369)">
          <path id="Trazado_819264" data-name="Trazado 819264" d="M305.264,405.542V393.894a7.809,7.809,0,0,0-.422-2.532h-1.351a5.064,5.064,0,0,0-5.064,5.064v4.3h4.051v4.811Z" transform="translate(-298.427 -391.362)" fill="#78d0b1"/>
        </g>
      </g>
      <g id="Grupo_1096497" data-name="Grupo 1096497" transform="translate(57.511 39.681)">
        <g id="Grupo_1096492" data-name="Grupo 1096492" transform="translate(0 18.737)">
          <path id="Trazado_819265" data-name="Trazado 819265" d="M0,0H4.051V4.811H0Z" transform="translate(4.051 4.811) rotate(180)" fill="#f1d0a5"/>
        </g>
        <g id="Grupo_1096493" data-name="Grupo 1096493" transform="translate(4.684)">
          <circle id="Elipse_9682" data-name="Elipse 9682" cx="4.684" cy="4.684" r="4.684" fill="#f1d0a5"/>
        </g>
        <g id="Grupo_1096494" data-name="Grupo 1096494" transform="translate(5.224 0.54)">
          <path id="Trazado_819266" data-name="Trazado 819266" d="M105.75,327.242a4.684,4.684,0,0,0,6.327-6.327,4.684,4.684,0,1,1-6.327,6.327Z" transform="translate(-105.75 -320.915)" fill="#f1b986"/>
        </g>
        <g id="Grupo_1096495" data-name="Grupo 1096495" transform="translate(0 9.369)">
          <path id="Trazado_819267" data-name="Trazado 819267" d="M69.133,391.362h8.609a5.064,5.064,0,0,1,5.064,5.064v4.3H78.755v4.811H68.12v-4.811H64.069v-4.3A5.064,5.064,0,0,1,69.133,391.362Z" transform="translate(-64.069 -391.362)" fill="#ffe07d"/>
        </g>
        <g id="Grupo_1096496" data-name="Grupo 1096496" transform="translate(11.901 9.369)">
          <path id="Trazado_819268" data-name="Trazado 819268" d="M159.024,405.542V393.894a7.81,7.81,0,0,1,.421-2.532H160.8a5.064,5.064,0,0,1,5.064,5.064v4.3h-4.051v4.811Z" transform="translate(-159.024 -391.362)" fill="#ffd064"/>
        </g>
      </g>
      <g id="Grupo_1096504" data-name="Grupo 1096504" transform="translate(72.197 37.149)">
        <g id="Grupo_1096498" data-name="Grupo 1096498" transform="translate(14.686 18.737)">
          <path id="Trazado_819269" data-name="Trazado 819269" d="M298.427,445.911h4.051v7.343h-4.051Z" transform="translate(-298.427 -445.911)" fill="#f1d0a5"/>
        </g>
        <g id="Grupo_1096499" data-name="Grupo 1096499" transform="translate(0 18.737)">
          <path id="Trazado_819270" data-name="Trazado 819270" d="M0,0H4.051V7.343H0Z" transform="translate(4.051 7.343) rotate(180)" fill="#f1d0a5"/>
        </g>
        <g id="Grupo_1096500" data-name="Grupo 1096500" transform="translate(4.684)">
          <circle id="Elipse_9683" data-name="Elipse 9683" cx="4.684" cy="4.684" r="4.684" fill="#f1d0a5"/>
        </g>
        <g id="Grupo_1096501" data-name="Grupo 1096501" transform="translate(5.224 0.54)">
          <path id="Trazado_819271" data-name="Trazado 819271" d="M229.256,300.712a4.684,4.684,0,0,1-6.327,6.327,4.684,4.684,0,1,0,6.327-6.327Z" transform="translate(-222.929 -300.712)" fill="#f1b986"/>
        </g>
        <g id="Grupo_1096502" data-name="Grupo 1096502" transform="translate(0 9.369)">
          <path id="Trazado_819272" data-name="Trazado 819272" d="M194.922,371.159h-8.609a5.064,5.064,0,0,0-5.064,5.064v4.3H185.3v7.343h10.635v-7.343h4.051v-4.3A5.064,5.064,0,0,0,194.922,371.159Z" transform="translate(-181.249 -371.159)" fill="#80b4fb"/>
        </g>
        <g id="Grupo_1096503" data-name="Grupo 1096503" transform="translate(4.051 9.654)">
          <path id="Trazado_819273" data-name="Trazado 819273" d="M224.872,373.437a21.131,21.131,0,0,1-11.3,11.494v4.932h10.635V382.52h4.051v-4.3A5.065,5.065,0,0,0,224.872,373.437Z" transform="translate(-213.573 -373.437)" fill="#61a2f9"/>
        </g>
      </g>
      <g id="Grupo_1096505" data-name="Grupo 1096505" transform="translate(56.571 0)">
        <path id="Trazado_819274" data-name="Trazado 819274" d="M197.31,146.119a8.41,8.41,0,1,0-8.41-8.41A8.419,8.419,0,0,0,197.31,146.119Zm0-14.939a6.53,6.53,0,1,1-6.53,6.53A6.537,6.537,0,0,1,197.31,131.18Z" transform="translate(-172.315 -113.095)"/>
        <path id="Trazado_819275" data-name="Trazado 819275" d="M225.584,170.344a4.358,4.358,0,1,0-4.358-4.358,4.363,4.363,0,0,0,4.358,4.358Zm0-6.837a2.478,2.478,0,1,1-2.478,2.478,2.481,2.481,0,0,1,2.478-2.478Z" transform="translate(-200.59 -141.37)"/>
        <path id="Trazado_819276" data-name="Trazado 819276" d="M106.56,54.114a6.011,6.011,0,0,0-6-6h-.112A5.62,5.62,0,0,0,96.5,38.747c.13-.137.259-.276.386-.418a20.384,20.384,0,0,0,5.029-10.749h2.058a2.209,2.209,0,0,0,2.206-2.206V23.855a2.209,2.209,0,0,0-2.206-2.206h-2.059A20.572,20.572,0,0,0,84.531,4.266V2.206A2.208,2.208,0,0,0,82.325,0H80.806A2.209,2.209,0,0,0,78.6,2.206v2.06A20.572,20.572,0,0,0,61.215,21.649H59.157a2.209,2.209,0,0,0-2.206,2.206v1.519a2.209,2.209,0,0,0,2.206,2.206h2.058A20.383,20.383,0,0,0,66.244,38.33c.127.141.256.28.386.418a5.62,5.62,0,0,0-3.942,9.362h-.112a6.011,6.011,0,0,0-6,6V63.23a.94.94,0,0,0,.94.94H63.9a.94.94,0,0,0,0-1.88H62.5v-6.4a.94.94,0,0,0-1.88,0v1.592H58.451V54.114a4.129,4.129,0,0,1,4.125-4.125h8.609c.1,0,.191,0,.285.011a5.987,5.987,0,0,0-.213,1.581V62.289h-2.97a.94.94,0,1,0,0,1.88H94.461a.94.94,0,1,0,0-1.88H91.874V51.582A5.992,5.992,0,0,0,91.661,50c.095-.006.19-.011.285-.011h8.609a4.129,4.129,0,0,1,4.125,4.125v3.364h-2.171V55.886a.94.94,0,1,0-1.88,0v6.4H98.847a.94.94,0,0,0,0,1.88h6.773a.94.94,0,0,0,.94-.94ZM60.622,59.358v2.931H58.451V59.358ZM100,44.365a3.748,3.748,0,0,1-3.735,3.744h-.019A3.744,3.744,0,1,1,100,44.365ZM87.155,42.449a5.585,5.585,0,0,0-.2-2.227A16.549,16.549,0,0,0,97.808,27.581h2.207A18.624,18.624,0,0,1,87.155,42.449Zm-5.59-28.415A10.581,10.581,0,1,1,70.985,24.617v0A10.593,10.593,0,0,1,81.566,14.034Zm2.966-2.206v-1.54A14.63,14.63,0,0,1,95.893,21.649H94.353a2.2,2.2,0,0,0-.659.1,12.5,12.5,0,0,0-9.263-9.263A2.194,2.194,0,0,0,84.531,11.828ZM84.1,36.816a12.5,12.5,0,0,0,9.591-9.336,2.2,2.2,0,0,0,.659.1H95.9a14.588,14.588,0,0,1-9.787,10.943A5.663,5.663,0,0,0,84.1,36.816Zm-5.074,0a5.661,5.661,0,0,0-2.006,1.707,14.589,14.589,0,0,1-9.787-10.943h1.543a2.2,2.2,0,0,0,.659-.1A12.5,12.5,0,0,0,79.029,36.816Zm-1.207,5.017a3.744,3.744,0,1,1,3.744,3.744A3.749,3.749,0,0,1,77.821,41.833ZM104.3,23.855v1.519a.326.326,0,0,1-.326.326H94.353a.326.326,0,0,1-.326-.326V23.855a.326.326,0,0,1,.326-.326h9.622A.326.326,0,0,1,104.3,23.855Zm-4.287-2.206h-2.2A16.513,16.513,0,0,0,84.531,8.372v-2.2a18.742,18.742,0,0,1,15.482,15.481ZM80.806,1.88h1.519a.327.327,0,0,1,.326.326V9.149s0,0,0,.007v2.673a.327.327,0,0,1-.326.326H80.806a.326.326,0,0,1-.326-.326V2.206a.326.326,0,0,1,.326-.326ZM78.6,6.168V8.373a16.462,16.462,0,0,0-7.21,3.245A.94.94,0,1,0,72.551,13.1a14.587,14.587,0,0,1,6.049-2.81v1.54a2.2,2.2,0,0,0,.1.659,12.5,12.5,0,0,0-9.263,9.263,2.2,2.2,0,0,0-.659-.1H67.238A14.625,14.625,0,0,1,69.7,16.064a.94.94,0,1,0-1.524-1.1,16.506,16.506,0,0,0-2.853,6.687H63.117A18.742,18.742,0,0,1,78.6,6.168ZM58.831,25.375V23.855a.326.326,0,0,1,.326-.326h9.622a.326.326,0,0,1,.326.326v1.519a.326.326,0,0,1-.326.326H59.157a.326.326,0,0,1-.326-.326Zm4.286,2.206h2.207A16.548,16.548,0,0,0,76.177,40.222a5.585,5.585,0,0,0-.2,2.227A18.624,18.624,0,0,1,63.116,27.581Zm.019,16.785a3.744,3.744,0,1,1,3.754,3.744H66.87A3.748,3.748,0,0,1,63.135,44.365Zm8.049,3.744h-.113A5.612,5.612,0,0,0,72.335,43a20.456,20.456,0,0,0,4.331,1.591,5.658,5.658,0,0,0,.707.986h-.112a6,6,0,0,0-4.967,2.635,6.027,6.027,0,0,0-1.11-.1Zm4.124,14.18H73.137V56.826h2.171Zm1.88-8.935a.94.94,0,0,0-1.88,0v1.592H73.137V51.582a4.129,4.129,0,0,1,4.124-4.124H85.87a4.129,4.129,0,0,1,4.124,4.124v3.365H87.823V53.354a.94.94,0,1,0-1.88,0v8.935H77.188V53.354Zm12.806,8.935H87.823V56.826h2.171Zm.843-14.077a6,6,0,0,0-4.967-2.635h-.112a5.652,5.652,0,0,0,.707-.986A20.449,20.449,0,0,0,90.8,43a5.612,5.612,0,0,0,1.264,5.109h-.113A6.026,6.026,0,0,0,90.837,48.213ZM102.51,62.289V59.358h2.171v2.931Z" transform="translate(-56.571 0)"/>
      </g>
    </g>
  </g>
</svg>
