<svg xmlns="http://www.w3.org/2000/svg" xmlns:xlink="http://www.w3.org/1999/xlink" width="295" height="306" viewBox="0 0 295 306">
  <defs>
    <clipPath id="clip-path">
      <rect id="Rectángulo_388596" data-name="Rectángulo 388596" width="295" height="306" transform="translate(285 4524)" fill="#5840e2" opacity="0.41"/>
    </clipPath>
    <clipPath id="clip-path-2">
      <rect id="Rectángulo_387372" data-name="Rectángulo 387372" width="262" height="306" transform="translate(285 4544)" fill="#5840e2" opacity="0.35"/>
    </clipPath>
    <clipPath id="clip-path-3">
      <rect id="Rectángulo_312844" data-name="Rectángulo 312844" width="249.89" height="306.424" fill="none"/>
    </clipPath>
  </defs>
  <g id="_11" data-name="11" transform="translate(-285 -4524)" clip-path="url(#clip-path)">
    <g id="Enmascarar_grupo_1059159" data-name="Enmascarar grupo 1059159" transform="translate(0 -20)" clip-path="url(#clip-path-2)">
      <g id="Grupo_1098498" data-name="Grupo 1098498" transform="translate(12)">
        <g id="Grupo_995938" data-name="Grupo 995938" transform="translate(285 4563.208)">
          <path id="Trazado_657613" data-name="Trazado 657613" d="M175.611,24.872l-.63.012H54.293c8.049-9.733,23.723-12.589,34.46-5.7C94.68,12.4,101.225,5.764,109.532,2.266S128.318-.96,134.966,5.134c4.128,3.78,6.275,9.206,8.293,14.426,9.748-7.355,25.46-4.782,32.352,5.311" transform="translate(-37.506 -0.001)" fill="#f7e9e1"/>
          <path id="Trazado_657614" data-name="Trazado 657614" d="M196.036,68.924h-73.37c5.153-5.562,11.232-11.421,18.773-11.311,5.551.069,10.475,3.441,14.723,7.014a35.239,35.239,0,0,1,15.381-9.86,19.857,19.857,0,0,1,9.83-.875c7.163,1.462,11.709,8.128,14.664,15.032" transform="translate(43.234 -28.716)" fill="#f7e9e1"/>
          <path id="Trazado_657615" data-name="Trazado 657615" d="M76.426,88.491H3.056C8.209,82.929,14.288,77.07,21.829,77.18c5.551.069,10.475,3.441,14.723,7.013a35.248,35.248,0,0,1,15.381-9.859,19.857,19.857,0,0,1,9.83-.875c7.163,1.462,11.709,8.128,14.664,15.032" transform="translate(-3.056 -4.351)" fill="#f7e9e1"/>
        </g>
        <g id="Grupo_995937" data-name="Grupo 995937" transform="translate(285 4543.526)">
          <g id="Grupo_995936" data-name="Grupo 995936" clip-path="url(#clip-path-3)">
            <path id="Trazado_657495" data-name="Trazado 657495" d="M257.418,308.2c-.164,1.276-6.445,4.184-9.663,4.184s-12.562,1.285-18.359-2.251c-1.846-1.131-5.479-9.344-5.8-10.629a10.676,10.676,0,0,1-.077-2.029c.029-3.082.4-8.281.4-8.281l18.688-.966,1.073,1.836,5.691,9.759s.58.406,1.44,1.053a36.608,36.608,0,0,1,5.237,4.638,4.155,4.155,0,0,1,1.372,2.686" transform="translate(-7.537 -9.719)" fill="#6598aa"/>
            <path id="Trazado_657496" data-name="Trazado 657496" d="M251.028,300.944l-2.338-.464a34.9,34.9,0,0,0-9.45-.213c-4.5.647-8.155,1.5-8.155,1.5s2.358-3.643,3.218-4.078,1.72-.86,1.72-.86l-6.01-.425,7.083-4.938,6.8-1.333,5.691,9.759s.58.406,1.44,1.053" transform="translate(-7.756 -9.783)" fill="#437a89"/>
            <path id="Trazado_657497" data-name="Trazado 657497" d="M257.418,308.527c-.164,1.276-6.445,4.184-9.663,4.184S235.193,314,229.4,310.459c-1.846-1.131-5.479-9.344-5.8-10.629a10.676,10.676,0,0,1-.077-2.029c2.744,2.87,7.634,7.856,8.841,8.31,1.72.638,7.092,1.71,14.388,1.933,4.909.145,7.875-1.266,9.3-2.2a4.155,4.155,0,0,1,1.372,2.686" transform="translate(-7.537 -10.042)" fill="#437a89"/>
            <path id="Trazado_657498" data-name="Trazado 657498" d="M142.45,78.916s2.348-7.337,1.468-10.565l-.881-3.227s2.642-7.043,2.642-8.8-2.935-1.174-4.4.88-2.935,6.75-5.283,6.163-11.152-18.782-13.793-17.9,4.4,15.847,4.4,15.847-2.642-.587-3.522,1.174a14.32,14.32,0,0,0-1.174,3.228s-3.228,1.174-2.054,4.109l1.174,2.935s-2.641-1.174-1.467,1.174,6.749,5.283,7.923,5.283a2.2,2.2,0,0,0,1.761-.88s4.7,5.575,9.684,4.7,3.522-4.109,3.522-4.109" transform="translate(-4.021 -1.532)" fill="#ff9e7b"/>
            <path id="Trazado_657499" data-name="Trazado 657499" d="M183.484,119.285s-7.092,8.7-21.258,8.05a8.977,8.977,0,0,1-2.928-.667c-7-2.735-14.1-13.567-19.268-23.626-4.667-9.1-7.759-17.578-7.759-18.863,0-2.9,11.6-8.378,12.881-8.7s13.209,19,13.209,19h1.285c1.285,0,1.933,2.579,1.933,2.579s5.43-20.891,7.411-24.8a18.486,18.486,0,0,1,8.7-8.7l.29,2.8,5.131,49.261Z" transform="translate(-4.46 -2.143)" fill="#5248da"/>
            <path id="Trazado_657500" data-name="Trazado 657500" d="M188.341,109.871l-5.17,5.837-7.392,8.329-16.417,2.714c-7-2.734-14.1-13.566-19.268-23.625-3.14-7.866-6.377-16.533-5.865-17.9.966-2.58,8.861-6.928,10.146-7.411s11.276,14.814,11.6,16.591.8,13.847.8,13.847,1.131-8.213,1.295-9.015.638-.811,1.285-1.131,1.131,16.263,1.614,16.747,1.933-15.3,1.933-16.427,6.117-21.258,6.919-23.674c.7-2.059,6.513-6.92,8.223-8.31.3-.251.473-.387.473-.387l5,1.933Z" transform="translate(-4.524 -2.228)" fill="#362bc7"/>
            <path id="Trazado_657501" data-name="Trazado 657501" d="M188.722,287.484s.966,19.647,0,20.614-42.516,2.9-44.127,1.611,9.986-9.663,9.986-9.663,10.306-5.8,12.239-6.764,5.476-8.052,5.476-8.052Z" transform="translate(-4.871 -9.618)" fill="#437a89"/>
            <path id="Trazado_657502" data-name="Trazado 657502" d="M209.426,35.229l-.966,14.494-13.206,4.831s.645-6.119-.322-7.408,14.494-11.917,14.494-11.917" transform="translate(-6.572 -1.188)" fill="#d66d58"/>
            <path id="Trazado_657503" data-name="Trazado 657503" d="M181.092,25.829s-7.75-8.053-5.012-13.689,7.247-4.51,7.247-4.51.645-4.509,8.052-6.281S202.652.061,202.652.061l-2.094.966s7.73-.161,12.723,3.543,2.094,18.52,2.094,18.52-.645,11.112-4.51,12.884-5.959.644-5.959.644Z" transform="translate(-5.918 0)" fill="#1e110f"/>
            <path id="Trazado_657504" data-name="Trazado 657504" d="M217.815,23.437c0,.966-1.614,9.015-2.58,9.982s-6.117,2.9-6.117,2.9a19.4,19.4,0,0,1-2.754,8.378,11.266,11.266,0,0,1-4.445,3.778c-3.2,1.672-7.044,2.425-9.083,2.02-3.227-.647-8.059-11.924-8.7-14.175a71.38,71.38,0,0,1-1.295-7.411s-1.585-2.087-2.232-3.053.3-10.146.3-10.146c8.571-11.354,18.727-2.725,23.77,3.024a42.229,42.229,0,0,1,3.15,4.058s3.218-2.251,4.5-2.9,5.479,2.58,5.479,3.546" transform="translate(-6.083 -0.342)" fill="#ff9e7b"/>
            <path id="Trazado_657505" data-name="Trazado 657505" d="M218.566,23.737c0,.966-1.614,9.015-2.58,9.982s-6.117,2.9-6.117,2.9a19.4,19.4,0,0,1-2.754,8.378,11.266,11.266,0,0,1-4.445,3.778c2.928-3.392,5.112-11.209,4.57-15.7-.647-5.257-1.933-13.422-1.933-13.422l.126-.618a42.229,42.229,0,0,1,3.15,4.058s3.218-2.251,4.5-2.9,5.479,2.58,5.479,3.546" transform="translate(-6.834 -0.642)" fill="#ef8873"/>
            <path id="Trazado_657506" data-name="Trazado 657506" d="M178.564,20.219l3.577-4.348s4.187,4.187,13.206,5.153,12.239-.322,12.239-.322,1.611-9.986.323-10.307-18.682-4.831-18.682-4.831l-10.306,9.018Z" transform="translate(-6.021 -0.188)" fill="#1e110f"/>
            <path id="Trazado_657507" data-name="Trazado 657507" d="M216.454,23.9s-4.026,0-5.636.966-3.865,6.119-3.222,7.086a1.3,1.3,0,0,0,.845.336,6.984,6.984,0,0,0,7.9-6.576Z" transform="translate(-6.996 -0.806)" fill="#343c5e"/>
            <path id="Trazado_657508" data-name="Trazado 657508" d="M216.353,25.938s-.557-5.154-1.845-5.476-5.8,2.577-5.8,2.577,2.254-5.476,5.8-5.476,1.845,8.375,1.845,8.375" transform="translate(-7.038 -0.592)" fill="#3a3a5e"/>
            <path id="Trazado_657509" data-name="Trazado 657509" d="M65.2,115.563s-45.737,1.1-45.737,2.206S43,210.071,43,210.071l46.81-3.033Z" transform="translate(-0.656 -3.897)" fill="#252238"/>
            <path id="Trazado_657510" data-name="Trazado 657510" d="M244.89,280.787c0,1.933-.647,7.083-16.746,7.083-12.4,0-8.7-5.479-8.7-5.479s-.251-.377-.609-1.063c-.2-.406-.445-.908-.686-1.507a6.515,6.515,0,0,1-.232-2.822,13.038,13.038,0,0,1,.232-1.691s.647-7.73.647-11.276a36.543,36.543,0,0,0-.425-3.807c-1.266-8.523-4.9-27.3-5.691-29.684-.966-2.9-8.378-46.381-8.378-46.381s-.319,9.663-.966,15.46-6.445,30.592-6.445,30.592.966,8.378.966,10.629,0,0-.966,6.445-5.8,36.4-5.8,36.4-6.435,1.933-10.629,1.933a26.938,26.938,0,0,1-7.218-1.411c-3.005-.966-5.633-2.222-5.981-3.1-.647-1.614,5.15-52.5,5.15-52.5l4.513-64.741a25.186,25.186,0,0,1-.329-3.546c0-1.614.329-21.258.329-21.258l11.47-1.121,38.129-3.711s3.546,13.209,3.865,15.46.647,17.074.647,17.074.319,3.865.966,12.881,1.6,25.771,1.6,25.771,1.295,8.049,2.261,13.2,4.184,48,4.184,48l.966-.647c.966-.638,2.251,11.6,2.251,11.6a4.581,4.581,0,0,1,1.614,3.227" transform="translate(-5.639 -4.526)" fill="#c16553"/>
            <path id="Trazado_657511" data-name="Trazado 657511" d="M203.4,200.464c-.647,5.8-6.445,30.592-6.445,30.592s.966,8.378.966,10.629,0,0-.966,6.445-5.8,36.4-5.8,36.4-6.435,1.933-10.629,1.933a26.938,26.938,0,0,1-7.218-1.411l-4.194-10.668s6.87-26.2,8.155-29.211,16.755-13.306,16.755-13.306-16.755-3.005-18.04-4.3,3.005-59.262,3.865-61.407,12.455-.86,12.455-.86l-12.03-6.01s13.75,3.005,15.9,3.865S204.371,185,204.371,185s-.319,9.663-.966,15.46" transform="translate(-5.703 -5.371)" fill="#894638"/>
            <path id="Trazado_657512" data-name="Trazado 657512" d="M245.337,280.787c0,1.933-.647,7.083-16.746,7.083-12.4,0-8.7-5.479-8.7-5.479s-.251-.377-.609-1.063a38.164,38.164,0,0,0,8.619,1.227c6.706,0,13.006-4.909,13.306-5.141a38.145,38.145,0,0,1-14.166,1.7A20.873,20.873,0,0,1,218.368,277a13.038,13.038,0,0,1,.232-1.691s.647-7.73.647-11.276a36.543,36.543,0,0,0-.425-3.807l.493-2.145-6.87-32.641s4.3,3.005,7.305,3.005,6.01-2.145,7.3-3.005,3.472-21.016,3.44-24.051c-.429-41.228-4.724-59.909-4.724-59.909a56.431,56.431,0,0,1-20.614,3.436c-9.893-.18-24.694-3.651-24.694-3.651l8.4-3.322,38.129-3.711s3.546,13.209,3.865,15.46.647,17.074.647,17.074.319,3.865.966,12.881,1.6,25.771,1.6,25.771,1.295,8.049,2.261,13.2,4.184,48,4.184,48l.966-.647c.966-.638,2.251,11.6,2.251,11.6a4.581,4.581,0,0,1,1.614,3.227" transform="translate(-6.085 -4.526)" fill="#894638"/>
            <path id="Trazado_657513" data-name="Trazado 657513" d="M249.333,119.007c-4.5,8.059-22.418.329-22.418.329.116.647,2.416,13.885.841,15.46-1.614,1.6-15.142,6.435-30.274,5.8s-22.224-2.9-22.553-4.831a1.466,1.466,0,0,1,1.063-1.778,3.015,3.015,0,0,1,.87-.155s-2.377-60.238-.319-67.968c1.285-4.831,13.528-5.8,13.528-5.8l.966-3.537s-2.251-2.9-.319-3.865a.591.591,0,0,1,.116-.048c1.884-.87,3.556.319,9.866-1.884a21.28,21.28,0,0,0,4.667-2.251c2.551-1.643,3.363-3.024,4.029-2.58.966.638,0,4.5,0,4.5a3.151,3.151,0,0,1,2.251,2.9v2.261s11.6-.966,19.326,3.865,23.181,50.981,18.359,59.581" transform="translate(-5.898 -1.545)" fill="#5248da"/>
            <path id="Trazado_657514" data-name="Trazado 657514" d="M81.12,60.933s-8.589-5.415-19.756-.416-7.3,19.578-7.3,19.578-5.583,3.332-5.583,8.33,2.147,7.081,2.147,7.081S46,97.371,45.046,101.754c-.8,3.662.429,5.415.429,5.415s-8.589,12.5.859,18.744,53.682-13.329,53.682-13.329,3.865-6.249,3.007-12.08-6.013-8.747-6.013-8.747,1.718-4.582,0-7.915a11.576,11.576,0,0,0-3.865-4.582s1.718-8.747-2.576-11.663-7.73-2.5-7.73-2.5Z" transform="translate(-1.413 -1.969)" fill="#ad5945"/>
            <path id="Trazado_657515" data-name="Trazado 657515" d="M149.971,126.448s1.415-7.782,1.415-8.843,4.245-8.136,6.014-9.2,6.368-2.122,7.075-.354-3.891,2.83-4.245,3.891-.181,3.068,1.588,3.422,6.195-3.422,7.256-5.19-3.184-2.123-2.122-3.538,7.428-3.184,7.428.354-2.476,7.075-2.476,7.075,4.952-.707,3.891,1.768l-1.062,2.477s2.477-3.184,2.477,0-1.061,3.891-1.061,3.891,2.637-1.992,1.768.354c-1.57,4.243-18.04,11.674-22.64,11.674s-5.306-7.782-5.306-7.782" transform="translate(-5.057 -3.538)" fill="#ffbdab"/>
            <path id="Trazado_657516" data-name="Trazado 657516" d="M103.252,244.452l76.443-3.865-2.289-12.208a1.778,1.778,0,0,0-1.847-1.447l-74.885,4.207Z" transform="translate(-3.395 -7.652)" fill="#252238"/>
            <path id="Trazado_657517" data-name="Trazado 657517" d="M104.131,244.719c0,30.969,15.188,56.083,33.924,56.083s33.933-25.114,33.933-56.083-15.188-56.092-33.933-56.092-33.924,25.114-33.924,56.092m4.787-.4c0-26.12,11.973-47.3,26.748-47.3S162.4,218.2,162.4,244.315s-11.972,47.307-26.739,47.307-26.748-21.179-26.748-47.307" transform="translate(-3.511 -6.361)" fill="#252238"/>
            <path id="Trazado_657518" data-name="Trazado 657518" d="M58.589,92.453s-2.416,3.463-1.449,5.637a5.32,5.32,0,0,0,3.382,2.738s-3.14,3.382-3.462,6.764a6.6,6.6,0,0,0,1.61,5.233s-2.093,4.107,3.06,5.4,18.279-.725,18.279-.725l18.037-3.786s4.107-5.152,3.865-10.306-5.958-6.6-5.958-6.6a5.1,5.1,0,0,0-2.174-4.348c-2.335-1.449-6.281-.4-6.281-.4Z" transform="translate(-1.919 -3.092)" fill="#934334"/>
            <path id="Trazado_657519" data-name="Trazado 657519" d="M41.02,206.007s5.153,15.46,7.73,17.393,47.026,18.038,48.958,18.681,68.928-5.8,68.928-5.8l-32.854-21.9Z" transform="translate(-1.383 -6.947)" fill="#252238"/>
            <path id="Trazado_657520" data-name="Trazado 657520" d="M179.393,193.333l-4.51,14.816h-9.663l.645-11.6-52.179-14.816,4.51-7.73s56.688,16.1,61.2,19.326" transform="translate(-3.834 -5.868)" fill="#252238"/>
            <path id="Trazado_657521" data-name="Trazado 657521" d="M175.7,285.939l-11.315-.232s-.725-2.078-1.836-5.324c-3.314-9.634-10.03-29.607-11.363-36.583-1.778-9.315.116-12.658-1.053-13.286a11.224,11.224,0,0,0-2.232-.609c-2.135-.415-4.909-.754-4.909-.754l-2.706-18.755,12.185-2.754,4.928,1.082s1.623.444,3.662,1.063c.928.28,1.933.589,2.908.908a28.649,28.649,0,0,1,4.609,1.807c2.135,1.285,2.553,22.568,2.794,25.719s1.109,40.4,1.573,42.134a35.458,35.458,0,0,0,2.754,5.585" transform="translate(-4.73 -7.002)" fill="#ffbdab"/>
            <path id="Trazado_657522" data-name="Trazado 657522" d="M58.726,196.674,50.351,310.05a702.021,702.021,0,0,1,8.375-113.376" transform="translate(-1.696 -6.632)" fill="#3a3a5e"/>
            <path id="Trazado_657523" data-name="Trazado 657523" d="M164.974,282.788a13.3,13.3,0,0,1-2.164-2.4c-3.314-9.634-10.03-29.607-11.363-36.583-1.778-9.315.116-12.658-1.053-13.286a11.224,11.224,0,0,0-2.232-.609l1.034-15.093,4.348-6.919,7.779,1.894,3.015.734s-.039.058-.106.174c-.8,1.362-6.03,10.252-6.175,12.33-.164,2.261,5.58,7.092,6.063,7.895s5.687,49.763,6.015,50.565-4.029,1.933-5.16,1.295" transform="translate(-4.996 -7.01)" fill="#f7a397"/>
            <path id="Trazado_657524" data-name="Trazado 657524" d="M84.442,268.059,29.686,231.34s32.21,25.768,54.756,36.719" transform="translate(-1.001 -7.801)" fill="#3a3a5e"/>
            <path id="Trazado_657525" data-name="Trazado 657525" d="M70.472,201.34,35.686,300.545s18.038-43.161,34.786-99.205" transform="translate(-1.203 -6.789)" fill="#3a3a5e"/>
            <path id="Trazado_657526" data-name="Trazado 657526" d="M158.542,291.139l-10.706,4.078s-2.271-3.73-4.967-8.155c-3.7-6.068-8.2-13.451-8.8-14.388-1.933-3.015-9.885-16.755-12.455-24.273a1.5,1.5,0,0,1-.077-.222,89.706,89.706,0,0,1-4.416-20.572l-.222-2.348-.444-4.551,1.517-1.024,12.252-8.252,3.836-2.59s9.45,7.083,10.1,7.305-.821,17.876-.821,17.876,1.256,14.813,4.261,26.408,10.948,30.708,10.948,30.708" transform="translate(-3.927 -7.042)" fill="#ffbdab"/>
            <path id="Trazado_657527" data-name="Trazado 657527" d="M149.426,293.056c-.676-.473-3.276-2.851-6.542-5.9-3.7-6.068-8.2-13.451-8.8-14.388-1.933-3.015-9.885-16.755-12.455-24.273a1.5,1.5,0,0,1-.077-.222,89.706,89.706,0,0,1-4.416-20.572l-.222-2.348c.309-1.71.686-3.643,1.073-5.575l12.252-8.252,1.16.367s-5.883,11.992-4.029,17.551c.161.483,22.543,52.988,22.543,52.988s1.614,12.078-.483,10.629" transform="translate(-3.942 -7.133)" fill="#f7a397"/>
            <path id="Trazado_657528" data-name="Trazado 657528" d="M161.528,209.446c-14.456-4.822-13.963,23.4-13.963,23.4l-5.972.058s.367-8.339-1.643-14.832c-1.082-3.508-2.851-6.484-5.74-7.334a6.267,6.267,0,0,0-2.319-.222c-10.735.86-15.035,26.408-15.035,26.408s-7.044-1.875-9.2-2.309-37.791-13.74-40.8-19.326c-2.541-4.706-2.02-21.993-1.8-27.239.048-.966.077-1.527.077-1.527l25.346-10.745,21.432,2.957s2.5,1.527,6.377,3.9c1.16.715,2.454,1.507,3.836,2.348,14.91,9.141,40.3,24.756,39.4,24.457" transform="translate(-2.187 -5.927)" fill="#1cf290"/>
            <path id="Trazado_657529" data-name="Trazado 657529" d="M134.2,211.169a6.194,6.194,0,0,0-2.309-.222c-10.735.86-15.035,26.408-15.035,26.408s-7.044-1.875-9.2-2.309-37.791-13.74-40.8-19.326c-2.541-4.706-2.02-21.993-1.8-27.239l14.33,3.3s-.329,11.75.483,14.166,21.094,12.407,21.094,12.407l-6.281-1.131s18.611,8.668,19.644,9.18a27.756,27.756,0,0,0,3.063,1.131s5-18.2,14.011-17.238a7.238,7.238,0,0,1,2.793.87" transform="translate(-2.187 -6.356)" fill="#00d976"/>
            <path id="Trazado_657530" data-name="Trazado 657530" d="M40.353,203.34,66.121,305.766A703.731,703.731,0,0,0,40.353,203.34" transform="translate(-1.361 -6.857)" fill="#3a3a5e"/>
            <path id="Trazado_657531" data-name="Trazado 657531" d="M81.775,221.34,27.019,278.672S62.45,234.223,81.775,221.34" transform="translate(-0.911 -7.464)" fill="#3a3a5e"/>
            <path id="Trazado_657532" data-name="Trazado 657532" d="M78.067,293.287,31.686,215.34s18.038,42.516,46.381,77.947" transform="translate(-1.068 -7.261)" fill="#3a3a5e"/>
            <path id="Trazado_657533" data-name="Trazado 657533" d="M85.618,247.34l-59.265,6.442s19.326-5.154,59.265-6.442" transform="translate(-0.889 -8.34)" fill="#3a3a5e"/>
            <path id="Trazado_657534" data-name="Trazado 657534" d="M162.417,209.568c-14.456-4.822-13.963,23.4-13.963,23.4l-5.972.058s.367-8.339-1.643-14.832c.077-1.073.367-6.793-2.213-8.754-2.851-2.164-24.205-19.741-25.49-19.741S100.575,191,100.575,191s8.056-6.935,9.66-7.573-19,4.674-19,4.674l21.741-8.7v4.509l2.9-1.771c14.91,9.141,47.454,27.732,46.546,27.433" transform="translate(-3.076 -6.049)" fill="#00d976"/>
            <path id="Trazado_657535" data-name="Trazado 657535" d="M21.913,252.571c0,33.317,16.34,60.334,36.5,60.334s36.506-27.017,36.506-60.334-16.34-60.344-36.506-60.344-36.5,27.017-36.5,60.344m5.15-.435c0-28.1,12.881-50.884,28.776-50.884s28.766,22.785,28.766,50.884S71.725,303.03,55.839,303.03s-28.776-22.785-28.776-50.894" transform="translate(-0.739 -6.482)" fill="#252238"/>
            <path id="Trazado_657536" data-name="Trazado 657536" d="M106.732,192.713s4.3,20.185.859,21.9-8.159,1.288-9.877.859-4.3-17.179-4.3-17.179L53.908,187.56l8.589-6.442s42.087,9.877,44.234,11.6" transform="translate(-1.818 -6.107)" fill="#252238"/>
            <path id="Trazado_657537" data-name="Trazado 657537" d="M179.386,239.989s24.909,52.824,22.762,56.259-79.02,6.871-81.168,6.871-26.627-70-26.627-70h4.724s26.627,61.842,27.915,62.271,65.277-3.865,67-3.865-19.443-53.3-19.443-53.3Z" transform="translate(-3.182 -7.861)" fill="#252238"/>
            <path id="Trazado_657538" data-name="Trazado 657538" d="M18.808,117.846S1.546,120.793.258,123.37s2.576,14.816,4.509,14.816A7.749,7.749,0,0,0,9.921,136.9c1.933-1.288-2.577-10.951-2.577-10.951l17.393-3.865Z" transform="translate(0 -3.974)" fill="#252238"/>
            <path id="Trazado_657539" data-name="Trazado 657539" d="M177.367,282.354s-2.246-4.68-2.907-4.68-7.229,5.287-8.111,5.287-4.807-4.589-4.807-4.589-1.361,12.693-.04,13.706,16.525,11.345,17.847,12.156,16.076,3.168,17.839,2.966,2.652-9.855,1.331-10.666-9.034-3.849-9.034-3.849Z" transform="translate(-5.426 -9.363)" fill="#5840e2"/>
            <path id="Trazado_657540" data-name="Trazado 657540" d="M169.622,302.155s-7.73-11.6-9.234-12.883-3.435-7.087-4.08-7.3-6.441-1.5-7.3-.859-3.222,8.589-3.222,8.589-3.221-3.221-3.221-2.576.859,12.024,1.288,13.528,10.093,11.165,11.6,12.024,5.369,3.006,9.234,3.006,10.951-.429,12.669-2.577-7.73-10.951-7.73-10.951" transform="translate(-4.807 -9.473)" fill="#5840e2"/>
            <path id="Trazado_657541" data-name="Trazado 657541" d="M209.58,101.86a2.183,2.183,0,0,1-.725,1.256c-1.933,1.285-12.89-3.218-12.89-3.218s-2.251,1.933-3.865,1.933-6.435-3.865-6.435-3.865l-.966-9.025s-10.958,4.194-15.789,2.9,19.654-10.629,19.654-10.629l-1.614-5.469s-1.614-5.16.966-4.513,7.083,9.015,8.378,9.982c.251.184.9.744,1.8,1.517,3.682,3.189,11.4,10.078,11.4,10.078s.889,6.2.087,9.054" transform="translate(-5.674 -2.4)" fill="#ff9e7b"/>
            <path id="Trazado_657542" data-name="Trazado 657542" d="M155.927,136.7a7.7,7.7,0,0,1-.928,2.445c-4.484,9.015-23.9,37.55-26.553,37.926a11.465,11.465,0,0,1-7.305-1.719c-1.285-.86-9.45-7.73-9.45-7.73s.831,3.817,1.256,5.961c.3,1.518-1.72,3.005-1.72,3.005s-10.31,3.856-27.056,5.151a43.543,43.543,0,0,0-5.972,4.028,7.4,7.4,0,0,1-4.3,2.04c-3.43,0-8.155,1.295-12.021-.425-.754-.339-2.039-2.339-3.585-5.43l-.232-.493c-5.344-10.88-13.47-33.994-13.721-46.575a15.461,15.461,0,0,1,.792-5.914c4.715-11.6,27.442-15.084,27.442-15.084s24.515-2.522,29.674-1.662,23.191,31.346,23.191,31.346,1.71-2.57,3.005-1.285a2.054,2.054,0,0,1,.435,2.57c.473-.56,15.48-18.466,17.171-19.316,1.72-.86,9.875,7.73,9.875,11.161" transform="translate(-1.495 -3.778)" fill="#00d976"/>
            <path id="Trazado_657543" data-name="Trazado 657543" d="M67.822,99.34l2.577,15.89a11.09,11.09,0,0,0,8.8,2.04c5.583-.858,7.086-3.435,7.086-3.435l-1.611-9.77Z" transform="translate(-2.287 -3.35)" fill="#f7a397"/>
            <path id="Trazado_657544" data-name="Trazado 657544" d="M69.731,103.23s3.221,12.241,4.831,13.045,8.375-.644,11.112-1.933-.322-7.247-.322-7.247Z" transform="translate(-2.351 -3.481)" fill="#e5867c"/>
            <path id="Trazado_657545" data-name="Trazado 657545" d="M92.533,95.11c.193,5.112-3.778,13.064-5.875,14.011a5.757,5.757,0,0,1-1.536.377,19.254,19.254,0,0,1-6.551-.541,9.365,9.365,0,0,1-2.135-.783c-2.464-1.324-6.059-3.411-8.329-6.812a30.357,30.357,0,0,0-2.078-3.005c0,.01-4.348.387-5.3-.193-.947-.56-6.822-6.812-6.822-8.32s3.218-5.691,3.971-5.5l4.735,1.14-.85-4.532-.676-3.643,2.454-4.725,2.86-5.508,16.659-1.517L86.658,68.4s3.981,8.146,4.174,9.093c.106.541.087,3,.058,4.957-.029,1.44-.058,2.619-.058,2.619s.039.145.116.406a44.679,44.679,0,0,1,1.585,9.634" transform="translate(-1.818 -2.211)" fill="#ffbdab"/>
            <path id="Trazado_657546" data-name="Trazado 657546" d="M85.122,109.947a19.254,19.254,0,0,1-6.551-.541,9.365,9.365,0,0,1-2.135-.783c-2.464-1.324-6.059-3.411-8.329-6.812a30.357,30.357,0,0,0-2.078-3.005c0,.01-4.348.387-5.3-.193-.947-.56-6.822-6.812-6.822-8.32s3.218-5.691,3.971-5.5l4.735,1.14-.85-4.532L66.46,78.9s2.9,12.806,3.385,14.98,4.744,6.919,6.358,9.74,2.338,5.073,6.928,5.962c.783.145,1.44.271,1.991.367" transform="translate(-1.818 -2.66)" fill="#f7a397"/>
            <path id="Trazado_657547" data-name="Trazado 657547" d="M62.791,85.258A42.248,42.248,0,0,0,74.36,78.381a24.862,24.862,0,0,0,7.335-11.329,16.765,16.765,0,0,1,6.012,4.724A37.728,37.728,0,0,1,91,77.266s1-10.643-.716-14.938-8.588-3.435-8.588-3.435-33.962-2.629-18.9,26.365" transform="translate(-1.987 -1.984)" fill="#ad5945"/>
            <path id="Trazado_657548" data-name="Trazado 657548" d="M103.665,126.842s6.228,19.97,6.871,22.117-1.074,9.233-1.074,10.306,3.865,7.3,2.577,7.946-24.909,7.73-24.909,7.73,24.479-4.3,24.264-2.792.43,4.294-1.718,5.153-26.626,5.583-27.7,5.583-1.718-19.54,1.288-19.756,23.62-12.883,24.909-13.742-4.51-22.546-4.51-22.546" transform="translate(-2.734 -4.277)" fill="#1cf290"/>
            <path id="Trazado_657549" data-name="Trazado 657549" d="M84.731,128.038s1.954-8.724,1.468-13.013-.883-7,2.236-6.8c2.416.162,3.543,10.146,3.543,10.146Z" transform="translate(-2.857 -3.649)" fill="#f7a397"/>
            <path id="Trazado_657550" data-name="Trazado 657550" d="M180.551,25.954a16.468,16.468,0,0,1,2.094-10.736c2.577-4.15-3.724-.377-3.724-.377l-.357,5.637Z" transform="translate(-6.021 -0.447)" fill="#1e110f"/>
            <path id="Trazado_657551" data-name="Trazado 657551" d="M215.714,25.4a14.5,14.5,0,0,0-3.543.269c-1.5.376-3.65,4.026-3.274,5.046s5.046-.859,5.046-.859l-2.846.054Z" transform="translate(-7.043 -0.856)" fill="#252238"/>
            <path id="Trazado_657552" data-name="Trazado 657552" d="M47.686,253c0,5.337,2.451,9.663,5.476,9.663s5.475-4.326,5.475-9.663-2.451-9.663-5.475-9.663-5.476,4.326-5.476,9.663" transform="translate(-1.608 -8.205)" fill="#252238"/>
            <path id="Trazado_657553" data-name="Trazado 657553" d="M160.062,116.4a11.968,11.968,0,0,1-1.611,6.764c-1.933,2.9-3.221,4.51-3.221,4.51s2.9-1.289,4.51-2.255,3.221-5.8,3.221-5.8l6.442,8.053s-.966-9.986-9.341-11.274" transform="translate(-5.234 -3.925)" fill="#f7a397"/>
            <path id="Trazado_657554" data-name="Trazado 657554" d="M172.348,114.362s-10.086,3.554-9.12,5.165,6.764,1.288,6.764,1.288-6.12,1.288-5.154,2.9,5.154,1.933,5.154,1.933-7.087,1.933-1.289,3.543,10.952-4.188,11.274-5.8-3.385-.894-3.385-.894,3.063-2.328,2.419-4.26-3.833.369-3.833.369,4.356-7.154-2.829-4.245" transform="translate(-5.502 -3.833)" fill="#ffbdab"/>
            <path id="Trazado_657555" data-name="Trazado 657555" d="M58.081,165.6c-.966,2.261.647,12.243.647,12.243l-.667,4.01c-5.344-10.88-13.47-33.994-13.721-46.575,1.575-5.527,4.155-9.933,8.271-11.548,0,0,3.865,2.581,5.8,4.185s8.7,23.838,8.7,23.838-8.378,3.546-9.663,4.184c-1.256.628-2.8,7.9-2.889,8.358.193-.415,3.276-7.073,5.459-7.392,2.261-.319,8.059-1.285,8.059-1.285s-9.025,7.73-9.991,9.982" transform="translate(-1.495 -4.172)" fill="#1cf290"/>
            <path id="Trazado_657556" data-name="Trazado 657556" d="M81.9,138.241s3.312-18.681,4.811-19.883,11.72-4.728,13.762-3.411,7.155,10.757,6.679,12.617-4.222,4.866-5.572,4.718a2.931,2.931,0,0,1-2.042-1.317S93.02,145.553,89.48,145.439s-7.582-7.2-7.582-7.2" transform="translate(-2.762 -3.866)" fill="#ffbdab"/>
            <path id="Trazado_657557" data-name="Trazado 657557" d="M90.47,118.128a.281.281,0,0,1,.311.073c1.1,1.152,8.819,9.273,7.922,10.171-.966.966-7.086,13.528-7.086,13.528l-8.052-6.442s3.424-15.872,6.905-17.33" transform="translate(-2.818 -3.983)" fill="#f7a397"/>
            <path id="Trazado_657558" data-name="Trazado 657558" d="M93.278,146.842c-.86,6.87-14.6,39.086-14.6,39.086v.531a39.531,39.531,0,0,1-4.3,2.039,16.955,16.955,0,0,1-12.021-.425c-.754-.338-2.039-2.338-3.585-5.43a27.392,27.392,0,0,1,1-11.75c1.72-5.15,14.175-23.616,14.175-23.616v-1.72c0-1.72,5.15-12.03,7.3-12.89s12.89,7.305,12.03,14.175" transform="translate(-1.974 -4.472)" fill="#00d976"/>
            <path id="Trazado_657559" data-name="Trazado 657559" d="M157.229,139.963c-4.484,9.016-23.9,37.551-26.553,37.926a11.465,11.465,0,0,1-7.305-1.719c-1.285-.86-9.45-7.73-9.45-7.73l-3.469-8.851s6.551,5.149,8.484,5.149,8.049-18.039,8.049-18.039.329,11.924-.638,13.528c-.928,1.546-2.454,3.981-2.57,4.184l5.788-5.788c1.933-1.933,1.285-11.276,1.285-11.276l2.58,3.865S153.721,135.1,155.335,136.4a9.493,9.493,0,0,1,1.894,3.565" transform="translate(-3.724 -4.597)" fill="#1cf290"/>
            <path id="Trazado_657560" data-name="Trazado 657560" d="M20.676,119.863l18.9-.859,1.075-1.718-19.326.859,7.945.645Z" transform="translate(-0.697 -3.955)" fill="#3a3a5e"/>
            <path id="Trazado_657561" data-name="Trazado 657561" d="M23.734,126.654l17.179,69.358,5.153-3.006L27.6,121.286l-5.369.645,4.3,1.074-3.651,1.074Z" transform="translate(-0.75 -4.09)" fill="#3a3a5e"/>
            <path id="Trazado_657562" data-name="Trazado 657562" d="M96.676,198.929l10.307-3.865L99.9,200.217l7.087-2.362s1.5,12.239,1.288,14.171-8.375,1.718-8.8,1.075-2.792-14.172-2.792-14.172" transform="translate(-3.26 -6.578)" fill="#3a3a5e"/>
            <path id="Trazado_657563" data-name="Trazado 657563" d="M108.9,271.731s12.024,30.062,12.883,30.706,18.9-.645,18.9-.645-16.964-.859-18.038-1.5S108.9,271.731,108.9,271.731" transform="translate(-3.672 -9.163)" fill="#3a3a5e"/>
            <path id="Trazado_657564" data-name="Trazado 657564" d="M89.731,120.963l11.6-2.9s-8.535.322-11.6,2.9" transform="translate(-3.026 -3.981)" fill="#f7a397"/>
            <path id="Trazado_657565" data-name="Trazado 657565" d="M100.152,131.434l3.3-2.548,2.577-.322s-2.892,3.324-5.875,2.87" transform="translate(-3.377 -4.335)" fill="#f7a397"/>
            <path id="Trazado_657566" data-name="Trazado 657566" d="M73.7,89.141c.294.407,2.552.291,4.083.076.277-.041.476-.079.658-.106a2.2,2.2,0,0,0,1.43-1.176.806.806,0,0,0,.071-.118,4.44,4.44,0,0,0,.455-1.423,2.04,2.04,0,0,0-1.74-1.884c-1.286-.183-3.448,1.2-4.168,2.553,0,0-1.122,1.61-.789,2.078" transform="translate(-2.483 -2.849)" fill="#fff"/>
            <path id="Trazado_657567" data-name="Trazado 657567" d="M87.855,87.191c.124.241.748.208,1.433.072A10.308,10.308,0,0,0,90.372,87c.185-.058.358-.115.5-.175a2.16,2.16,0,0,0,.969-1.488,5.068,5.068,0,0,0-.095-2.459,1.1,1.1,0,0,0-.814-.618c-.825-.082-2.476,1.807-2.926,3.206,0,0-.37,1.282-.154,1.721" transform="translate(-2.96 -2.774)" fill="#fff"/>
            <path id="Trazado_657568" data-name="Trazado 657568" d="M91.459,86.25c.22-.385.453-4.771-1.093-3.747-1.509,1-.86,3.876-.2,4.24a.961.961,0,0,0,1.295-.493" transform="translate(-3.016 -2.777)" fill="#325d68"/>
            <path id="Trazado_657569" data-name="Trazado 657569" d="M79.6,88.474c.244-.37.752-4.733-.855-3.808-1.569.9-1.1,3.814-.469,4.219a.962.962,0,0,0,1.324-.411" transform="translate(-2.62 -2.851)" fill="#325d68"/>
            <path id="Trazado_657570" data-name="Trazado 657570" d="M80.238,84.049a6.207,6.207,0,0,0-4.045.8A10.58,10.58,0,0,0,73.341,88.4s2.86-3.648,6.9-4.355" transform="translate(-2.473 -2.832)" fill="#77463c"/>
            <path id="Trazado_657571" data-name="Trazado 657571" d="M87.87,86.147a7.814,7.814,0,0,1,.9-2.765c.409-.547,1.233-1.586,2.315-1.549A2.838,2.838,0,0,1,92.278,82l-.9.609s-.553-.334-1.311.341l-.16.143a10.063,10.063,0,0,0-2.036,3.055" transform="translate(-2.963 -2.759)" fill="#77463c"/>
            <path id="Trazado_657572" data-name="Trazado 657572" d="M76.445,85.735a10.663,10.663,0,0,1,2.6-.584,17.4,17.4,0,0,1,2.084.061,3.076,3.076,0,0,0-2.845-.8c-1.775.383-1.84,1.328-1.84,1.328" transform="translate(-2.578 -2.844)" fill="#77463c"/>
            <path id="Trazado_657573" data-name="Trazado 657573" d="M88.953,85.469c.029.138.288.2.578.138s.5-.222.473-.36-.288-.2-.578-.138-.5.222-.473.36" transform="translate(-2.999 -2.869)" fill="#fff"/>
            <path id="Trazado_657574" data-name="Trazado 657574" d="M77.112,87.26c.02.139.274.217.568.175s.514-.191.494-.33-.274-.217-.567-.174-.515.19-.495.33" transform="translate(-2.6 -2.931)" fill="#fff"/>
            <path id="Trazado_657575" data-name="Trazado 657575" d="M201.607,28.963c-.126.416-1.768.919-3.2,1.228-.232.048-.444.087-.657.126-.271.048-.473.067-.657.1a1.992,1.992,0,0,1-1.4-.415,2.813,2.813,0,0,1-.319-.251,1.032,1.032,0,0,1-.106-.088,4.743,4.743,0,0,1-.879-1.217,2.041,2.041,0,0,1,1.073-2.329c1.16-.58,3.643.058,4.754,1.121,0,0,1.565,1.188,1.391,1.729" transform="translate(-6.552 -0.873)" fill="#fff"/>
            <path id="Trazado_657576" data-name="Trazado 657576" d="M187.634,31.509c-.039.271-.647.435-1.343.522-.106.019-.222.029-.338.039-.261.029-.522.039-.773.048-.193,0-.377,0-.522-.01a1.907,1.907,0,0,1-1.247-.9c-.048-.077-.1-.145-.145-.213a5.055,5.055,0,0,1-.676-2.367,1.115,1.115,0,0,1,.58-.841c.763-.338,2.918.947,3.778,2.135,0,0,.754,1.1.686,1.585" transform="translate(-6.156 -0.935)" fill="#fff"/>
            <path id="Trazado_657577" data-name="Trazado 657577" d="M193.789,26.172a6.205,6.205,0,0,1,4.093-.5,10.585,10.585,0,0,1,3.818,2.487s-3.854-2.574-7.911-1.989" transform="translate(-6.535 -0.86)" fill="#1e110f"/>
            <path id="Trazado_657578" data-name="Trazado 657578" d="M187.276,30.522a7.825,7.825,0,0,0-1.717-2.347,3.161,3.161,0,0,0-2.683-.751c-.949.348-1.081.53-1.081.53l1.046.3s.421-.489,1.352-.084l.2.086a10.052,10.052,0,0,1,2.887,2.269" transform="translate(-6.13 -0.921)" fill="#1e110f"/>
            <path id="Trazado_657579" data-name="Trazado 657579" d="M91.846,81.184a3.865,3.865,0,0,0-2.23,1.13,6.341,6.341,0,0,0-1.16,1.781,16.649,16.649,0,0,1,3.391-2.91" transform="translate(-2.983 -2.738)" fill="#77463c"/>
            <path id="Trazado_657580" data-name="Trazado 657580" d="M90.713,93.98c.106.7-1.6,1.981-2.522,2.3s-3.971-1.5-4.29-1.933c0,0,.077-.473.213-1.208.444-2.406,1.478-7.615,2.251-8.021.85-.444,3.208,5.46,4.049,7.886a9.254,9.254,0,0,1,.3.975" transform="translate(-2.829 -2.869)" fill="#f7a397"/>
            <path id="Trazado_657581" data-name="Trazado 657581" d="M90.713,94.256c.106.7-1.6,1.981-2.522,2.3s-3.971-1.5-4.29-1.933c0,0,.077-.473.213-1.208a10.928,10.928,0,0,0,3.865,1.159,3.5,3.5,0,0,0,2.435-1.294,9.254,9.254,0,0,1,.3.975" transform="translate(-2.829 -3.145)" fill="#e5867c"/>
            <path id="Trazado_657582" data-name="Trazado 657582" d="M89.5,100.6s.215,1.4-.59,1.825a6.493,6.493,0,0,1-5.207-.752,5.407,5.407,0,0,1-2.363-3.167,6.379,6.379,0,0,0,3.382,1.664c1.933.215,4.778.43,4.778.43" transform="translate(-2.743 -3.322)" fill="#f7a397"/>
            <path id="Trazado_657583" data-name="Trazado 657583" d="M81.342,98.508a13.377,13.377,0,0,0,3.06,1.128c1.019.107,2.737-.806,4.241-.323s1.288,1.182,1.288,1.182a8.6,8.6,0,0,1-4.241.59,5.9,5.9,0,0,1-4.348-2.577" transform="translate(-2.743 -3.322)" fill="#e5867c"/>
            <path id="Trazado_657584" data-name="Trazado 657584" d="M56.731,89.031s1.611-1.369,2.737-.8A9,9,0,0,1,61.884,90.8S60.6,92.333,61,93.46s2.335,1.852,2.335,1.852a4.144,4.144,0,0,1-3.865-1.046c-1.851-1.691.725-3.463.725-3.463s-1.851-2.657-3.462-1.771" transform="translate(-1.913 -2.97)" fill="#e5867c"/>
            <path id="Trazado_657585" data-name="Trazado 657585" d="M61.8,83.612a31.747,31.747,0,0,0,9.9-5.636c4.912-4.107,8.616-11.757,8.455-12.723s-2.979-2.416-2.979-2.416l.242.725a7.78,7.78,0,0,0-4.671-2.416c-2.657-.161-8.857.8-12.32,5.153s-2.5,7.811-2.5,7.811-1.852,3.382-1.288,6.281S61.8,83.612,61.8,83.612" transform="translate(-1.906 -2.061)" fill="#c4624e"/>
            <path id="Trazado_657586" data-name="Trazado 657586" d="M81.9,60.551s4.268-.966,6.764.242,3.255,6.864,3.255,6.864a21.081,21.081,0,0,0-4.06-3.482,15.273,15.273,0,0,0-4.59-1.288l4.107-.242s-1.208-2.014-5.476-2.094" transform="translate(-2.762 -2.029)" fill="#c4624e"/>
            <path id="Trazado_657587" data-name="Trazado 657587" d="M62.065,85.421l3.945,7.327.806-.8-.725-8.213Z" transform="translate(-2.093 -2.823)" fill="#ad5945"/>
            <path id="Trazado_657588" data-name="Trazado 657588" d="M73.731,83.189a17.267,17.267,0,0,1,4.51-2.737,26.5,26.5,0,0,1,2.9-.645l-.806-2.577s-5.315,2.738-6.6,5.959" transform="translate(-2.486 -2.604)" fill="#ad5945"/>
            <path id="Trazado_657589" data-name="Trazado 657589" d="M87.881,78.974a4.507,4.507,0,0,1,3.06,0l1.288.645s-.483-2.9-2.254-3.06S87.4,76.4,87.4,76.4Z" transform="translate(-2.947 -2.576)" fill="#ad5945"/>
            <path id="Trazado_657590" data-name="Trazado 657590" d="M194.555,36.786c-.135.755-2.88,3.082-3.74,3.053a5.061,5.061,0,0,1-3.653-2.358,1.428,1.428,0,0,1-.116-.328c-.5-1.952.86-7.556.86-7.556s.242-.744.676-.947c.319-.155,3.537,4,5.1,6.455a5.028,5.028,0,0,1,.87,1.68" transform="translate(-6.304 -0.966)" fill="#e58065"/>
            <path id="Trazado_657591" data-name="Trazado 657591" d="M185.977,32.1c-.261.03-.522.039-.773.049-.193,0-.377,0-.522-.011a1.908,1.908,0,0,1-1.247-.9c-.184-.841-.406-2.541.763-2.619,1.237-.087,1.662,2.445,1.778,3.478" transform="translate(-6.181 -0.965)" fill="#1e110f"/>
            <path id="Trazado_657592" data-name="Trazado 657592" d="M198.45,30.227c-.232.048-.444.087-.657.126-.271.048-.473.068-.657.1a2,2,0,0,1-1.4-.415c-.232-1.092-.454-2.966.792-3.082,1.314-.116,1.768,2.106,1.923,3.276" transform="translate(-6.594 -0.909)" fill="#1e110f"/>
            <path id="Trazado_657593" data-name="Trazado 657593" d="M186.46,30.775c0,.178-.312.322-.7.322s-.7-.144-.7-.322.312-.322.7-.322.7.144.7.322" transform="translate(-6.24 -1.027)" fill="#fff"/>
            <path id="Trazado_657594" data-name="Trazado 657594" d="M199.015,28.942c0,.178-.312.322-.7.322s-.7-.144-.7-.322.312-.322.7-.322.7.144.7.322" transform="translate(-6.664 -0.965)" fill="#fff"/>
            <path id="Trazado_657595" data-name="Trazado 657595" d="M185.637,24.944a9.449,9.449,0,0,0-2.63.59,6.38,6.38,0,0,0-1.665,1.718s-.16-2.523,1.611-3.329a7.237,7.237,0,0,1,2.416-.8Z" transform="translate(-6.115 -0.78)" fill="#1e110f"/>
            <path id="Trazado_657596" data-name="Trazado 657596" d="M192.605,23.875a11.129,11.129,0,0,1,4.241-.429,7.671,7.671,0,0,1,3.06.912,8.531,8.531,0,0,0-3.7-2.254,8.357,8.357,0,0,0-4.026-.376Z" transform="translate(-6.48 -0.729)" fill="#1e110f"/>
            <path id="Trazado_657597" data-name="Trazado 657597" d="M194.559,37.011c-.135.755-2.88,3.082-3.74,3.053a5.061,5.061,0,0,1-3.653-2.358,1.429,1.429,0,0,1-.116-.328,4.9,4.9,0,0,0,3.5.7,4.279,4.279,0,0,0,3.14-2.744,5.028,5.028,0,0,1,.87,1.68" transform="translate(-6.307 -1.191)" fill="#d8705b"/>
            <path id="Trazado_657598" data-name="Trazado 657598" d="M191.4,42.6a23.414,23.414,0,0,1,4.563-.7c1.235.107,4.4-2.953,4.4-2.953s-2.2,3.275-4.456,3.919-4.831.966-4.51-.27" transform="translate(-6.453 -1.314)" fill="#d8705b"/>
            <path id="Trazado_657599" data-name="Trazado 657599" d="M183.509,13.846s1.128,4.241,8.321,5.744a50.684,50.684,0,0,0,15.407.269s-5.745-1.019-5.959-1.074,7.408,0,7.408,0a20.955,20.955,0,0,0-10.629-6.549,40.032,40.032,0,0,0-11.488-.859s5.744-2.737,10.522-2.63a34.926,34.926,0,0,1,6.71.59s-3.758-2.362-11.327-1.557-8.965,6.066-8.965,6.066" transform="translate(-6.188 -0.257)" fill="#351f1c"/>
            <path id="Trazado_657600" data-name="Trazado 657600" d="M212.173,53.3v2.261a33.414,33.414,0,0,1-12.436,4.667c-7.247,1.131-9.141-.164-9.141-.164l.966-3.537s-2.251-2.9-.319-3.865a.591.591,0,0,1,.116-.048c-.6,1,1.807,2.309,7.092,1.333,6.117-1.131,8.532-3.218,9.344-4.667.338-.618-.647-.792-1.9-.8,2.551-1.643,3.363-3.024,4.029-2.58.966.638,0,4.5,0,4.5a3.153,3.153,0,0,1,2.251,2.9" transform="translate(-6.422 -1.545)" fill="#362bc7"/>
            <path id="Trazado_657601" data-name="Trazado 657601" d="M137.823,66.4a12.684,12.684,0,0,0-1.128,5.959c0,4.026.806,4.992.806,4.992a8.619,8.619,0,0,1,.322-10.951" transform="translate(-4.574 -2.239)" fill="#e58065"/>
            <path id="Trazado_657602" data-name="Trazado 657602" d="M127.024,64.564s5.476,5.476,5.8,7.73a2.565,2.565,0,0,1-1.611,2.9s.323,2.094-.322,2.737l-.645.645L121.088,73.4a54.364,54.364,0,0,0,6.9,2.6c1.771.323-6.022-9.643-6.022-9.643s5.056,6.422,7.471,7.066-2.416-8.858-2.416-8.858" transform="translate(-4.083 -2.177)" fill="#e58065"/>
            <path id="Trazado_657603" data-name="Trazado 657603" d="M210.524,102.222l-1.411.126s-10.948-2.416-12.078-3.7S196.4,81.9,196.4,81.9l2.638,1.189c3.682,3.189,11.4,10.078,11.4,10.078s.889,6.2.087,9.054" transform="translate(-6.619 -2.762)" fill="#e58065"/>
            <path id="Trazado_657604" data-name="Trazado 657604" d="M185.271,89.477s3.182-2.413,4.148-2.413h1.933Z" transform="translate(-6.247 -2.936)" fill="#e58065"/>
            <path id="Trazado_657605" data-name="Trazado 657605" d="M196.119,101.019l-2.9-1.288-.322,1.61Z" transform="translate(-6.505 -3.363)" fill="#e58065"/>
            <path id="Trazado_657606" data-name="Trazado 657606" d="M211.354,90.179s-1.128-1.933.645-1.933,11.917,4.511,13.045,4.994,6.924,4.831,8.857,8.051,3.222,11.275,4.348,11.758-2.9-15.46-3.382-16.266-6.281-2.738-6.281-2.738,7.57-.8,8.858.162,1.449,8.051,1.449,8.051,1.771-8.857,1.128-9.5-11.435-.162-11.435-.162-4.026-28.022-3.059-29.632,5.315-2.9,5.315-2.9l2.093.806s7.73,14.494,7.892,16.427-1.611,12.882-.322,12.722,2.737-7.73,2.737-7.73,11.274,31.244,5.315,38.328S212,113.37,210.709,112.083s-.16-5.96-.16-5.96.16,3.7,1.127,4.348,3.06-21.741-.322-20.292" transform="translate(-7.084 -2.025)" fill="#362bc7"/>
            <path id="Trazado_657607" data-name="Trazado 657607" d="M227.756,137.36c-1.614,1.6-15.142,6.436-30.274,5.8s-22.224-2.9-22.553-4.831a1.465,1.465,0,0,1,1.063-1.777c3.421,1.3,9.759,2.714,20.8,2.26,18.881-.783,25.365-3.98,25.751-4.183a88.244,88.244,0,0,1-20.591,1.767,101.443,101.443,0,0,1-18.688-1.933l20.775-1.449s-16.1,0-23.51-2.743c0,0,14.658.646,25.771-1.449a86.48,86.48,0,0,0,20.611-6.92c.116.648,2.416,13.886.841,15.46" transform="translate(-5.898 -4.111)" fill="#362bc7"/>
            <path id="Trazado_657608" data-name="Trazado 657608" d="M177.861,282.517s-2.3,2.247-2.3,3.749,8.16,7.087,10.736,8.375,3.68-1.791,3.68-1.791Z" transform="translate(-5.92 -9.527)" fill="#7962fc"/>
            <path id="Trazado_657609" data-name="Trazado 657609" d="M160.4,288.842s-7.3,1.288-7.945,2.577,10.522,13.742,11.6,14.386,7.73-1.5,7.73-1.5Z" transform="translate(-5.14 -9.74)" fill="#7962fc"/>
          </g>
        </g>
        <path id="Trazado_838041" data-name="Trazado 838041" d="M177.447,80.915,174.5,82.057a4.84,4.84,0,0,0-2.772,2.771l-1.142,2.952-1.141-2.952a4.846,4.846,0,0,0-2.772-2.771l-2.952-1.142,2.952-1.141A4.851,4.851,0,0,0,169.441,77l1.141-2.952L171.723,77a4.845,4.845,0,0,0,2.772,2.772Z" transform="translate(269.496 4622.975)" fill="#ffd357"/>
        <path id="Trazado_838042" data-name="Trazado 838042" d="M32.711,53.058l-4.385,1.7a7.191,7.191,0,0,0-4.12,4.118l-1.7,4.387-1.7-4.387a7.2,7.2,0,0,0-4.12-4.118l-4.387-1.7,4.387-1.7a7.209,7.209,0,0,0,4.12-4.12l1.7-4.387,1.7,4.387a7.2,7.2,0,0,0,4.12,4.12Z" transform="translate(403.213 4514.547)" fill="#ffd357"/>
      </g>
    </g>
  </g>
</svg>
