<svg xmlns="http://www.w3.org/2000/svg" width="44.195" height="51.409" viewBox="0 0 44.195 51.409">
  <g id="_12" data-name="12" transform="translate(-35.922)">
    <g id="Grupo_1098502" data-name="Grupo 1098502" transform="translate(36.675 0.753)">
      <path id="Trazado_838043" data-name="Trazado 838043" d="M79.4,96H45.106a1.684,1.684,0,0,1-1.684-1.684V52.085A1.684,1.684,0,0,1,45.106,50.4H79.4a1.684,1.684,0,0,1,1.684,1.684V94.312A1.684,1.684,0,0,1,79.4,96Z" transform="translate(-43.422 -46.093)" fill="#c38f86"/>
      <path id="Trazado_838044" data-name="Trazado 838044" d="M379.171,50.4h-2.519a1.684,1.684,0,0,1,1.684,1.684V94.312A1.684,1.684,0,0,1,376.652,96h2.519a1.684,1.684,0,0,0,1.684-1.684V52.085A1.684,1.684,0,0,0,379.171,50.4Z" transform="translate(-343.193 -46.093)" fill="#b87d72"/>
      <path id="Trazado_838045" data-name="Trazado 838045" d="M0,0H41.6V29.661H0Z" transform="translate(33.661 4.308) rotate(90)" fill="#f4f7f8"/>
      <path id="Trazado_838046" data-name="Trazado 838046" d="M351.667,50.4h2.711V92h-2.711Z" transform="translate(-320.717 -46.093)" fill="#e7ecf1"/>
      <g id="Grupo_1098499" data-name="Grupo 1098499" transform="translate(11.286 24.66)">
        <path id="Trazado_838047" data-name="Trazado 838047" d="M155.823,253.1h19.664v3.088H155.823Z" transform="translate(-155.823 -253.102)" fill="#e7ecf1"/>
        <path id="Trazado_838048" data-name="Trazado 838048" d="M155.823,253.1h4.912v3.088h-4.912Z" transform="translate(-155.823 -253.102)" fill="#d9b1ee"/>
      </g>
      <path id="Trazado_838049" data-name="Trazado 838049" d="M110.259,345.382h13.807v6.177H110.259Z" transform="translate(-103.548 -311.456)" fill="#e7ecf1"/>
      <path id="Trazado_838050" data-name="Trazado 838050" d="M110.259,345.382h4.575v6.177h-4.575Z" transform="translate(-103.548 -311.456)" fill="#d9b1ee"/>
      <path id="Trazado_838051" data-name="Trazado 838051" d="M152.617,11.808V9.049A1.549,1.549,0,0,0,151.068,7.5H143.5a1.549,1.549,0,0,0-1.549,1.549v2.759h-2.806a1.2,1.2,0,0,0-1.2,1.2v1.168a1.2,1.2,0,0,0,1.2,1.2h16.276a1.2,1.2,0,0,0,1.2-1.2V13.009a1.2,1.2,0,0,0-1.2-1.2Z" transform="translate(-128.455 -7.5)" fill="#a79ba7"/>
      <g id="Grupo_1098500" data-name="Grupo 1098500" transform="translate(20.095)">
        <path id="Trazado_838052" data-name="Trazado 838052" d="M245.1,9.049v1.324a1.435,1.435,0,0,0,1.435,1.435h1.084V9.049A1.549,1.549,0,0,0,246.071,7.5h-2.519A1.549,1.549,0,0,1,245.1,9.049Z" transform="translate(-243.552 -7.5)" fill="#918291"/>
        <path id="Trazado_838053" data-name="Trazado 838053" d="M289.447,50.4h-2.519a1.2,1.2,0,0,1,1.2,1.2v1.168a1.2,1.2,0,0,1-1.2,1.2h2.519a1.2,1.2,0,0,0,1.2-1.2V51.6A1.2,1.2,0,0,0,289.447,50.4Z" transform="translate(-282.573 -46.093)" fill="#918291"/>
      </g>
      <g id="Grupo_1098501" data-name="Grupo 1098501" transform="translate(25.864 26.361)">
        <path id="Trazado_838054" data-name="Trazado 838054" d="M317.311,273.228,305.341,285.2a4.069,4.069,0,0,1-1.742,1.03l-2.588.752.751-2.589a4.068,4.068,0,0,1,1.031-1.743l11.938-11.938a1.834,1.834,0,0,1,2.574-.041,1.8,1.8,0,0,1,.008,2.558Z" transform="translate(-301.01 -270.151)" fill="#cb97e7"/>
        <path id="Trazado_838055" data-name="Trazado 838055" d="M317.3,270.678a1.83,1.83,0,0,0-2.524,0l.005,0a1.8,1.8,0,0,1,.008,2.558l-11.971,11.971a4.067,4.067,0,0,1-1.579.977l-.233.8,2.588-.752a4.068,4.068,0,0,0,1.742-1.03l11.971-11.971a1.8,1.8,0,0,0-.008-2.558Z" transform="translate(-301.01 -270.158)" fill="#bd80e1"/>
        <path id="Trazado_838056" data-name="Trazado 838056" d="M419.756,273.122l-2.317,2.317-2.549-2.55,2.317-2.317a1.8,1.8,0,1,1,2.55,2.55Z" transform="translate(-403.455 -270.044)" fill="#a79ba7"/>
        <path id="Trazado_838057" data-name="Trazado 838057" d="M431.315,270.575a1.8,1.8,0,0,0-2.534-.015l.007.006a1.8,1.8,0,0,1,.008,2.558l-1.058,1.058L429,275.442l2.317-2.317a1.8,1.8,0,0,0,0-2.55Z" transform="translate(-415.013 -270.047)" fill="#918291"/>
      </g>
    </g>
    <g id="Grupo_1098503" data-name="Grupo 1098503" transform="translate(35.922 0)">
      <path id="Trazado_838058" data-name="Trazado 838058" d="M40.675,47.409h29.66a.753.753,0,0,0,.753-.753V39.009l8.284-8.284a2.556,2.556,0,1,0-3.614-3.615l-.669.669V6.744a2.44,2.44,0,0,0-2.437-2.437H61.59V2.3a2.3,2.3,0,0,0-2.3-2.3H51.723a2.3,2.3,0,0,0-2.3,2.3V4.308H47.368a1.957,1.957,0,0,0-1.955,1.955V7.431a1.957,1.957,0,0,0,1.955,1.955H63.644A1.957,1.957,0,0,0,65.6,7.431V6.262a1.946,1.946,0,0,0-.054-.449h4.039V33.285L63.788,39.08a4.836,4.836,0,0,0-1.221,2.066l-.594,2.046H43.386a.753.753,0,1,0,0,1.506H62.539a.862.862,0,0,0,.227-.035l2.57-.746A4.835,4.835,0,0,0,67.4,42.7l2.18-2.18V45.9H41.429V5.814H43a.753.753,0,1,0,0-1.506H38.359a2.44,2.44,0,0,0-2.437,2.437V48.972a2.44,2.44,0,0,0,2.437,2.437H72.652a2.44,2.44,0,0,0,2.437-2.437V38.6a.753.753,0,0,0-1.506,0v10.37a.932.932,0,0,1-.931.931H38.359a.932.932,0,0,1-.931-.931V6.744a.932.932,0,0,1,.931-.931h1.563V46.655a.753.753,0,0,0,.753.753ZM64.092,7.431a.449.449,0,0,1-.449.449H47.368a.449.449,0,0,1-.449-.449V6.262a.449.449,0,0,1,.449-.449h2.806a.753.753,0,0,0,.753-.753V2.3a.8.8,0,0,1,.8-.8h7.565a.8.8,0,0,1,.8.8V5.061a.753.753,0,0,0,.753.753h2.806a.449.449,0,0,1,.449.449ZM76.823,28.175a1.051,1.051,0,0,1,1.485,0,1.084,1.084,0,0,1,0,1.484l-1.785,1.785L75.038,29.96ZM73.583,6.744V29.285l-2.494,2.494V5.814h1.563A.932.932,0,0,1,73.583,6.744ZM66.338,41.631a3.323,3.323,0,0,1-1.42.84l-1.273.369.37-1.274a3.324,3.324,0,0,1,.84-1.421l9.12-9.12,1.485,1.485Z" transform="translate(-35.922 0)"/>
      <path id="Trazado_838059" data-name="Trazado 838059" d="M149.075,124.067h19.664a.753.753,0,1,0,0-1.506H149.075a.753.753,0,0,0,0,1.506Z" transform="translate(-137.036 -110.255)"/>
      <path id="Trazado_838060" data-name="Trazado 838060" d="M149.075,154.826h19.664a.753.753,0,1,0,0-1.506H149.075a.753.753,0,0,0,0,1.506Z" transform="translate(-137.036 -137.925)"/>
      <path id="Trazado_838061" data-name="Trazado 838061" d="M149.075,185.587h19.664a.753.753,0,1,0,0-1.506H149.075a.753.753,0,1,0,0,1.506Z" transform="translate(-137.036 -165.598)"/>
      <path id="Trazado_838062" data-name="Trazado 838062" d="M149.075,216.347h19.664a.753.753,0,1,0,0-1.506H149.075a.753.753,0,0,0,0,1.506Z" transform="translate(-137.036 -193.269)"/>
      <path id="Trazado_838063" data-name="Trazado 838063" d="M148.322,249.443a.753.753,0,0,0,.753.753h19.664a.753.753,0,0,0,.753-.753v-3.089a.753.753,0,0,0-.753-.753H149.075a.753.753,0,0,0-.753.753Zm19.664-.753H154.74v-1.582h13.246Zm-18.158-1.582h3.406v1.582h-3.406Z" transform="translate(-137.036 -220.941)"/>
      <path id="Trazado_838064" data-name="Trazado 838064" d="M102.759,338.635v6.177a.753.753,0,0,0,.753.753h13.807a.753.753,0,0,0,.753-.753v-6.177a.753.753,0,0,0-.753-.753H103.512A.753.753,0,0,0,102.759,338.635Zm1.506,5.424v-1.582h3.069v1.582Zm4.575,0v-1.582h7.726v1.582Zm7.726-3.088H108.84v-1.583h7.726Zm-9.232-1.583v1.583h-3.069v-1.583Z" transform="translate(-96.048 -303.956)"/>
      <circle id="Elipse_9754" data-name="Elipse 9754" cx="0.753" cy="0.753" r="0.753" transform="translate(6.711 18.483)"/>
      <circle id="Elipse_9755" data-name="Elipse 9755" cx="0.753" cy="0.753" r="0.753" transform="translate(6.711 12.306)"/>
    </g>
  </g>
</svg>
