<svg id="_2" data-name="2" xmlns="http://www.w3.org/2000/svg" xmlns:xlink="http://www.w3.org/1999/xlink" width="65.767" height="70.084" viewBox="0 0 65.767 70.084">
  <defs>
    <clipPath id="clip-path">
      <rect id="Rectángulo_312842" data-name="Rectángulo 312842" width="65.767" height="70.084" fill="none"/>
    </clipPath>
  </defs>
  <g id="Grupo_995929" data-name="Grupo 995929" clip-path="url(#clip-path)">
    <path id="Trazado_657325" data-name="Trazado 657325" d="M25.475,17.217c.853.076,1.1.312,1.24,1.155.374,2.268.763,4.533,1.119,6.8.069.439.278.581.683.66a25.814,25.814,0,0,0,4.841.19c3.715.026,7.43,0,11.145,0,.88,0,1.187.261,1.286,1.049-.123.769-.375,1-1.178,1-2.892.006-5.785,0-8.678.007-.154,0-.341-.077-.507.123l1.516.83a3.481,3.481,0,0,0,2.528.916c5.213-.05,10.427-.023,15.64-.025a3.584,3.584,0,0,0,.747-.04.794.794,0,0,0,.717-1.015c-.069-.706-.58-.791-1.134-.793-1.867,0-3.735-.016-5.6,0a1.114,1.114,0,0,1-1.283-1.023c.214-.8.484-1.03,1.283-1.034,1.916-.008,3.833-.012,5.749,0a3.009,3.009,0,0,1,2.993,2.151A2.948,2.948,0,0,1,57.1,31.6a.629.629,0,0,0-.363.645c.016.8.022,1.6,0,2.395-.011.379.1.527.5.512.729-.027,1.46-.02,2.189,0a3.277,3.277,0,0,1,3.313,3.293c.03,2.144.019,4.289.005,6.433a1.74,1.74,0,0,1-1.666,1.89c-.421.047-.448.214-.446.551.012,2.167.023,4.335-.008,6.5a.792.792,0,0,0,.561.847,8.1,8.1,0,1,1-7.046-.013c.728-.354.768-.576.18-1.107q-2.717-2.454-5.442-4.9c-.08-.072-.173-.131-.32-.243A2.662,2.662,0,0,1,47.538,50.3a3.063,3.063,0,0,1-2.016.483c-.939-.017-.94,0-1.024.944a20.329,20.329,0,0,1-39.728,3.8A18.252,18.252,0,0,1,4,51.231c-.018-.35-.112-.491-.475-.459a10.079,10.079,0,0,1-1.026.005A2.4,2.4,0,0,1,.006,48.142a22.883,22.883,0,0,1,3.18-10.414A24.524,24.524,0,0,1,15.789,27c.436-.169.505-.326.429-.774q-1.566-9.194-3.085-18.4c-.026-.157-.062-.313-.1-.469-.022-.1.008-.245-.147-.267-.17-.024-.23.078-.262.234a.935.935,0,0,1-.963.8.927.927,0,0,1-1-.758c-.1-.409-.4-.3-.648-.3-1.962-.005-3.924.016-5.886-.009A2.97,2.97,0,0,1,1.122,3.254,3.057,3.057,0,0,1,4.14,1.125q2.943-.02,5.886,0c.356,0,.576-.036.676-.453A.892.892,0,0,1,11.691,0a.88.88,0,0,1,.9.7c.074.429.3.424.614.42.753-.01,1.506-.017,2.259,0a2.808,2.808,0,0,1,2.816,2.066c.162.567.437.61.917.608a5.508,5.508,0,0,1,5.618,3.808,37.61,37.61,0,0,1,.8,4.224c.075.38.117.765.182,1.147.144.859.018,1.111-.767,1.516A1.128,1.128,0,0,1,23.8,13.412c-.237-1.523-.5-3.041-.775-4.558A3.347,3.347,0,0,0,20.97,6.177a2.292,2.292,0,0,0-1.035-.308c-1.145-.1-1.146-.081-.958,1.03q1.413,8.338,2.8,16.681c.326,1.974.3,1.979,2.343,1.834a8.807,8.807,0,0,1,1.023.043c.591.091.668-.151.573-.674-.366-2.016-.7-4.038-1.037-6.06-.144-.873.017-1.15.793-1.506M14.369,29.946l.011-.008c-.112.015-.226.026-.282.148l.006-.005a4.991,4.991,0,0,0-.49.224A22.43,22.43,0,0,0,2.184,46.95c-.278,1.835-.27,1.836,1.4,1.752.382.106.4-.131.408-.411a17.449,17.449,0,0,1,.42-2.973C7.029,33.088,20.66,26.007,32.106,31.024c7.221,3.166,11.3,8.791,12.374,16.6.163,1.191.151,1.18,1.434,1.11.416-.023.565-.191.543-.593a20.505,20.505,0,0,0-.3-2.3A22.694,22.694,0,0,0,24.868,27.5a20.76,20.76,0,0,0-10.209,2.3c-.112.019-.23.029-.29.149M57.656,46.822c-.914-.053-.914-.053-.914.848v5.366c0,.9,0,.9.919.773.922.13.922.13.922-.766V47.659c0-.892,0-.892-.926-.838M10.572,4.1c-.075-.345.364-.931-.445-.93-2,0-3.992,0-5.989.005a.932.932,0,0,0-1.046.77c.008.773.3,1.069,1.134,1.074,1.824.01,3.648,0,5.472,0,.934,0,.934,0,.874-.923M54.653,49.137c.012-.635,0-1.271.043-1.9.023-.38-.139-.455-.474-.442-.68.027-1.362.021-2.043.029H49.911l4.742,4.268V49.137m2.13-9.595c-.016.2-.017.408-.051.608-.106.615.154.793.75.745.655-.053,1.318-.012,1.978-.012,1.3,0,1.3,0,1.2-1.332.123-1.951-.191-2.364-1.859-2.34-.67.009-1.611-.316-1.944.145-.386.533-.138,1.441-.077,2.187m-8.85-2.313H45.051a23.819,23.819,0,0,1,1.584,3.126.718.718,0,0,0,.8.535c2-.023,4-.01,6.005-.01,1.31,0,1.31,0,1.21-1.327.011-.635.005-1.272.039-1.906.02-.38-.149-.451-.484-.448-2.091.019-4.183.023-6.274.032m3.017,7.489,9.583,0c.087.022.14,0,.124-.1.012-.43.015-.86.038-1.289.015-.27-.043-.411-.364-.409-3.266.021-6.533.029-9.8.04-.546-.012-1.091-.03-1.637-.033-1.279,0-1.25-.008-.989,1.254.1.461.278.59.721.567.773-.039,1.548-.025,2.323-.034M19.336,25.9c.635.063.738-.22.635-.807-.6-3.449-1.172-6.9-1.751-10.357q-.892-5.314-1.783-10.629a.99.99,0,0,0-1.063-.934c-.478,0-.957,0-1.435,0-1.338,0-1.32,0-1.293,1.349.008.4.137.527.515.492a1.579,1.579,0,0,1,1.794,1.136,1.239,1.239,0,0,0,0,.2q1.586,9.466,3.177,18.93c.157.935.167.934,1.2.617M57.38,55.975a6.011,6.011,0,1,0,6.314,5.986,5.936,5.936,0,0,0-6.314-5.986M16.03,65.988c.342.176.675.374,1.028.526a17.687,17.687,0,0,0,9.006,1.4,17.8,17.8,0,0,0,12.4-6.715,17.72,17.72,0,0,0,3.87-13.946,17.321,17.321,0,0,0-5.306-10.539,17.777,17.777,0,0,0-15.816-4.955,16.908,16.908,0,0,0-9.576,4.879,9.867,9.867,0,0,0-1.85,1.987,18.239,18.239,0,0,0,2.756,25.126,12.916,12.916,0,0,0,3.49,2.239M40.838,32.066a27.006,27.006,0,0,1,2.643,2.926c.13.174.312.155.493.155,3.418,0,6.835,0,10.252.007.355,0,.481-.1.469-.462a19.684,19.684,0,0,1,.006-2.117c.042-.546-.174-.623-.656-.621-4.192.018-8.383.009-12.576.014a.9.9,0,0,0-.632.1" transform="translate(0 0)" fill="#030303"/>
    <path id="Trazado_657326" data-name="Trazado 657326" d="M76.457,22.521A3.346,3.346,0,0,1,78.508,25.2c.272,1.517.538,3.035.775,4.558a1.128,1.128,0,0,0,1.233,1.083q.223,1.361.445,2.723c-.776.356-.937.633-.793,1.506.333,2.022.671,4.044,1.037,6.06.095.523.018.765-.573.674a8.685,8.685,0,0,0-1.023-.043c-.23-1.471-.449-2.944-.691-4.413-.471-2.85-.959-5.7-1.433-8.546-.348-2.092-.685-4.185-1.027-6.278" transform="translate(-55.487 -16.344)" fill="#6ed5a1"/>
    <path id="Trazado_657327" data-name="Trazado 657327" d="M142.286,98.665a1.114,1.114,0,0,0,1.283,1.023c1.867-.021,3.735-.01,5.6-.005.555,0,1.065.087,1.134.793a7.979,7.979,0,0,1-1.96.145q-8.836,0-17.672.018l-1.516-.83c.166-.2.353-.123.507-.123,2.893-.006,5.785,0,8.678-.007.8,0,1.055-.229,1.178-1l2.765-.014" transform="translate(-93.734 -71.604)" fill="#6ed5a1"/>
    <path id="Trazado_657328" data-name="Trazado 657328" d="M31.306,119.957a16.908,16.908,0,0,1,9.576-4.879A17.777,17.777,0,0,1,56.7,120.033,17.32,17.32,0,0,1,62,130.572a18.263,18.263,0,0,1-16.268,20.661,17.687,17.687,0,0,1-9.006-1.4c-.352-.152-.686-.349-1.028-.526.02-.248-.155-.344-.329-.468a18.986,18.986,0,0,1-3.574-3.231,19.419,19.419,0,0,1-3.975-7.45,22.3,22.3,0,0,1-.71-4.964,24.243,24.243,0,0,1,.245-3.178,19.721,19.721,0,0,1,2.587-7.9,13.6,13.6,0,0,0,1.36-2.162m28.508,13.148a15.893,15.893,0,1,0-15.886,15.868,15.853,15.853,0,0,0,15.886-15.868" transform="translate(-19.672 -83.322)" fill="#017297"/>
    <path id="Trazado_657329" data-name="Trazado 657329" d="M24.131,102.547a20.76,20.76,0,0,1,10.209-2.3,22.7,22.7,0,0,1,21.294,18.336,20.52,20.52,0,0,1,.295,2.3c.023.4-.127.57-.543.593-1.284.07-1.271.081-1.434-1.11-1.072-7.806-5.153-13.431-12.374-16.6-11.446-5.017-25.077,2.064-27.694,14.294a17.422,17.422,0,0,0-.421,2.973c-.011.281-.025.517-.407.411a17.324,17.324,0,0,1,.8-5.225,23.8,23.8,0,0,1,8.25-12.163c.5-.4,1.2-.568,1.47-1.234l-.006.005c.131.021.24,0,.282-.148l-.011.008c.133.022.244,0,.29-.149" transform="translate(-9.473 -72.75)" fill="#d7e8f8"/>
    <path id="Trazado_657330" data-name="Trazado 657330" d="M70.938,21.6c.342,2.093.679,4.186,1.027,6.278.474,2.849.962,5.7,1.433,8.546.243,1.469.462,2.942.691,4.413-2.047.145-2.017.14-2.343-1.835q-1.377-8.344-2.8-16.68c-.188-1.111-.187-1.129.958-1.03a2.289,2.289,0,0,1,1.035.308" transform="translate(-49.968 -15.428)" fill="#3f966a"/>
    <path id="Trazado_657331" data-name="Trazado 657331" d="M27.492,133.577a13.6,13.6,0,0,1-1.36,2.162,19.721,19.721,0,0,0-2.587,7.9,24.289,24.289,0,0,0-.245,3.178,22.286,22.286,0,0,0,.71,4.964,19.415,19.415,0,0,0,3.975,7.45,18.987,18.987,0,0,0,3.574,3.231c.174.123.349.22.329.468a12.916,12.916,0,0,1-3.49-2.239,18.239,18.239,0,0,1-2.756-25.126,9.867,9.867,0,0,1,1.85-1.987" transform="translate(-15.858 -96.941)" fill="#025f80"/>
    <path id="Trazado_657332" data-name="Trazado 657332" d="M204.512,204.051a6.011,6.011,0,1,1,.009,12.008c-.1-.374-.417-.562-.7-.784a3.27,3.27,0,0,1-1.09-1.391c.127.049.255.1.382.147a4.328,4.328,0,0,0,5.138-1.417,4.236,4.236,0,0,0-.215-5.417c-1.238-1.452-3-1.815-5.175-1.066-.044-.334.175-.527.375-.743a11.687,11.687,0,0,0,1.272-1.338" transform="translate(-147.132 -148.077)" fill="#017297"/>
    <path id="Trazado_657333" data-name="Trazado 657333" d="M48.4,14.55A1.579,1.579,0,0,0,46.6,13.414c-.378.035-.507-.094-.515-.491-.027-1.349-.044-1.349,1.293-1.349.478,0,.957,0,1.435,0a.991.991,0,0,1,1.063.934q.889,5.315,1.783,10.629c.58,3.453,1.148,6.908,1.751,10.357.1.587,0,.87-.635.808a6.355,6.355,0,0,0-.047-.75c-.344-1.94-.713-3.875-1.049-5.816-.7-4.061-1.383-8.126-2.084-12.188-.162-.941-.245-.989-1.2-1" transform="translate(-33.441 -8.398)" fill="#d7e8f8"/>
    <path id="Trazado_657334" data-name="Trazado 657334" d="M192.163,213.92a3.271,3.271,0,0,0,1.09,1.391c.279.222.591.409.7.783a6.008,6.008,0,0,1-.009-12.008,11.734,11.734,0,0,1-1.272,1.338c-.2.216-.42.409-.376.743-.133.086-.27.166-.4.259a4.229,4.229,0,0,0-1.928,4.385,4.46,4.46,0,0,0,2.2,3.109" transform="translate(-136.559 -148.112)" fill="#025f80"/>
    <path id="Trazado_657335" data-name="Trazado 657335" d="M19.52,109.674c-.273.666-.974.834-1.47,1.234A23.8,23.8,0,0,0,9.8,123.07,17.324,17.324,0,0,0,9,128.3c-1.67.084-1.678.083-1.4-1.752A22.43,22.43,0,0,1,19.03,109.9a4.992,4.992,0,0,1,.49-.224" transform="translate(-5.417 -79.594)" fill="#b5d6f4"/>
    <path id="Trazado_657336" data-name="Trazado 657336" d="M54.515,22.429c.955.01,1.038.058,1.2,1,.7,4.061,1.383,8.126,2.084,12.188.336,1.941.7,3.877,1.049,5.816a6.359,6.359,0,0,1,.047.75c-1.035.316-1.045.318-1.2-.618Q56.1,32.1,54.516,22.633a1.239,1.239,0,0,1,0-.2" transform="translate(-39.56 -16.277)" fill="#b5d6f4"/>
    <path id="Trazado_657337" data-name="Trazado 657337" d="M134.685,105.429q8.836-.01,17.672-.018a7.95,7.95,0,0,0,1.96-.145.794.794,0,0,1-.717,1.015,3.582,3.582,0,0,1-.747.04c-5.214,0-10.427-.025-15.64.025a3.479,3.479,0,0,1-2.528-.916" transform="translate(-97.745 -76.395)" fill="#3f966a"/>
    <path id="Trazado_657338" data-name="Trazado 657338" d="M194.248,158.3l-9.583,0q-.209-.878-.417-1.756c3.266-.011,6.532-.019,9.8-.039.321,0,.378.138.364.409-.023.429-.026.859-.038,1.289l-.124.1" transform="translate(-133.714 -113.578)" fill="#d7e8f8"/>
    <path id="Trazado_657339" data-name="Trazado 657339" d="M173.859,138.061c.1,1.327.1,1.327-1.21,1.327-2,0-4-.013-6.005.01a.718.718,0,0,1-.8-.535,23.783,23.783,0,0,0-1.584-3.126h2.882a5.944,5.944,0,0,0,.564,1.514,1.159,1.159,0,0,0,1.259.817c1.631-.02,3.263-.007,4.895-.007" transform="translate(-119.208 -98.51)" fill="#3f966a"/>
    <path id="Trazado_657340" data-name="Trazado 657340" d="M181.484,137.978c-1.632,0-3.263-.013-4.895.007a1.159,1.159,0,0,1-1.259-.817,5.945,5.945,0,0,1-.564-1.514c2.091-.009,4.183-.012,6.274-.032.335,0,.5.069.484.448-.034.634-.028,1.271-.039,1.906" transform="translate(-126.834 -98.426)" fill="#6ed5a1"/>
    <path id="Trazado_657341" data-name="Trazado 657341" d="M206.678,137.73c-.06-.746-.309-1.653.078-2.187.333-.461,1.274-.135,1.944-.145,1.669-.023,1.983.39,1.859,2.341l-3.881-.009" transform="translate(-149.896 -98.189)" fill="#6ed5a1"/>
    <path id="Trazado_657342" data-name="Trazado 657342" d="M186.721,173.027v1.951l-4.742-4.267h2.269a20.252,20.252,0,0,0,2.473,2.317" transform="translate(-132.068 -123.89)" fill="#96c6f6"/>
    <path id="Trazado_657343" data-name="Trazado 657343" d="M18.754,14.541c.06.923.06.923-.874.923-1.824,0-3.648.007-5.472,0-.83,0-1.126-.3-1.134-1.074a4.527,4.527,0,0,0,1.343.16c2.045-.011,4.091-.005,6.136-.006" transform="translate(-8.182 -10.441)" fill="#4c62bd"/>
    <path id="Trazado_657344" data-name="Trazado 657344" d="M18.754,12.49c-2.045,0-4.091,0-6.136.006a4.527,4.527,0,0,1-1.343-.16.932.932,0,0,1,1.046-.77c2-.009,3.992,0,5.989,0,.809,0,.371.585.445.93" transform="translate(-8.182 -8.389)" fill="#6a7bc9"/>
    <path id="Trazado_657345" data-name="Trazado 657345" d="M207.8,177.652c-.919.13-.919.13-.919-.773q0-2.683,0-5.365c0-.9,0-.9.914-.848q0,3.494,0,6.987" transform="translate(-150.144 -123.844)" fill="#b5d6f4"/>
    <path id="Trazado_657346" data-name="Trazado 657346" d="M210.224,177.65q0-3.493,0-6.987c.926-.054.926-.054.926.838q0,2.691,0,5.383c0,.9,0,.9-.921.766" transform="translate(-152.563 -123.842)" fill="#d7e8f8"/>
    <path id="Trazado_657347" data-name="Trazado 657347" d="M206.837,144.172l3.881.009c.092,1.332.092,1.332-1.2,1.332-.659,0-1.322-.041-1.978.012-.6.048-.857-.13-.75-.745.035-.2.035-.405.051-.608" transform="translate(-150.054 -104.63)" fill="#3f966a"/>
    <path id="Trazado_657348" data-name="Trazado 657348" d="M176.916,156.556l.417,1.756c-.775.008-1.55-.006-2.323.034-.443.023-.625-.106-.72-.568-.261-1.262-.29-1.259.989-1.254.546,0,1.092.021,1.637.033" transform="translate(-126.383 -113.594)" fill="#b5d6f4"/>
    <path id="Trazado_657349" data-name="Trazado 657349" d="M192.724,172.945a20.248,20.248,0,0,1-2.473-2.317c.681-.008,1.363,0,2.043-.03.335-.013.5.061.473.442-.039.633-.031,1.27-.043,1.9" transform="translate(-138.072 -123.808)" fill="#b5d6f4"/>
    <path id="Trazado_657350" data-name="Trazado 657350" d="M51.68,109.155c-.043.148-.152.169-.282.148.056-.122.17-.133.282-.148" transform="translate(-37.301 -79.217)" fill="#b5d6f4"/>
    <path id="Trazado_657351" data-name="Trazado 657351" d="M52.678,108.641c-.046.148-.156.171-.29.149.06-.12.177-.13.29-.149" transform="translate(-38.02 -78.844)" fill="#b5d6f4"/>
    <path id="Trazado_657352" data-name="Trazado 657352" d="M220.71,162.792l.124-.1c.016.1-.038.123-.124.1" transform="translate(-160.177 -118.07)" fill="#b5d6f4"/>
    <path id="Trazado_657353" data-name="Trazado 657353" d="M62.25,139.344a15.893,15.893,0,1,1-15.886-15.937A15.852,15.852,0,0,1,62.25,139.344m-10.7-2.958c.431,1.056.431,1.057,1.384.506q2.572-1.487,5.144-2.976c.888-.515.887-.516.319-1.383-.081-.16-.176-.315-.242-.481-.244-.61-.563-.631-1.118-.293-1.7,1.037-3.445,2.01-5.171,3.009-1.056.611-1.056.613-.315,1.618m-17.121,9.847c.507,1.042.508,1.045,1.477.486q2.546-1.467,5.089-2.938c.94-.541.942-.537.288-1.395a3.166,3.166,0,0,1-.255-.551c-.164-.654-.463-.571-.95-.28-1.75,1.047-3.525,2.052-5.293,3.068-1.041.6-1.043.594-.356,1.61m23.967-.148c.568-.867.569-.868-.318-1.382q-2.57-1.49-5.143-2.975c-.956-.551-.957-.549-1.383.5a2.867,2.867,0,0,1-.323.43c-.5.46-.273.687.217.961,1.761.984,3.5,2,5.247,3.015,1.117.648,1.113.654,1.7-.554m-23.965-13.7c-.691,1.013-.689,1.01.354,1.609q2.417,1.389,4.829,2.788c1.11.644,1.109.647,1.669-.549.656-.856.654-.852-.287-1.394q-2.605-1.5-5.207-3c-.819-.473-.82-.473-1.292.356a1.059,1.059,0,0,0-.066.192m11.943-6.893c-1.211-.1-1.211-.1-1.211,1.087v5.714c0,1.226,0,1.226,1.2,1.061.113.014.226.029.339.042.864.1.864.1.864-.768q0-3.077,0-6.154c0-1.034,0-1.034-1.059-1.006a.868.868,0,0,0-.134.025m-.01,19.775c-.112-.018-.223-.042-.335-.054-.965-.107-.863-.228-.865.779,0,2.131.024,4.262-.017,6.393-.012.609.186.827.757.777.156-.013.313-.029.469-.044,1.194.111,1.194.111,1.194-1.033v-5.745c0-1.225,0-1.225-1.2-1.073m-.684-9.714a3.813,3.813,0,0,0,0,7.516,2.579,2.579,0,0,0,1.542,0,3.877,3.877,0,0,0,2.917-4.609,3.8,3.8,0,0,0-4.46-2.911m13.959-.163-6.785,3.922,6.786,3.917a13.929,13.929,0,0,0,0-7.839M33.1,143.226l6.785-3.917-6.8-3.922a13.8,13.8,0,0,0,.014,7.839m23.294,5.612-6.777-3.9c0,2.491.016,4.86-.012,7.228-.006.541.162.591.617.451a14.121,14.121,0,0,0,6.173-3.776m-.015-19.049A13.97,13.97,0,0,0,50.218,126c-.463-.129-.623-.078-.614.456.032,1.777.012,3.555.012,5.332v1.9l6.762-3.9m-13.266,3.9c0-2.561,0-5.015,0-7.468,0-.4-.228-.307-.443-.246a13.833,13.833,0,0,0-6.332,3.8l6.771,3.911m0,11.242-6.772,3.917a13.936,13.936,0,0,0,6.245,3.774c.228.066.537.259.534-.266-.014-2.436-.006-4.872-.006-7.425" transform="translate(-22.108 -89.561)" fill="#030303"/>
    <path id="Trazado_657354" data-name="Trazado 657354" d="M196.731,218.425a4.46,4.46,0,0,1-2.2-3.109,4.229,4.229,0,0,1,1.928-4.385c.128-.093.265-.173.4-.259,2.174-.749,3.937-.386,5.175,1.066a4.236,4.236,0,0,1,.215,5.417,4.328,4.328,0,0,1-5.138,1.417c-.126-.051-.254-.1-.381-.147M200,212.7a2.19,2.19,0,0,0-2.94.4,2.27,2.27,0,0,0-.055,2.89A2.25,2.25,0,1,0,200,212.7" transform="translate(-141.127 -152.617)" fill="#030303"/>
    <path id="Trazado_657355" data-name="Trazado 657355" d="M81.524,167.429a3.8,3.8,0,0,1,4.46,2.911,3.877,3.877,0,0,1-2.917,4.609,2.577,2.577,0,0,1-1.542,0c-.086-.105-.167-.214-.258-.315a4.864,4.864,0,0,1-1.09-5.172,5.947,5.947,0,0,1,1.346-2.028m1.705,3.747a1.016,1.016,0,1,0-1.041,1.034,1.026,1.026,0,0,0,1.041-1.034" transform="translate(-57.955 -121.438)" fill="#dde7f4"/>
    <path id="Trazado_657356" data-name="Trazado 657356" d="M85.214,210.628c-.156.015-.313.03-.469.044-.57.05-.769-.169-.757-.777.042-2.13.013-4.262.018-6.393,0-1.006-.1-.886.865-.779.112.013.224.036.335.054l.008,7.85" transform="translate(-60.952 -147.073)" fill="#017297"/>
    <path id="Trazado_657357" data-name="Trazado 657357" d="M85.25,138.765c-1.2.165-1.2.165-1.2-1.061V131.99c0-1.184,0-1.184,1.211-1.087q0,3.931-.009,7.861" transform="translate(-60.996 -94.973)" fill="#017297"/>
    <path id="Trazado_657358" data-name="Trazado 657358" d="M88.437,210.773l-.008-7.85c1.2-.152,1.2-.152,1.2,1.073q0,2.872,0,5.745c0,1.144,0,1.144-1.194,1.033" transform="translate(-64.176 -147.218)" fill="#4aabc6"/>
    <path id="Trazado_657359" data-name="Trazado 657359" d="M88.431,138.781q0-3.931.009-7.861a.82.82,0,0,1,.134-.025c1.059-.028,1.059-.028,1.059,1.006v6.154c0,.863,0,.864-.864.768-.113-.012-.226-.028-.338-.042" transform="translate(-64.177 -94.989)" fill="#4aabc6"/>
    <path id="Trazado_657360" data-name="Trazado 657360" d="M77.556,167.687a5.942,5.942,0,0,0-1.346,2.028,4.864,4.864,0,0,0,1.09,5.172c.091.1.172.21.257.315a3.813,3.813,0,0,1,0-7.516" transform="translate(-53.987 -121.696)" fill="#b5d6f4"/>
    <path id="Trazado_657361" data-name="Trazado 657361" d="M50.5,159.987c-.56,1.2-.558,1.193-1.669.549q-2.412-1.4-4.829-2.788c-1.042-.6-1.045-.595-.354-1.608,1.6.935,3.2,1.885,4.819,2.8a7.62,7.62,0,0,0,2.033,1.05" transform="translate(-31.33 -113.315)" fill="#017297"/>
    <path id="Trazado_657362" data-name="Trazado 657362" d="M112.593,195.9c-.59,1.208-.587,1.2-1.7.554-1.744-1.013-3.486-2.032-5.247-3.015-.49-.274-.716-.5-.217-.961a2.867,2.867,0,0,0,.323-.43,1.412,1.412,0,0,0,.2.176c1.7.993,3.4,2.006,5.124,2.959.485.267.906.707,1.518.718" transform="translate(-76.307 -139.376)" fill="#4aabc6"/>
    <path id="Trazado_657363" data-name="Trazado 657363" d="M51.768,192.61c.654.857.652.854-.288,1.395q-2.547,1.466-5.089,2.938c-.97.559-.971.556-1.478-.486,1.584-.928,3.157-1.873,4.755-2.775a6.8,6.8,0,0,1,2.1-1.072" transform="translate(-32.596 -139.784)" fill="#4aabc6"/>
    <path id="Trazado_657364" data-name="Trazado 657364" d="M114.186,156.686c.568.866.569.868-.319,1.383q-2.571,1.49-5.144,2.976c-.953.551-.954.55-1.384-.506a4.06,4.06,0,0,1,.477-.376c1.336-.77,2.669-1.547,4.023-2.288a7.813,7.813,0,0,1,2.347-1.189" transform="translate(-77.9 -113.712)" fill="#4aabc6"/>
    <path id="Trazado_657365" data-name="Trazado 657365" d="M50.507,189.834a6.8,6.8,0,0,0-2.1,1.072c-1.6.9-3.172,1.847-4.756,2.775-.687-1.016-.685-1.012.356-1.61,1.768-1.016,3.544-2.02,5.294-3.068.487-.291.785-.374.95.28a3.156,3.156,0,0,0,.255.551" transform="translate(-31.334 -137.008)" fill="#017297"/>
    <path id="Trazado_657366" data-name="Trazado 657366" d="M112.807,154.059a7.813,7.813,0,0,0-2.347,1.189c-1.353.74-2.686,1.518-4.023,2.288a4.061,4.061,0,0,0-.477.376c-.74-1.005-.741-1.006.315-1.618,1.726-1,3.468-1.972,5.171-3.008.555-.338.875-.317,1.118.293.066.166.16.321.242.481" transform="translate(-76.52 -111.085)" fill="#017297"/>
    <path id="Trazado_657367" data-name="Trazado 657367" d="M114.189,193.6c-.612-.01-1.033-.45-1.518-.718-1.727-.953-3.42-1.966-5.124-2.959a1.414,1.414,0,0,1-.2-.176c.426-1.053.427-1.056,1.383-.5q2.573,1.485,5.143,2.975c.887.514.886.515.318,1.382" transform="translate(-77.904 -137.075)" fill="#017297"/>
    <path id="Trazado_657368" data-name="Trazado 657368" d="M51.772,157.691a7.619,7.619,0,0,1-2.033-1.05c-1.618-.912-3.214-1.863-4.819-2.8a1.062,1.062,0,0,1,.066-.193c.472-.829.473-.828,1.292-.356q2.6,1.5,5.207,3c.941.541.943.538.287,1.394" transform="translate(-32.6 -111.019)" fill="#4aabc6"/>
    <path id="Trazado_657369" data-name="Trazado 657369" d="M205.318,221.87a2.2,2.2,0,0,1-2.866-.536,2.27,2.27,0,0,1,.055-2.89,2.19,2.19,0,0,1,2.94-.4c-.363.068-.419.4-.5.657a3.639,3.639,0,0,0,.374,3.168" transform="translate(-146.569 -157.959)" fill="#b5d6f4"/>
    <path id="Trazado_657370" data-name="Trazado 657370" d="M212.678,222.9a3.639,3.639,0,0,1-.374-3.168c.084-.257.139-.59.5-.657a2.187,2.187,0,0,1-.129,3.826" transform="translate(-153.929 -158.989)" fill="#d7e8f8"/>
    <path id="Trazado_657371" data-name="Trazado 657371" d="M86.776,178.675a1.016,1.016,0,1,1-.995-1.01,1.032,1.032,0,0,1,.995,1.01" transform="translate(-61.502 -128.937)" fill="#030303"/>
  </g>
</svg>
