<svg id="_4" data-name="4" xmlns="http://www.w3.org/2000/svg" xmlns:xlink="http://www.w3.org/1999/xlink" width="76.318" height="73.007" viewBox="0 0 76.318 73.007">
  <defs>
    <clipPath id="clip-path">
      <rect id="Rectángulo_309870" data-name="Rectángulo 309870" width="76.318" height="73.007" fill="none"/>
    </clipPath>
  </defs>
  <g id="Grupo_995673" data-name="Grupo 995673" clip-path="url(#clip-path)">
    <path id="Trazado_654377" data-name="Trazado 654377" d="M39.642,71.5c-.209,1.035-.681,1.5-1.515,1.5s-1.308-.471-1.514-1.5a15.379,15.379,0,0,0-5.844-12.313,9.579,9.579,0,0,0-5.98-2.135,2.563,2.563,0,0,1-1.9-.822c-2.067-2.106-4.169-4.177-6.251-6.269a2.592,2.592,0,0,0-2.2-.874,2.4,2.4,0,0,0-2.147,1.7,2.5,2.5,0,0,0,.694,2.72q3.976,3.967,7.944,7.943a5.222,5.222,0,0,1,.549.6,1.378,1.378,0,0,1,.071,1.6,1.418,1.418,0,0,1-1.373.717,1.87,1.87,0,0,1-1.254-.715c-2.7-2.7-5.385-5.417-8.106-8.1a11.656,11.656,0,0,1-3.611-8.734c.019-2.876.005-5.753,0-8.629a3.06,3.06,0,0,0-.14-1.172,2.1,2.1,0,0,0-2.259-1.314,2.073,2.073,0,0,0-1.806,2.117c-.015,2.653.008,5.306-.008,7.96A21.648,21.648,0,0,0,9.69,61.92c2.769,2.737,5.507,5.5,8.266,8.252A2.159,2.159,0,0,1,18.7,71.5a1.517,1.517,0,0,1-1.017,1.421,1.6,1.6,0,0,1-1.737-.533c-3.091-3.117-6.256-6.163-9.276-9.348A23.732,23.732,0,0,1,.041,46.782C-.031,43.808.009,40.83.026,37.854a5.077,5.077,0,1,1,10.154-.07c.042,3.025.009,6.051.015,9.077,0,.41.038.82.067,1.39a5.725,5.725,0,0,1,3.773-2.108c.429-.043.318-.373.319-.624q.009-3.2,0-6.4c0-3.869-.016-7.738.016-11.606.005-.609-.183-.746-.743-.712-.766.046-1.537,0-2.306.013a1.562,1.562,0,0,1-1.665-.981,1.529,1.529,0,0,1,.6-1.828Q18.31,16.941,26.354,9.868,31.578,5.277,36.8.684c1.032-.908,1.615-.914,2.649-.005L65.879,23.907c.787.692.995,1.237.72,1.925a1.649,1.649,0,0,1-1.813.987c-.793-.018-1.588.011-2.381-.01-.363-.01-.517.064-.516.48q.021,9.151.01,18.3c0,.242-.057.516.317.554a5.7,5.7,0,0,1,3.774,2.106c.03-.569.068-.979.069-1.389.005-3-.018-6,.01-9a4.985,4.985,0,0,1,4.441-5.1,4.917,4.917,0,0,1,5.656,4.5,78,78,0,0,1-.194,12.408A23.9,23.9,0,0,1,69.04,63.649c-2.892,2.931-5.822,5.823-8.726,8.742a1.6,1.6,0,0,1-1.739.531A1.519,1.519,0,0,1,57.557,71.5a2.187,2.187,0,0,1,.743-1.327c2.985-2.977,5.989-5.935,8.93-8.955a20.585,20.585,0,0,0,5.6-10.78c.8-4.278.322-8.606.391-12.911a1.931,1.931,0,0,0-1.561-1.774,2.074,2.074,0,0,0-2.61,2.143c-.022,3.025-.008,6.05-.008,9.075a11.471,11.471,0,0,1-3.506,8.477c-1.04,1.029-2.07,2.068-3.1,3.1-1.771,1.771-3.535,3.549-5.318,5.308a1.491,1.491,0,1,1-2.106-2.1c.135-.146.279-.282.42-.422q3.866-3.866,7.736-7.729a2.674,2.674,0,0,0,.926-2.176,2.4,2.4,0,0,0-1.63-2.195,2.434,2.434,0,0,0-2.731.619q-3.22,3.2-6.414,6.421a2.354,2.354,0,0,1-1.775.764,8.7,8.7,0,0,0-4.417,1.129c-5.081,2.972-7.307,7.58-7.481,13.324m3.676-46.153c.209-1.131.649-1.5,1.823-1.5q7.591-.005,15.182,0h.992c-.332-.279-.484-.4-.63-.531Q49.646,13.6,38.621,3.888c-.507-.448-.733-.2-1.085.108q-10.919,9.61-21.847,19.21c-.192.169-.387.336-.726.631h.969q7.591,0,15.182,0c1.173,0,1.61.371,1.823,1.5-.267,1.115-.71,1.469-1.881,1.47-4.265,0-8.53.026-12.794-.021-.812-.009-.947.246-.943.984q.045,8.516,0,17.032c-.008,1.171-.05,2.256,1.211,2.852.148.07.25.238.372.36,1.508,1.508,3.063,2.972,4.506,4.539a4.082,4.082,0,0,0,3.33,1.687,1.224,1.224,0,0,1,.289.063c4.2.843,7.2,3.347,9.5,6.825a26.7,26.7,0,0,1,1.612,2.954,19.72,19.72,0,0,1,1.629-3.021c2.689-4.022,6.266-6.624,11.229-6.984a1.1,1.1,0,0,0,.729-.439c1.421-1.419,2.834-2.846,4.265-4.255a17.983,17.983,0,0,1,2.371-2.246,1.12,1.12,0,0,0,.567-1.07c-.017-6.148-.026-12.3.008-18.445,0-.724-.234-.829-.872-.825-4.289.025-8.579.015-12.869.012-1.172,0-1.618-.357-1.88-1.47" transform="translate(0 0)" fill="#030303"/>
    <path id="Trazado_654378" data-name="Trazado 654378" d="M132.925,155.461c.174-5.744,2.4-10.352,7.481-13.324a8.7,8.7,0,0,1,4.417-1.128,2.353,2.353,0,0,0,1.775-.764q3.185-3.232,6.414-6.421a2.434,2.434,0,0,1,2.731-.619,2.4,2.4,0,0,1,1.63,2.195,2.674,2.674,0,0,1-.926,2.176q-3.878,3.854-7.736,7.729c-.14.14-.285.276-.42.422a1.491,1.491,0,1,0,2.106,2.1c1.783-1.759,3.547-3.537,5.318-5.308,1.035-1.035,2.065-2.074,3.1-3.1a11.468,11.468,0,0,0,3.506-8.477c0-3.025-.014-6.05.008-9.075a2.074,2.074,0,0,1,2.61-2.143,1.931,1.931,0,0,1,1.561,1.773c-.069,4.306.408,8.633-.391,12.912a20.589,20.589,0,0,1-5.6,10.78c-2.941,3.019-5.945,5.978-8.93,8.955a2.187,2.187,0,0,0-.743,1.327l-17.915-.005" transform="translate(-93.282 -83.966)" fill="#f6d0c7"/>
    <path id="Trazado_654379" data-name="Trazado 654379" d="M25.751,155.462a2.159,2.159,0,0,0-.74-1.329c-2.759-2.747-5.5-5.515-8.266-8.252a21.648,21.648,0,0,1-6.693-16.136c.016-2.653-.007-5.306.008-7.96a2.073,2.073,0,0,1,1.806-2.117,2.1,2.1,0,0,1,2.259,1.314,3.073,3.073,0,0,1,.14,1.172c0,2.876.016,5.753,0,8.629a11.654,11.654,0,0,0,3.611,8.734c2.721,2.679,5.406,5.4,8.106,8.1a1.867,1.867,0,0,0,1.254.715,1.417,1.417,0,0,0,1.373-.717,1.378,1.378,0,0,0-.07-1.6,5.249,5.249,0,0,0-.549-.6q-3.97-3.974-7.944-7.943a2.5,2.5,0,0,1-.694-2.72,2.4,2.4,0,0,1,2.147-1.7,2.591,2.591,0,0,1,2.195.873c2.082,2.092,4.184,4.163,6.251,6.269a2.56,2.56,0,0,0,1.9.822,9.58,9.58,0,0,1,5.98,2.135,15.379,15.379,0,0,1,5.844,12.313l-17.916,0" transform="translate(-7.054 -83.962)" fill="#f6d0c7"/>
    <path id="Trazado_654380" data-name="Trazado 654380" d="M84.067,84.976c.263,1.113.708,1.469,1.88,1.47,4.29,0,8.58.014,12.869-.012.638,0,.876.1.872.825-.034,6.148-.025,12.3-.009,18.445a1.12,1.12,0,0,1-.567,1.071,17.961,17.961,0,0,0-2.371,2.246c-1.431,1.409-2.844,2.837-4.265,4.255a1.1,1.1,0,0,1-.729.439c-4.963.361-8.54,2.963-11.229,6.984a19.7,19.7,0,0,0-1.629,3.021,26.754,26.754,0,0,0-1.612-2.954c-2.3-3.478-5.3-5.982-9.5-6.825a1.223,1.223,0,0,0-.289-.063,4.081,4.081,0,0,1-3.33-1.687c-1.443-1.567-3-3.031-4.506-4.539-.123-.123-.224-.29-.372-.36-1.261-.6-1.219-1.681-1.211-2.852q.058-8.516,0-17.032c0-.738.131-.993.943-.984,4.264.047,8.529.024,12.794.021,1.171,0,1.614-.354,1.881-1.47h3.685c.238.977.783,1.5,1.548,1.472s1.261-.526,1.468-1.471h3.679m6.106,14.741a6.589,6.589,0,0,0-3.7-5.871,6.521,6.521,0,0,0-7.085.558c-.385.269-.583.331-.99.024a6.751,6.751,0,0,0-9.01,9.976c2.219,2.335,4.517,4.6,6.825,6.847a3.765,3.765,0,0,0,5.307.022q3.494-3.393,6.884-6.893a6.641,6.641,0,0,0,1.772-4.663" transform="translate(-40.749 -59.633)" fill="#fdfdfd"/>
    <path id="Trazado_654381" data-name="Trazado 654381" d="M78.529,33.916H74.849c-.18-1.008-.669-1.5-1.5-1.5s-1.3.469-1.513,1.494H68.148c-.213-1.134-.65-1.5-1.823-1.5q-7.591-.005-15.182,0h-.969c.339-.295.534-.462.726-.631q10.925-9.6,21.847-19.21c.352-.31.578-.555,1.085-.108q11.009,9.733,22.062,19.417c.146.129.3.252.63.531h-.992q-7.591,0-15.182,0c-1.174,0-1.613.373-1.823,1.5" transform="translate(-35.21 -8.573)" fill="#ed8397"/>
    <path id="Trazado_654382" data-name="Trazado 654382" d="M112.561,118.725a6.642,6.642,0,0,1-1.772,4.663q-3.4,3.49-6.884,6.893a3.765,3.765,0,0,1-5.308-.022c-2.307-2.25-4.605-4.512-6.824-6.847a6.751,6.751,0,0,1,9.01-9.975c.408.307.606.245.991-.024a6.522,6.522,0,0,1,7.085-.559,6.59,6.59,0,0,1,3.7,5.871m-15.851-3.662a3.686,3.686,0,0,0-3.377,2.193,3.463,3.463,0,0,0,.575,4.077c2.164,2.283,4.422,4.476,6.651,6.7a.928.928,0,0,0,1.442-.023c.251-.239.493-.489.738-.734,1.908-1.91,3.842-3.8,5.717-5.739a3.75,3.75,0,0,0-.047-5.4,3.8,3.8,0,0,0-5.351.073c-.161.154-.315.316-.474.472-.954.936-1.675.942-2.616.024-.23-.225-.455-.456-.692-.673a3.831,3.831,0,0,0-2.567-.97" transform="translate(-63.136 -78.641)" fill="#030202"/>
    <path id="Trazado_654383" data-name="Trazado 654383" d="M122.8,81.461c.21-1.025.684-1.494,1.513-1.494s1.324.487,1.5,1.5c-.207.945-.708,1.447-1.468,1.471s-1.31-.495-1.548-1.473" transform="translate(-86.176 -56.118)" fill="#060505"/>
    <path id="Trazado_654384" data-name="Trazado 654384" d="M103.665,122.125a3.831,3.831,0,0,1,2.567.97c.237.217.462.449.692.673.941.919,1.662.912,2.616-.024.159-.156.313-.317.475-.472a3.8,3.8,0,0,1,5.351-.073,3.75,3.75,0,0,1,.047,5.4c-1.876,1.942-3.809,3.828-5.717,5.739-.245.245-.487.494-.738.734a.928.928,0,0,1-1.442.023c-2.228-2.221-4.487-4.414-6.651-6.7a3.463,3.463,0,0,1-.575-4.077,3.686,3.686,0,0,1,3.377-2.193" transform="translate(-70.091 -85.703)" fill="#ec8296"/>
  </g>
</svg>
