<svg xmlns="http://www.w3.org/2000/svg" width="64.565" height="64.567" viewBox="0 0 64.565 64.567">
  <g id="_5" data-name="5" transform="translate(-6.95 -6.948)">
    <g id="Grupo_1098438" data-name="Grupo 1098438" transform="translate(7.5 7.5)">
      <path id="Trazado_837510" data-name="Trazado 837510" d="M68.406,102.613V99.42a9.605,9.605,0,0,0-9.577-9.577c-2.775,0-5.74,1.43-6.7,3.1-1.559.418-2.873,1.113-2.873,3.605v6.066h1.915A3.842,3.842,0,0,0,55,98.782a3.842,3.842,0,0,0,3.831,3.831Z" transform="translate(-43.92 -79.328)" fill="#6e91ef" fill-rule="evenodd"/>
      <path id="Trazado_837511" data-name="Trazado 837511" d="M193.227,17.742l5.31,3.915,5.31-3.915c7.186-5.3.393-14.037-5.31-8.437C192.834,3.7,186.04,12.443,193.227,17.742Z" transform="translate(-166.804 -7.5)" fill="#de95c2" fill-rule="evenodd"/>
      <path id="Trazado_837512" data-name="Trazado 837512" d="M204.411,264.237a7.574,7.574,0,0,0-7.552,7.552v2.266h15.1v-2.266A7.575,7.575,0,0,0,204.411,264.237Z" transform="translate(-172.678 -231.452)" fill="#6e91ef" fill-rule="evenodd"/>
      <path id="Trazado_837513" data-name="Trazado 837513" d="M220.77,341.12H208.687V344.9a6.042,6.042,0,1,0,12.083,0Z" transform="translate(-182.996 -298.518)" fill="#fbf2e1" fill-rule="evenodd"/>
      <path id="Trazado_837514" data-name="Trazado 837514" d="M182.519,344.9V341.12H180.2a1.515,1.515,0,0,0-1.51,1.51v1.915a1.515,1.515,0,0,0,1.51,1.51h2.433a6,6,0,0,1-.113-1.16ZM194.6,341.12V344.9a6.008,6.008,0,0,1-.113,1.16h2.433a1.515,1.515,0,0,0,1.51-1.51v-1.915a1.515,1.515,0,0,0-1.51-1.51H194.6Z" transform="translate(-156.828 -298.518)" fill="#fedeb5" fill-rule="evenodd"/>
      <path id="Trazado_837515" data-name="Trazado 837515" d="M237.307,412.393a6.005,6.005,0,0,1-5.689,0l-.308,3.081c0,1.39,1.412,2.517,3.153,2.517s3.153-1.127,3.153-2.517Z" transform="translate(-202.73 -360.689)" fill="#fbf2e1" fill-rule="evenodd"/>
      <path id="Trazado_837516" data-name="Trazado 837516" d="M179.56,439.034c-1.741,0-3.153-1.127-3.153-2.516l-3.444,1.339c-2.354.915-4.593,2.068-4.593,4.593V445.2h22.38v-2.749c0-2.526-2.239-3.678-4.593-4.593l-3.444-1.339C182.713,437.907,181.3,439.034,179.56,439.034Z" transform="translate(-147.827 -381.733)" fill="#acf3f9" fill-rule="evenodd"/>
      <path id="Trazado_837517" data-name="Trazado 837517" d="M171.385,452.346c-1.686.835-3.015,1.966-3.015,3.911v2.749h2.873v-5.622A3.719,3.719,0,0,1,171.385,452.346Z" transform="translate(-147.827 -395.54)" fill="#5ceaee" fill-rule="evenodd"/>
      <path id="Trazado_837518" data-name="Trazado 837518" d="M79.575,168.463v-4.789H71.913a3.842,3.842,0,0,1-3.831-3.831,3.842,3.842,0,0,1-3.831,3.831v4.789a7.662,7.662,0,1,0,15.324,0Z" transform="translate(-57.004 -140.389)" fill="#fbf2e1" fill-rule="evenodd"/>
      <path id="Trazado_837519" data-name="Trazado 837519" d="M36.166,194.632h1.915v-4.789H36.166a1.921,1.921,0,0,0-1.915,1.915v.958a1.921,1.921,0,0,0,1.915,1.915Zm17.239-4.789v4.789h1.915a1.921,1.921,0,0,0,1.915-1.915v-.958a1.921,1.921,0,0,0-1.915-1.915Z" transform="translate(-30.835 -166.558)" fill="#fedeb5" fill-rule="evenodd"/>
      <path id="Trazado_837520" data-name="Trazado 837520" d="M343.073,168.463v-4.789h-3.831a3.842,3.842,0,0,1-3.831-3.831,3.842,3.842,0,0,1-3.831,3.831H327.75v4.789a7.662,7.662,0,1,0,15.323,0Z" transform="translate(-286.855 -140.389)" fill="#fbf2e1" fill-rule="evenodd"/>
      <path id="Trazado_837521" data-name="Trazado 837521" d="M330.622,189.843h-2.873v4.789a7.657,7.657,0,0,0,9.1,7.525,7.689,7.689,0,0,1-6.225-7.525Z" transform="translate(-286.854 -166.558)" fill="#fedeb5" fill-rule="evenodd"/>
      <path id="Trazado_837522" data-name="Trazado 837522" d="M234.419,413.11a5.985,5.985,0,0,1-2.8-.716l-.308,3.081a2.76,2.76,0,0,0,2.615,2.48Z" transform="translate(-202.73 -360.69)" fill="#fedeb5" fill-rule="evenodd"/>
      <path id="Trazado_837523" data-name="Trazado 837523" d="M211.56,341.12h-2.873V344.9a6.038,6.038,0,0,0,7.478,5.867,6.065,6.065,0,0,1-4.605-5.867Z" transform="translate(-182.996 -298.518)" fill="#fedeb5" fill-rule="evenodd"/>
      <path id="Trazado_837524" data-name="Trazado 837524" d="M204.411,264.237a7.574,7.574,0,0,0-7.552,7.552v2.266h2.873v-2.266a7.581,7.581,0,0,1,6.115-7.413A7.492,7.492,0,0,0,204.411,264.237Z" transform="translate(-172.678 -231.452)" fill="#3d6dea" fill-rule="evenodd"/>
      <path id="Trazado_837525" data-name="Trazado 837525" d="M193.227,21.118l5.31,3.915,2.232-1.646L195.143,19.2c-3.324-2.472-3.647-5.672-2.47-7.832C189.759,12.91,188.62,17.721,193.227,21.118Z" transform="translate(-166.804 -10.876)" fill="#da6eac" fill-rule="evenodd"/>
      <path id="Trazado_837526" data-name="Trazado 837526" d="M52.124,114.112c-1.559.418-2.873,1.113-2.873,3.605v6.066h1.915a3.8,3.8,0,0,0,.958-.122Z" transform="translate(-43.92 -100.498)" fill="#3d6dea" fill-rule="evenodd"/>
      <path id="Trazado_837527" data-name="Trazado 837527" d="M67.124,179.63a3.824,3.824,0,0,1-2.873,1.3v4.789a7.657,7.657,0,0,0,9.1,7.525,7.689,7.689,0,0,1-6.225-7.525Z" transform="translate(-57.004 -157.649)" fill="#fedeb5" fill-rule="evenodd"/>
      <path id="Trazado_837528" data-name="Trazado 837528" d="M96.938,281.415a7.591,7.591,0,0,1-3.531-.868l-.467,2.908,4,4,4-4-.467-2.908A7.591,7.591,0,0,1,96.938,281.415Z" transform="translate(-82.03 -245.68)" fill="#fbf2e1" fill-rule="evenodd"/>
      <path id="Trazado_837529" data-name="Trazado 837529" d="M96.141,281.373a7.591,7.591,0,0,1-2.733-.826l-.467,2.908,2.437,2.437Z" transform="translate(-82.03 -245.68)" fill="#fedeb5" fill-rule="evenodd"/>
      <path id="Trazado_837530" data-name="Trazado 837530" d="M285.3,309.658v1.915a1.515,1.515,0,0,1-1.51,1.51h-2.433a6.089,6.089,0,0,1-3.085,4.165l.308,3.08h28.58v-9.161c0-2.525-2.22-4.688-4.593-5.551l-6.317-2.3a4,4,0,0,1-8,0l-5.3,1.927q.026.314.027.634v2.266h.81A1.515,1.515,0,0,1,285.3,309.658Z" transform="translate(-243.697 -265.546)" fill="#fdef8e" fill-rule="evenodd"/>
      <path id="Trazado_837531" data-name="Trazado 837531" d="M7.5,311.17v9.161H36.08l.308-3.08a6.08,6.08,0,0,1-3.085-4.165H30.871a1.515,1.515,0,0,1-1.51-1.51v-1.915a1.515,1.515,0,0,1,1.51-1.51h.81v-2.266q0-.32.027-.634l-5.3-1.927-4,4-4-4-6.317,2.3C9.72,306.481,7.5,308.644,7.5,311.17Z" transform="translate(-7.5 -265.546)" fill="#6e91ef" fill-rule="evenodd"/>
      <path id="Trazado_837532" data-name="Trazado 837532" d="M7.5,330.6v9.161h2.873V327.728a4.672,4.672,0,0,1,.533-2.13A6.118,6.118,0,0,0,7.5,330.6Z" transform="translate(-7.5 -284.978)" fill="#3d6dea" fill-rule="evenodd"/>
      <path id="Trazado_837533" data-name="Trazado 837533" d="M356.439,283.454a4,4,0,0,0,8,0l-.467-2.908a7.618,7.618,0,0,1-7.062,0Z" transform="translate(-311.88 -245.679)" fill="#fbf2e1" fill-rule="evenodd"/>
      <path id="Trazado_837534" data-name="Trazado 837534" d="M356.439,283.455a4,4,0,0,0,2.246,3.594l.956-5.676a7.591,7.591,0,0,1-2.734-.826Z" transform="translate(-311.88 -245.68)" fill="#fedeb5" fill-rule="evenodd"/>
      <path id="Trazado_837535" data-name="Trazado 837535" d="M301.581,102.612h3.831a3.842,3.842,0,0,0,3.831-3.831,3.842,3.842,0,0,0,3.831,3.831H316.9V107.4a7.6,7.6,0,0,1-1.468,4.5H316.9a3.842,3.842,0,0,0,3.831-3.831v-6.732a11.493,11.493,0,1,0-22.985,0v6.732a3.842,3.842,0,0,0,3.831,3.831h1.467a7.6,7.6,0,0,1-1.468-4.5Z" transform="translate(-260.686 -79.327)" fill="#6e91ef" fill-rule="evenodd"/>
      <path id="Trazado_837536" data-name="Trazado 837536" d="M310.679,89.933a11.492,11.492,0,0,0-12.929,11.4v6.732a3.842,3.842,0,0,0,3.831,3.831h1.467q-.138-.188-.264-.385a3.843,3.843,0,0,1-2.162-3.446v-6.732A11.534,11.534,0,0,1,310.679,89.933Z" transform="translate(-260.686 -79.328)" fill="#3d6dea" fill-rule="evenodd"/>
      <path id="Trazado_837537" data-name="Trazado 837537" d="M402.749,121.757v-1.915m3.831,3.831v-1.915" transform="translate(-352.277 -105.496)" fill="none" stroke="#fff" stroke-miterlimit="22.926" stroke-width="1.1" fill-rule="evenodd"/>
    </g>
    <g id="Grupo_1098439" data-name="Grupo 1098439" transform="translate(7.5 7.5)">
      <path id="Trazado_837538" data-name="Trazado 837538" d="M231.618,412.393l-.308,3.081m6.306,0-.308-3.081" transform="translate(-202.73 -360.689)" fill="none" stroke="#000" stroke-miterlimit="22.926" stroke-width="1.1" fill-rule="evenodd"/>
      <path id="Trazado_837539" data-name="Trazado 837539" d="M220.77,341.12V344.9a6.042,6.042,0,1,1-12.083,0V341.12" transform="translate(-182.996 -298.518)" fill="none" stroke="#000" stroke-miterlimit="22.926" stroke-width="1.1" fill-rule="evenodd"/>
      <path id="Trazado_837540" data-name="Trazado 837540" d="M182.631,346.057H180.2a1.515,1.515,0,0,1-1.51-1.51v-1.915a1.515,1.515,0,0,1,1.51-1.51h16.724a1.515,1.515,0,0,1,1.51,1.51v1.915a1.515,1.515,0,0,1-1.51,1.51H194.49" transform="translate(-156.828 -298.518)" fill="none" stroke="#000" stroke-miterlimit="22.926" stroke-width="1.1" fill-rule="evenodd"/>
      <path id="Trazado_837541" data-name="Trazado 837541" d="M196.859,274.055v-2.266a7.552,7.552,0,0,1,15.1,0v2.266" transform="translate(-172.678 -231.452)" fill="none" stroke="#000" stroke-miterlimit="22.926" stroke-width="1.1" fill-rule="evenodd"/>
      <path id="Trazado_837542" data-name="Trazado 837542" d="M176.407,436.518l-3.444,1.339c-2.354.915-4.593,2.068-4.593,4.593V445.2h15.676m1.915,0h4.789V442.45c0-2.526-2.239-3.678-4.593-4.593l-3.444-1.339" transform="translate(-147.827 -381.734)" fill="none" stroke="#000" stroke-miterlimit="22.926" stroke-width="1.1" fill-rule="evenodd"/>
      <path id="Trazado_837543" data-name="Trazado 837543" d="M237.616,436.518c0,1.39-1.412,2.517-3.153,2.517s-3.153-1.127-3.153-2.517" transform="translate(-202.73 -381.734)" fill="none" stroke="#000" stroke-miterlimit="22.926" stroke-width="1.1" fill-rule="evenodd"/>
      <path id="Trazado_837544" data-name="Trazado 837544" d="M79.575,189.843v4.789a7.662,7.662,0,1,1-15.323,0v-4.789" transform="translate(-57.005 -166.558)" fill="none" stroke="#000" stroke-miterlimit="22.926" stroke-width="1.1" fill-rule="evenodd"/>
      <path id="Trazado_837545" data-name="Trazado 837545" d="M41.913,159.843a3.842,3.842,0,0,0,3.831,3.831h9.577a1.921,1.921,0,0,1,1.915,1.915v.958a1.921,1.921,0,0,1-1.915,1.915H53.406m-15.324,0H36.166a1.921,1.921,0,0,1-1.915-1.915v-.958a1.921,1.921,0,0,1,1.915-1.915h1.915a3.842,3.842,0,0,0,3.831-3.831" transform="translate(-30.835 -140.389)" fill="none" stroke="#000" stroke-miterlimit="22.926" stroke-width="1.1" fill-rule="evenodd"/>
      <path id="Trazado_837546" data-name="Trazado 837546" d="M49.251,102.613V99.74m0-1.915V96.547c0-2.492,1.315-3.187,2.873-3.605.964-1.669,3.929-3.1,6.7-3.1a9.605,9.605,0,0,1,9.577,9.577v3.192" transform="translate(-43.92 -79.328)" fill="none" stroke="#000" stroke-miterlimit="22.926" stroke-width="1.1" fill-rule="evenodd"/>
      <path id="Trazado_837547" data-name="Trazado 837547" d="M18.878,280.547l-.467,2.908-6.317,2.3C9.72,286.615,7.5,288.777,7.5,291.3v9.161H36.08m-4.372-15.082-5.3-1.927-.467-2.908" transform="translate(-7.5 -245.68)" fill="none" stroke="#000" stroke-miterlimit="22.926" stroke-width="1.1" fill-rule="evenodd"/>
      <path id="Trazado_837548" data-name="Trazado 837548" d="M100.937,303.32l-4,4-4-4" transform="translate(-82.03 -265.545)" fill="none" stroke="#000" stroke-miterlimit="22.926" stroke-width="1.1" fill-rule="evenodd"/>
      <path id="Trazado_837549" data-name="Trazado 837549" d="M335.412,159.843a3.842,3.842,0,0,0,3.831,3.831h3.831v4.789a7.662,7.662,0,1,1-15.323,0v-4.789h3.831a3.842,3.842,0,0,0,3.831-3.831" transform="translate(-286.855 -140.389)" fill="none" stroke="#000" stroke-miterlimit="22.926" stroke-width="1.1" fill-rule="evenodd"/>
      <path id="Trazado_837550" data-name="Trazado 837550" d="M290.83,280.547l-.467,2.908-5.3,1.927m-4.372,15.082h28.58V291.3c0-2.525-2.22-4.688-4.593-5.551l-6.317-2.3-.467-2.908" transform="translate(-245.804 -245.68)" fill="none" stroke="#000" stroke-miterlimit="22.926" stroke-width="1.1" fill-rule="evenodd"/>
      <path id="Trazado_837551" data-name="Trazado 837551" d="M364.435,303.32a4,4,0,1,1-8,0" transform="translate(-311.88 -265.545)" fill="none" stroke="#000" stroke-miterlimit="22.926" stroke-width="1.1" fill-rule="evenodd"/>
      <path id="Trazado_837552" data-name="Trazado 837552" d="M198.537,21.657l5.31-3.915c7.186-5.3.393-14.037-5.31-8.437-5.7-5.6-12.5,3.138-5.31,8.437Z" transform="translate(-166.805 -7.5)" fill="none" stroke="#000" stroke-miterlimit="22.926" stroke-width="1.1" fill-rule="evenodd"/>
      <path id="Trazado_837553" data-name="Trazado 837553" d="M303.049,111.9h-1.468a3.842,3.842,0,0,1-3.831-3.831v-6.732a11.493,11.493,0,1,1,22.985,0v6.732A3.842,3.842,0,0,1,316.9,111.9h-1.468" transform="translate(-260.686 -79.327)" fill="none" stroke="#000" stroke-miterlimit="22.926" stroke-width="1.1" fill-rule="evenodd"/>
      <path id="Trazado_837554" data-name="Trazado 837554" d="M245.321,21.635l-1.563,4.793,2.908.843-1.345,6.716" transform="translate(-213.589 -19.83)" fill="none" stroke="#000" stroke-miterlimit="22.926" stroke-width="1.1" fill-rule="evenodd"/>
    </g>
  </g>
</svg>
