<svg xmlns="http://www.w3.org/2000/svg" width="67.27" height="67.27" viewBox="0 0 67.27 67.27">
  <g id="_6" data-name="6" transform="translate(-310 -5739)">
    <path id="Trazado_769901" data-name="Trazado 769901" d="M33.635,0A33.635,33.635,0,1,1,0,33.635,33.635,33.635,0,0,1,33.635,0Z" transform="translate(310 5739)" fill="#fff4d4"/>
    <g id="Layer_2_00000169516506275836610300000000581320084930623930_" transform="translate(324.09 5749.881)">
      <g id="PDF" transform="translate(0 0)">
        <path id="Trazado_837274" data-name="Trazado 837274" d="M97.758,45.5A6.155,6.155,0,0,1,91.6,39.339V6.158A6.155,6.155,0,0,1,97.758,0h14.182a.664.664,0,0,1,.489.2L124.621,12.4a.7.7,0,0,1,.2.5V39.348a6.161,6.161,0,0,1-6.158,6.158H97.758Z" transform="translate(-87.592 0)"/>
        <path id="Trazado_837275" data-name="Trazado 837275" d="M133.048,22.076V48.451a5.27,5.27,0,0,1-5.27,5.27H106.87a5.27,5.27,0,0,1-5.27-5.27V15.27A5.27,5.27,0,0,1,106.87,10h14.1Z" transform="translate(-96.704 -9.111)" fill="#ededed"/>
        <path id="Trazado_837276" data-name="Trazado 837276" d="M312.666,14.127a3.066,3.066,0,0,1-3.066-3.066V1.206a.9.9,0,0,1,1.546-.64l12.005,12.005a.911.911,0,0,1-.64,1.555Z" transform="translate(-286.22 -0.273)"/>
        <path id="Trazado_837277" data-name="Trazado 837277" d="M331.676,22.076h-9.9A2.181,2.181,0,0,1,319.6,19.9V10Z" transform="translate(-295.332 -9.111)" fill="#f46464"/>
        <path id="Trazado_837278" data-name="Trazado 837278" d="M80.89,206.523v7.855a4.124,4.124,0,0,1-4.114,4.123H50.623a4.126,4.126,0,0,1-4.123-4.123v-7.855a4.126,4.126,0,0,1,4.123-4.123H76.775a4.124,4.124,0,0,1,4.114,4.123Z" transform="translate(-46.5 -184.414)"/>
        <path id="Trazado_837279" data-name="Trazado 837279" d="M59.825,212.5H85.977a3.227,3.227,0,0,1,3.226,3.235v7.855a3.233,3.233,0,0,1-3.226,3.235H59.825A3.227,3.227,0,0,1,56.6,223.59v-7.855A3.216,3.216,0,0,1,59.825,212.5Z" transform="translate(-55.702 -193.617)" fill="#f46464"/>
        <g id="Grupo_1096479" data-name="Grupo 1096479" transform="translate(8.655 21.522)">
          <path id="Trazado_837280" data-name="Trazado 837280" d="M149.054,245.115c0,1.893-1,2.941-2.773,2.941H145.2v3.172h-1.3V242.2h2.382A2.593,2.593,0,0,1,149.054,245.115Zm-1.324,0c0-1.111-.48-1.68-1.457-1.68H145.2v3.377h1.066C147.25,246.821,147.73,246.279,147.73,245.115Z" transform="translate(-143.9 -242.2)" fill="#12263f"/>
          <path id="Trazado_837281" data-name="Trazado 837281" d="M214.309,242.2h2.239a2.555,2.555,0,0,1,2.781,2.808v3.377a2.569,2.569,0,0,1-2.772,2.835H214.3V242.2Zm2.248,7.784c.924,0,1.457-.551,1.457-1.626v-3.323c0-1.057-.515-1.6-1.457-1.6h-.951v6.549Z" transform="translate(-208.044 -242.2)" fill="#12263f"/>
          <path id="Trazado_837282" data-name="Trazado 837282" d="M289.606,243.426v2.692h2.71V247.3h-2.71v3.919H288.3V242.2h4.248v1.226Z" transform="translate(-275.468 -242.2)" fill="#12263f"/>
        </g>
      </g>
    </g>
  </g>
</svg>
