<svg xmlns="http://www.w3.org/2000/svg" xmlns:xlink="http://www.w3.org/1999/xlink" width="295" height="268" viewBox="0 0 295 268">
  <defs>
    <clipPath id="clip-path">
      <rect id="Rectángulo_387364" data-name="Rectángulo 387364" width="295" height="268" transform="translate(1020 2822)" fill="#5840e2" opacity="0.77"/>
    </clipPath>
    <clipPath id="clip-path-2">
      <rect id="Rectángulo_383011" data-name="Rectángulo 383011" width="178.287" height="248.641" fill="#ffe2e2"/>
    </clipPath>
    <filter id="Trazado_657613" x="20.096" y="32.715" width="128.073" height="40.577" filterUnits="userSpaceOnUse">
      <feOffset dy="3" input="SourceAlpha"/>
      <feGaussianBlur stdDeviation="3" result="blur"/>
      <feFlood flood-opacity="0.161"/>
      <feComposite operator="in" in2="blur"/>
      <feComposite in="SourceGraphic"/>
    </filter>
    <filter id="Trazado_657614" x="155.388" y="55.292" width="84.57" height="31.905" filterUnits="userSpaceOnUse">
      <feOffset dy="3" input="SourceAlpha"/>
      <feGaussianBlur stdDeviation="3" result="blur-2"/>
      <feFlood flood-opacity="0.161"/>
      <feComposite operator="in" in2="blur-2"/>
      <feComposite in="SourceGraphic"/>
    </filter>
    <clipPath id="clip-path-3">
      <rect id="Rectángulo_312843" data-name="Rectángulo 312843" width="208.585" height="267.62" fill="none"/>
    </clipPath>
  </defs>
  <g id="_7" data-name="7" transform="translate(-1020 -2822)" clip-path="url(#clip-path)">
    <g id="Grupo_1098473" data-name="Grupo 1098473" transform="translate(-12.245 690.376)">
      <path id="Trazado_658762" data-name="Trazado 658762" d="M175.807,80.1l-2.6,1.006a4.262,4.262,0,0,0-2.441,2.44l-1.006,2.6-1-2.6a4.267,4.267,0,0,0-2.441-2.44l-2.6-1.006,2.6-1a4.272,4.272,0,0,0,2.441-2.441l1-2.6,1.006,2.6a4.266,4.266,0,0,0,2.441,2.441Z" transform="translate(1066.131 2176.559)" fill="#ffd357"/>
      <path id="Trazado_658763" data-name="Trazado 658763" d="M30.275,51.84l-3.861,1.494a6.333,6.333,0,0,0-3.628,3.626l-1.494,3.863L19.8,56.96a6.341,6.341,0,0,0-3.628-3.626L12.308,51.84l3.863-1.493A6.348,6.348,0,0,0,19.8,46.719l1.493-3.863,1.494,3.863a6.339,6.339,0,0,0,3.628,3.628Z" transform="translate(1103.782 2132.328)" fill="#ffd357"/>
      <g id="Grupo_1098210" data-name="Grupo 1098210" transform="translate(1082.143 2142.372)">
        <g id="Grupo_1098190" data-name="Grupo 1098190" transform="translate(52.95 9)" clip-path="url(#clip-path-2)">
          <path id="Trazado_829862" data-name="Trazado 829862" d="M49.261,175.5c-.334-15.464-33.4-27.109-29.1-65.33s44.611-54.754,65.685-59.28c0,0,62.53-12.366,92.114,9.03s14.6,66.815-3.12,97.853,23.144,51.8,3.515,85.613-89.616,48.233-125.61,20.6-3.156-73.027-3.49-88.491" transform="translate(-19.78 -39.425)" fill="#ffe2e2"/>
          <path id="Trazado_829863" data-name="Trazado 829863" d="M2.163,871.57a60.01,60.01,0,0,0,23.275-9.6,59.494,59.494,0,0,0,9.337-8.024q1.063-1.118,2.07-2.286.5-.584.992-1.18.244-.3.485-.6c.01-.012.283-.36.355-.449a58.871,58.871,0,0,0,3.6-5.251c9.839-16.112,11.132-36.451,4.451-54.108-2-5.272-5.127-10.217-7.38-15.476a29.266,29.266,0,0,1-2.332-8.752,19.5,19.5,0,0,1,1.207-8.671,1.578,1.578,0,0,1,3.041.838,16.439,16.439,0,0,0,.374,7.573,37.637,37.637,0,0,0,2.626,7.022c2.312,4.849,5.182,9.375,7.25,14.348a68.674,68.674,0,0,1,5.106,29.412,65.824,65.824,0,0,1-7.943,28.7,65.653,65.653,0,0,1-17.694,20.308c-7.847,6-17.4,10.557-27.242,11.907A3.062,3.062,0,0,1,.1,875.211a2.988,2.988,0,0,1,2.067-3.641" transform="translate(121.596 -629.771)" fill="#ffe2e2"/>
          <path id="Trazado_829864" data-name="Trazado 829864" d="M366.488,1456.728a3.11,3.11,0,0,1,.409-.532,5.973,5.973,0,0,1,.532-.409,2.625,2.625,0,0,1,2.647,0,2.824,2.824,0,0,1,1,.993l.065.092.151.215.258.611a1.939,1.939,0,0,1,.046,1.021,1.274,1.274,0,0,1-.175.646,1.917,1.917,0,0,1-.529.824l-.518.4-.611.258a1.938,1.938,0,0,1-1.02.046,1.907,1.907,0,0,1-.952-.3l-.215-.151-.092-.065a2.819,2.819,0,0,1-.993-1,2.625,2.625,0,0,1,0-2.647" transform="translate(-254.517 -1212.298)" fill="#ffe2e2"/>
          <path id="Trazado_829865" data-name="Trazado 829865" d="M671.947,17.956c2.941-2.264,5.84-4.568,8.985-6.55a73.818,73.818,0,0,1,9.817-5.115,97.378,97.378,0,0,1,10.6-3.942q2.566-.781,5.174-1.411a20.487,20.487,0,0,1,5.889-.921,2.217,2.217,0,0,1,2.072,1.577,2.152,2.152,0,0,1-.987,2.427,31.913,31.913,0,0,1-5.711,1.5q-2.617.587-5.2,1.327a89.907,89.907,0,0,0-10.112,3.548c-3.236,1.363-6.365,2.931-9.469,4.566a76.281,76.281,0,0,0-9.5,5.673,1.562,1.562,0,0,1-2.12-.556,1.587,1.587,0,0,1,.556-2.12" transform="translate(-648.388 0)" fill="#ffe2e2"/>
        </g>
      </g>
      <g id="Grupo_996089" data-name="Grupo 996089" transform="translate(1018.38 2115.228)">
        <g id="Grupo_1098208" data-name="Grupo 1098208" transform="translate(15.4 16.319)">
          <g id="Grupo_1098446" data-name="Grupo 1098446" transform="translate(12.33 38.792)">
            <g transform="matrix(1, 0, 0, 1, -13.87, -38.71)" filter="url(#Trazado_657613)">
              <path id="Trazado_657613-2" data-name="Trazado 657613" d="M164.366,22.566l-.571.011H54.293c7.3-8.831,21.525-11.422,31.266-5.168C90.937,11.25,96.875,5.23,104.412,2.056s17.045-2.927,23.076,2.6c3.745,3.429,5.693,8.352,7.524,13.089,8.844-6.674,23.1-4.339,29.353,4.819" transform="translate(-25.2 38.71)" fill="#fff"/>
            </g>
            <g transform="matrix(1, 0, 0, 1, -13.87, -38.71)" filter="url(#Trazado_657614)">
              <path id="Trazado_657614-2" data-name="Trazado 657614" d="M189.236,67.5h-66.57c4.675-5.046,10.191-10.362,17.033-10.263,5.036.063,9.5,3.122,13.358,6.364a31.972,31.972,0,0,1,13.955-8.946,18.016,18.016,0,0,1,8.919-.794c6.5,1.326,10.624,7.375,13.3,13.639" transform="translate(41.72 7.69)" fill="#fff"/>
            </g>
            <path id="Trazado_657615" data-name="Trazado 657615" d="M69.626,87.071H3.056c4.675-5.046,10.191-10.362,17.033-10.263,5.036.063,9.5,3.122,13.358,6.363A31.981,31.981,0,0,1,47.4,74.226a18.017,18.017,0,0,1,8.919-.794c6.5,1.326,10.624,7.375,13.3,13.639" transform="translate(-3.056 -10.729)" fill="#fff"/>
          </g>
          <g id="Grupo_1098445" data-name="Grupo 1098445" transform="translate(28.584 0)">
            <g id="Grupo_995932" data-name="Grupo 995932" clip-path="url(#clip-path-3)">
              <path id="Trazado_657372" data-name="Trazado 657372" d="M218.17,115.237c-.275.4-6.467,4.446-21.154,5.117s-21.284-4.042-21.284-4.575,2.692-8.221,2.692-9.029v-4.713l-.032.04a26.9,26.9,0,0,1-7.105,5.618c-2.6,1.382-10.25,4.478-15.916,6.709-3.727,1.479-6.588,2.587-6.588,2.587l-9.425-4.446a7.419,7.419,0,0,1,1.213-5.125c.42-.525,20.071-14.275,20.071-14.275l.542-.808a2.4,2.4,0,0,1,.922-1.455,2.284,2.284,0,0,1,1.366-.437s4.713-15.763,4.713-18.188,2.7-10.913,4.988-13.871,15.941-6.111,15.941-6.111l12.845-2.425s11.9.857,13.386,1.39,3.1,63.593,2.829,64" transform="translate(-26.697 -9.554)" fill="#5840e2"/>
              <path id="Trazado_657373" data-name="Trazado 657373" d="M233.288,300.83c-.7,1.043-3.08,3.767-3.225,3.937-.008.008-2.166,8.633-3.6,9.353s-8.269,3.233-11.5,3.233-10.056-.356-11.495-1.075-1.795-1.8-1.075-2.878a4.535,4.535,0,0,1,.9-.808c1.883-1.4,5.917-3.654,6.265-3.856.024-.008,4.7-8.625,5.408-9.708s1.083-6.1,1.083-6.1L229.7,290.41s4.309,9.336,3.589,10.42" transform="translate(-38.72 -55.658)" fill="#12263f"/>
              <path id="Trazado_657374" data-name="Trazado 657374" d="M233.587,300.83c-.7,1.043-3.08,3.767-3.225,3.937-.008.008-3.333,8.245-6.833,8.245-2.878,0-15.849.129-19.94-.42,1.883-1.4,5.917-3.654,6.265-3.856.024-.008,8.827-.17,8.827-.17l2.15-4.042-5.925-1.883,11.05-1.35a23.9,23.9,0,0,0-4.042-1.617c-1.35-.267-6.653-.647-6.653-.647.719-1.075,1.083-6.1,1.083-6.1L230,290.41s4.308,9.336,3.589,10.42" transform="translate(-39.018 -55.658)" fill="#051427"/>
              <path id="Trazado_657375" data-name="Trazado 657375" d="M183.426,20.239s-3.274-4.678-2.74-7.365c.106-.533,1.515-3.464,1.515-3.464a7.9,7.9,0,0,1-1.458,1.116c-.344.086,3.861-7.893,9.437-9.437s6.005-.172,6.005-.172a8.476,8.476,0,0,1,9.695,1.458,17.367,17.367,0,0,1,5.833,11.238,18.588,18.588,0,0,1-.515,4.461s-.6,9.18-2.917,10.294-5.92.344-5.92.344Z" transform="translate(-34.618 0)"/>
              <path id="Trazado_657376" data-name="Trazado 657376" d="M209.745,90.291S179.3,98.1,178.489,98.1s.628,6.364.628,6.364l-.032.04a26.9,26.9,0,0,1-7.105,5.618c-2.6,1.382-10.25,4.478-15.916,6.709-5.012.129-10.985.129-10.985.129l-2.158-4.308S162.053,97.832,165.286,97.3a33.233,33.233,0,0,1,8.35.267l-7.809-3.5s5.925-24.25,7.275-26.142,3.233-5.384,3.233-5.384v7.275s-1.617,15.892,1.617,18.592,31.792,1.883,31.792,1.883" transform="translate(-27.391 -11.986)" fill="#3e23d5"/>
              <path id="Trazado_657377" data-name="Trazado 657377" d="M215.971,46.294s-3.322,6.984-9.385,7.792-8.2-4.955-8.2-4.955l.59-.34a1.908,1.908,0,0,0,.291-.21,2.311,2.311,0,0,0,.824-2.15c-.073-.428-.105-.7-.105-.7l8.8-12.982L210.5,30.24s.113.566.291,1.5c.461,2.4,1.374,7.259,2.053,11.317.065.388.129.768.186,1.14a2.3,2.3,0,0,0,1.851,1.9Z" transform="translate(-38.022 -5.796)" fill="#ff9e7b"/>
              <path id="Trazado_657378" data-name="Trazado 657378" d="M212.247,38.8a9.9,9.9,0,0,1-4.629,10.369,7.443,7.443,0,0,1-2.125.842c-3.387.736-5.141-.243-6.014-1.075a2.311,2.311,0,0,0,.825-2.15c-.073-.428-.105-.7-.105-.7L209,33.109l2-1.019c.293,1.524.767,4.038,1.249,6.709" transform="translate(-38.231 -6.15)" fill="#d6705c"/>
              <path id="Trazado_657379" data-name="Trazado 657379" d="M40.179,252.655,93.171,259.3l1.258-10.957-55.507-6.827Z" transform="translate(-7.459 -46.287)" fill="#252238"/>
              <path id="Trazado_657380" data-name="Trazado 657380" d="M175.43,312.238c-.808.267-21.7,1.14-33.247,1.107-3.9-.008-6.725-.121-7.356-.388-2.514-1.083,7.906-9.7,9.7-10.064l1.8-.356s10.775-5.392,12.57-6.467,3.6-6.111,3.6-6.111l4.268,1.851,9.021,3.9s.719,16.167-.356,16.531" transform="translate(-25.765 -55.571)" fill="#12263f"/>
              <path id="Trazado_657381" data-name="Trazado 657381" d="M176.481,312.677c-.808.267-21.7,1.14-33.247,1.107-2.029-.5-3.314-.825-3.314-.825l4.85-4.309,3.775-4.85,16.167-8.892,3.1-2.659,9.021,3.9s.719,16.167-.356,16.531" transform="translate(-26.816 -56.01)" fill="#051427"/>
              <path id="Trazado_657382" data-name="Trazado 657382" d="M174.85,147.616s-18.683,54.428-19.041,58.74,7.545,52.812,7.545,52.812a23.652,23.652,0,0,0,0,5.389c.359,2.515,14.371,3.233,16.526,2.874a3.421,3.421,0,0,0,2.874-3.592,5.018,5.018,0,0,0-1.437-2.875s-.719-19.759-1.437-29.1A133.578,133.578,0,0,0,177,213.542a6.093,6.093,0,0,0,0-2.874l-.36-1.8,19.94-43.292L192.093,144.2l-8.263-1.8Z" transform="translate(-29.859 -27.293)" fill="#b0c0d2"/>
              <path id="Trazado_657383" data-name="Trazado 657383" d="M141.118,217.073s-4.311,12.934-6.467,14.55-39.34,15.089-40.957,15.628-57.662-4.85-57.662-4.85l27.484-18.322Z" transform="translate(-6.906 -41.602)" fill="#252238"/>
              <path id="Trazado_657384" data-name="Trazado 657384" d="M61.083,199.694C45.4,199.694,32.7,220.7,32.7,246.618S45.4,293.534,61.083,293.534s28.379-21.009,28.379-46.916-12.706-46.924-28.379-46.924m2,86.161c-12.352,0-22.369-17.717-22.369-39.575s10.016-39.568,22.369-39.568,22.376,17.717,22.376,39.568-10.015,39.575-22.376,39.575" transform="translate(-6.266 -38.272)" fill="#252238"/>
              <path id="Trazado_657385" data-name="Trazado 657385" d="M25.367,201.24l3.773,12.394h8.083l-.539-9.7L80.335,191.54l-3.773-6.467s-47.423,13.473-51.2,16.167" transform="translate(-4.862 -35.47)" fill="#252238"/>
              <path id="Trazado_657386" data-name="Trazado 657386" d="M64.668,162.888s-3.233,6.108-3.952,7.006-22.993,15.269-22.993,15.269-10.06,2.874-11.137,3.413-.359,6.826,2.335,8.083,14.191-4.671,14.191-4.671,26.227-8.442,27.484-9.341,7.366-9.34,7.366-9.34L68.62,159.3l-2.515.538Z" transform="translate(-5.003 -30.529)" fill="#ffbdab"/>
              <path id="Trazado_657387" data-name="Trazado 657387" d="M231.823,249.53a15.8,15.8,0,0,1-.719,3.953s0,4.244-.089,6.709c-.016.711-.048,1.269-.089,1.552-.186,1.261-2.7,3.411-10.783,3.056s-11.139-2.158-11.317-3.233S209,255.1,209,255.1s-.9-8.261-.9-10.242.542-25.689.542-25.689-2.514-19.214-3.056-23.167-4.131-31.615-4.486-32.7-8.083-10.6-10.064-12.036-11.673-5.925-11.673-5.925,3.953-13.831,5.206-14.55,40.6.364,40.6.364.008.065.032.194c.145,1.043.873,6.095,1.536,11.212.032.21.057.42.081.622.525,4.082.978,8.092,1.051,10.064a37.975,37.975,0,0,1-.719,8.8s-.364,26.764-.364,30.539-.178,8.439,0,8.981a170.526,170.526,0,0,1,3.233,18.5,126.013,126.013,0,0,1,.542,20.831s1.439,6.111,1.261,8.625" transform="translate(-34.376 -25.019)" fill="#dee4f0"/>
              <path id="Trazado_657388" data-name="Trazado 657388" d="M242.922,33.713c-.242,7.59-3.3,7.728-3.3,7.728l.339-2.3c-.065.21-.631,1.892-1.2,2.207-.6.34-7.122.089-8.407-.428l-1.285-.517-.687-2.053-.089,1.972a14.434,14.434,0,0,1-2.74-.606c-.776-.34,1.8-24.533-5.747-27.1-3.9-1.334-6.354-.428-6.354-.428l-.428-6.095S216.295-.771,225.9.255a9.189,9.189,0,0,1,2.28.542c7.332,2.74,12.408,14.4,14.114,24.582.234,1.382.4,2.748.509,4.05a38.562,38.562,0,0,1,.121,4.284" transform="translate(-40.827 -0.029)"/>
              <path id="Trazado_657389" data-name="Trazado 657389" d="M211.012,26.394c-.509.679-3.718,1.657-3.718,1.657a17.739,17.739,0,0,1-.356,5.3,16.652,16.652,0,0,1-3.638,6.814c-.113.137-.226.267-.331.4-.323.38-2.22,2.593-4.772,2.326-7.158-.752-10.889-8.691-11.844-11.576a4.069,4.069,0,0,1-.193-1.523c.026-.446.293-1.205.271-1.407a11.708,11.708,0,0,0-.656-1.618c-.154-.356-.315-.679-.469-.978-.089-.178-.186-.348-.267-.509a8.361,8.361,0,0,1-.469-.994,6.657,6.657,0,0,1-.2-.655c-.016-.073-.105-.356-.194-.736a10.486,10.486,0,0,1-.356-1.689c-.016-.21-.04-.437-.057-.679,0-.024-.008-.065-.008-.1-.04-.453-.073-.962-.121-1.471-.21-2.748-.445-5.9-.445-5.9l2.918-.849L198.362,8.53l3.6,3.1,3.1,2.651.178.647.825,3.007s2.546-1.8,3.031-2.158,3.953,1.689,4.4,2.773c.42,1.075-1.964,7.186-2.474,7.849" transform="translate(-35.108 -1.635)" fill="#ff9e7b"/>
              <path id="Trazado_657390" data-name="Trazado 657390" d="M215.018,27.91c-.509.679-3.718,1.657-3.718,1.657a17.739,17.739,0,0,1-.356,5.3,16.652,16.652,0,0,1-3.638,6.814,28.5,28.5,0,0,0,2.086-7.833c1.116-8.981-5.3-16.189-5.3-16.189s4.405-.407,5.149-1.223l.824,3.007s2.546-1.8,3.031-2.158,3.953,1.689,4.4,2.773c.42,1.075-1.964,7.186-2.474,7.849" transform="translate(-39.114 -3.151)" fill="#e58065"/>
              <path id="Trazado_657391" data-name="Trazado 657391" d="M195.6,41.168a2.348,2.348,0,0,0,3.073.078c1.722-1.134,2.427-4.443,2.427-4.443l-3.255,3.15Z" transform="translate(-37.487 -7.053)" fill="#d6705c"/>
              <path id="Trazado_657392" data-name="Trazado 657392" d="M222.919,136.115l10.63-4.575c.145,1.043.873,6.095,1.536,11.212l-1.924,1.447a17.38,17.38,0,0,1-5.117-.808c-2.158-.808-5.125-7.275-5.125-7.275" transform="translate(-42.723 -25.21)" fill="#030f1d"/>
              <path id="Trazado_657393" data-name="Trazado 657393" d="M238.845,252.526a15.805,15.805,0,0,1-.719,3.953s0,4.244-.089,6.709a11.143,11.143,0,0,1-1.617,1.3c-1.892,1.075-14.55,1.883-16.442.808s-2.959-6.2-2.692-7.275,8.35-2.158,8.35-2.158-8.617-4.042-9.425-5.925,1.075-25.6,1.342-26.409,4.583-2.158,7.008-3.5,7.542-13.208,8.083-15.359-.808-39.348-.808-40.69-2.158-12.394-2.158-12.394l4.163-5.408c.525,4.082.978,8.092,1.051,10.064a37.977,37.977,0,0,1-.719,8.8s-.364,26.764-.364,30.539-.178,8.439,0,8.981a170.513,170.513,0,0,1,3.233,18.5,126.013,126.013,0,0,1,.542,20.831s1.439,6.111,1.261,8.625" transform="translate(-41.399 -28.016)" fill="#b0c0d2"/>
              <path id="Trazado_657394" data-name="Trazado 657394" d="M214.363,143.962c0,2.514-4.309,2.878-4.309,2.878s-6.467-11.858-7.542-12.222c-.808-.267-11.883-.331-17.4-.348-1.851-.008-3.08-.008-3.08-.008L184.2,131.4l.7-.93.145-.2,1.471-1.924c0-.008,10.258-.42,14.777-.291.663.024,1.2.048,1.568.1,2.878.364,11.495,13.3,11.495,15.811" transform="translate(-34.886 -24.537)" fill="#252238"/>
              <path id="Trazado_657395" data-name="Trazado 657395" d="M187.175,12.945s7.07,7.557,14.533,5.928,5.233-6.777,5.233-6.777L196.82,5.06l-13.9,5.577-.772,2.23,1.2,6.091s-.293-4.9,3.825-6.013" transform="translate(-34.909 -0.97)"/>
              <path id="Trazado_657396" data-name="Trazado 657396" d="M210.167,19.013l1.287,3.174,1.373-3.861Z" transform="translate(-40.279 -3.512)"/>
              <path id="Trazado_657397" data-name="Trazado 657397" d="M72.872,163.147l-3.95,7.006s6.826,3.068,9.162,4.865.719,7.888.719,7.888l7.185-8.787-8.442-13.292-3.592-.179Z" transform="translate(-13.209 -30.788)" fill="#f7a397"/>
              <path id="Trazado_657398" data-name="Trazado 657398" d="M20.16,249.656s-20.838,45.5-19.041,48.456,66.1,5.918,67.9,5.918,25.328-62.512,25.328-62.512l-5.03.555S65.068,297,63.99,297.372s-54.608-3.329-56.045-3.329,15.089-45.5,15.089-45.5Z" transform="translate(-0.193 -46.287)" fill="#252238"/>
              <path id="Trazado_657399" data-name="Trazado 657399" d="M195.6,41.168s.966-1.963,1.738-2.221A38.565,38.565,0,0,0,201.1,36.8s-2.69,3.84-5.5,4.365" transform="translate(-37.487 -7.053)" fill="#e58065"/>
              <path id="Trazado_657400" data-name="Trazado 657400" d="M34.255,217.5s3.413,25.148,11.856,23.173,2.515-23.892,2.515-23.892a17.2,17.2,0,0,0-14.371.719" transform="translate(-6.565 -41.307)" fill="#363689"/>
              <path id="Trazado_657401" data-name="Trazado 657401" d="M46.328,216.857v17.25s-4.85,1.431-5.747,2.15.9,9.344.542,17.97c-.259,6.281-3.193,21.268-4.769,28.915-.582,2.845-.978,4.672-.978,4.672l-12.392,1.795a35.091,35.091,0,0,0,1.617-5.384c.178-1.617-1.617-35.389-1.8-38.267s-1.253-22.092.364-23.531,8.8-4.85,8.8-4.85l3.953-1.617Z" transform="translate(-4.27 -41.389)" fill="#ffbdab"/>
              <path id="Trazado_657402" data-name="Trazado 657402" d="M42.109,237.07c-.9.719.9,9.344.542,17.97-.259,6.281-3.193,21.268-4.769,28.915-2.587,2.094-4.753,3.791-4.753,3.791s3-12.973,3.6-15.811c3.41-16.344-2.339-32.684-3.236-34.487s-3.233.359-3.233.359,1.255-2.693,1.619-3.776.534-7.364.719-8.617S45.706,220.2,45.706,220.2l2.15,1.213V234.92s-4.85,1.431-5.747,2.15" transform="translate(-5.799 -42.202)" fill="#f7a397"/>
              <path id="Trazado_657403" data-name="Trazado 657403" d="M84.353,230.671,83.1,243.783s-.905,3.775-3.056,10.064-8.8,17.784-10.42,20.3c-.687,1.067-6.135,12.012-8.374,16.547-.6,1.2-.97,1.956-.97,1.956l-11.131-3.056S55.794,273.6,58.308,263.9s4.308-28.2,4.308-28.2.719-10.6,1.261-10.775l7.542-2.514,3.678,2.352Z" transform="translate(-9.419 -42.625)" fill="#ffbdab"/>
              <path id="Trazado_657404" data-name="Trazado 657404" d="M86.4,231.1l-1.253,13.111s-.905,3.775-3.056,10.064-8.8,17.784-10.42,20.3c-.687,1.067-6.135,12.012-8.374,16.547l-1.5,1.067-1.979-3.41S77.06,237.22,77.593,235.425s-4.486-10.775-4.486-10.775,1.73.21,4.034.542Z" transform="translate(-11.463 -43.055)" fill="#f7a397"/>
              <path id="Trazado_657405" data-name="Trazado 657405" d="M173.79,128.069c0,.073-.162.768-.453,1.98-.081.348-.17.7-.259,1.083-.2.816-.436,1.778-.7,2.87-4.414,17.937-17.63,70.407-17.63,70.407l-39.156-2,19.942-75.783s7.615.146,16.054.372c10.4.275,22.044.671,22.205,1.067" transform="translate(-22.153 -24.269)" fill="#252238"/>
              <path id="Trazado_657406" data-name="Trazado 657406" d="M127.664,193.52s-.154,2.465-.477,5.941c-.7,7.7-2.2,20.346-4.551,22.076-3.08,2.28-35.09,14.68-41.339,16.506-.663.194-1.035.275-1.051.2-.186-.719.9-6.645-.542-9.159s-8.083-9.167-13.111-8.8-6.831,9.878-6.831,9.878-13.111,6.831-13.653,6.289,2.158-11.317-.534-17.428-11.317-5.747-11.317-5.747,1.075-1.972,1.972-1.972,37.006-13.653,37.006-13.653l4.486-2.514Z" transform="translate(-6.566 -37.088)" fill="#5840e2"/>
              <path id="Trazado_657407" data-name="Trazado 657407" d="M138.129,200.1c-.7,7.7-2.2,20.346-4.551,22.076-3.08,2.28-35.09,14.68-41.339,16.506a30.284,30.284,0,0,0,.38-3.735,23.138,23.138,0,0,0-1.253-6.467c-.542-1.075,19.934-10.242,20.653-14.55s-4.486-9.159-4.486-9.159,28.381-8.447,28.923-7.906a30.3,30.3,0,0,1,1.673,3.233" transform="translate(-17.509 -37.725)" fill="#3e23d5"/>
              <path id="Trazado_657408" data-name="Trazado 657408" d="M67.9,219.741s23.711-14.191,23.173-14.55-16.167-5.209-15.629-5.209,7.725,4.49,7.725,4.49-10.059-4.311-10.6-4.131,1.8,2.335,3.952,3.773a15.9,15.9,0,0,0,3.233,1.8s-8.623-4.311-9.7-3.593-28.023,10.06-28.023,10.06,5.928.359,8.083,5.209.36,19.221.36,19.221L60.535,231.6s-.179-8.264,7.365-11.856" transform="translate(-8.056 -38.327)" fill="#3e23d5"/>
              <path id="Trazado_657409" data-name="Trazado 657409" d="M148.033,207.74l7.006,94.846a587.279,587.279,0,0,0-7.006-94.846" transform="translate(-28.371 -39.814)" fill="#3a3a5e"/>
              <path id="Trazado_657410" data-name="Trazado 657410" d="M120.7,273.124l45.807-30.717s-26.945,21.556-45.807,30.717" transform="translate(-23.132 -46.458)" fill="#3a3a5e"/>
              <path id="Trazado_657411" data-name="Trazado 657411" d="M135.367,212.407l29.1,82.991s-15.09-36.106-29.1-82.991" transform="translate(-25.943 -40.708)" fill="#3a3a5e"/>
              <path id="Trazado_657412" data-name="Trazado 657412" d="M161.589,214.407l-21.556,85.685a588.712,588.712,0,0,1,21.556-85.685" transform="translate(-26.838 -41.092)" fill="#3a3a5e"/>
              <path id="Trazado_657413" data-name="Trazado 657413" d="M123.367,232.407l45.806,47.962s-29.639-37.184-45.806-47.962" transform="translate(-23.644 -44.541)" fill="#3a3a5e"/>
              <path id="Trazado_657414" data-name="Trazado 657414" d="M127.367,291.613l38.8-65.207s-15.09,35.567-38.8,65.207" transform="translate(-24.41 -43.391)" fill="#3a3a5e"/>
              <path id="Trazado_657415" data-name="Trazado 657415" d="M119.367,258.407l49.578,5.389s-16.167-4.312-49.578-5.389" transform="translate(-22.877 -49.524)" fill="#3a3a5e"/>
              <path id="Trazado_657416" data-name="Trazado 657416" d="M140.129,203.293c-16.87,0-30.539,22.6-30.539,50.481s13.669,50.473,30.539,50.473,30.531-22.6,30.531-50.473-13.669-50.481-30.531-50.481m2.15,92.693c-13.289,0-24.065-19.061-24.065-42.576s10.775-42.568,24.065-42.568,24.073,19.061,24.073,42.568-10.775,42.576-24.073,42.576" transform="translate(-21.003 -38.961)" fill="#252238"/>
              <path id="Trazado_657417" data-name="Trazado 657417" d="M146.541,170.29,122.1,184.121s-14.009,3.233-15.625,2.7-26.045-3.056-26.045-3.056a7.751,7.751,0,0,1,.9-1.617,3.37,3.37,0,0,1,2.158-1.261,5.391,5.391,0,0,1,.534-2.15,18.728,18.728,0,0,1,2.158-2.878L86,174.785c-.178-1.083.719-5.028.719-5.028s-8.625-14.372-10.6-15.092a2.015,2.015,0,0,0-2.7.9,15.893,15.893,0,0,1-1.6-3.08,1.1,1.1,0,0,1-.016-.154c0-.719,7.008-6.289,9.878-10.056s10.961-15.092,12.934-15.989,15.811-3.953,15.811-3.953L122.1,121.07s20.661,4.672,21.2,6.289c.412,1.253,2.118,26.239,2.878,37.5.218,3.306.356,5.432.356,5.432" transform="translate(-13.762 -23.203)" fill="#ffd357"/>
              <path id="Trazado_657418" data-name="Trazado 657418" d="M134.033,105.073s.225,12.26.359,13.2-3.907,4.177-9.3,4.042-6.063-1.751-6.063-1.751l.135-4.312Z" transform="translate(-22.813 -20.137)" fill="#e2877a"/>
              <path id="Trazado_657419" data-name="Trazado 657419" d="M140.66,92.8c-.251,1.52-2.28,6.968-3.549,7.477a17.488,17.488,0,0,1-3.549.76,56.371,56.371,0,0,1-2.417,6.467c-.711,1.188-5.941,5.57-9.935,6.152a6.07,6.07,0,0,1-.841.065,11.24,11.24,0,0,1-7.857-3.427c-.509-.76-1.148-9-1.019-10.015s1.52-7.227,1.52-7.227-.251-3.549-.251-4.818,1.9-9.385,1.9-9.385c11.519-6.176,16.143,2.32,17.8,7.421a22.164,22.164,0,0,1,.841,3.355s3.549-1.649,4.187-1.52,3.419,3.169,3.169,4.7" transform="translate(-21.365 -14.697)" fill="#ffbdab"/>
              <path id="Trazado_657420" data-name="Trazado 657420" d="M142.968,95.071c-.251,1.52-2.28,6.968-3.549,7.477a17.487,17.487,0,0,1-3.549.76,56.368,56.368,0,0,1-2.417,6.467c-.711,1.188-5.941,5.57-9.935,6.152,2.554-.881,6.814-5.408,7.4-6.37.606-1.01,2.36-10.506,1.956-11.791s-.337-2.759.269-3.1,1.28-5.254,1.28-5.254-.321-.331.35-.873a22.163,22.163,0,0,1,.841,3.355s3.549-1.649,4.187-1.52,3.419,3.169,3.169,4.7" transform="translate(-23.673 -16.969)" fill="#f7a397"/>
              <path id="Trazado_657421" data-name="Trazado 657421" d="M134.016,88.364l-1.268,6.594-1.141.507.126-7.734a24.857,24.857,0,0,1-8.756-2.953,9.738,9.738,0,0,1-4.221-5.815,10.43,10.43,0,0,0-3.593,3.188A17.267,17.267,0,0,0,112.6,87s-2.046-6.878-2.046-8.78,3.931-5.325,5.579-5.452a11.452,11.452,0,0,1,4.311,1.141s4.439-2.156,8.5-1.776,10.778,6.974,12.047,9.51-.888,9-.888,9-2.028-3.551-2.79-3.424a30.643,30.643,0,0,0-3.3,1.141" transform="translate(-21.189 -13.816)" fill="#ad5945"/>
              <path id="Trazado_657422" data-name="Trazado 657422" d="M144.746,129.529s-6.332.808-7.949,1.482-3.368,8.892-3.773,10.779,2.021,27.753,2.156,28.426,4.85.674,4.85.674l8.757,7.409-20.344,2.156-18.861,2.829s-22.769-.808-21.017-.943,19.67-1.482,19.67-1.482-19-2.56-16.436-2.56,14.819-2.29,17.649-2.963,11.991-8.353,14.012-9.566,6.871-23.038,7.14-23.98,5.119-11.856,5.658-12.125,8.488-.135,8.488-.135" transform="translate(-16.955 -24.818)" fill="#e5b223"/>
              <path id="Trazado_657423" data-name="Trazado 657423" d="M122.981,103.542a5.589,5.589,0,0,1-.17.728c-.04.129-.081.243-.113.323a3.446,3.446,0,0,1-3.039,1.52c-1.14-.251-2.918-.76-3.169-1.778a2.8,2.8,0,0,1,.162-1.116c.631-2.255,2.789-6.855,4.017-7.372.719-.3,1.374.873,1.867,2.215a9.911,9.911,0,0,1,.445,5.481" transform="translate(-22.323 -18.36)" fill="#f29b8c"/>
              <path id="Trazado_657424" data-name="Trazado 657424" d="M113.695,191.518s-5.389,2.335-6.108,3.054-5.748,6.826-4.49,7.365,5.03-3.593,5.03-3.593Z" transform="translate(-19.72 -36.705)" fill="#f7a397"/>
              <path id="Trazado_657425" data-name="Trazado 657425" d="M119.767,191.263s-4.49-1.078-5.389-1.078-3.233,3.772-3.233,3.772Z" transform="translate(-21.301 -36.449)" fill="#f7a397"/>
              <path id="Trazado_657426" data-name="Trazado 657426" d="M127.744,188.18l-2.514,8.083s-1.73.517-4.09,1.164a74.029,74.029,0,0,1-11.22,2.4,4.026,4.026,0,0,1-1.754-.145c-2.158-1.083,5.206-8.269,6.467-8.8a58.421,58.421,0,0,1,5.715-1.293c3.549-.7,7.4-1.406,7.4-1.406" transform="translate(-20.655 -36.065)" fill="#ffbdab"/>
              <path id="Trazado_657427" data-name="Trazado 657427" d="M120.347,189.92c-1.293.857-5.321,2.791-6.436,3.642-2.74,2.088,2.4,3.115,2.265,3.487-.073.178-.113.283-.113.283l-6.143,2.829a4.026,4.026,0,0,1-1.754-.145c-2.158-1.083,5.206-8.269,6.467-8.8a58.418,58.418,0,0,1,5.715-1.293" transform="translate(-20.655 -36.399)" fill="#f7a397"/>
              <path id="Trazado_657428" data-name="Trazado 657428" d="M98.043,201.884s-3.593,16.886-.719,18.323,6.826,1.078,8.263.718,3.593-14.37,3.593-14.37l33.053-8.982-7.185-5.389s-35.208,8.263-37,9.7" transform="translate(-18.439 -36.832)" fill="#252238"/>
              <path id="Trazado_657429" data-name="Trazado 657429" d="M176.8,171.123s-4.671,3.72-8.263,4.8-10.06-2.874-10.06-2.874,13.652-2.41,18.323-1.923" transform="translate(-30.372 -32.784)" fill="#437a89"/>
              <path id="Trazado_657430" data-name="Trazado 657430" d="M167.545,197.614c-.719,1.795-5.933,3.6-10.064,3.056s-30.539-5.729-31.792-6.093-8.016-1.347-8.016-1.347,10.53-7.467,11.969-8.372,13.831-1.617,14.906-1.617a11.062,11.062,0,0,0,2.7-.533l-1.18-3.419-.8-2.328,7.049-2.579,9.66-3.533s2.045,8.132,3.67,15.448c1.229,5.5,2.207,10.549,1.9,11.317" transform="translate(-22.552 -32.744)" fill="#ffbdab"/>
              <path id="Trazado_657431" data-name="Trazado 657431" d="M172.316,186.3a24.991,24.991,0,0,0-4.567-2.142c-6.111-2.15-13.831-1.447-13.831-1.447l-1.439-3.217.259-.2,6.249-4.907,9.66-3.533s2.045,8.132,3.67,15.448" transform="translate(-29.223 -32.744)" fill="#f7a397"/>
              <path id="Trazado_657432" data-name="Trazado 657432" d="M157.049,128.851s3.233,1.976,4.85,8.364c.357,1.41,4.85,14.545,6.108,16.546s5.928,8.727,5.928,9.273-8.623,1.273-14.91,3.637-8.263,4.769-8.263,4.769-4.671.543-5.209.179-.179-5.21-.179-5.21-2.2-20.91-1.8-24.744c.808-7.679,13.473-12.814,13.473-12.814" transform="translate(-27.507 -24.695)" fill="#ffd357"/>
              <path id="Trazado_657433" data-name="Trazado 657433" d="M39.76,198.793a29.936,29.936,0,0,1-7.97,4.7c-.687.267-1.342.525-1.948.76-3.581,1.358-5.812,2.1-5.812,2.1s.614,7.146-1.431,7.558c-1.916.38-2.934-3.209-3.056-3.638a6.458,6.458,0,0,1-.259,2.643,1.081,1.081,0,0,1-1.172.784c-1.843-.2-3.274-5.917-3.274-7.146s2.457-8.577,3.678-9.6,11.85-3.88,11.85-3.88Z" transform="translate(-2.844 -37.002)" fill="#ffbdab"/>
              <path id="Trazado_657434" data-name="Trazado 657434" d="M32.972,295.41S32.6,307.939,31.5,308.861,17.67,319.183,16.57,319.919s-13.451,2.886-14.93,2.7c-.493-.065-.913-1.107-1.2-2.49-.566-2.708-.647-6.725.089-7.21.647-.428,3.088-1.536,5.028-2.4,1.4-.614,2.53-1.1,2.53-1.1l10.137-9.4s-.372-2.764.186-2.764,8.294,3.314,9.029,3.314a.672.672,0,0,0,.291-.113,33.285,33.285,0,0,0,3.856-3.589c.8-.825,1.382-1.455,1.382-1.455" transform="translate(0 -56.616)" fill="#f46464"/>
              <path id="Trazado_657435" data-name="Trazado 657435" d="M59.318,300.292c0,.534-.719,10.056-1.083,11.317s-8.439,9.336-9.7,10.056-4.486,2.514-7.72,2.514-9.167-.356-10.6-2.15c-.574-.719.348-2.336,1.657-4.009a52.867,52.867,0,0,1,4.81-5.157s6.467-9.7,7.72-10.775c1.269-1.091,2.878-5.925,3.411-6.111s5.392-1.253,6.111-.711,2.692,7.178,2.692,7.178,2.7-2.692,2.7-2.15" transform="translate(-5.758 -56.559)" fill="#f46464"/>
              <path id="Trazado_657436" data-name="Trazado 657436" d="M190.819,30.7c.028.249-.712.467-1.251.667l-.138.054a5.718,5.718,0,0,1-1.151.325.99.99,0,0,1-.538-.113,2.868,2.868,0,0,1-1.321-1.179c-.213-.334-.543-1.437-.025-1.879.534-.435,2.616-.1,3.562.787a4.3,4.3,0,0,1,.862,1.337" transform="translate(-35.67 -5.44)" fill="#fff"/>
              <path id="Trazado_657437" data-name="Trazado 657437" d="M131.895,98c-.229.4-1.925.77-3.387.731-.22-.008-.409-.023-.58-.032a2.154,2.154,0,0,1-1.548-1.021,3.937,3.937,0,0,1-.581-1.25,1.767,1.767,0,0,1,1.437-1.886,3.486,3.486,0,0,1,1.963.652c.558.306,1.179.715,1.862,1.147a4.447,4.447,0,0,1,.833,1.28.484.484,0,0,1,0,.378" transform="translate(-24.106 -18.118)" fill="#fff"/>
              <path id="Trazado_657438" data-name="Trazado 657438" d="M117.833,97.779a.646.646,0,0,1-.015.251c-.079.243-.644.3-1.273.267a7.851,7.851,0,0,1-1.47-.18c-.463-.1-.816-.66-1.061-1.225a7.164,7.164,0,0,1-.393-1.17c-.07-.4.078-1.548.794-1.737a1.743,1.743,0,0,1,1.179.424,6.158,6.158,0,0,1,1.854,2.082,4.931,4.931,0,0,1,.385,1.288" transform="translate(-21.773 -18.009)" fill="#fff"/>
              <path id="Trazado_657439" data-name="Trazado 657439" d="M196.232,33.342c.008.639-2,2.1-2.613,2.238-.6.135-2-.019-2.3-.714a4.373,4.373,0,0,1-.043-1.2c0-.1,0-.21.012-.324.11-2.631.637-7.653.637-7.653a.72.72,0,0,1,.856-.419,45.343,45.343,0,0,1,2.985,6.519c.029.071.05.143.078.206a5.535,5.535,0,0,1,.384,1.344" transform="translate(-36.656 -4.837)" fill="#e58065"/>
              <path id="Trazado_657440" data-name="Trazado 657440" d="M196.232,34.945c.008.639-2,2.1-2.613,2.238-.6.135-2-.019-2.3-.714a4.373,4.373,0,0,1-.043-1.2,5.317,5.317,0,0,0,1.894.1,10.568,10.568,0,0,0,2.675-1.772,5.535,5.535,0,0,1,.384,1.344" transform="translate(-36.656 -6.44)" fill="#d6705c"/>
              <path id="Trazado_657441" data-name="Trazado 657441" d="M203.234,26.613c.07.289-1.416,1.276-2.934,1.635-.2.039-.407.078-.61.1a3.022,3.022,0,0,1-.462.032,3.458,3.458,0,0,1-.642.055c-.188,0-.375-.008-.555-.015a2.831,2.831,0,0,1-1.048-.219c-.227-.165.282-2.05.282-2.05s.4-.744.805-.908c3.192-1.3,5.047.861,5.164,1.369" transform="translate(-37.741 -4.76)" fill="#fff"/>
              <path id="Trazado_657442" data-name="Trazado 657442" d="M203.555,25.88a9.059,9.059,0,0,0-3.524-1.668,5.315,5.315,0,0,0-3.414.9c.231-.066.464-.117.7-.159a1.307,1.307,0,0,0-.287.732,3.69,3.69,0,0,1-.24.981,3.023,3.023,0,0,1,3.062-1.785,12.369,12.369,0,0,1,3.707,1" transform="translate(-37.682 -4.632)" fill="#934235"/>
              <path id="Trazado_657443" data-name="Trazado 657443" d="M196.819,27.253c-.02.044-.032.071-.032.071s.014-.029.032-.071" transform="translate(-37.715 -5.223)" fill="#934235"/>
              <path id="Trazado_657444" data-name="Trazado 657444" d="M189.743,29.325a4.314,4.314,0,0,0-1.392-.9,3.152,3.152,0,0,0-2.557.093c-.719.482-.791.66-.791.66l.93.036a2.035,2.035,0,0,1,1.386-.474c1.495.038,2.725.589,2.425.584" transform="translate(-35.456 -5.404)" fill="#934235"/>
              <path id="Trazado_657445" data-name="Trazado 657445" d="M189.7,31.659a5.727,5.727,0,0,1-1.15.325.985.985,0,0,1-.539-.113c-.288-.581-.806-1.832-.227-2.158.739-.414,1.813.989,1.917,1.947" transform="translate(-35.938 -5.68)"/>
              <path id="Trazado_657446" data-name="Trazado 657446" d="M200.6,28.509c-.2.039-.407.078-.61.1a3.128,3.128,0,0,1-.462.032,3.523,3.523,0,0,1-.642.054c-.258-.7-.688-2.1-.1-2.433.735-.422,1.706,1.15,1.815,2.246" transform="translate(-38.041 -5.02)"/>
              <path id="Trazado_657447" data-name="Trazado 657447" d="M201.394,27.356c.044.15-.23.361-.61.471s-.723.078-.767-.071.23-.361.61-.471.723-.078.767.071" transform="translate(-38.333 -5.216)" fill="#fff"/>
              <path id="Trazado_657448" data-name="Trazado 657448" d="M190.329,30.659c.051.147-.211.372-.585.5s-.719.115-.77-.032.21-.372.584-.5.719-.115.77.032" transform="translate(-36.216 -5.853)" fill="#fff"/>
              <path id="Trazado_657449" data-name="Trazado 657449" d="M184.829,26.739a23.717,23.717,0,0,1,2.094-1.627,9.472,9.472,0,0,1,1.8-.731s-1.837-1.018-2.919.441-.976,1.917-.976,1.917" transform="translate(-35.422 -4.606)"/>
              <path id="Trazado_657450" data-name="Trazado 657450" d="M201.312,22.634s-3.862-.28-4.648-.259a9.441,9.441,0,0,0-1.913.351s1.394-1.786,3.191-1.529a7.921,7.921,0,0,1,3.369,1.437" transform="translate(-37.324 -4.058)"/>
              <path id="Trazado_657451" data-name="Trazado 657451" d="M190.918,9.361a9.582,9.582,0,0,0,7.725,6.242c6.287,1.123,9.88-.269,9.61-.449s-3.278-1.258-3.278-1.258l4.086.36a15.323,15.323,0,0,0-7.455-5.973A17,17,0,0,0,192.221,7.2a17.91,17.91,0,0,1,6.916-1.482,16.475,16.475,0,0,1,6.152,2.156s-2.066-3.323-4.446-4.131a7.55,7.55,0,0,0-5.075.538l1.8-1.527a21.774,21.774,0,0,0-5.209,3.279,4.108,4.108,0,0,0-1.437,3.323" transform="translate(-36.587 -0.529)" fill="#1e110f"/>
              <path id="Trazado_657452" data-name="Trazado 657452" d="M194.385,2.631s-.269-1.482-2.694-.854a10.9,10.9,0,0,0-5.569,3.458,14.713,14.713,0,0,0-1.931,2.919l1.437-1.3a15.81,15.81,0,0,0-1.617,2.65,11.157,11.157,0,0,0-1.033,2.739s4.266-9.341,11.407-9.61" transform="translate(-35.068 -0.311)" fill="#1e110f"/>
              <path id="Trazado_657453" data-name="Trazado 657453" d="M213.978,4.972s.719-1.527,2.29.719,1.617,7.32,1.617,7.32-2.38-6.018-3.907-8.039" transform="translate(-41.009 -0.856)" fill="#4a49ae"/>
              <path id="Trazado_657454" data-name="Trazado 657454" d="M244,33.815c-.242,7.59-3.3,7.728-3.3,7.728,2.166-1.019,3.225-6.531,2.239-14.3a36.335,36.335,0,0,0-3.589-12.352s.04.356.315,1.843.534,4.308.534,4.308S234.725,5.822,228.444,3.211c-5.772-2.385-9.231-.428-9.765-.089.105-.089.364-.291.913-.719A15.164,15.164,0,0,1,229.26.9c7.332,2.74,12.408,14.4,14.114,24.582.226,2.9.445,5.844.631,8.334" transform="translate(-41.91 -0.131)" fill="#1e110f"/>
              <path id="Trazado_657455" data-name="Trazado 657455" d="M217.584,21.086s-1.078-1.257-1.976-.9-1.8,3.233-1.8,3.233.539-.179,1.078,1.258a2.91,2.91,0,0,1-.18,2.515,4.358,4.358,0,0,0,2.156-2.515c.36-1.617-1.257-2.874-1.257-2.874s.538-1.8,1.976-.719" transform="translate(-40.977 -3.857)" fill="#c45b49"/>
              <path id="Trazado_657456" data-name="Trazado 657456" d="M143.667,95.586s-1.078-1.257-1.976-.9-1.8,3.233-1.8,3.233.539-.179,1.078,1.258a2.91,2.91,0,0,1-.18,2.515,4.358,4.358,0,0,0,2.156-2.515c.36-1.617-1.257-2.874-1.257-2.874s.538-1.8,1.976-.719" transform="translate(-26.811 -18.135)" fill="#e2877a"/>
              <path id="Trazado_657457" data-name="Trazado 657457" d="M118.28,97.883a1.215,1.215,0,0,1-1.721-.283c-.778-.817-.66-2.279-.518-3.088a6.158,6.158,0,0,1,1.854,2.082,4.93,4.93,0,0,1,.385,1.288" transform="translate(-22.22 -18.113)" fill="#7f4638"/>
              <path id="Trazado_657458" data-name="Trazado 657458" d="M132.7,97.785a1.454,1.454,0,0,1-1.855.353c-.934-.62-.9-2.168-.841-2.781.558.306,1.179.715,1.862,1.147a4.433,4.433,0,0,1,.833,1.28" transform="translate(-24.911 -18.276)" fill="#7f4638"/>
              <path id="Trazado_657459" data-name="Trazado 657459" d="M113.4,91.636a15.638,15.638,0,0,1,3.113-1.1l2.4-.328a3.8,3.8,0,0,0-3.225-.715,4.2,4.2,0,0,0-2.291,2.148" transform="translate(-21.733 -17.123)" fill="#ad5945"/>
              <path id="Trazado_657460" data-name="Trazado 657460" d="M131.724,92.573a19.173,19.173,0,0,0-3.468-1.193l-2.675-.4a4.488,4.488,0,0,1,3.585-.628,4.645,4.645,0,0,1,2.558,2.216" transform="translate(-24.068 -17.285)" fill="#ad5945"/>
              <path id="Trazado_657461" data-name="Trazado 657461" d="M116.489,96.6c0,.162-.279.294-.622.294s-.622-.132-.622-.294.279-.3.622-.3.622.133.622.3" transform="translate(-22.087 -18.457)" fill="#fff"/>
              <path id="Trazado_657462" data-name="Trazado 657462" d="M130.832,97.314c0,.162-.278.294-.622.294s-.622-.132-.622-.294.279-.3.622-.3.622.133.622.3" transform="translate(-24.836 -18.594)" fill="#fff"/>
              <path id="Trazado_657463" data-name="Trazado 657463" d="M122.981,105.3a5.589,5.589,0,0,1-.17.728c-.04.129-.081.243-.113.323a3.446,3.446,0,0,1-3.039,1.52c-1.14-.251-2.918-.76-3.169-1.778a2.8,2.8,0,0,1,.162-1.116A3.983,3.983,0,0,0,119.966,106a11.132,11.132,0,0,0,3.015-.7" transform="translate(-22.323 -20.119)" fill="#e2877a"/>
              <path id="Trazado_657464" data-name="Trazado 657464" d="M117.368,111.811c.358.476.977.631,3.048.45a19.653,19.653,0,0,0,5.344-1.661c-2.066.225-6.627-.508-7.725-.045a1.014,1.014,0,0,0-.668,1.256" transform="translate(-22.489 -21.158)" fill="#fff"/>
              <path id="Trazado_657465" data-name="Trazado 657465" d="M125.4,94.707a4.138,4.138,0,0,1,3.652-.15,15.142,15.142,0,0,1,3.5,3.047,9.872,9.872,0,0,0-7.151-2.9" transform="translate(-24.034 -18.049)" fill="#ba6f59"/>
              <path id="Trazado_657466" data-name="Trazado 657466" d="M225.042,74.537l2.694,13.2s-33.142,20.479-35.028,20.479,23.173-4.85,18.861-3.773-25.6,6.736-22.364,7.275,10.508,2.425,10.508,2.425l-12.125,3.939,26.676,1.989s12.934-5.658,14.55-7.275,6.2-17.784,6.2-17.784Z" transform="translate(-35.952 -14.285)" fill="#3e23d5"/>
              <path id="Trazado_657467" data-name="Trazado 657467" d="M117.651,96.7a7.366,7.366,0,0,0-1.235-2.371,2.42,2.42,0,0,0-2.213-.6,2.673,2.673,0,0,0-1.093.321l.678.255c-.155-.143.783-.265,1.462.079a8.606,8.606,0,0,1,2.4,2.313" transform="translate(-21.678 -17.953)" fill="#ba6f59"/>
              <path id="Trazado_657468" data-name="Trazado 657468" d="M117.374,111.891a2.476,2.476,0,0,0,2.419,1.394c1.8-.09,5.838-2.47,5.838-2.47s-5.973,2.829-8.257,1.076" transform="translate(-22.495 -21.238)" fill="#f29b8c"/>
              <path id="Trazado_657469" data-name="Trazado 657469" d="M117.331,111.178s0-.584.9-.719,4.088-.134,4.088-.134-3.638-.629-4.581-.36-.4,1.213-.4,1.213" transform="translate(-22.457 -21.062)" fill="#e2877a"/>
              <path id="Trazado_657470" data-name="Trazado 657470" d="M97.246,131.137s-4.963,17.113-5.408,18.907-4.81,21.187-4.81,21.187-8.625-14.372-10.6-15.092a2.015,2.015,0,0,0-2.7.9,2.059,2.059,0,0,1,1.64-3.169,10.419,10.419,0,0,0,1.278-.1c.542-.129,3.638-4.979,4.317-4.85.647.129,5.7,9.183,6.046,9.805-.291-.647-5.1-11.317-4.834-12.255.267-.978,12.125-17.08,12.8-17.638s2.271,2.3,2.271,2.3" transform="translate(-14.068 -24.678)" fill="#e5b223"/>
              <path id="Trazado_657471" data-name="Trazado 657471" d="M115.589,127.037a11.521,11.521,0,0,0,7.006,2.29,20.26,20.26,0,0,0,8.353-2.155s-10.778,2.963-15.359-.135" transform="translate(-22.153 -24.347)" fill="#e5b223"/>
              <path id="Trazado_657472" data-name="Trazado 657472" d="M165.36,152.87c.4,1.886,2.784,6.2,1.571,7.006s-10.643,3.907-12.394,4.85-7.948,6.063-7.948,6.063,7.679-4.581,9.834-5.389,11.856-1.886,12.8-1.752,4.176,2.964,4.176,2.964-5.119-6.332-5.388-7.679a48.824,48.824,0,0,0-2.65-6.063" transform="translate(-28.094 -29.298)" fill="#e5b223"/>
              <path id="Trazado_657473" data-name="Trazado 657473" d="M197.1,127.874l-1.3,3.347H172.083l8.625-.93,1.164-.121.186-.024-.186-.008-1.019-.048L164,129.337l-3.88-2.247c10.4.275,22.044.671,22.205,1.067,0,0,10.258-.412,14.777-.283" transform="translate(-30.687 -24.357)" fill="#3a3a5e"/>
              <path id="Trazado_657474" data-name="Trazado 657474" d="M68.922,172.407l4.311,4.507s-1.617-4.342-4.311-4.507" transform="translate(-13.209 -33.042)" fill="#f7a397"/>
              <path id="Trazado_657475" data-name="Trazado 657475" d="M30.528,205.486c-3.581,1.358-5.812,2.1-5.812,2.1s.614,7.146-1.431,7.558c-1.916.38-2.934-3.209-3.056-3.638a6.458,6.458,0,0,1-.259,2.643l-.065-.065s-1.8-5.214-1.439-6.111,3.056-6.467,3.953-7.008S33.2,199.52,33.2,199.52Z" transform="translate(-3.53 -38.238)" fill="#f7a397"/>
              <path id="Trazado_657476" data-name="Trazado 657476" d="M34.288,199.325l-5.928,3.054s-5.569,1.976-3.952,3.772,5.569,0,5.569,0,7.185-1.078,10.059-3.772.9-5.21-5.748-3.054" transform="translate(-4.621 -38.045)" fill="#ffbdab"/>
              <path id="Trazado_657477" data-name="Trazado 657477" d="M157.195,262.49c0,4.465-2.052,8.083-4.582,8.083s-4.58-3.619-4.58-8.083,2.051-8.083,4.58-8.083,4.582,3.619,4.582,8.083" transform="translate(-28.371 -48.758)" fill="#252238"/>
              <path id="Trazado_657478" data-name="Trazado 657478" d="M7.995,311.424l-1.116.186c1.4-.614,2.53-1.1,2.53-1.1l10.137-9.4,5.958,2.231s-10.509,2.158-9.425,2.425,4.85,1.617,3.767,2.158-11.85,3.5-11.85,3.5" transform="translate(-1.318 -57.708)" fill="#e54646"/>
              <path id="Trazado_657479" data-name="Trazado 657479" d="M33.077,295.41s-.372,12.529-1.471,13.451-13.831,10.323-14.93,11.058-13.451,2.886-14.93,2.7c-.493-.065-.913-1.107-1.2-2.49,3.387-.558,13.952-2.3,14.849-2.522,1.083-.267,13.208-9.159,14.284-10.242.485-.485-.76-3.7-1.843-6.911a33.285,33.285,0,0,0,3.856-3.589c.8-.825,1.382-1.455,1.382-1.455" transform="translate(-0.105 -56.616)" fill="#e54646"/>
              <path id="Trazado_657480" data-name="Trazado 657480" d="M59.318,301.5c0,.534-.719,10.056-1.083,11.317s-8.439,9.336-9.7,10.056-4.486,2.514-7.72,2.514-9.167-.356-10.6-2.15c-.574-.719.348-2.336,1.657-4.009a13.4,13.4,0,0,0,7.235,1.956c6.467,0,14.275-7.275,14.275-7.275a28.9,28.9,0,0,0-9.159-1.075c-4.7.259-6.111.776-6.192.8.178-.21,3.047-3.508,5.925-3.767a36.607,36.607,0,0,1,7.542.542,48.784,48.784,0,0,0-4.308-4.317c-1.706-1.358-5.658,1.35-5.658,1.35L44.4,303.3c.251-.089,4.438-1.5,5.481-1.245,1.075.275,3.5,4.583,3.5,4.583l3.233-2.983s2.7-2.692,2.7-2.15" transform="translate(-5.758 -57.77)" fill="#e54646"/>
              <path id="Trazado_657481" data-name="Trazado 657481" d="M222.417,123.26l-6.108,1.976s-9.834-3.861-10.913-4-7.275,7.41-7.544,8.892.4,3.368,1.213,3.773a4.909,4.909,0,0,0,1.886.4,60.36,60.36,0,0,0,3.773,4.984c1.078,1.078,3.773,2.845,5.119,2.845s1.617-1.8,1.617-1.8l1.617-.913,5.389-1.348,8.757-4.042.4-9.3Z" transform="translate(-37.907 -23.235)" fill="#ff9e7b"/>
              <path id="Trazado_657482" data-name="Trazado 657482" d="M247.216,110.45c-.534.9-14.453,12.327-15.8,13.111-.776.453-3.322-1.124-3.322-1.124s2.223-4.608.445-7.857c-2.336-4.268-8.261-2.7-8.261-2.7s-.146-.057-.356-.162c-.525-.243-1.439-.752-1.439-1.269,0-.719,12.392-9.167,12.392-9.167s-2.514-23.167-2.692-24.606.719-24.7,2.336-25.107c0,0,7,2.3,8.083,4.988.113.3.348.954.671,1.9.008.008.008.024.016.04,2.611,7.752,11,34.46,11.163,39.738a25.116,25.116,0,0,1-3.233,12.214" transform="translate(-41.872 -9.883)" fill="#5840e2"/>
              <path id="Trazado_657483" data-name="Trazado 657483" d="M99.966,259.537S82.182,302.11,81.374,302.919,67.814,305,67.814,305s12.752.879,13.829.609,18.323-46.076,18.323-46.076" transform="translate(-12.997 -49.741)" fill="#3a3a5e"/>
              <path id="Trazado_657484" data-name="Trazado 657484" d="M99.411,206.2l8.083,2.964-2.964,13.742-7.275-1.348,2.156-11.317H104.8Z" transform="translate(-18.639 -39.519)" fill="#3a3a5e"/>
              <path id="Trazado_657485" data-name="Trazado 657485" d="M118.92,227.87s-7.006,14.819-5.389,37.184,14.281,33.411,14.281,33.411-23.981-21.017-8.892-70.6" transform="translate(-21.712 -43.672)" fill="#3a3a5e"/>
              <path id="Trazado_657486" data-name="Trazado 657486" d="M196.589,57.2s3.773,4.581,8.623,4.581a10.965,10.965,0,0,0,7.813-3.5s-9.7,5.658-16.436-1.078" transform="translate(-37.677 -10.963)" fill="#3e23d5"/>
              <path id="Trazado_657487" data-name="Trazado 657487" d="M247.557,112.093c-.534.9-14.453,12.327-15.8,13.111-.776.453-3.322-1.124-3.322-1.124s2.223-4.608.445-7.857c-2.336-4.268-8.261-2.7-8.261-2.7s-.146-.057-.356-.162c1.439-1.172,4.074-2.837,6.467-1.811,3.5,1.512,6.96,5.658,6.96,5.658s12.166-8.52,10.549-11.479-11.85-3.233-11.85-3.233.267-1.892,1.342-1.892,10.242,1.617,10.242,1.617,1.075-4.575-.542-4.85-9.967.808-9.967.808a13.018,13.018,0,0,1,2.692-2.15c.808-.275,9.7-1.617,10.509-1.35.655.218-4.939-25.14-7.033-34.541,2.611,7.752,11,34.46,11.163,39.738a25.116,25.116,0,0,1-3.233,12.214" transform="translate(-42.213 -11.526)" fill="#3e23d5"/>
              <path id="Trazado_657488" data-name="Trazado 657488" d="M234.226,54.2s-4.581,4.042-5.389,8.623,0,14.55,0,14.55-.808-14.82,5.389-23.173" transform="translate(-43.788 -10.388)" fill="#3e23d5"/>
              <path id="Trazado_657489" data-name="Trazado 657489" d="M202.294,166.115s-7.275-16.87-9.161-17.948a67.111,67.111,0,0,0-7.545-2.964l6.645,8.873L196.9,164.6Z" transform="translate(-35.568 -27.828)" fill="#b0c0d2"/>
              <path id="Trazado_657490" data-name="Trazado 657490" d="M121.87,78.092c-.475-1.564-.621.838,4.311,6.467a8.917,8.917,0,0,0,7.881,2.762l-3.57-3.3,4.85,2.964s-2.156-4.581-5.12-6.736-8.353-2.156-8.353-2.156" transform="translate(-23.314 -14.877)" fill="#c16553"/>
              <path id="Trazado_657491" data-name="Trazado 657491" d="M118.115,75.4s-1.617-1.078-2.694-.269-3.773,2.155-3.5,3.772.808,3.773.808,3.773,1.887-6.736,5.389-7.275" transform="translate(-21.446 -14.342)" fill="#c16553"/>
              <path id="Trazado_657492" data-name="Trazado 657492" d="M209.367,121.759s5.927,14.011,7.364,14.011,7.545-.719,7.545-.719l-5.75-9.719Z" transform="translate(-40.126 -23.335)" fill="#e58065"/>
              <path id="Trazado_657493" data-name="Trazado 657493" d="M201.7,135.639l4.938-7.459s-4.848,3.222-4.938,7.459" transform="translate(-38.656 -24.566)" fill="#e58065"/>
              <path id="Trazado_657494" data-name="Trazado 657494" d="M214.652,143.875l-3.952-1.6h3.593v-2.515Z" transform="translate(-40.381 -26.785)" fill="#e58065"/>
            </g>
          </g>
        </g>
      </g>
    </g>
  </g>
</svg>
