<svg id="_8" data-name="8" xmlns="http://www.w3.org/2000/svg" xmlns:xlink="http://www.w3.org/1999/xlink" width="72.025" height="57.298" viewBox="0 0 72.025 57.298">
  <defs>
    <clipPath id="clip-path">
      <rect id="Rectángulo_312872" data-name="Rectángulo 312872" width="72.025" height="57.298" fill="none"/>
    </clipPath>
  </defs>
  <g id="Grupo_995957" data-name="Grupo 995957" clip-path="url(#clip-path)">
    <path id="Trazado_657861" data-name="Trazado 657861" d="M106.167,45.162a5.98,5.98,0,0,0-1.2,1.891c-.736-.508-1.112-.479-1.781.157a10.013,10.013,0,0,1-6.271,2.824c-.6.049-.616-.184-.473-.629a2.675,2.675,0,0,1,2.525-1.789,2.53,2.53,0,0,0,2.5-2.588c.018-1.5.015-3,0-4.5a2.528,2.528,0,0,0-2.658-2.642c-1.383-.011-2.767-.026-4.149.009-.579.015-.82-.072-.873-.757a4.692,4.692,0,0,0-9.374.087c-.046.813-.5.657-.96.658-1.39,0-1.39,0-1.4-1.363a2.586,2.586,0,0,0-2.59-2.81,2.621,2.621,0,0,1-2.586-2.606,2.656,2.656,0,0,1,2.6-2.61,2.546,2.546,0,0,0,2.574-2.732c.007-1.453.012-2.906,0-4.358a2.525,2.525,0,0,0-2.66-2.639c-1.406-.01-2.814-.026-4.219.01-.537.014-.767-.069-.789-.691a4.476,4.476,0,0,0-2.037-3.664,4.683,4.683,0,0,0-7.348,3.613c-.048.627-.232.762-.82.744-1.4-.044-2.813-.023-4.219-.012a2.532,2.532,0,0,0-2.65,2.652q-.022,2.214,0,4.428a2.539,2.539,0,0,0,2.521,2.644,2.849,2.849,0,0,1,1.575.52,2.6,2.6,0,0,1-1.379,4.7,2.611,2.611,0,0,0-2.72,2.9c0,1.406-.012,2.812,0,4.217a2.526,2.526,0,0,0,2.524,2.648c2.015.045,4.032.023,6.048.006.791-.007,1.147-.384,1.183-1.176.025-.561-.012-1.127.047-1.684a2.586,2.586,0,0,1,5.122-.128,15.065,15.065,0,0,1,.074,1.751c.028.87.375,1.222,1.256,1.241.586.013,1.172,0,1.758,0,1.388,0,1.388,0,1.4,1.361a2.567,2.567,0,0,0,2.611,2.775,2.582,2.582,0,0,1,2.322,1.555c.371.8.307.9-.58.9q-13.292,0-26.583,0c-.186,0-.371-.028-.557-.043-.355-.855-.747-1.7-1.056-2.568a21.7,21.7,0,0,1-1.206-4.334,5.066,5.066,0,0,0,1.678-1.742.962.962,0,0,0-.345-1.344.976.976,0,0,0-1.332.141c-.165.161-.3.351-.451.527a11.454,11.454,0,0,1-.373-2.883,35.658,35.658,0,0,1,1.111-11.217,9.544,9.544,0,0,0,1.253-.043.943.943,0,0,0,.855-1.026.967.967,0,0,0-.873-1.014c-.182-.035-.368-.05-.552-.074a34.438,34.438,0,0,1,7.683-12.692,43.075,43.075,0,0,1,4.428-3.938,10.9,10.9,0,0,1,6.666,1.5A1.791,1.791,0,0,0,73.6,9.283,10.362,10.362,0,0,1,80.119,7.45a11.173,11.173,0,0,1,10.329,7.491,1.454,1.454,0,0,0,1.387,1.047,11.851,11.851,0,0,1,7.16,3.225c.32.3.352.464-.032.723a7.826,7.826,0,0,1-2.49,1.1c-1.55.39-3.156.412-4.721.7a5.664,5.664,0,0,0-3.9,2.254,1.081,1.081,0,0,0,.123,1.616,1.051,1.051,0,0,0,1.566-.366A3.259,3.259,0,0,1,91.358,24a19.364,19.364,0,0,1,2.627-.448c.467-.069.609.113.689.526a6.717,6.717,0,0,1-.367,4.393,1.052,1.052,0,0,0,.119,1.242,1.007,1.007,0,0,0,1.019.324,1.172,1.172,0,0,0,.829-.785,8.334,8.334,0,0,0,.475-5.425c-.121-.555.043-.713.537-.833a7.522,7.522,0,0,0,2.957-1.406c.385-.307.541-.239.765.151A11.841,11.841,0,0,1,102.4,30.53a1.456,1.456,0,0,0,.473,1.56A9.877,9.877,0,0,1,105.652,43.5c-.311.857-.22,1.15.515,1.657" transform="translate(-36.488 -5.334)" fill="#f2b5bd"/>
    <path id="Trazado_657862" data-name="Trazado 657862" d="M14.743,42.417c.15-.177.286-.366.451-.527a.976.976,0,0,1,1.332-.141.962.962,0,0,1,.345,1.345,5.065,5.065,0,0,1-1.678,1.742,9.329,9.329,0,0,1-3.068.938c-.834.12-1.674.2-2.51.312a7.982,7.982,0,0,0-4.488,1.8c-.331.3-.368.49-.035.823a9.883,9.883,0,0,0,4.129,2.573c2.7.822,5.479.464,8.232.461.186.015.371.043.557.043q13.291,0,26.583,0c.887,0,.952-.095.58-.9a2.582,2.582,0,0,0-2.322-1.556,2.567,2.567,0,0,1-2.611-2.774c-.011-1.362-.011-1.362-1.4-1.362-.586,0-1.172.01-1.758,0-.881-.019-1.228-.371-1.256-1.241a14.946,14.946,0,0,0-.074-1.751,2.586,2.586,0,0,0-5.122.128c-.059.557-.021,1.123-.047,1.684-.036.792-.392,1.169-1.183,1.176-2.016.017-4.033.039-6.048-.006a2.527,2.527,0,0,1-2.524-2.648c-.015-1.406-.006-2.812,0-4.218a2.611,2.611,0,0,1,2.72-2.9,2.6,2.6,0,0,0,1.379-4.7,2.85,2.85,0,0,0-1.575-.52,2.539,2.539,0,0,1-2.521-2.644q-.022-2.214,0-4.428a2.532,2.532,0,0,1,2.65-2.652c1.406-.011,2.814-.033,4.219.012.588.019.772-.117.82-.744a4.683,4.683,0,0,1,7.347-3.613,4.477,4.477,0,0,1,2.037,3.665c.022.621.252.7.789.691,1.406-.036,2.813-.02,4.219-.01a2.525,2.525,0,0,1,2.659,2.639c.013,1.453.009,2.906,0,4.358A2.546,2.546,0,0,1,43,30.2a2.656,2.656,0,0,0-2.6,2.61,2.621,2.621,0,0,0,2.586,2.607,2.586,2.586,0,0,1,2.59,2.81c.008,1.364.008,1.366,1.4,1.363.461,0,.914.155.96-.658a4.692,4.692,0,0,1,9.374-.087c.053.685.294.772.873.757,1.382-.036,2.766-.02,4.149-.009a2.528,2.528,0,0,1,2.658,2.641c.013,1.5.017,3,0,4.5a2.53,2.53,0,0,1-2.5,2.588,2.675,2.675,0,0,0-2.525,1.789c-.143.445-.125.678.473.629A10.012,10.012,0,0,0,66.7,48.918c.668-.636,1.045-.665,1.781-.157a1.23,1.23,0,0,1-.31,1.682c-1.877,1.827-3.915,2.791-7.446,3.439a2.356,2.356,0,0,0,1.528.656,2.606,2.606,0,0,1,2.735,2.95c0,1.382.009,2.765,0,4.147a2.532,2.532,0,0,1-2.57,2.674c-1.992.05-3.985.028-5.978.009-.824-.008-1.169-.4-1.2-1.232a11.224,11.224,0,0,0-.07-1.822A2.586,2.586,0,0,0,52.5,59.154a2.551,2.551,0,0,0-2.449,2.278c-.059.533-.028,1.076-.045,1.614-.027.872-.383,1.265-1.238,1.273-1.969.017-3.939.036-5.907-.006a2.552,2.552,0,0,1-2.615-2.707c-.011-1.382,0-2.765,0-4.147a2.6,2.6,0,0,1,2.7-2.917,2.213,2.213,0,0,0,1.413-.548,1.6,1.6,0,0,0-.866-.1q-15.3-.007-30.593,0A12.312,12.312,0,0,1,3.547,50.1,12.226,12.226,0,0,1,3.636,32.8a.885.885,0,0,0,.285-.863A13.972,13.972,0,0,1,15.17,15.793a1.989,1.989,0,0,0,1.594-1.176,12.745,12.745,0,0,1,3.765-4.389c.76-.574,1.052-.566,1.791.03a1.24,1.24,0,0,1-.539,1.681,11.235,11.235,0,0,0-3.672,4.7A1.573,1.573,0,0,1,16.64,17.7,11.78,11.78,0,0,0,8.287,22.32c-.236.3-.321.494.023.8a11.451,11.451,0,0,0,7.854,3.039c.184.024.37.039.552.074a.967.967,0,0,1,.873,1.014.943.943,0,0,1-.855,1.026,9.547,9.547,0,0,1-1.253.044,20.7,20.7,0,0,1-3.029-.54,5.051,5.051,0,0,0,.979,3.662c.454.7.408,1.291-.13,1.665s-1.134.209-1.608-.462a7.6,7.6,0,0,1-1.4-5.1.692.692,0,0,0-.459-.8A9.537,9.537,0,0,1,7.4,25.1c-.506-.478-.626-.242-.8.242a11.368,11.368,0,0,0-.53,6.551,2.007,2.007,0,0,1-.718,2.2A9.922,9.922,0,0,0,3.2,45.975c.237.472.377.5.772.148a7.844,7.844,0,0,1,3.407-1.729c.435-.107.528-.261.432-.716a8.436,8.436,0,0,1,.46-5.557c.34-.705.875-.952,1.461-.694a1.064,1.064,0,0,1,.459,1.543,6.967,6.967,0,0,0-.288,4.467c.067.332.207.475.568.412.782-.137,1.579-.2,2.354-.373a2.98,2.98,0,0,0,1.914-1.06M34.049,17.586a2.528,2.528,0,0,0-3.422,2.387c-.012.351,0,.7,0,1.054-.011,1.2-.365,1.559-1.55,1.561-1.781,0-3.562.014-5.342-.007-.571-.006-.807.206-.8.782.02,1.335.014,2.67,0,4,0,.494.2.7.7.741a4.711,4.711,0,0,1,.017,9.411c-.531.016-.733.276-.724.8q.033,2,0,4c-.008.545.232.774.751.774,1.43,0,2.859,0,4.288,0,.3,0,.475-.064.488-.422a4.93,4.93,0,0,1,2.917-4.449l.472-.131a4.717,4.717,0,0,1,6.012,3.823c.177,1.17.177,1.17,1.421,1.17.935,0,.935,0,.96-.911a2.557,2.557,0,0,1,2.3-2.58c.928-.076.928-.076.927-1.016,0-.993,0-.992-1.006-1.084a3.386,3.386,0,0,1-.483-.081,4.713,4.713,0,0,1,.677-9.3c.658-.053.837-.306.822-.914-.032-1.218-.008-2.436-.01-3.655,0-.948-.022-.967-1-.968-1.781,0-3.563.007-5.344,0-.878-.005-1.242-.362-1.281-1.218-.023-.514-.006-1.032-.054-1.544a2.4,2.4,0,0,0-1.734-2.234M50.792,57.359a10.225,10.225,0,0,1,1.507-.314,4.707,4.707,0,0,1,5.033,4.561c.037.479.159.631.648.619,1.358-.033,2.718-.026,4.077-.005.59.009.852-.2.832-.821-.035-1.076-.01-2.154-.01-3.232,0-1.323,0-1.323-1.313-1.575-.046-.009-.09-.025-.136-.036a4.714,4.714,0,0,1,.667-9.312c.616-.053.8-.274.791-.863-.03-1.264-.039-2.53,0-3.794.022-.671-.2-.911-.884-.9-1.8.039-3.608.018-5.413.011-.992,0-1.338-.36-1.349-1.361,0-.4.019-.8-.009-1.194a2.511,2.511,0,0,0-1.768-2.442,2.543,2.543,0,0,0-3.431,2.237c-.034.442-.013.889-.02,1.333C50,41.352,49.648,41.7,48.57,41.7c-1.827,0-3.654.01-5.48,0-.493,0-.744.159-.739.683.012,1.381.01,2.762,0,4.144,0,.459.174.688.658.7a4.61,4.61,0,0,1,1.037.161,4.767,4.767,0,0,1,3.476,4.924,4.691,4.691,0,0,1-4.342,4.312c-.637.042-.853.288-.837.912.034,1.287.027,2.575,0,3.862-.011.561.188.824.768.819,1.428-.014,2.857-.008,4.286,0,.3,0,.48-.048.489-.413a4.875,4.875,0,0,1,2.9-4.447" transform="translate(0 -7.041)" fill="#040303"/>
    <path id="Trazado_657863" data-name="Trazado 657863" d="M131.889,39.829c-.735-.507-.826-.8-.515-1.657a9.877,9.877,0,0,0-2.784-11.414,1.456,1.456,0,0,1-.473-1.56,11.841,11.841,0,0,0-1.387-8.794c-.224-.39-.381-.458-.765-.151a7.522,7.522,0,0,1-2.957,1.406c-.494.12-.658.278-.537.833A8.334,8.334,0,0,1,122,23.917a1.172,1.172,0,0,1-.829.785,1.007,1.007,0,0,1-1.019-.324,1.052,1.052,0,0,1-.12-1.242,6.717,6.717,0,0,0,.367-4.393c-.08-.413-.222-.6-.689-.526a19.364,19.364,0,0,0-2.627.448,3.259,3.259,0,0,0-1.819,1.241,1.051,1.051,0,0,1-1.566.366,1.081,1.081,0,0,1-.123-1.616,5.664,5.664,0,0,1,3.9-2.254c1.566-.29,3.171-.311,4.721-.7a7.826,7.826,0,0,0,2.49-1.1c.384-.258.352-.427.032-.723a11.851,11.851,0,0,0-7.16-3.225,1.454,1.454,0,0,1-1.387-1.047,11.173,11.173,0,0,0-10.329-7.491A10.362,10.362,0,0,0,99.327,3.95a1.791,1.791,0,0,1-2.175.042,10.9,10.9,0,0,0-6.666-1.5,7.7,7.7,0,0,0-2.348.358,1.141,1.141,0,0,1-1.506-.652c-.049-.877.162-1.185,1.011-1.4A13.9,13.9,0,0,1,97.669,1.861a.972.972,0,0,0,1.079-.034A13.439,13.439,0,0,1,117.793,8a1.021,1.021,0,0,0,.929.673,14.111,14.111,0,0,1,11.737,12.353,13.839,13.839,0,0,1-.146,3.915.877.877,0,0,0,.333.849c3.633,3.823,4.466,8.223,2.69,13.155a1.147,1.147,0,0,1-1.447.879" transform="translate(-62.21 0)" fill="#040303"/>
    <path id="Trazado_657864" data-name="Trazado 657864" d="M45.011,7.785a1.142,1.142,0,0,0,1.506.652,7.7,7.7,0,0,1,2.348-.358,43.039,43.039,0,0,0-4.428,3.938A34.441,34.441,0,0,0,36.754,24.71,11.45,11.45,0,0,1,28.9,21.67c-.345-.307-.26-.5-.023-.8a11.78,11.78,0,0,1,8.353-4.616A1.573,1.573,0,0,0,38.7,15.189a11.233,11.233,0,0,1,3.672-4.7,1.24,1.24,0,0,0,.539-1.681,12.889,12.889,0,0,1,2.1-1.023" transform="translate(-20.589 -5.591)" fill="#ee929d"/>
    <path id="Trazado_657865" data-name="Trazado 657865" d="M20.117,80.717a2.98,2.98,0,0,1-1.914,1.06c-.775.168-1.571.236-2.354.373-.362.063-.5-.079-.568-.412a6.968,6.968,0,0,1,.288-4.467,1.064,1.064,0,0,0-.459-1.543c-.586-.258-1.121-.012-1.461.694a8.438,8.438,0,0,0-.461,5.557c.1.455,0,.609-.432.716a7.843,7.843,0,0,0-3.407,1.729c-.4.352-.534.324-.772-.148a9.923,9.923,0,0,1,2.147-11.884,2.007,2.007,0,0,0,.718-2.2,11.37,11.37,0,0,1,.53-6.551c.176-.484.3-.72.8-.242a9.543,9.543,0,0,0,2.437,1.641.692.692,0,0,1,.458.8,7.6,7.6,0,0,0,1.4,5.1c.475.671,1.072.835,1.609.462s.584-.964.13-1.665a5.05,5.05,0,0,1-.979-3.662,20.664,20.664,0,0,0,3.029.54,35.655,35.655,0,0,0-1.11,11.217,11.467,11.467,0,0,0,.373,2.884" transform="translate(-5.373 -45.342)" fill="#ed919c"/>
    <path id="Trazado_657866" data-name="Trazado 657866" d="M29.842,141c-2.753,0-5.529.362-8.232-.461a9.88,9.88,0,0,1-4.129-2.572c-.334-.334-.3-.524.035-.823a7.985,7.985,0,0,1,4.488-1.8c.835-.115,1.675-.192,2.51-.312a9.343,9.343,0,0,0,3.068-.938,21.7,21.7,0,0,0,1.206,4.334c.308.871.7,1.713,1.056,2.568" transform="translate(-12.387 -96.301)" fill="#e58e98"/>
    <path id="Trazado_657867" data-name="Trazado 657867" d="M180.008,105.253a2.511,2.511,0,0,1,1.768,2.442c.028.4,0,.8.009,1.194.011,1,.357,1.357,1.349,1.361,1.8.007,3.609.028,5.413-.011.687-.015.906.225.884.9-.042,1.264-.033,2.53,0,3.794.014.588-.175.81-.791.863a4.713,4.713,0,0,0-.667,9.312c.046.011.09.026.136.036,1.313.252,1.313.252,1.313,1.575,0,1.077-.025,2.156.01,3.232.02.623-.242.83-.832.821-1.359-.02-2.719-.028-4.077.005-.489.012-.611-.14-.648-.619a4.707,4.707,0,0,0-5.033-4.561,10.228,10.228,0,0,0-1.507.315A18.269,18.269,0,0,1,176.2,119.9c-.01-1.118.007-2.233.108-3.355a29.934,29.934,0,0,1,1.111-5.955,22.2,22.2,0,0,1,2.585-5.333" transform="translate(-126.54 -75.588)" fill="#ee929d"/>
    <path id="Trazado_657868" data-name="Trazado 657868" d="M111.082,37.41a2.4,2.4,0,0,1,1.734,2.234c.048.512.03,1.03.054,1.545.039.855.4,1.212,1.281,1.217,1.782.01,3.563,0,5.344,0,.982,0,1,.02,1,.967,0,1.218-.022,2.437.01,3.655.016.609-.164.861-.821.914a4.713,4.713,0,0,0-.677,9.3,3.379,3.379,0,0,0,.483.081c1,.092,1,.091,1.006,1.084,0,.941,0,.941-.927,1.016a2.557,2.557,0,0,0-2.3,2.58c-.025.911-.025.911-.96.911-1.244,0-1.244,0-1.421-1.17a4.718,4.718,0,0,0-6.012-3.823l-.472.131a19.177,19.177,0,0,1-1.138-6.012,30.835,30.835,0,0,1,.3-5.231,26.45,26.45,0,0,1,1.18-4.877,24.955,24.955,0,0,1,2.328-4.528" transform="translate(-77.033 -26.866)" fill="#686eab"/>
    <path id="Trazado_657869" data-name="Trazado 657869" d="M161.361,104.869a22.2,22.2,0,0,0-2.585,5.333,29.935,29.935,0,0,0-1.111,5.955c-.1,1.121-.119,2.236-.108,3.355a18.268,18.268,0,0,0,1.128,6.011,4.875,4.875,0,0,0-2.9,4.446c-.009.365-.19.415-.489.413-1.429-.008-2.857-.013-4.286,0-.579.006-.778-.258-.768-.819.024-1.287.031-2.575,0-3.862-.016-.624.2-.87.837-.912a4.691,4.691,0,0,0,4.342-4.312,4.767,4.767,0,0,0-3.476-4.924,4.613,4.613,0,0,0-1.037-.161c-.484-.015-.661-.244-.658-.7.009-1.381.011-2.762,0-4.143,0-.524.246-.687.739-.683,1.827.014,3.654.008,5.481,0,1.078,0,1.429-.353,1.447-1.428.008-.444-.014-.891.02-1.334a2.543,2.543,0,0,1,3.431-2.237" transform="translate(-107.893 -75.204)" fill="#d66371"/>
    <path id="Trazado_657870" data-name="Trazado 657870" d="M92.481,37.045a24.955,24.955,0,0,0-2.328,4.528,26.451,26.451,0,0,0-1.18,4.877,30.834,30.834,0,0,0-.3,5.231,19.176,19.176,0,0,0,1.138,6.012,4.932,4.932,0,0,0-2.917,4.449c-.013.358-.186.423-.488.422-1.429-.007-2.859,0-4.288,0-.519,0-.76-.229-.751-.774q.032-2,0-4c-.009-.529.193-.788.724-.8a4.711,4.711,0,0,0-.017-9.411c-.507-.044-.708-.247-.7-.74.011-1.335.017-2.67,0-4-.009-.576.226-.788.8-.782,1.781.021,3.562.009,5.342.007,1.185,0,1.538-.36,1.549-1.561,0-.351-.007-.7.005-1.054a2.528,2.528,0,0,1,3.422-2.387" transform="translate(-58.432 -26.501)" fill="#4c5691"/>
  </g>
</svg>
