<svg xmlns="http://www.w3.org/2000/svg" xmlns:xlink="http://www.w3.org/1999/xlink" width="79" height="79" viewBox="0 0 79 79">
  <defs>
    <clipPath id="clip-path">
      <rect id="Rectángulo_312958" data-name="Rectángulo 312958" width="46.849" height="46.718" fill="none"/>
    </clipPath>
  </defs>
  <g id="i1" transform="translate(-521 -3588)">
    <circle id="Elipse_8221" data-name="Elipse 8221" cx="39.5" cy="39.5" r="39.5" transform="translate(521 3588)" fill="#fd7e7e"/>
    <g id="Grupo_996107" data-name="Grupo 996107" transform="translate(537 3604)">
      <g id="Grupo_996106" data-name="Grupo 996106" clip-path="url(#clip-path)">
        <path id="Trazado_658894" data-name="Trazado 658894" d="M105.179,16.165q0,.753,0,1.506c-.522.125-.667.47-.665.983.012,4.843,0,9.685.013,14.528a4.639,4.639,0,0,1-2.312,4.275,1.5,1.5,0,0,0-.771,1.433c.016,3.716.008,7.432.007,11.147,0,.182-.014.364-.022.546-2.116,0-4.234-.051-6.347.019a2.187,2.187,0,0,1-2.261-2.292c.029-2.8-.015-5.6.023-8.4a2.082,2.082,0,0,0-.971-1.877,6.718,6.718,0,0,1-1.418-1.342,7.082,7.082,0,0,1-1.466-4.541c0-2.481.008-4.962-.005-7.442a4.427,4.427,0,0,1,.373-2.12A1.269,1.269,0,0,1,90.391,23.9c0,1.8.058,3.592-.03,5.386a3.293,3.293,0,0,0,.876,2.557q1.646,1.711,3.348,3.368a2.137,2.137,0,0,0,2.948.058c1.205-1.139,2.386-2.309,3.5-3.533a3.305,3.305,0,0,0,.294-3.952,3.411,3.411,0,0,0-4.908-.948c-.144.1-.258.317-.5.124a3.535,3.535,0,0,0-3-.7,31.865,31.865,0,0,0-.086-3.411c.588.052.8-.1.937-.691a1.837,1.837,0,0,0,1.342-1.826q0-5.133,0-10.266A7.541,7.541,0,0,1,95.3,7.807a.709.709,0,0,1,.18.011,1.366,1.366,0,0,1,.939,1.493q0,6.319,0,12.638c0,.546.186.836.569.913.36.073.651-.146.818-.614a2.03,2.03,0,0,0,1.25-1.241,3.772,3.772,0,0,0,.169-1.205q0-4.583,0-9.166a1.181,1.181,0,0,1,1.127.776,1.943,1.943,0,0,1,.121.851q0,4.775,0,9.55a3.653,3.653,0,0,0,.021.5.67.67,0,0,0,1.24.219,2.07,2.07,0,0,0,.143-.383.753.753,0,0,0,.535-.216,2.227,2.227,0,0,0,.834-1.795q0-4.022,0-8.045a1.281,1.281,0,0,1,1.265,1.327c.017.622.019,1.245,0,1.867a.756.756,0,0,0,.663.875" transform="translate(-72.681 -6.377)" fill="#de9e8f"/>
        <path id="Trazado_658895" data-name="Trazado 658895" d="M23.386,81.8a5,5,0,0,1,.467,2.11q0,3.106,0,6.211c0,1.049-.053.894.822.652a7.535,7.535,0,0,0,2.647,5.937c-.14.139-.084.316-.085.477,0,1.386,0,2.773,0,4.159,0,.163.047.337-.063.487-.007-1.05-.006-2.1-.023-3.15a.658.658,0,0,0-.834-.7.7.7,0,0,0-.536.793c0,1.31-.049,2.622.019,3.928a1.912,1.912,0,0,1-.768,1.739,1.344,1.344,0,0,0-.505,1.194c.014,1.537-.011,3.074-.021,4.611l-5.616,0a1.957,1.957,0,0,1-2.09-2.07c.041-.85-.043-1.708.023-2.554a1.822,1.822,0,0,0-.926-1.731,5.115,5.115,0,0,1-2.29-4.278q0-3.789,0-7.577a.987.987,0,0,1,1.006,1.056c0,1.522,0,3.044-.026,4.565a2.867,2.867,0,0,0,.744,2.137c.939.977,1.883,1.95,2.864,2.883a1.9,1.9,0,0,0,2.651,0c.968-.926,1.924-1.867,2.833-2.85a2.807,2.807,0,0,0,.575-3.056,2.963,2.963,0,0,0-4.392-1.414c-.143.092-.261.325-.5.139a3.112,3.112,0,0,0-2.187-.617,23.1,23.1,0,0,0-.093-2.555.8.8,0,0,0,.571-.91,5.374,5.374,0,0,1,.016-.633,1.646,1.646,0,0,0,1.058-1.651q.011-4.753,0-9.506c.676.066.95.415.951,1.233q0,5.184,0,10.369a3.564,3.564,0,0,0,.014.456.663.663,0,0,0,.67.624.671.671,0,0,0,.68-.658c.026-.287.027-.576.039-.864a1.744,1.744,0,0,0,1.032-1.669c-.017-2.369,0-4.738,0-7.108.438.037.909.283,1.263-.2" transform="translate(-11.121 -65.032)" fill="#f9e3c5"/>
        <path id="Trazado_658896" data-name="Trazado 658896" d="M6.163,88.62a3.113,3.113,0,0,1,2.187.617c.237.186.356-.047.5-.139a2.963,2.963,0,0,1,4.392,1.414,2.808,2.808,0,0,1-.575,3.056c-.909.983-1.865,1.924-2.833,2.85a1.9,1.9,0,0,1-2.651,0c-.982-.933-1.926-1.906-2.864-2.882A2.866,2.866,0,0,1,3.573,91.4c.025-1.522.029-3.044.026-4.566A.987.987,0,0,0,2.593,85.78,1,1,0,0,0,1.5,86.835c-.014.939,0,1.878,0,2.817,0,.593-.137.758-.728.9a.794.794,0,0,1-.649-.9c.02-.943,0-1.888.009-2.831a2.317,2.317,0,0,1,1.41-2.211.491.491,0,0,0,.331-.539c-.01-2.831.039-5.664-.022-8.494a2.418,2.418,0,0,1,3.445-2.373c.29.141.3-.081.392-.208a2.392,2.392,0,0,1,4.092.249,1.945,1.945,0,0,1,.249.915c0,.294.072.4.387.284a2.109,2.109,0,0,1,1.346.007c.613.189.768.472.6,1.091-.354.486-.825.24-1.263.2-.7,0-1.055.381-1.058,1.172q-.01,2.575,0,5.149c0,.819.02,1.638.031,2.456-.012.288-.013.577-.039.864a.671.671,0,0,1-.68.658.663.663,0,0,1-.67-.624,3.563,3.563,0,0,1-.014-.456q0-5.185,0-10.369c0-.818-.274-1.167-.951-1.233a.98.98,0,0,0-1.079,1.109c-.009,1.34-.005,2.68,0,4.02q.007,3.014.02,6.028a5.376,5.376,0,0,0-.016.633.8.8,0,0,1-.571.91c-.623-.092-.8-.294-.808-.916,0-.211-.012-.421-.019-.631.006-.867.018-1.734.019-2.6q0-3.218,0-6.437c0-.7-.294-1.038-.928-1.113a.956.956,0,0,0-1.088,1c-.011,2.951-.005,5.9-.005,8.852,0,.135-.008.243.169.319a2.469,2.469,0,0,1,1.573,2.613c-.024.61,0,1.222,0,1.9a3.784,3.784,0,0,1,1.186-.429M4.949,91.656a1.343,1.343,0,0,0,.389.972q1.344,1.37,2.7,2.723a.58.58,0,0,0,.893.025c.932-.92,1.87-1.836,2.762-2.794a1.555,1.555,0,0,0-.02-2.053,1.49,1.49,0,0,0-2.022-.285,1.53,1.53,0,0,1-2.315,0,1.365,1.365,0,0,0-1.635-.024,1.522,1.522,0,0,0-.758,1.438" transform="translate(-0.099 -58.78)" fill="#040303"/>
        <path id="Trazado_658897" data-name="Trazado 658897" d="M189.037,73.332a1.325,1.325,0,0,0,.971-.583,2.2,2.2,0,0,1,2.469-.728,2.266,2.266,0,0,1,1.684,2c.021.148.04.3.061.446a2.4,2.4,0,0,1,3.114,1.18c.108.159.181.127.329.075a2.378,2.378,0,0,1,3.326,2.354q0,8.29,0,16.58a5.934,5.934,0,0,1-1.731,4.325.773.773,0,0,0-.222.609q.009,2.489,0,4.979c0,.638-.377.982-.889.841-.373-.1-.458-.405-.513-.73a2.415,2.415,0,0,0,0-.832c.01-1.552.03-3.1.023-4.657a1.209,1.209,0,0,1,.431-1,4.317,4.317,0,0,0,1.516-3.3q.027-8.453.008-16.907a.986.986,0,0,0-.992-1.073c-.629.054-1.015.375-1.017.936-.01,2.145,0,4.29.01,6.436q-.01.433-.021.865c-.012.522-.277.848-.692.85s-.68-.315-.681-.845c0-1.46,0-2.919,0-4.379,0-1.323.006-2.646,0-3.968a.982.982,0,0,0-.988-1.111.959.959,0,0,0-1.037,1.1c-.01,1.386-.007,2.772,0,4.157,0,1.11.017,2.221.027,3.331-.01.257-.024.514-.027.772-.009.6-.251.939-.688.943s-.683-.33-.689-.935c0-.106,0-.213,0-.319q0-5.015,0-10.03a4.007,4.007,0,0,0-.023-.545.925.925,0,0,0-.942-.858c-.709,0-1.07.382-1.072,1.162q-.009,3.127,0,6.255c0,1.217.015,2.433.023,3.65a7.119,7.119,0,0,0-.018.725.806.806,0,0,1-.578.91c-.622-.1-.791-.3-.8-.921,0-.24-.014-.479-.021-.719q.009-4.562.019-9.123a1.009,1.009,0,0,0-.339-.721c-.451-.464-.453-.713-.022-1.2" transform="translate(-154.145 -58.732)" fill="#040303"/>
        <path id="Trazado_658898" data-name="Trazado 658898" d="M76.667,84.762a7.535,7.535,0,0,1-2.647-5.937V70.874a2.835,2.835,0,0,1,1.941-2.89c.185-.068.158-.19.158-.322,0-.609.011-1.219,0-1.827a.726.726,0,0,1,.644-.843c.554.1.727.295.732.852.005.594,0,1.188,0,1.782,0,.147-.03.29.172.366a2.875,2.875,0,0,1,1.9,3.139c-.028.756,0,1.514,0,2.31l1.135-.475a3.535,3.535,0,0,1,3,.705c.242.194.356-.024.5-.124a3.411,3.411,0,0,1,4.908.948,3.305,3.305,0,0,1-.294,3.952c-1.119,1.223-2.3,2.394-3.5,3.533a2.136,2.136,0,0,1-2.948-.058q-1.7-1.652-3.348-3.368A3.293,3.293,0,0,1,78.14,76c.088-1.795.031-3.591.03-5.386A1.269,1.269,0,0,0,77.134,69.3a1.355,1.355,0,0,0-1.718,1.444q-.011,4.226,0,8.453a5.866,5.866,0,0,0,.507,2.347,6.1,6.1,0,0,0,2.5,2.772,1.641,1.641,0,0,1,.844,1.6c-.033,4.4-.011,8.8-.008,13.2-.117.494-.359.708-.759.67s-.624-.333-.624-.856c0-4.228-.009-8.456.01-12.684a.965.965,0,0,0-.514-.992,7.009,7.009,0,0,1-.706-.5m11.569-8.6A1.886,1.886,0,0,0,87.2,74.521a1.83,1.83,0,0,0-2.108.1c-1.12.873-1.318.841-2.407.02a1.963,1.963,0,0,0-2.71.338,2.007,2.007,0,0,0,.126,2.735c1.02,1.045,2.056,2.075,3.093,3.1a.869.869,0,0,0,1.362,0c1.048-1.039,2.085-2.09,3.121-3.141a2.009,2.009,0,0,0,.557-1.515" transform="translate(-60.46 -53.087)" fill="#040303"/>
        <path id="Trazado_658899" data-name="Trazado 658899" d="M102.3,9.788a.756.756,0,0,1-.663-.875c.019-.622.017-1.245,0-1.867a1.281,1.281,0,0,0-1.265-1.327,1.263,1.263,0,0,0-1.394,1.376c-.012,1.935-.007,3.869,0,5.8,0,.959.017,1.917.027,2.876a2.07,2.07,0,0,1-.143.383.67.67,0,0,1-1.24-.219,3.655,3.655,0,0,1-.021-.5q0-4.775,0-9.55a1.943,1.943,0,0,0-.121-.851,1.181,1.181,0,0,0-1.127-.776,1.274,1.274,0,0,0-1.431,1.388c-.011,3.408,0,6.815.008,10.223-.167.469-.458.687-.818.614-.384-.077-.569-.367-.569-.913q0-6.319,0-12.638A1.366,1.366,0,0,0,92.6,1.441a.709.709,0,0,0-.18-.011,1.3,1.3,0,0,0-1.546,1.446q-.008,5.039,0,10.077c0,.942.013,1.884.02,2.825-.137.588-.348.743-.937.691-.519-.237-.451-.713-.471-1.153q.006-5.723.007-11.446a1.248,1.248,0,0,0-1.1-1.25,1.283,1.283,0,0,0-1.555,1.333c-.012,1.822,0,3.644,0,5.466,0,.64-.118.792-.728.963a.76.76,0,0,1-.647-.842c.006-1.872-.009-3.744.006-5.615A2.691,2.691,0,0,1,89.407,1.5c.2.1.3.156.451-.1A2.668,2.668,0,0,1,92.886.091a2.7,2.7,0,0,1,2.031,2.651c0,.121,0,.243,0,.419a2.979,2.979,0,0,1,2.346-.121,2.788,2.788,0,0,1,1.586,1.67,2.718,2.718,0,0,1,3.269.305,2.616,2.616,0,0,1,.9,2.021c.011.624.006,1.248,0,1.872,0,.558-.156.741-.714.88" transform="translate(-69.806 0)" fill="#040303"/>
        <path id="Trazado_658900" data-name="Trazado 658900" d="M85.46,118.087c0-4.4-.026-8.8.008-13.2a1.64,1.64,0,0,0-.844-1.6,6.1,6.1,0,0,1-2.5-2.773,5.865,5.865,0,0,1-.507-2.347q-.016-4.227,0-8.453a1.354,1.354,0,0,1,1.718-1.444,4.432,4.432,0,0,0-.373,2.12c.013,2.481,0,4.961.005,7.442a7.082,7.082,0,0,0,1.466,4.541,6.719,6.719,0,0,0,1.418,1.342,2.082,2.082,0,0,1,.971,1.877c-.038,2.8.006,5.6-.023,8.4a2.187,2.187,0,0,0,2.261,2.292c2.114-.069,4.232-.019,6.347-.019q0,.909,0,1.818l-9.952.01" transform="translate(-66.66 -72.053)" fill="#c9897a"/>
        <path id="Trazado_658901" data-name="Trazado 658901" d="M156.923,96.382q0-.909,0-1.818c.008-.182.022-.364.022-.546,0-3.716.009-7.432-.007-11.147a1.5,1.5,0,0,1,.771-1.433,4.639,4.639,0,0,0,2.312-4.275c-.016-4.843,0-9.685-.013-14.528,0-.512.144-.858.665-.983.607.195.712.34.716.977q.008,1.248.017,2.5c-.006,2.034-.016,4.068-.016,6.1,0,1.867.011,3.734.016,5.6a7.077,7.077,0,0,1-.859,3.736,8.125,8.125,0,0,1-1.621,1.745.919.919,0,0,0-.618,1.006c.024,4.18.013,8.359.013,12.539,0,.106,0,.213,0,.319-.007.565-.181.828-.583.883s-.639-.136-.813-.675" transform="translate(-128.172 -50.359)" fill="#040303"/>
        <path id="Trazado_658902" data-name="Trazado 658902" d="M3.656,152.161c.591-.147.727-.312.728-.9,0-.939-.009-1.878,0-2.817a1,1,0,0,1,1.089-1.055q0,3.789,0,7.577a5.114,5.114,0,0,0,2.29,4.278,1.822,1.822,0,0,1,.926,1.731c-.066.847.018,1.7-.023,2.555a1.957,1.957,0,0,0,2.089,2.07l5.616,0q.011.44.022.881c-.744.01-1.487.029-2.231.03q-3.28,0-6.56-.008c0-1.582,0-3.163-.007-4.745s.192-1.215-1.091-2.138a4.959,4.959,0,0,1-2-2.9,9.364,9.364,0,0,1-.128-2.18c-.008-.556-.175-.75-.731-.85q0-.764,0-1.527" transform="translate(-2.984 -120.385)" fill="#f2cfa7"/>
        <path id="Trazado_658903" data-name="Trazado 658903" d="M167.862,166.634a8.117,8.117,0,0,0,1.621-1.745c.174.119.114.3.115.461,0,1.126-.008,2.252,0,3.378a5.667,5.667,0,0,0,2.607,4.919,1.443,1.443,0,0,1,.683,1.3c-.006,1.126.041,2.254-.014,3.378a1.3,1.3,0,0,0,1.469,1.476q3.128-.007,6.256,0a2.41,2.41,0,0,1,0,.832,1.6,1.6,0,0,1-.582.084q-4.092-.006-8.184,0c0-1.765-.024-3.531,0-5.3a1.176,1.176,0,0,0-.576-1.14,6.864,6.864,0,0,1-1.324-1.042c-.411-.427-.662-.443-1.148-.107a.7.7,0,0,0-.158-.413,5.639,5.639,0,0,1-.763-2.853c0-1.076,0-2.151,0-3.226" transform="translate(-137.111 -134.682)" fill="#f2cbbe"/>
        <path id="Trazado_658904" data-name="Trazado 658904" d="M88.983,22c.61-.171.728-.323.729-.963,0-1.822-.007-3.644,0-5.466a1.283,1.283,0,0,1,1.555-1.333,6.566,6.566,0,0,0-.184,2.205c0,2.871.007,5.742-.008,8.613,0,.479.015.892.5,1.15.317.168.414.593.776.727.02.44-.048.917.471,1.153a31.816,31.816,0,0,1,.086,3.411l-1.135.475c0-.8-.023-1.554,0-2.31a2.875,2.875,0,0,0-1.9-3.139c-.2-.076-.171-.219-.172-.366,0-.594,0-1.188,0-1.782,0-.557-.178-.754-.732-.852q0-.762,0-1.524" transform="translate(-72.679 -11.621)" fill="#ca8a7b"/>
        <path id="Trazado_658905" data-name="Trazado 658905" d="M181.327,91.067c-.006-1.867-.016-3.734-.016-5.6,0-2.034.01-4.068.016-6.1A1.858,1.858,0,0,1,182.5,79.1a5.191,5.191,0,0,0-.18.888q0,4.592,0,9.185a.447.447,0,0,0,.179.435c.287.2.553.424.827.638.007.24.018.479.021.719.01.623.179.819.8.921q0,1.279,0,2.559a3.532,3.532,0,0,0-1.824,1.026c0-.975,0-1.95-.007-2.925a1.463,1.463,0,0,0-.995-1.476" transform="translate(-148.096 -64.596)" fill="#f6cec0"/>
        <path id="Trazado_658906" data-name="Trazado 658906" d="M73.138,192.892q-.011-.44-.022-.881c.01-1.537.035-3.074.021-4.611a1.344,1.344,0,0,1,.505-1.194,1.913,1.913,0,0,0,.768-1.738c-.068-1.306-.018-2.618-.019-3.928a.7.7,0,0,1,.536-.793.658.658,0,0,1,.834.7c.016,1.05.016,2.1.023,3.15a5.967,5.967,0,0,0-.008,1,2.608,2.608,0,0,1-.965,2.383.889.889,0,0,0-.292.719c.012,1.644,0,3.288.007,4.932,0,.375-.073.706-.478.84s-.722-.063-.91-.583" transform="translate(-59.722 -146.799)" fill="#050505"/>
        <path id="Trazado_658907" data-name="Trazado 658907" d="M.67,181.791c.557.1.724.294.731.85a9.374,9.374,0,0,0,.128,2.18,4.957,4.957,0,0,0,2,2.9c1.284.923,1.08.542,1.091,2.138s0,3.164.006,4.745a.655.655,0,0,1-.787.579c-.443-.062-.59-.383-.59-.79,0-1.612-.006-3.225,0-4.837A.58.58,0,0,0,2.966,189a6.61,6.61,0,0,1-2.934-6.541.693.693,0,0,1,.637-.664" transform="translate(0 -148.488)" fill="#040303"/>
        <path id="Trazado_658908" data-name="Trazado 658908" d="M172.27,208.813c.486-.336.738-.32,1.148.107a6.871,6.871,0,0,0,1.324,1.042,1.175,1.175,0,0,1,.576,1.14c-.019,1.765,0,3.531,0,5.3-.129.5-.359.707-.759.673s-.627-.324-.629-.849c0-1.548-.015-3.1.008-4.645a.807.807,0,0,0-.431-.807,5.8,5.8,0,0,1-1.082-.9.772.772,0,0,1-.16-1.059" transform="translate(-140.594 -170.368)" fill="#050505"/>
        <path id="Trazado_658909" data-name="Trazado 658909" d="M187.841,90.305c-.275-.214-.54-.442-.827-.638a.446.446,0,0,1-.179-.435q0-4.593,0-9.185a5.178,5.178,0,0,1,.18-.888l.485.1c-.431.491-.429.741.022,1.2a1.009,1.009,0,0,1,.338.72q-.009,4.561-.019,9.123" transform="translate(-152.607 -64.658)" fill="#f7decf"/>
        <path id="Trazado_658910" data-name="Trazado 658910" d="M70.331,97.1v7.951c-.876.242-.822.4-.822-.652q0-3.105,0-6.211a1.877,1.877,0,0,1,.827-1.087" transform="translate(-56.771 -79.31)" fill="#f4d1a9"/>
        <path id="Trazado_658911" data-name="Trazado 658911" d="M115.018,22.094c-.007-.942-.019-1.883-.02-2.825q0-5.039,0-10.077a1.3,1.3,0,0,1,1.546-1.446A7.54,7.54,0,0,0,116.361,10q0,5.133,0,10.266a1.837,1.837,0,0,1-1.342,1.826" transform="translate(-93.93 -6.316)" fill="#c9897a"/>
        <path id="Trazado_658912" data-name="Trazado 658912" d="M137.095,34.849c0-3.408-.019-6.816-.008-10.223a1.274,1.274,0,0,1,1.431-1.388q0,4.583,0,9.166a3.776,3.776,0,0,1-.169,1.205,2.03,2.03,0,0,1-1.25,1.241" transform="translate(-111.97 -18.978)" fill="#c9897a"/>
        <path id="Trazado_658913" data-name="Trazado 658913" d="M159.255,41.271c-.009-.959-.025-1.917-.027-2.876,0-1.935-.009-3.869,0-5.8a1.263,1.263,0,0,1,1.394-1.376q0,4.022,0,8.045a2.227,2.227,0,0,1-.834,1.795.754.754,0,0,1-.535.216" transform="translate(-130.056 -25.496)" fill="#ca8a7b"/>
        <path id="Trazado_658914" data-name="Trazado 658914" d="M19.138,95.234c.007.21.016.421.019.631.008.622.186.824.808.916a23.1,23.1,0,0,1,.093,2.555,3.784,3.784,0,0,0-1.186.429c0-.68-.02-1.292,0-1.9A2.469,2.469,0,0,0,17.3,95.252c-.178-.075-.169-.184-.169-.319,0-2.951-.005-5.9.005-8.852a.956.956,0,0,1,1.088-1q0,4.479,0,8.959c0,.194-.043.4.141.551.258.211.512.427.768.64" transform="translate(-13.995 -69.497)" fill="#f4d1a9"/>
        <path id="Trazado_658915" data-name="Trazado 658915" d="M35.69,90.774q-.01-3.014-.02-6.028c0-1.34-.007-2.68,0-4.02a.981.981,0,0,1,1.079-1.109q0,4.753,0,9.506a1.645,1.645,0,0,1-1.058,1.651" transform="translate(-29.133 -65.031)" fill="#f2cfa7"/>
        <path id="Trazado_658916" data-name="Trazado 658916" d="M54.3,101.4c-.011-.819-.028-1.637-.031-2.456q-.007-2.574,0-5.149c0-.791.354-1.169,1.058-1.172,0,2.369-.013,4.739,0,7.108A1.744,1.744,0,0,1,54.3,101.4" transform="translate(-44.321 -75.656)" fill="#ebc9a2"/>
        <path id="Trazado_658917" data-name="Trazado 658917" d="M26.476,171.888a1.522,1.522,0,0,1,.758-1.438,1.365,1.365,0,0,1,1.635.024,1.53,1.53,0,0,0,2.315,0,1.49,1.49,0,0,1,2.022.285,1.555,1.555,0,0,1,.02,2.053c-.892.958-1.83,1.874-2.762,2.794a.58.58,0,0,1-.893-.025q-1.359-1.355-2.7-2.723a1.343,1.343,0,0,1-.389-.972" transform="translate(-21.626 -139.012)" fill="#dd7881"/>
        <path id="Trazado_658918" data-name="Trazado 658918" d="M24,95.235c-.256-.214-.51-.429-.768-.64-.184-.151-.141-.357-.141-.551q0-4.479,0-8.959c.634.075.926.415.928,1.113q.006,3.218,0,6.437c0,.867-.012,1.734-.019,2.6" transform="translate(-18.861 -69.498)" fill="#f9e3c5"/>
        <path id="Trazado_658919" data-name="Trazado 658919" d="M177.572,91.5a1.463,1.463,0,0,1,.995,1.476c.008.975.005,1.95.007,2.925a3,3,0,0,0,.109,3.933c.925.948,1.848,1.9,2.8,2.814a1.908,1.908,0,0,0,2.685.014c.967-.926,1.925-1.865,2.833-2.848a2.935,2.935,0,0,0-.334-4.3,2.983,2.983,0,0,0-3.53-.136c-.133.086-.245.281-.466.1a3.146,3.146,0,0,0-2.278-.609q0-1.279,0-2.559a.806.806,0,0,0,.578-.91,7.124,7.124,0,0,1,.018-.726,1.815,1.815,0,0,0,1.048-1.809q0-4.629,0-9.259a.925.925,0,0,1,.942.858,4.006,4.006,0,0,1,.024.545q0,5.015,0,10.03c0,.106,0,.213,0,.319.006.605.251.939.689.935s.679-.34.688-.943c0-.257.018-.514.027-.772a1.472,1.472,0,0,0,1.011-1.508q.005-3.54,0-7.08a.982.982,0,0,1,.988,1.111c.009,1.323,0,2.646,0,3.968,0,1.46,0,2.919,0,4.379,0,.53.263.847.681.845s.679-.327.692-.85q.01-.432.021-.865a1.391,1.391,0,0,0,1-1.4q.01-2.987.012-5.974a.985.985,0,0,1,.992,1.073c0,5.636.01,11.271-.008,16.907a4.317,4.317,0,0,1-1.516,3.3,1.21,1.21,0,0,0-.431,1c.007,1.552-.013,3.1-.023,4.657q-3.128,0-6.256,0a1.3,1.3,0,0,1-1.469-1.476c.055-1.123.008-2.251.014-3.378a1.443,1.443,0,0,0-.683-1.3,5.667,5.667,0,0,1-2.607-4.919c-.013-1.126,0-2.252,0-3.378,0-.159.059-.341-.115-.461a7.074,7.074,0,0,0,.859-3.736" transform="translate(-144.34 -65.024)" fill="#f7decf"/>
        <path id="Trazado_658920" data-name="Trazado 658920" d="M201.005,79.608q0,4.629,0,9.259a1.815,1.815,0,0,1-1.049,1.809c-.008-1.217-.021-2.433-.023-3.65q-.006-3.128,0-6.255c0-.78.364-1.161,1.072-1.162" transform="translate(-163.303 -65.024)" fill="#eec8ba"/>
        <path id="Trazado_658921" data-name="Trazado 658921" d="M219.622,92.626q0,3.54,0,7.08a1.472,1.472,0,0,1-1.011,1.507c-.009-1.11-.023-2.221-.027-3.331,0-1.386-.008-2.771,0-4.157a.959.959,0,0,1,1.037-1.1" transform="translate(-178.536 -75.658)" fill="#f6cec0"/>
        <path id="Trazado_658922" data-name="Trazado 658922" d="M238.25,99.268q-.005,2.987-.012,5.974a1.391,1.391,0,0,1-1,1.4c-.005-2.145-.02-4.29-.01-6.436,0-.562.388-.882,1.017-.936" transform="translate(-193.771 -81.083)" fill="#f6cec0"/>
        <path id="Trazado_658923" data-name="Trazado 658923" d="M112.665,117.389a2.009,2.009,0,0,1-.557,1.515c-1.036,1.051-2.073,2.1-3.121,3.141a.869.869,0,0,1-1.362,0c-1.037-1.029-2.073-2.059-3.093-3.1a2.007,2.007,0,0,1-.126-2.735,1.963,1.963,0,0,1,2.71-.338c1.089.821,1.287.853,2.407-.02a1.83,1.83,0,0,1,2.108-.1,1.886,1.886,0,0,1,1.034,1.645" transform="translate(-84.889 -94.31)" fill="#dd7881"/>
        <path id="Trazado_658924" data-name="Trazado 658924" d="M101.723,27c-.362-.134-.459-.56-.776-.727-.489-.258-.507-.672-.5-1.15.015-2.871.006-5.742.008-8.613a6.557,6.557,0,0,1,.184-2.205,1.248,1.248,0,0,1,1.1,1.25q.008,5.723-.007,11.446" transform="translate(-82.042 -11.684)" fill="#de9e8f"/>
        <path id="Trazado_658925" data-name="Trazado 658925" d="M185.668,162.865a3.146,3.146,0,0,1,2.278.609c.221.177.333-.018.466-.1a2.983,2.983,0,0,1,3.53.136,2.935,2.935,0,0,1,.334,4.3c-.909.983-1.866,1.922-2.834,2.848a1.908,1.908,0,0,1-2.685-.014c-.956-.916-1.879-1.866-2.8-2.814a3,3,0,0,1-.109-3.933,3.534,3.534,0,0,1,1.824-1.026m-1.117,3.071a1.252,1.252,0,0,0,.356.89q1.371,1.408,2.768,2.79a.548.548,0,0,0,.822.034c.966-.95,1.94-1.9,2.852-2.9a1.508,1.508,0,0,0-.091-2.009,1.484,1.484,0,0,0-1.989-.266,1.529,1.529,0,0,1-2.315.008,1.365,1.365,0,0,0-1.635-.034,1.554,1.554,0,0,0-.768,1.483" transform="translate(-149.611 -133.019)" fill="#040303"/>
        <path id="Trazado_658926" data-name="Trazado 658926" d="M190.727,171.932a1.554,1.554,0,0,1,.768-1.483,1.365,1.365,0,0,1,1.635.034,1.529,1.529,0,0,0,2.315-.008,1.484,1.484,0,0,1,1.989.266,1.508,1.508,0,0,1,.091,2.009c-.912,1-1.886,1.947-2.852,2.9a.548.548,0,0,1-.822-.034q-1.393-1.385-2.768-2.79a1.252,1.252,0,0,1-.356-.89" transform="translate(-155.786 -139.016)" fill="#dd7881"/>
      </g>
    </g>
  </g>
</svg>
