<svg xmlns="http://www.w3.org/2000/svg" xmlns:xlink="http://www.w3.org/1999/xlink" width="79" height="79" viewBox="0 0 79 79">
  <defs>
    <clipPath id="clip-path">
      <rect id="Rectángulo_312959" data-name="Rectángulo 312959" width="53.473" height="53.461" fill="none"/>
    </clipPath>
  </defs>
  <g id="i6" transform="translate(-1000 -3681)">
    <circle id="Elipse_8218" data-name="Elipse 8218" cx="39.5" cy="39.5" r="39.5" transform="translate(1000 3681)" fill="#fd7e7e"/>
    <g id="Grupo_996109" data-name="Grupo 996109" transform="translate(1013 3694)">
      <g id="Grupo_996108" data-name="Grupo 996108" clip-path="url(#clip-path)">
        <path id="Trazado_658927" data-name="Trazado 658927" d="M50.964,17.536c.722-.064.917.064,1.141.759a26.6,26.6,0,0,1-.366,17.871,1.167,1.167,0,0,0-.022.842A12.2,12.2,0,0,1,50.6,47.523c-.309.526-.553.6-1.176.416-.458-.49-.478-.694-.1-1.335a10.475,10.475,0,0,0,1.394-7.211A10.812,10.812,0,1,0,46.7,49.587c.6-.459.781-.474,1.341-.113.295.64.258.863-.313,1.291a12.212,12.212,0,0,1-12.532,1.689,1.422,1.422,0,0,0-.993-.066A26.727,26.727,0,1,1,50.41,14.313c.336.638.306.838-.2,1.322-.751.121-.848.06-1.326-.834A25.192,25.192,0,0,0,21.924,2.036,24.333,24.333,0,0,0,9.1,8.837,24.544,24.544,0,0,0,2.087,31.606,23.877,23.877,0,0,0,10.536,45.94a24.623,24.623,0,0,0,19.654,5.7,16.675,16.675,0,0,0,2.617-.508,12.888,12.888,0,0,1-1.5-1.3.429.429,0,0,0-.421-.13c-.684.106-1.369.209-2.054.313-.243,0-.487,0-.729.014a22.64,22.64,0,0,1-5.762-.361,23.356,23.356,0,0,1-13.52-37.9.881.881,0,0,1,1.232-.271c.41.582.392.77-.135,1.415a21.344,21.344,0,0,0-4.86,11.866,21.294,21.294,0,0,0,3.6,14.053A20.416,20.416,0,0,0,14.505,44.7a.35.35,0,0,0,.243.171.065.065,0,0,0,.073.035.333.333,0,0,0,.064.078A21.679,21.679,0,0,0,29.6,48.332c.362-.043.29-.177.144-.392a11.939,11.939,0,0,1-1.43-2.881,12.651,12.651,0,0,1-.656-4.146c.005-2.293-.019-4.586-.031-6.879.01-.485.037-.971.025-1.455a.92.92,0,0,0-.907-1,.929.929,0,0,0-.9,1.008c-.009,1.909.008,3.818.015,5.726q-.017,2.456-.033,4.913a2.482,2.482,0,0,1-4.921-.59q0-9.678,0-19.355v-.618c-.217.123-.365.2-.511.289q-1.782,1.027-3.564,2.057a2.616,2.616,0,0,1-1.634.42,2.486,2.486,0,0,1-2.2-1.926,2.454,2.454,0,0,1,1.193-2.671c2.068-1.21,4.146-2.4,6.225-3.593a4.966,4.966,0,0,1,2.289-.628c.106,0,.242.068.321-.074A5,5,0,0,1,29.752,9.2a4.851,4.851,0,0,1,1.877,2.917A5.072,5.072,0,0,1,30.4,16.623a5.75,5.75,0,0,1,3.409,1.026c.589.367,1.2.7,1.8,1.044,1.247.722,2.5,1.428,3.737,2.172A2.437,2.437,0,0,1,40.5,23.509a2.474,2.474,0,0,1-2.2,1.923,2.563,2.563,0,0,1-1.588-.4c-1.346-.783-2.7-1.557-4.1-2.367v8.425q7.865-5.053,15.376.414a21.673,21.673,0,0,0-.295-10.738,19.629,19.629,0,0,0-2.773-5.96.064.064,0,0,0-.035-.073.355.355,0,0,0-.171-.243c-.052-.089-.1-.183-.156-.267a21.77,21.77,0,0,0-20.8-9.057A21.363,21.363,0,0,0,12.8,10.005c-.524.434-.737.428-1.293.037a.859.859,0,0,1,.232-1.2A23,23,0,0,1,28.943,3.5a22.575,22.575,0,0,1,14.994,7.455,22.826,22.826,0,0,1,6.1,14.326,28.916,28.916,0,0,1-.251,5.407c-.154.652-.3,1.305-.464,1.956a.353.353,0,0,0,.067.334c.41.525.813,1.055,1.244,1.617a15.182,15.182,0,0,0,.663-2.528,1.962,1.962,0,0,0,.081-.241A25.128,25.128,0,0,0,50.619,18.8a.945.945,0,0,1,.345-1.265M31.008,29.969c.006-.121.017-.243.017-.364q0-4.044,0-8.088c0-.459.105-.827.6-.965a.983.983,0,0,1,.784.188q2.546,1.473,5.1,2.942a.919.919,0,0,0,1.358-.26.907.907,0,0,0-.463-1.3q-2.948-1.715-5.9-3.417a3.708,3.708,0,0,0-1.885-.518q-3.862,0-7.724,0a3.272,3.272,0,0,0-1.652.4q-3.119,1.782-6.23,3.58a.876.876,0,0,0-.476.649.862.862,0,0,0,.339.875.938.938,0,0,0,1.119,0c1.652-.956,3.328-1.875,4.95-2.881.9-.559,1.557-.164,1.551.917-.04,6.87-.02,13.741-.02,20.612a3.3,3.3,0,0,0,.016.573.887.887,0,0,0,.783.794.855.855,0,0,0,.9-.484,1.376,1.376,0,0,0,.095-.714q0-4.827,0-9.654a3.489,3.489,0,0,1,.145-1.131A2.469,2.469,0,0,1,26.675,30a2.535,2.535,0,0,1,2.414,1.661,24.3,24.3,0,0,1,.179,3.28,13.132,13.132,0,0,1,1.625-2.2.5.5,0,0,0,.133-.377c-.01-.8-.013-1.6-.019-2.4M26.739,16.612a3.433,3.433,0,1,0-3.43-3.409,3.442,3.442,0,0,0,3.43,3.409" transform="translate(0 0)" fill="#030304"/>
        <path id="Trazado_658928" data-name="Trazado 658928" d="M55.847,36.58a28.934,28.934,0,0,0,.251-5.407,22.829,22.829,0,0,0-6.1-14.326A22.574,22.574,0,0,0,35,9.392a23,23,0,0,0-17.2,5.345.859.859,0,0,0-.232,1.2,16,16,0,0,1-1.455,1.455.881.881,0,0,0-1.231.271,23.356,23.356,0,0,0,13.52,37.9,22.63,22.63,0,0,0,5.762.361c.242-.017.486-.01.729-.014a16.27,16.27,0,0,1,1.355,1.624,24.622,24.622,0,0,1-19.653-5.7A23.876,23.876,0,0,1,8.144,37.5a24.544,24.544,0,0,1,7.013-22.77,24.334,24.334,0,0,1,12.824-6.8A25.192,25.192,0,0,1,54.946,20.691c.478.894.574.955,1.326.834a18.729,18.729,0,0,1,.748,1.9.945.945,0,0,0-.345,1.265,25.131,25.131,0,0,1,.761,13.027,2.011,2.011,0,0,1-.081.241L55.847,36.58" transform="translate(-6.057 -5.89)" fill="#d4eaf7"/>
        <path id="Trazado_658929" data-name="Trazado 658929" d="M158.5,163.962c-.56-.362-.745-.346-1.341.113a10.81,10.81,0,1,1,4.016-10.193,10.475,10.475,0,0,1-1.394,7.211c-.377.641-.357.845.1,1.335l-1.381,1.535m-15.344-3.476a.8.8,0,0,0,.277.6c.5.5,1.01,1.006,1.51,1.513a.815.815,0,0,0,1.124.141c.53-.331,1.072-.643,1.6-.983.278-.181.392-.1.459.194.132.592.292,1.179.418,1.772a.866.866,0,0,0,.966.751c.661,0,1.321.006,1.982,0,.6-.009.822-.2.97-.8.141-.573.283-1.145.409-1.721.069-.315.2-.361.468-.187.495.321,1,.625,1.506.931a.833.833,0,0,0,1.251-.133q.709-.692,1.4-1.4a.836.836,0,0,0,.128-1.253c-.3-.506-.605-1.014-.93-1.507-.185-.281-.1-.4.193-.464.575-.13,1.144-.288,1.722-.4a.882.882,0,0,0,.8-.98c-.005-.66,0-1.321,0-1.982a.866.866,0,0,0-.753-.964c-.594-.125-1.18-.286-1.772-.42-.3-.068-.372-.184-.191-.46.324-.493.626-1,.931-1.506a.831.831,0,0,0-.13-1.25q-.693-.708-1.4-1.4a.832.832,0,0,0-1.248-.132c-.49.3-.979.6-1.459.907-.291.188-.451.186-.526-.21-.113-.6-.273-1.183-.414-1.773a.826.826,0,0,0-.895-.7c-.7,0-1.391.005-2.086,0a.837.837,0,0,0-.917.737c-.119.542-.273,1.077-.379,1.621-.082.422-.2.586-.625.282-.465-.332-.975-.6-1.46-.905a.812.812,0,0,0-1.126.126c-.489.495-.977.99-1.477,1.474a.85.85,0,0,0-.12,1.211c.313.479.586.985.908,1.458.227.334.157.475-.224.555-.594.124-1.181.28-1.773.415a.791.791,0,0,0-.676.855c0,.713,0,1.425,0,2.138a.819.819,0,0,0,.71.885c.558.128,1.107.3,1.671.393.527.083.488.278.243.638-.311.459-.582.946-.874,1.418a.9.9,0,0,0-.185.531" transform="translate(-110.458 -114.488)" fill="#f0df77"/>
        <path id="Trazado_658930" data-name="Trazado 658930" d="M28.848,30.236A16.029,16.029,0,0,0,30.3,28.781c.555.391.769.4,1.293-.037a21.77,21.77,0,0,1,31.752,4.219c.059.084.1.178.156.267-.014.131.027.223.171.243a.065.065,0,0,1,.035.073,1,1,0,0,0,.1.555,22.768,22.768,0,0,1,1.87,8.874c.018.724-.058,1.452-.1,2.177a7.431,7.431,0,0,1-.1.769c-.108.644-.692.837-1.491.521A14.154,14.154,0,0,0,51.4,47.555V41.406c1.4.809,2.754,1.584,4.1,2.367a2.563,2.563,0,0,0,1.588.4,2.474,2.474,0,0,0,2.2-1.924A2.437,2.437,0,0,0,58.144,39.6c-1.234-.744-2.49-1.45-3.737-2.172-.6-.348-1.213-.677-1.8-1.044A5.749,5.749,0,0,0,49.2,35.362a5.072,5.072,0,0,0,1.226-4.508,4.851,4.851,0,0,0-1.877-2.916,5,5,0,0,0-6.734,7.34c-.078.142-.215.069-.321.074a4.967,4.967,0,0,0-2.289.628c-2.079,1.191-4.157,2.383-6.225,3.593a2.454,2.454,0,0,0-1.193,2.671,2.486,2.486,0,0,0,2.2,1.926,2.616,2.616,0,0,0,1.634-.421q1.779-1.033,3.564-2.057c.146-.084.294-.166.511-.289v.618q0,9.678,0,19.355a2.482,2.482,0,0,0,4.921.59c.219.866.4,1.741.684,2.591a.824.824,0,0,1-.629.938,9.126,9.126,0,0,1-1.183.114,24.748,24.748,0,0,1-2.993-.194,20.931,20.931,0,0,1-6.328-1.68,1.015,1.015,0,0,0-.554-.095.065.065,0,0,1-.072-.035c-.019-.145-.112-.185-.243-.172a20.418,20.418,0,0,1-5.849-5.864,21.751,21.751,0,0,1,1.265-25.919c.527-.645.545-.833.135-1.415" transform="translate(-18.792 -18.739)" fill="#89b5f4"/>
        <path id="Trazado_658931" data-name="Trazado 658931" d="M83.982,100.424a2.535,2.535,0,0,0-2.414-1.661,2.469,2.469,0,0,0-2.264,1.712,3.484,3.484,0,0,0-.145,1.131q0,4.827,0,9.654a1.379,1.379,0,0,1-.095.714.855.855,0,0,1-.9.484.887.887,0,0,1-.783-.793,3.285,3.285,0,0,1-.016-.573c0-6.871-.02-13.742.02-20.612.006-1.08-.651-1.475-1.551-.917-1.622,1.006-3.3,1.925-4.95,2.881a.938.938,0,0,1-1.119,0,.862.862,0,0,1-.339-.874.876.876,0,0,1,.476-.649q3.112-1.795,6.23-3.58a3.272,3.272,0,0,1,1.652-.4q3.862,0,7.724,0a3.708,3.708,0,0,1,1.885.518q2.953,1.706,5.9,3.417a.907.907,0,0,1,.463,1.3.919.919,0,0,1-1.358.26q-2.552-1.463-5.1-2.942a.983.983,0,0,0-.784-.188c-.5.139-.6.506-.6.965q.009,4.044,0,8.088c0,.122-.011.243-.017.364-.728.465-1.218,1.2-1.918,1.7" transform="translate(-54.892 -68.758)" fill="#d6ecf9"/>
        <path id="Trazado_658932" data-name="Trazado 658932" d="M155.922,84.815A14.154,14.154,0,0,1,168.5,83.7c.8.316,1.383.122,1.491-.521a7.429,7.429,0,0,0,.1-.769c.045-.725.121-1.453.1-2.177a22.772,22.772,0,0,0-1.87-8.874,1,1,0,0,1-.1-.555A19.639,19.639,0,0,1,171,76.767,21.673,21.673,0,0,1,171.3,87.5q-7.527-5.452-15.376-.414Z" transform="translate(-123.313 -55.999)" fill="#6fa2f1"/>
        <path id="Trazado_658933" data-name="Trazado 658933" d="M70.867,173.606a1.012,1.012,0,0,1,.553.095,20.937,20.937,0,0,0,6.328,1.68,24.751,24.751,0,0,0,2.992.194,9.16,9.16,0,0,0,1.183-.114.825.825,0,0,0,.629-.938c-.287-.85-.465-1.725-.684-2.591q.017-2.456.033-4.913a10.145,10.145,0,0,0,.566-1.732,9.124,9.124,0,0,1,1.206-2.549c.012,2.293.036,4.586.031,6.879a12.655,12.655,0,0,0,.655,4.146,11.945,11.945,0,0,0,1.43,2.881c.146.215.218.349-.144.392a21.679,21.679,0,0,1-14.716-3.351.328.328,0,0,1-.064-.078" transform="translate(-56.046 -128.704)" fill="#6da0ed"/>
        <path id="Trazado_658934" data-name="Trazado 658934" d="M114.886,53.465a3.433,3.433,0,1,1,3.444-3.448,3.441,3.441,0,0,1-3.444,3.448" transform="translate(-88.146 -36.853)" fill="#d5ebf8"/>
        <path id="Trazado_658935" data-name="Trazado 658935" d="M125.341,153.463a9.124,9.124,0,0,0-1.206,2.549,10.12,10.12,0,0,1-.566,1.732c-.007-1.909-.024-3.818-.015-5.726a.929.929,0,0,1,.9-1.008.919.919,0,0,1,.907,1c.012.485-.015.97-.025,1.455" transform="translate(-97.713 -119.429)" fill="#89b5f4"/>
        <path id="Trazado_658936" data-name="Trazado 658936" d="M139.094,145c.7-.5,1.19-1.232,1.918-1.7.006.8.01,1.6.019,2.4a.5.5,0,0,1-.133.377,13.128,13.128,0,0,0-1.625,2.2,24.3,24.3,0,0,0-.179-3.28" transform="translate(-110.005 -113.331)" fill="#bae1f5"/>
        <path id="Trazado_658937" data-name="Trazado 658937" d="M139.229,239.545a16.247,16.247,0,0,0-1.355-1.624c.684-.1,1.369-.206,2.053-.313a.43.43,0,0,1,.421.13,12.907,12.907,0,0,0,1.5,1.3,16.652,16.652,0,0,1-2.617.508" transform="translate(-109.04 -187.909)" fill="#b8dff2"/>
        <path id="Trazado_658938" data-name="Trazado 658938" d="M236.264,146.745l1.509,1.379a15.2,15.2,0,0,1-.663,2.528c-.431-.562-.834-1.092-1.244-1.617a.353.353,0,0,1-.067-.334c.159-.651.31-1.3.464-1.956" transform="translate(-186.474 -116.055)" fill="#b8dff2"/>
        <path id="Trazado_658939" data-name="Trazado 658939" d="M213.949,69.537c-.144-.02-.184-.113-.171-.243a.354.354,0,0,1,.171.243" transform="translate(-169.068 -54.802)" fill="#6fa2f1"/>
        <path id="Trazado_658940" data-name="Trazado 658940" d="M69.358,213.708c.131-.014.224.027.243.172a.35.35,0,0,1-.243-.172" transform="translate(-54.853 -169.012)" fill="#6da0ed"/>
        <path id="Trazado_658941" data-name="Trazado 658941" d="M150.421,167.637a.9.9,0,0,1,.185-.531c.292-.472.563-.959.874-1.418.245-.361.283-.556-.243-.638-.564-.089-1.113-.265-1.671-.393a.819.819,0,0,1-.71-.885c0-.713,0-1.425,0-2.138a.791.791,0,0,1,.676-.855c.592-.135,1.179-.291,1.773-.415.381-.08.451-.221.224-.555-.322-.473-.595-.979-.908-1.458a.85.85,0,0,1,.12-1.211c.5-.484.988-.979,1.477-1.474a.812.812,0,0,1,1.126-.126c.484.306,1,.573,1.46.905.424.3.543.139.625-.282.106-.544.26-1.079.379-1.621a.836.836,0,0,1,.917-.737q1.043.009,2.086,0a.826.826,0,0,1,.895.7c.141.591.3,1.177.414,1.773.075.4.235.4.526.21.481-.311.97-.61,1.459-.907a.832.832,0,0,1,1.248.132q.708.693,1.4,1.4a.831.831,0,0,1,.13,1.25c-.3.505-.607,1.013-.931,1.506-.182.276-.108.393.191.46.592.134,1.178.295,1.772.42a.866.866,0,0,1,.753.963c0,.661,0,1.321,0,1.982a.883.883,0,0,1-.8.98c-.578.114-1.147.273-1.722.4-.3.067-.378.183-.193.464.325.493.625,1,.93,1.507a.836.836,0,0,1-.128,1.253q-.692.709-1.4,1.4a.833.833,0,0,1-1.251.133c-.5-.306-1.011-.609-1.506-.931-.268-.174-.4-.128-.468.187-.126.576-.268,1.149-.409,1.721-.148.6-.372.794-.97.8-.661.009-1.321,0-1.982,0a.866.866,0,0,1-.966-.751c-.126-.594-.286-1.18-.418-1.772-.066-.3-.18-.375-.459-.194-.524.34-1.066.652-1.6.983a.814.814,0,0,1-1.124-.141c-.5-.508-1.006-1.009-1.511-1.514a.8.8,0,0,1-.276-.6m6.379.564c.112.507.246,1.009.329,1.52.069.423.365.339.627.33s.557.118.626-.329a14.812,14.812,0,0,1,.364-1.515,1.659,1.659,0,0,1,2.23-.9c.432.257.875.5,1.28.8.382.279.514-.052.718-.229s.411-.35.167-.684a14.481,14.481,0,0,1-.823-1.325,1.7,1.7,0,0,1,.908-2.157c.52-.135,1.038-.286,1.566-.376.411-.07.312-.353.3-.59s.139-.573-.3-.647-.88-.185-1.32-.279a.74.74,0,0,0-.137-.068,1.634,1.634,0,0,1-.953-2.309c.252-.416.484-.846.77-1.237.262-.358-.028-.5-.213-.672s-.3-.488-.665-.22a15.34,15.34,0,0,1-1.326.823,1.671,1.671,0,0,1-2.2-.9c-.139-.519-.289-1.038-.376-1.567-.063-.386-.32-.309-.541-.29-.253.021-.605-.179-.695.293-.1.528-.231,1.05-.364,1.571a1.708,1.708,0,0,1-2.172.914c-.465-.27-.931-.542-1.37-.851-.4-.281-.5.11-.7.27s-.427.292-.178.626a14.064,14.064,0,0,1,.824,1.325,1.692,1.692,0,0,1-.909,2.2c-.487.127-.974.257-1.469.339-.373.061-.427.272-.383.578.039.272-.157.633.362.7.462.056.908.224,1.368.314a1.275,1.275,0,0,1,.928.8,1.591,1.591,0,0,1-.177,1.917c-.161.2-.256.458-.419.658-.281.344-.248.587.089.9.29.267.488.353.822.093a10.525,10.525,0,0,1,1.015-.633,1.68,1.68,0,0,1,2.391.817" transform="translate(-117.725 -121.639)" fill="#030402"/>
        <path id="Trazado_658942" data-name="Trazado 658942" d="M162.673,174.047a1.68,1.68,0,0,0-2.391-.817,10.659,10.659,0,0,0-1.015.633c-.334.26-.532.175-.822-.093-.337-.311-.37-.554-.089-.9.163-.2.257-.456.419-.658a1.591,1.591,0,0,0,.176-1.917,1.274,1.274,0,0,0-.927-.8c-.459-.09-.906-.258-1.368-.314-.519-.063-.323-.424-.362-.7-.044-.306.009-.516.382-.578.5-.082.983-.213,1.469-.339a1.692,1.692,0,0,0,.909-2.2,14.061,14.061,0,0,0-.824-1.325c-.249-.334-.007-.472.178-.626s.3-.551.7-.27c.439.309.905.58,1.37.851a1.708,1.708,0,0,0,2.172-.914c.134-.521.265-1.043.364-1.57.089-.472.441-.273.695-.294.221-.018.478-.1.541.29.087.529.237,1.048.376,1.567a1.671,1.671,0,0,0,2.2.9,15.258,15.258,0,0,0,1.326-.823c.366-.268.487.051.665.22s.475.314.213.672c-.286.391-.519.821-.77,1.237a1.634,1.634,0,0,0,.953,2.309.738.738,0,0,1,.137.068c-.088.148-.169.3-.266.444a21.135,21.135,0,0,1-4.573,4.839,3.959,3.959,0,0,1-1.84,1.1m1-8.58a3.093,3.093,0,0,0-.073,6.185,3.093,3.093,0,1,0,.073-6.185" transform="translate(-123.598 -127.486)" fill="#9feaac"/>
        <path id="Trazado_658943" data-name="Trazado 658943" d="M186.843,198.481a3.957,3.957,0,0,0,1.84-1.1,21.13,21.13,0,0,0,4.573-4.839c.1-.142.178-.3.266-.444.44.094.877.2,1.32.279s.291.4.3.647.107.52-.3.59c-.528.09-1.046.241-1.566.376a1.7,1.7,0,0,0-.908,2.157,14.481,14.481,0,0,0,.823,1.325c.244.334.047.5-.167.684s-.336.508-.718.229c-.4-.3-.848-.54-1.28-.8a1.659,1.659,0,0,0-2.23.9,14.82,14.82,0,0,0-.364,1.515c-.069.447-.373.32-.626.329s-.558.093-.627-.33c-.083-.511-.217-1.014-.329-1.52" transform="translate(-147.768 -151.92)" fill="#95daa0"/>
        <path id="Trazado_658944" data-name="Trazado 658944" d="M179.781,181.61a3.093,3.093,0,1,1-3.127,3.027,3.085,3.085,0,0,1,3.127-3.027m-.033,1.565a1.527,1.527,0,0,0-.032,3.054,1.527,1.527,0,1,0,.032-3.054" transform="translate(-139.709 -143.629)" fill="#030402"/>
        <path id="Trazado_658945" data-name="Trazado 658945" d="M185.667,189.094a1.527,1.527,0,1,1-1.529,1.51,1.527,1.527,0,0,1,1.529-1.51" transform="translate(-145.628 -149.548)" fill="#f0de77"/>
      </g>
    </g>
  </g>
</svg>
